<svg width="36" height="36" viewBox="0 0 36 36" fill="none" xmlns="http://www.w3.org/2000/svg">
<path fill-rule="evenodd" clip-rule="evenodd" d="M18 26.831C18 28.7199 20.327 29.6924 21.7157 28.4367L30.3745 19.5216C31.2119 18.6862 31.2119 17.3138 30.3633 16.4671L21.7625 7.60842C20.327 6.30758 18 7.28008 18 9.16902V13H11V15H20V9.16902C20 9.04131 20.2519 8.93605 20.3743 9.04674L28.9395 17.8716C29.0161 17.9482 29.0161 18.0518 28.9507 18.1171L20.3275 26.9984C20.2519 27.064 20 26.9587 20 26.831V21H4V23H18V26.831ZM7 19H13V17H7V19Z" fill="black"/>
</svg>
