<svg width="36" height="36" viewBox="0 0 36 36" fill="none" xmlns="http://www.w3.org/2000/svg">
<path fill-rule="evenodd" clip-rule="evenodd" d="M12 27C11.6895 27 11.4121 26.8585 11.2287 26.6365C11.2022 26.6142 11.1764 26.5906 11.1515 26.5656L6.29289 21.7071C5.90237 21.3165 5.90237 20.6834 6.29289 20.2928C6.68342 19.9023 7.31658 19.9023 7.70711 20.2928L11 23.5857V10C11 9.44772 11.4477 9 12 9C12.5523 9 13 9.44772 13 10V23.5857L16.2929 20.2928C16.6834 19.9023 17.3166 19.9023 17.7071 20.2928C18.0976 20.6834 18.0976 21.3165 17.7071 21.7071L12.8485 26.5656C12.8236 26.5906 12.7978 26.6142 12.7713 26.6365C12.5879 26.8585 12.3105 27 12 27ZM24 9C24.3105 9 24.5879 9.1415 24.7713 9.36354C24.7978 9.38582 24.8236 9.40943 24.8485 9.43436L29.7071 14.2929C30.0976 14.6835 30.0976 15.3166 29.7071 15.7071C29.3166 16.0977 28.6834 16.0977 28.2929 15.7071L25 12.4143V26C25 26.5523 24.5523 27 24 27C23.4477 27 23 26.5523 23 26V12.4143L19.7071 15.7071C19.3166 16.0977 18.6834 16.0977 18.2929 15.7071C17.9024 15.3166 17.9024 14.6835 18.2929 14.2929L23.1515 9.43436C23.1764 9.40942 23.2022 9.38582 23.2287 9.36354C23.4121 9.1415 23.6895 9 24 9Z" fill="black"/>
</svg>
