<svg width="36" height="36" viewBox="0 0 36 36" fill="none" xmlns="http://www.w3.org/2000/svg">
<path fill-rule="evenodd" clip-rule="evenodd" d="M27.9945 9.85075C27.9182 8.81596 27.0549 8 26 8H19L18.8834 8.00673C18.386 8.06449 18 8.48716 18 9C18 9.55228 18.4477 10 19 10H26V17L26.0067 17.1166C26.0645 17.614 26.4872 18 27 18C27.5523 18 28 17.5523 28 17V10L27.9945 9.85075ZM9.99327 18.8834C9.93551 18.386 9.51284 18 9 18C8.44772 18 8 18.4477 8 19V26L8.00548 26.1493C8.08179 27.184 8.94514 28 10 28H17L17.1166 27.9933C17.614 27.9355 18 27.5128 18 27C18 26.4477 17.5523 26 17 26H10V19L9.99327 18.8834Z" fill="black"/>
</svg>
