<svg width="36" height="36" viewBox="0 0 36 36" fill="none" xmlns="http://www.w3.org/2000/svg">
<path fill-rule="evenodd" clip-rule="evenodd" d="M28 9C29.6563 9 31 10.3437 31 12V25C31 26.6563 29.6563 28 28 28H8C6.34372 28 5 26.6563 5 25V12C5 10.3437 6.34372 9 8 9H28ZM28 11H8C7.44828 11 7 11.4483 7 12V25C7 25.5517 7.44828 26 8 26H28C28.5517 26 29 25.5517 29 25V12C29 11.4483 28.5517 11 28 11ZM9 15H27V13H9V15ZM18 20.688C19.3176 20.688 20.5149 20.0404 21.2516 19H27V17H20.686C20.3043 17 19.9559 17.2173 19.788 17.56C19.4514 18.2471 18.7659 18.688 18 18.688C17.2341 18.688 16.5486 18.2471 16.212 17.56C16.0441 17.2173 15.6957 17 15.314 17H9V19H14.7484C15.4851 20.0404 16.6824 20.688 18 20.688Z" fill="black"/>
</svg>
