<svg width="36" height="36" viewBox="0 0 36 36" fill="none" xmlns="http://www.w3.org/2000/svg">
<path d="M27.6365 18.7713C27.8585 18.5879 28 18.3105 28 18C28 17.6895 27.8585 17.4121 27.6365 17.2287C27.6142 17.2022 27.5906 17.1764 27.5656 17.1515L22.7071 12.2929C22.3165 11.9024 21.6834 11.9024 21.2928 12.2929C20.9023 12.6834 20.9023 13.3166 21.2928 13.7071L24.5857 17H10C9.44772 17 9 17.4477 9 18C9 18.5523 9.44772 19 10 19H24.5857L21.2928 22.2929C20.9023 22.6834 20.9023 23.3166 21.2928 23.7071C21.6834 24.0976 22.3165 24.0976 22.7071 23.7071L27.5656 18.8485C27.5906 18.8236 27.6142 18.7978 27.6365 18.7713Z" fill="black"/>
</svg>
