<svg width="36" height="36" viewBox="0 0 36 36" fill="none" xmlns="http://www.w3.org/2000/svg">
<path fill-rule="evenodd" clip-rule="evenodd" d="M26 8H30C30.5523 8 31 8.44772 31 9C31 9.55228 30.5523 10 30 10H27V28C27 28.5523 26.5523 29 26 29H10C9.44772 29 9 28.5523 9 28V10H6C5.44772 10 5 9.55228 5 9C5 8.44772 5.44772 8 6 8H10H26ZM25 10H11V27H25V10ZM18 12C20.2093 12 22 13.7907 22 16C22 18.2093 20.2093 20 18 20C15.7907 20 14 18.2093 14 16C14 13.7907 15.7907 12 18 12ZM18 14C16.8953 14 16 14.8953 16 16C16 17.1047 16.8953 18 18 18C19.1047 18 20 17.1047 20 16C20 14.8953 19.1047 14 18 14ZM16.272 22V24H19.728V22H16.272Z" fill="black"/>
</svg>
