<svg width="36" height="36" viewBox="0 0 36 36" fill="none" xmlns="http://www.w3.org/2000/svg">
<path fill-rule="evenodd" clip-rule="evenodd" d="M21.4446 14.5156L19.4875 14.5575C14.7199 14.6596 10.3737 17.8014 8.29249 22.1459C11.3811 20.4397 15.2776 19.6766 19.6697 20.174C24.0618 20.6714 21.4446 20.375 21.4446 20.375V24.8496L28.6915 17.4995L21.4446 10.1494V14.5156ZM21.503 7.35996L30.6479 16.6351C31.1174 17.1127 31.1174 17.8863 30.6479 18.3639L21.503 27.6391C20.7432 28.4097 19.4446 27.8647 19.4446 26.7747V22.1613C14.3277 21.5818 10.1225 22.8714 7.24604 25.2731C6.37025 26.0044 5.61765 26.8387 5 27.7548C5 26.5386 5.15277 25.3458 5.43914 24.1966C7.04185 17.7649 12.8294 12.6996 19.4446 12.5579V8.22434C19.4446 7.13581 20.7432 6.59082 21.503 7.35996Z" fill="black"/>
</svg>
