<svg width="36" height="36" viewBox="0 0 36 36" fill="none" xmlns="http://www.w3.org/2000/svg">
<path fill-rule="evenodd" clip-rule="evenodd" d="M18.9195 5.10463C18.5681 4.26007 17.3028 4.30029 17.0385 5.22528L14.245 15H5L4.88338 15.0067C4.38604 15.0645 4 15.4872 4 16C4 16.5523 4.44772 17 5 17H15L15.1203 16.9928C15.5156 16.9451 15.85 16.665 15.9615 16.2747L18 9.139L20.0385 16.2747L20.0785 16.3884C20.2329 16.7554 20.5941 17 21 17H31L31.1166 16.9933C31.614 16.9355 32 16.5128 32 16L31.9933 15.8834C31.9355 15.386 31.5128 15 31 15H21.754L18.9615 5.22528L18.9195 5.10463ZM14.9654 20.2615C15.1368 19.6373 14.6682 19 14 19H10L9.88338 19.0067C9.38604 19.0645 9 19.4872 9 20L9.00673 20.1166C9.06449 20.614 9.48716 21 10 21H12.522L9.07152 29.6286L9.03577 29.7324C8.77683 30.6274 9.82125 31.3841 10.6 30.8L17.999 25.25L25.4 30.8L25.4909 30.8615C26.2878 31.3442 27.29 30.5324 26.9285 29.6286L23.477 21H26L26.1166 20.9933C26.614 20.9355 27 20.5128 27 20C27 19.4477 26.5523 19 26 19H22L21.8843 19.0065C21.2411 19.0792 20.8234 19.751 21.0715 20.3714L23.747 27.061L18.6 23.2L18.4896 23.128C18.148 22.936 17.72 22.96 17.4 23.2L12.252 27.06L14.9285 20.3714L14.9654 20.2615Z" fill="black"/>
</svg>
