<svg width="36" height="36" viewBox="0 0 36 36" fill="none" xmlns="http://www.w3.org/2000/svg">
<path fill-rule="evenodd" clip-rule="evenodd" d="M24 9H14C13.4477 9 13 8.55228 13 8C13 7.44772 13.4477 7 14 7H24C25.1051 7 26 7.89552 26 9V27C26 28.1045 25.1051 29 24 29H14C13.4477 29 13 28.5523 13 28C13 27.4477 13.4477 27 14 27H24V9ZM12.6021 17H7C6.44772 17 6 17.4477 6 18C6 18.5523 6.44772 19 7 19H12.6021L10.3276 21.2963C9.93897 21.6887 9.94199 22.3218 10.3344 22.7105C10.7268 23.0991 11.3599 23.0961 11.7486 22.7037L15.7106 18.7037C16.0966 18.314 16.0966 17.686 15.7106 17.2963L11.7486 13.2963C11.3599 12.9039 10.7268 12.9009 10.3344 13.2895C9.94199 13.6782 9.93897 14.3113 10.3276 14.7037L12.6021 17ZM19.5922 18L14.3471 23.2963C13.9584 23.6888 13.9615 24.3219 14.3539 24.7105C14.7464 25.0992 15.3795 25.0961 15.7681 24.7037L21.7101 18.7037C22.0961 18.3139 22.0961 17.6861 21.7101 17.2963L15.7681 11.2963C15.3795 10.9039 14.7464 10.9008 14.3539 11.2895C13.9615 11.6781 13.9584 12.3112 14.3471 12.7037L19.5922 18Z" fill="black"/>
</svg>
