<svg width="36" height="36" viewBox="0 0 36 36" fill="none" xmlns="http://www.w3.org/2000/svg">
<path fill-rule="evenodd" clip-rule="evenodd" d="M22.7943 6.01942C21.2287 5.34642 19.5395 4.995 17.804 4.995C16.0689 4.995 14.3808 5.34624 12.8143 6.01919C11.2913 6.67496 9.90943 7.62467 8.74468 8.81016C7.57865 9.99582 6.64668 11.3987 6.00462 12.9431C5.34438 14.5297 5 16.2412 5 18C5 19.7588 5.34438 21.4703 6.00475 23.0572C6.64687 24.6017 7.57906 26.0047 8.74534 27.1895C9.90879 28.3748 11.2907 29.3248 12.8135 29.9805C14.3808 30.6537 16.0689 31.005 17.804 31.005C19.5395 31.005 21.2287 30.6536 22.7939 29.9807C24.3168 29.3254 25.6979 28.376 26.8643 27.1888C27.9399 26.0951 28.8251 24.6257 29.5484 22.8859C29.7604 22.3759 29.5189 21.7906 29.0089 21.5786C28.4989 21.3666 27.9136 21.6081 27.7016 22.1181C27.0686 23.6408 26.3099 24.9002 25.438 25.7868C24.4522 26.7902 23.2868 27.5914 22.0037 28.1434C20.687 28.7095 19.2664 29.005 17.804 29.005C16.3419 29.005 14.9222 28.7096 13.6037 28.1432C12.3211 27.5909 11.155 26.7893 10.1716 25.7875C9.18396 24.7841 8.39499 23.5967 7.85138 22.2891C7.29185 20.9445 7 19.4941 7 18C7 16.5059 7.29185 15.0554 7.85125 13.7112C8.39489 12.4035 9.18383 11.216 10.171 10.2122C11.1552 9.21044 12.3215 8.40892 13.6045 7.85647C14.9222 7.29039 16.3419 6.995 17.804 6.995C19.2664 6.995 20.687 7.29054 22.0041 7.8567C23.2864 8.40846 24.452 9.20952 25.438 10.2122L25.8983 10.6807L26.3138 11.1172C26.9213 11.7757 27.2977 12.298 27.5963 12.9282C27.608 12.9528 27.6205 12.9768 27.6339 13H24L23.8834 13.0067C23.386 13.0645 23 13.4872 23 14C23 14.5523 23.4477 15 24 15H30L30.1166 14.9933C30.614 14.9355 31 14.5128 31 14V8L30.9933 7.88337C30.9355 7.38604 30.5128 7 30 7L29.8834 7.00672C29.386 7.06449 29 7.48716 29 8V11.3247C28.6292 10.7204 28.1717 10.1632 27.5489 9.51098L26.8641 8.80992C25.6973 7.62344 24.3162 6.67428 22.7943 6.01942Z" fill="black"/>
</svg>
