<svg width="36" height="36" viewBox="0 0 36 36" fill="none" xmlns="http://www.w3.org/2000/svg">
<path fill-rule="evenodd" clip-rule="evenodd" d="M26 5H10C8.34372 5 7 6.34372 7 8V28C7 29.6563 8.34372 31 10 31H26C27.6563 31 29 29.6563 29 28V8C29 6.34372 27.6563 5 26 5ZM10 7H26C26.5517 7 27 7.44828 27 8V28C27 28.5517 26.5517 29 26 29H10C9.44828 29 9 28.5517 9 28V8C9 7.44828 9.44828 7 10 7ZM16.4 14.4V20.7C16.4 20.7121 16.3997 20.7241 16.3991 20.7361C16.3997 20.7573 16.4 20.7787 16.4 20.8001C16.4 22.0151 15.415 23.0001 14.2 23.0001C12.985 23.0001 12 22.0151 12 20.8001C12 19.5851 12.985 18.6001 14.2 18.6001C14.4822 18.6001 14.7521 18.6532 15 18.7501V13.9C15 13.4029 15.4029 13 15.9 13H22.4C22.8971 13 23.3 13.4029 23.3 13.9V20.7C23.3 20.7121 23.2997 20.7242 23.2991 20.7362C23.2997 20.7574 23.3 20.7787 23.3 20.8001C23.3 22.0151 22.315 23.0001 21.1 23.0001C19.885 23.0001 18.9 22.0151 18.9 20.8001C18.9 19.5851 19.885 18.6001 21.1 18.6001C21.3822 18.6001 21.6521 18.6532 21.9 18.7501V14.4H16.4ZM15 20.8001C15 21.2419 14.6418 21.6001 14.2 21.6001C13.7582 21.6001 13.4 21.2419 13.4 20.8001C13.4 20.3583 13.7582 20.0001 14.2 20.0001C14.6418 20.0001 15 20.3583 15 20.8001ZM21.9 20.8001C21.9 21.2419 21.5418 21.6001 21.1 21.6001C20.6582 21.6001 20.3 21.2419 20.3 20.8001C20.3 20.3583 20.6582 20.0001 21.1 20.0001C21.5418 20.0001 21.9 20.3583 21.9 20.8001Z" fill="black"/>
</svg>
