<svg width="36" height="36" viewBox="0 0 36 36" fill="none" xmlns="http://www.w3.org/2000/svg">
<path fill-rule="evenodd" clip-rule="evenodd" d="M14.7071 7.34313C15.0976 7.73365 15.0976 8.36681 14.7071 8.75734L11.4645 12H24L24.2169 12.0046C26.8777 12.1182 29 14.3112 29 17V23L28.9954 23.2169C28.8818 25.8777 26.6888 28 24 28H11L10.8834 27.9933C10.386 27.9355 10 27.5128 10 27C10 26.4477 10.4477 26 11 26H24L24.1763 25.9949C25.7511 25.9036 27 24.5977 27 23V17L26.9949 16.8237C26.9037 15.2489 25.5977 14 24 14H11.4645L14.7071 17.2426C15.0976 17.6331 15.0976 18.2663 14.7071 18.6568C14.3166 19.0474 13.6834 19.0474 13.2929 18.6568L8.34316 13.7071C8.29434 13.6583 8.25163 13.6057 8.21501 13.5502C8.10307 13.3807 8.04817 13.1845 8.05032 12.9889C8.05099 12.9286 8.05707 12.8684 8.06857 12.809C8.10518 12.6199 8.19671 12.4393 8.34316 12.2929C8.3433 12.2927 8.34345 12.2926 8.3436 12.2924L13.2929 7.34313C13.6834 6.9526 14.3166 6.9526 14.7071 7.34313Z" fill="black"/>
</svg>
