<svg width="36" height="36" viewBox="0 0 36 36" fill="none" xmlns="http://www.w3.org/2000/svg">
<path fill-rule="evenodd" clip-rule="evenodd" d="M18 6C15.7907 6 14 7.79072 14 10C14 10.6268 14.1441 11.2199 14.4011 11.748C11.177 13.1537 9 16.3624 9 20C9 20.042 9.00259 20.0834 9.00762 20.124C7.27844 20.5654 6 22.1333 6 24V26C6 28.2093 7.79072 30 10 30H26C28.2093 30 30 28.2093 30 26V24C30 22.1334 28.7217 20.5655 26.9926 20.1241C26.9976 20.0835 27.0002 20.0421 27.0002 20.0001C27.0002 16.3643 24.8263 13.154 21.5986 11.748C21.8589 11.2126 22 10.6174 22 10C22 7.79072 20.2093 6 18 6ZM20.1887 13.3488C19.5468 13.7694 18.7905 14 18 14C17.192 14 16.44 13.7605 15.8111 13.3486C12.9727 14.281 11 16.9466 11 20H25.0002C25.0002 16.9481 23.0306 14.2814 20.1887 13.3488ZM18 8C19.1047 8 20 8.89528 20 10C20 10.5827 19.7504 11.1232 19.3208 11.5018C18.9585 11.8215 18.4949 12 18 12C16.8953 12 16 11.1047 16 10C16 8.89528 16.8953 8 18 8ZM8 24C8 22.8953 8.89528 22 10 22H26C27.1047 22 28 22.8953 28 24V26C28 27.1047 27.1047 28 26 28H10C8.89528 28 8 27.1047 8 26V24Z" fill="black"/>
</svg>
