<svg width="36" height="36" viewBox="0 0 36 36" fill="none" xmlns="http://www.w3.org/2000/svg">
<path fill-rule="evenodd" clip-rule="evenodd" d="M9 13C9 17.0019 11.5059 20.4134 14.8484 22.6573L15.1289 22.8415L14.1425 24.4855C13.7426 25.152 14.2227 26 15 26H21C21.7773 26 22.2574 25.152 21.8575 24.4855L20.8711 22.8415C24.353 20.6024 27 17.113 27 13C27 7.50148 22.9985 3 18 3C13.0015 3 9 7.50148 9 13ZM19.01 21.6283C18.5189 21.9043 18.3526 22.5314 18.6425 23.0145L19.2338 24H16.7662L17.3575 23.0145C17.6474 22.5314 17.4811 21.9043 16.99 21.6283C13.647 19.7493 11 16.5745 11 13C11 8.55704 14.162 5 18 5C21.838 5 25 8.55704 25 13C25 16.5745 22.353 19.7493 19.01 21.6283ZM14.5 12.8979C14.5 10.7873 15.9003 9.11116 17.5946 9.00522L17.765 8.9999C18.3173 8.9999 18.765 8.55219 18.765 7.9999C18.765 7.44762 18.3173 6.9999 17.765 6.9999C14.8245 6.9999 12.5 9.66916 12.5 12.8979C12.5 13.4502 12.9477 13.8979 13.5 13.8979C14.0523 13.8979 14.5 13.4502 14.5 12.8979ZM15.909 31.0568C15.1089 31.276 15 31.4219 15 32C15 32.5523 14.5523 33 14 33C13.4477 33 13 32.5523 13 32C13 30.1503 13.8622 29.5037 15.7575 29.0299L16.091 28.9432C16.8911 28.724 17 28.5781 17 28C17 27.4477 17.4477 27 18 27C18.5523 27 19 27.4477 19 28C19 29.8497 18.1378 30.4963 16.2425 30.9701L15.909 31.0568Z" fill="black"/>
</svg>
