<svg width="36" height="36" viewBox="0 0 36 36" fill="none" xmlns="http://www.w3.org/2000/svg">
<path fill-rule="evenodd" clip-rule="evenodd" d="M6.93739 18.0313L14.9069 26H6V28H30V26H23.7529L28.0626 21.6903C28.8443 20.9086 28.8443 19.6418 28.0617 18.8612L17.0846 7.88411C16.3049 7.10243 15.0371 7.10243 14.2554 7.88411L6.93739 15.2021C6.15587 15.9836 6.15587 17.2498 6.93739 18.0313ZM8.35161 16.6163L17.7355 26H20.9245L26.6484 20.2761L15.6695 9.29742L8.35161 16.6163ZM18 21H19V18C19 17.4477 19.4477 17 20 17C20.5523 17 21 17.4477 21 18V22C21 22.5523 20.5523 23 20 23H18C17.4477 23 17 22.5523 17 22C17 21.4477 17.4477 21 18 21Z" fill="black"/>
</svg>
