<svg width="36" height="36" viewBox="0 0 36 36" fill="none" xmlns="http://www.w3.org/2000/svg">
<path fill-rule="evenodd" clip-rule="evenodd" d="M7.68627 21.9188C6.3148 23.9569 7.36131 26.6908 9.61006 26.9757L7.29289 29.2929C6.90237 29.6834 6.90237 30.3166 7.29289 30.7071C7.68342 31.0976 8.31658 31.0976 8.70711 30.7071L28.7071 10.7071C29.0976 10.3166 29.0976 9.68342 28.7071 9.29289C28.3166 8.90237 27.6834 8.90237 27.2929 9.29289L25.275 11.3108C24.5448 8.6935 22.1079 7 19 7H17C13.2656 7 10.5 9.4451 10.5 13V17C10.5 17.3182 10.4049 17.7035 10.1868 18.3141L10.1096 18.5261L7.68627 21.9188ZM23.5033 13.0824L11.5858 25H10C9.19328 25 8.73948 23.9356 9.32975 23.0581L11.8897 19.4749L11.9358 19.3526C12.3273 18.3136 12.5 17.6985 12.5 17V13C12.5 10.6083 14.3191 9 17 9H19C21.6809 9 23.5 10.6083 23.5 13C23.5 13.0278 23.5011 13.0553 23.5033 13.0824ZM25.5366 17.3781C25.44 16.8343 24.9209 16.4718 24.3771 16.5684C23.8333 16.665 23.4708 17.1841 23.5674 17.7279C23.6291 18.0751 23.7132 18.3767 23.8574 18.7877L24.0678 19.3602L26.6822 23.0755C27.2605 23.9356 26.8067 25 26 25H16C15.4477 25 15 25.4477 15 26C15 26.5523 15.4477 27 16 27H26C28.5135 27 29.7622 24.0714 28.3297 21.9419L25.8508 18.4187C25.6718 17.9361 25.5869 17.6616 25.5366 17.3781ZM16 14V17C16 17.5523 15.5523 18 15 18C14.4477 18 14 17.5523 14 17V14C14 12.2191 15.2243 11 17 11H18C18.5523 11 19 11.4477 19 12C19 12.5523 18.5523 13 18 13H17C16.327 13 16 13.3256 16 14ZM21 30C21 30.5523 20.5523 31 20 31H16C15.4477 31 15 30.5523 15 30C15 29.4477 15.4477 29 16 29H20C20.5523 29 21 29.4477 21 30Z" fill="black"/>
</svg>
