<svg width="36" height="36" viewBox="0 0 36 36" fill="none" xmlns="http://www.w3.org/2000/svg">
<path fill-rule="evenodd" clip-rule="evenodd" d="M20.8092 5.41013C20.1709 4.53119 19.1292 4 18.0008 4C16.871 4 15.8281 4.53257 15.1901 5.4134C14.8661 5.86068 14.9661 6.4859 15.4134 6.80988C15.8607 7.13385 16.4859 7.03388 16.8099 6.5866L16.9036 6.47125C17.1703 6.17777 17.5667 6 18.0008 6C18.4886 6 18.9288 6.22443 19.1908 6.58531L19.2708 6.68223C19.6105 7.04495 20.1751 7.10643 20.5876 6.80688C21.0345 6.48236 21.1337 5.85702 20.8092 5.41013ZM28.3885 13.2278C28.0037 10.2503 25.4645 8 22.4383 8H13.5617L13.3299 8.00441C10.3298 8.11881 7.85941 10.4444 7.58618 13.4583L6.30061 27.6389L6.28836 27.8192L6.28427 28C6.28427 30.2091 8.07513 32 10.2843 32H25.7157L25.8965 31.9959L26.0769 31.9837C28.277 31.7842 29.8988 29.839 29.6994 27.6389L28.4138 13.4583L28.3885 13.2278ZM24.9084 20.9925C25.06 20.9825 25.2113 20.9626 25.3615 20.9328C25.9734 20.8119 26.5342 20.5395 27.0137 20.1591L27.7076 27.8194L27.7156 27.9686C27.733 29.0061 26.9464 29.8966 25.8963 29.9918C25.8363 29.9973 25.776 30 25.7157 30H10.2843L10.135 29.9945C9.10015 29.9182 8.28427 29.0544 8.28427 28C8.28427 27.9397 8.287 27.8795 8.29244 27.8194L8.9867 20.1593C9.64911 20.6854 10.4584 21 11.319 21L14.2676 21.0001C14.6134 21.5978 15.2597 22 16 22H20L20.1691 21.993C20.8379 21.937 21.4132 21.5519 21.7324 21.0001L24.681 21L24.9084 20.9925ZM22 24C22.5523 24 23 24.4477 23 25C23 25.5128 22.614 25.9355 22.1166 25.9933L22 26H14C13.4477 26 13 25.5523 13 25C13 24.4872 13.386 24.0645 13.8834 24.0067L14 24H22ZM16 19H20V20H16V19ZM22.4383 10H13.5617C11.5615 10 9.88039 11.4747 9.60179 13.4344L9.57801 13.6389L9.44727 15.0837L9.32723 16.5412C9.31803 16.6612 9.31912 16.7839 9.3306 16.9076C9.43327 18.0147 10.2772 18.9109 11.1828 18.9937L11.319 19L14 18.999C14.0005 17.9451 14.8162 17.0818 15.8508 17.0055L16 17H20C21.0544 17 21.9182 17.8159 21.9945 18.8507L21.9993 18.999L24.681 19C24.7773 19 24.8749 18.9903 24.9733 18.9708C25.9645 18.775 26.7569 17.6732 26.6732 16.5469L26.5523 15.082L26.422 13.6389C26.2414 11.6468 24.621 10.1057 22.6441 10.0052L22.4383 10Z" fill="black"/>
</svg>
