<svg width="36" height="36" viewBox="0 0 36 36" fill="none" xmlns="http://www.w3.org/2000/svg">
<path fill-rule="evenodd" clip-rule="evenodd" d="M30 8H6C5.44772 8 5 8.44772 5 9V23C5 23.5523 5.44772 24 6 24H30C30.5523 24 31 23.5523 31 23V9C31 8.44772 30.5523 8 30 8ZM7 10H29V22H7V10ZM14 16C14 13.7907 15.7907 12 18 12C20.2093 12 22 13.7907 22 16C22 18.2093 20.2093 20 18 20C15.7907 20 14 18.2093 14 16ZM18 14C19.1047 14 20 14.8953 20 16C20 17.1047 19.1047 18 18 18C16.8953 18 16 17.1047 16 16C16 14.8953 16.8953 14 18 14ZM30.939 27C30.939 26.4477 30.4913 26 29.939 26H6L5.88338 26.0067C5.38604 26.0645 5 26.4872 5 27C5 27.5523 5.44772 28 6 28H29.939L30.0556 27.9933C30.553 27.9355 30.939 27.5128 30.939 27ZM26 18H24V14H26V18ZM12 18V14H10V18H12Z" fill="black"/>
</svg>
