<svg width="36" height="36" viewBox="0 0 36 36" fill="none" xmlns="http://www.w3.org/2000/svg">
<path fill-rule="evenodd" clip-rule="evenodd" d="M26 6H25H11H10L9.88338 6.00673C9.38604 6.06449 9 6.48716 9 7C9 7.55228 9.44772 8 10 8V14L9.88338 14.0067C9.38604 14.0645 9 14.4872 9 15C9 15.5523 9.44772 16 10 16V28L9.88338 28.0067C9.38604 28.0645 9 28.4872 9 29C9 29.5523 9.44772 30 10 30H11H25H26L26.1166 29.9933C26.614 29.9355 27 29.5128 27 29C27 28.4477 26.5523 28 26 28V16L26.1166 15.9933C26.614 15.9355 27 15.5128 27 15C27 14.4477 26.5523 14 26 14V8L26.1166 7.99327C26.614 7.93551 27 7.51284 27 7C27 6.44772 26.5523 6 26 6ZM24 28V16H12V28H24ZM12 14V8H24V14H12ZM15.9756 18.9536C16.4979 18.3143 17.0181 17.8311 17.3844 17.545C17.7461 17.2623 18.2539 17.2623 18.6156 17.545C18.9819 17.8311 19.5021 18.3143 20.0244 18.9536C20.9379 20.0717 21.5 21.2575 21.5 22.5C21.5 24.4333 19.9333 26 18 26C16.0667 26 14.5 24.4333 14.5 22.5C14.5 21.2575 15.0621 20.0717 15.9756 18.9536ZM18.2275 19.9301L18 19.689L17.7725 19.9301L17.5244 20.2189C16.8754 21.0133 16.5 21.8053 16.5 22.5C16.5 23.3287 17.1713 24 18 24C18.8287 24 19.5 23.3287 19.5 22.5C19.5 21.8053 19.1246 21.0133 18.4756 20.2189C18.3948 20.12 18.3118 20.0237 18.2275 19.9301Z" fill="black"/>
</svg>
