<svg width="36" height="36" viewBox="0 0 36 36" fill="none" xmlns="http://www.w3.org/2000/svg">
<path fill-rule="evenodd" clip-rule="evenodd" d="M20.3899 7.24114C14.2554 6.48904 8.46839 10.5592 7.19171 16.7189C7.07963 17.2597 7.42716 17.789 7.96794 17.9011L17.7598 19.9306L15.6732 30H7C6.44772 30 6 30.4477 6 31C6 31.5523 6.44772 32 7 32H28C28.5523 32 29 31.5523 29 31C29 30.4477 28.5523 30 28 30H17.7157L19.7182 20.3365L29.5099 22.3661C30.0507 22.4782 30.58 22.1306 30.6921 21.5898C31.9688 15.43 28.2765 9.39493 22.3483 7.64702L22.7491 5.71356C22.8612 5.17278 22.5137 4.6435 21.9729 4.53139C21.4321 4.41929 20.9028 4.7668 20.7907 5.30759L20.3899 7.24114ZM20.6942 9.30872C15.7139 8.42013 10.8906 11.3977 9.40139 16.1557L28.8883 20.1947C29.4129 15.2363 26.1701 10.5866 21.2463 9.42311L20.971 9.36208L20.6942 9.30872ZM21.0539 13.2287C23.1991 13.6731 24.5857 15.355 24.2686 16.8867C24.1566 17.4275 24.5042 17.9567 25.045 18.0687C25.5859 18.1807 26.115 17.833 26.227 17.2922C26.79 14.5734 24.6038 11.9217 21.4597 11.2703C20.9189 11.1582 20.3896 11.5058 20.2776 12.0466C20.1656 12.5874 20.5131 13.1166 21.0539 13.2287Z" fill="black"/>
</svg>
