<svg width="36" height="36" viewBox="0 0 36 36" fill="none" xmlns="http://www.w3.org/2000/svg">
<path fill-rule="evenodd" clip-rule="evenodd" d="M7.9998 12.998H11.7197L13.0299 7.75746C13.1638 7.22166 13.7067 6.8959 14.2425 7.02985C14.7783 7.1638 15.1041 7.70673 14.9701 8.24253L13.7813 12.998H22.2187L21.0299 8.24253C20.8959 7.70673 21.2217 7.1638 21.7575 7.02985C22.2933 6.8959 22.8362 7.22166 22.9701 7.75746L24.2803 12.998H27.9998C28.6146 12.998 29.0838 13.5475 28.9874 14.1547L26.7654 28.1567C26.6884 28.6424 26.2696 29 25.7778 29H10.2218C9.73002 29 9.31123 28.6424 9.23416 28.1567L7.01216 14.1547C6.9158 13.5475 7.385 12.998 7.9998 12.998ZM26.8286 14.998H9.171L11.0756 27H24.924L26.8286 14.998ZM13.499 20H22.501C23.0533 20 23.501 19.5523 23.501 19C23.501 18.4477 23.0533 18 22.501 18H13.499C12.9467 18 12.499 18.4477 12.499 19C12.499 19.5523 12.9467 20 13.499 20ZM13.499 24H22.501C23.0533 24 23.501 23.5523 23.501 23C23.501 22.4477 23.0533 22 22.501 22H13.499C12.9467 22 12.499 22.4477 12.499 23C12.499 23.5523 12.9467 24 13.499 24Z" fill="black"/>
</svg>
