<svg width="36" height="36" viewBox="0 0 36 36" fill="none" xmlns="http://www.w3.org/2000/svg">
<path fill-rule="evenodd" clip-rule="evenodd" d="M17.0053 6.5001L17.2772 6.30614L17.3871 6.2097C17.7794 5.90468 18.3466 5.93241 18.7071 6.29289L18.7228 6.30614L18.7946 6.35927L21.3044 8.10583L22.36 8.86178L22.9031 9.26195L23.4063 9.64385C23.6449 9.82836 23.8617 10.0018 24.0464 10.1579C27.8079 13.3375 30 16.9959 30 21.515V29C30 29.5523 29.5523 30 29 30H7C6.44772 30 6 29.5523 6 29V21.515C6 21.2494 6.00757 20.9867 6.02259 20.727C6.00779 20.6586 6 20.5875 6 20.5146C6 20.3859 6.02434 20.2628 6.06866 20.1498C6.46671 16.2497 8.57829 13.011 11.9536 10.1579C12.1383 10.0018 12.3551 9.82836 12.5937 9.64385L13.0969 9.26195C13.1846 9.19647 13.274 9.13022 13.3647 9.06345L13.9208 8.65835L14.6956 8.10583L17.0053 6.5001ZM8 21.515V21.5146H25L25.1166 21.5079C25.614 21.4502 26 21.0275 26 20.5146C26 19.9624 25.5523 19.5146 25 19.5146H8.17979C8.72489 16.5552 10.4922 14.012 13.2447 11.6853C13.5028 11.4672 13.8461 11.201 14.2356 10.9105L14.8495 10.4596L15.8356 9.75404L18 8.233L20.1644 9.75404L21.1505 10.4596L21.7644 10.9105C22.1539 11.201 22.4972 11.4672 22.7553 11.6853L23.0654 11.952C26.2252 14.718 28 17.7963 28 21.515V28H8V21.515ZM13 25C13 24.4477 12.5523 24 12 24H11L10.8834 24.0067C10.386 24.0645 10 24.4872 10 25C10 25.5523 10.4477 26 11 26H12L12.1166 25.9933C12.614 25.9355 13 25.5128 13 25ZM18.5 24C19.0523 24 19.5 24.4477 19.5 25C19.5 25.5128 19.114 25.9355 18.6166 25.9933L18.5 26H17.5C16.9477 26 16.5 25.5523 16.5 25C16.5 24.4872 16.886 24.0645 17.3834 24.0067L17.5 24H18.5ZM26 25C26 24.4477 25.5523 24 25 24H24L23.8834 24.0067C23.386 24.0645 23 24.4872 23 25C23 25.5523 23.4477 26 24 26H25L25.1166 25.9933C25.614 25.9355 26 25.5128 26 25Z" fill="black"/>
</svg>
