<svg width="36" height="36" viewBox="0 0 36 36" fill="none" xmlns="http://www.w3.org/2000/svg">
<path fill-rule="evenodd" clip-rule="evenodd" d="M10 5H26C27.6563 5 29 6.34372 29 8V28C29 29.6563 27.6563 31 26 31H10C8.34372 31 7 29.6563 7 28V8C7 6.34372 8.34372 5 10 5ZM26 7H10C9.44828 7 9 7.44828 9 8V28C9 28.5517 9.44828 29 10 29H26C26.5517 29 27 28.5517 27 28V8C27 7.44828 26.5517 7 26 7ZM20.9987 24C21.5538 24 22 23.5527 22 23C22 22.4473 21.5538 22 20.9987 22C20.4459 22 20 22.445 20 23C20 23.555 20.4459 24 20.9987 24ZM20.9987 26C22.6575 26 24 24.6581 24 23C24 21.3419 22.6575 20 20.9987 20C19.3399 20 18 21.3419 18 23C18 24.6581 19.3399 26 20.9987 26ZM24 18V16H12V18H24ZM16 21V23H12V21H16ZM24 13H12V11H24V13Z" fill="black"/>
</svg>
