<svg width="36" height="36" viewBox="0 0 36 36" fill="none" xmlns="http://www.w3.org/2000/svg">
<path fill-rule="evenodd" clip-rule="evenodd" d="M24.4361 7H11.5639C10.6001 7 10.0866 7.09916 9.55156 7.38532C9.05136 7.65283 8.65283 8.05136 8.38532 8.55156C8.09916 9.08664 8 9.6001 8 10.5639V24.7181C8 25.2754 8.06464 25.6101 8.25175 25.96C8.43211 26.2973 8.70275 26.5679 9.03998 26.7482C9.32659 26.9015 9.60302 26.9726 10 26.9933V28.5L10.0067 28.6166C10.0645 29.114 10.4872 29.5 11 29.5C11.5523 29.5 12 29.0523 12 28.5V27H24V28.5L24.0067 28.6166C24.0645 29.114 24.4872 29.5 25 29.5C25.5523 29.5 26 29.0523 26 28.5V26.9933C26.397 26.9726 26.6734 26.9015 26.96 26.7482C27.2973 26.5679 27.5679 26.2973 27.7482 25.96C27.9354 25.6101 28 25.2754 28 24.7181V10.5639C28 9.6001 27.9008 9.08664 27.6147 8.55156C27.3472 8.05136 26.9486 7.65283 26.4484 7.38532C25.9134 7.09916 25.3999 7 24.4361 7ZM11.3944 9.00099L24.4361 9C25.098 9 25.2995 9.03892 25.5052 9.14895C25.6569 9.23005 25.7699 9.3431 25.8511 9.49475C25.9511 9.68178 25.9923 9.86535 25.999 10.3944L25.9986 16H10.0007L10 10.5639C10 9.90203 10.0389 9.70048 10.1489 9.49475C10.2301 9.3431 10.3431 9.23005 10.4948 9.14895C10.6818 9.04892 10.8654 9.00766 11.3944 9.00099ZM10.001 18L10.002 24.9194L10.007 24.992L10.0806 24.998L25.7181 25C25.8138 25 25.8769 24.9994 25.9194 24.998L25.992 24.992L25.998 24.9194L25.9985 18H10.001ZM13 21C13 21.5523 12.5523 22 12 22C11.4477 22 11 21.5523 11 21C11 20.4477 11.4477 20 12 20C12.5523 20 13 20.4477 13 21ZM24 22C24.5523 22 25 21.5523 25 21C25 20.4477 24.5523 20 24 20C23.4477 20 23 20.4477 23 21C23 21.5523 23.4477 22 24 22ZM30.5 14C31.0128 14 31.4355 14.386 31.4933 14.8834L31.5 15V17C31.5 17.5523 31.0523 18 30.5 18C29.9872 18 29.5645 17.614 29.5067 17.1166L29.5 17V15C29.5 14.4477 29.9477 14 30.5 14ZM6.49327 14.8834C6.43551 14.386 6.01284 14 5.5 14C4.94772 14 4.5 14.4477 4.5 15V17L4.50673 17.1166C4.56449 17.614 4.98716 18 5.5 18C6.05228 18 6.5 17.5523 6.5 17V15L6.49327 14.8834Z" fill="black"/>
</svg>
