<svg width="36" height="36" viewBox="0 0 36 36" fill="none" xmlns="http://www.w3.org/2000/svg">
<path fill-rule="evenodd" clip-rule="evenodd" d="M10.9998 21C10.1864 21 9.71331 20.0807 10.1861 19.4188L20.1861 5.41878C20.7904 4.57275 22.1242 5.09625 21.9917 6.12747L20.8515 15H24.9998C25.8132 15 26.2863 15.9194 25.8135 16.5813L15.8135 30.5813C15.2093 31.4273 13.8755 30.9038 14.008 29.8727L15.1472 21H10.9998ZM12.943 19H16.2838C16.8867 19 17.3524 19.5294 17.2757 20.1274L16.4983 26.1817L23.0566 17H19.7148C19.1119 17 18.6461 16.4705 18.723 15.8726L19.5008 9.81904L12.943 19Z" fill="black"/>
</svg>
