<svg width="36" height="36" viewBox="0 0 36 36" fill="none" xmlns="http://www.w3.org/2000/svg">
<path fill-rule="evenodd" clip-rule="evenodd" d="M16.9389 10.3152L16.992 10.29L16.9828 10.0788C16.9472 7.32422 19.9837 5.57344 22.3386 6.99174L22.514 7.105L22.6879 6.99493C25.1017 5.55367 28.2105 7.42593 28.0259 10.2807L28.022 10.315L28.076 10.3407C30.6484 11.6546 30.6396 15.3745 28.0612 16.6769L28.008 16.701L28.0114 16.7354C28.1855 19.6507 24.9324 21.5258 22.5079 19.9026L22.484 19.886L22.3122 19.996C21.4824 20.4917 20.5701 20.5955 19.7378 20.4022L15.5228 27.0361C15.5118 27.0534 15.5003 27.0703 15.4884 27.0868C15.282 27.481 15.0132 27.851 14.682 28.1822C12.9245 29.9397 10.0753 29.9397 8.31779 28.1822C7.42471 27.2891 6.98545 26.1142 7 24.9438V11C7 10.4477 7.44771 10 8 10C8.51283 10 8.93551 10.386 8.99327 10.8834L9 11V21.2571C10.749 20.0862 13.1372 20.2732 14.682 21.818C15.0835 22.2195 15.3933 22.678 15.6113 23.1674L17.9876 19.4274C17.3159 18.7531 16.9032 17.8037 16.9739 16.7101L16.976 16.675L16.9238 16.6503C14.3511 15.3362 14.3604 11.6159 16.9389 10.3152ZM21.9196 9.14681L21.4482 8.79981C20.3651 7.99964 18.8496 8.87292 18.993 10.2223L19.054 10.8043C19.0992 11.2363 18.8604 11.6482 18.4628 11.8235L17.9287 12.059C16.6936 12.6017 16.6892 14.3622 17.9221 14.9114L18.4551 15.1494C18.852 15.3266 19.089 15.7399 19.0414 16.172L18.9773 16.7537C18.828 18.1006 20.3396 18.9815 21.4266 18.186L21.8976 17.842C22.2505 17.5842 22.7298 17.5855 23.0814 17.845L23.5513 18.192C24.6342 18.9914 26.1506 18.1173 26.008 16.7706L25.946 16.1896C25.8998 15.7567 26.1391 15.3436 26.5376 15.1682L27.0716 14.9332C28.3064 14.3897 28.3106 12.6288 27.0791 12.0802L26.5461 11.8432C26.1485 11.6664 25.9108 11.2528 25.9584 10.8202L26.0225 10.2373C26.1718 8.89012 24.6609 8.00949 23.5732 8.80505L23.1022 9.14905C22.7497 9.40647 22.271 9.40557 21.9196 9.14681ZM8.99975 25.0226L9 25V24.9581C9.01044 24.3324 9.25444 23.7098 9.73201 23.2322C10.7085 22.2557 12.2913 22.2557 13.2678 23.2322C14.2443 24.2087 14.2443 25.7915 13.2678 26.768C12.2913 27.7445 10.7085 27.7445 9.73201 26.768C9.24948 26.2855 9.0054 25.6549 8.99975 25.0226Z" fill="black"/>
</svg>
