<svg width="36" height="36" viewBox="0 0 36 36" fill="none" xmlns="http://www.w3.org/2000/svg">
<path fill-rule="evenodd" clip-rule="evenodd" d="M28.9998 10.1121C29.5126 10.1121 29.9353 10.4982 29.9931 10.9955L29.9941 11.0128C29.9976 11.0456 29.9995 11.0786 29.9998 11.1115L29.9998 11.1121V11.1181V11.122V18.0401C29.9998 19.9313 29.4627 21.7698 28.4605 23.3631C27.5268 24.8493 26.2185 26.0765 24.6514 26.9244L24.3117 27.1002L22.6785 27.9093C21.2244 28.6292 19.6233 29.0001 18.0048 29.0001C16.5111 29.0001 15.0329 28.6842 13.6693 28.0692L13.3309 27.9092L11.6982 27.1004C9.9796 26.2498 8.54766 24.9542 7.54831 23.3635C6.61311 21.8767 6.0834 20.1761 6.01693 18.4177L6.0098 18.0401V11.1201C6.0098 10.9879 6.03548 10.8616 6.08212 10.746C6.12903 10.6296 6.19878 10.5201 6.29149 10.4244C6.48287 10.2268 6.73599 10.1251 6.99088 10.1203C7.00883 10.12 7.02679 10.1201 7.04473 10.1207C7.16304 10.1248 7.27613 10.1494 7.38055 10.1911C7.49822 10.238 7.60889 10.3082 7.70553 10.4018L7.78075 10.4711C7.83038 10.5154 7.89765 10.5735 7.98086 10.642C8.21805 10.8373 8.48466 11.0335 8.77185 11.2155C9.55283 11.7106 10.3249 12.0001 10.9998 12.0001C11.6963 12.0001 12.2542 11.8114 13.0971 11.3366L13.8746 10.8818L14.1794 10.7107C14.2749 10.6591 14.3659 10.6121 14.4564 10.5678C15.6443 9.98634 16.7347 9.94908 17.8866 10.6062L18.004 10.677L18.123 10.6061C19.2143 9.98362 20.2503 9.98435 21.3663 10.4806L21.553 10.5679L21.83 10.7109L22.6746 11.2C23.6543 11.7755 24.249 12.0001 25.0088 12.0001C25.6841 12.0001 26.4565 11.7106 27.2377 11.2155C27.4292 11.0941 27.6115 10.9665 27.7821 10.837L28.0287 10.642C28.0994 10.5838 28.1585 10.5332 28.2051 10.4922C28.3656 10.2894 28.6029 10.1502 28.8732 10.1188L28.9998 10.1121ZM25.0088 14.0001C26.0201 14.0001 27.0233 13.6604 27.9992 13.0927L27.9998 18.0401L27.9932 18.3634C27.9365 19.7611 27.513 21.1131 26.7673 22.2987C25.9627 23.5794 24.8112 24.6219 23.4245 25.3078L21.7909 26.1171L21.4671 26.2689C20.3783 26.7518 19.1977 27.0001 18.0048 27.0001C16.6929 27.0001 15.3965 26.6998 14.2182 26.1168L12.5857 25.3081L12.292 25.1555C11.0351 24.471 9.98765 23.4867 9.24155 22.2991C8.4387 21.0227 8.0098 19.553 8.0098 18.0401V13.0925C8.98563 13.6603 9.98875 14.0001 10.9998 14.0001C12.1991 14.0001 13.0863 13.6651 14.3472 12.9246L15.0052 12.5393C15.1287 12.4698 15.2353 12.4132 15.3356 12.3641L15.4759 12.2987C16.1608 11.9958 16.6141 12.0631 17.3678 12.6713C17.5457 12.8149 17.7673 12.8931 17.9958 12.8931L18.1498 12.8838C18.3292 12.8592 18.4995 12.7861 18.6418 12.6713C19.4458 12.0226 19.9077 11.9892 20.6736 12.3642L20.7763 12.4159C20.8115 12.4342 20.8478 12.4534 20.8856 12.4739L21.1335 12.6133L21.9462 13.0883C23.0606 13.7146 23.9017 14.0001 25.0088 14.0001ZM16.1336 14.6068C16.0066 14.5509 15.8693 14.522 15.7305 14.522L15.6129 14.5287C15.1155 14.5865 14.7295 15.0091 14.7295 15.522L14.7362 15.6386C14.7762 15.9829 14.9911 16.2739 15.2897 16.4203L15.6133 16.5552C17.245 17.1849 19.0644 17.1456 20.672 16.436L20.7103 16.4203C21.0421 16.2576 21.2705 15.9165 21.2705 15.522C21.2705 14.9697 20.8228 14.522 20.2695 14.522L20.1315 14.5315C20.0403 14.5442 19.951 14.5695 19.8664 14.6068C18.6772 15.1307 17.3228 15.1307 16.1336 14.6068Z" fill="black"/>
</svg>
