<svg width="36" height="36" viewBox="0 0 36 36" fill="none" xmlns="http://www.w3.org/2000/svg">
<path fill-rule="evenodd" clip-rule="evenodd" d="M27 11H25V24H23V10C23 9.44772 23.4477 9 24 9H28C28.5523 9 29 9.44772 29 10V24H27V11ZM17 15H19V24H21V14C21 13.4477 20.5523 13 20 13H16C15.4477 13 15 13.4477 15 14V24H17V15ZM11 19H9V24H7V18C7 17.4477 7.44772 17 8 17H12C12.5523 17 13 17.4477 13 18V24H11V19ZM29.5 27H6.5C5.94772 27 5.5 26.5523 5.5 26C5.5 25.4477 5.94772 25 6.5 25H29.5C30.0523 25 30.5 25.4477 30.5 26C30.5 26.5523 30.0523 27 29.5 27Z" fill="black"/>
</svg>
