<svg width="36" height="36" viewBox="0 0 36 36" fill="none" xmlns="http://www.w3.org/2000/svg">
<path fill-rule="evenodd" clip-rule="evenodd" d="M27 10C27.5523 10 28 10.4477 28 11V30C28 30.5523 27.5523 31 27 31H9C8.44772 31 8 30.5523 8 30V11C8 10.4477 8.44772 10 9 10H27ZM26 12H10V29H26V12ZM12 8H24C24.5523 8 25 7.55228 25 7C25 6.44772 24.5523 6 24 6H12C11.4477 6 11 6.44772 11 7C11 7.55228 11.4477 8 12 8ZM22 15C22 17.2091 20.2093 19 18 19C15.7907 19 14 17.2091 14 15C14 14.4477 13.5523 14 13 14C12.4477 14 12 14.4477 12 15C12 18.3136 14.686 21 18 21C21.314 21 24 18.3136 24 15C24 14.4477 23.5523 14 23 14C22.4477 14 22 14.4477 22 15Z" fill="black"/>
</svg>
