<svg width="36" height="36" viewBox="0 0 36 36" fill="none" xmlns="http://www.w3.org/2000/svg">
<path fill-rule="evenodd" clip-rule="evenodd" d="M14.5528 7.10557L10.5528 9.10557C10.214 9.27496 10 9.62122 10 9.99999V14.1338C9.7011 14.3067 9.5 14.6299 9.5 15V23H9C8.44772 23 8 23.4477 8 24V29C8 29.5523 8.44772 30 9 30H17C17.5523 30 18 29.5523 18 29V24C18 23.4477 17.5523 23 17 23H16.5V15C16.5 14.6299 16.2989 14.3067 16 14.1338V7.99999C16 7.25661 15.2177 6.77312 14.5528 7.10557ZM14.5 16H11.5V23H14.5V16ZM14 14V9.61799L12 10.618V14H14ZM10 25H10.5H15.5H16V28H10V25ZM21.3014 7.23861L21.4307 7.20399C22.4587 6.93146 25.5413 6.93146 26.5693 7.20399L26.6949 7.23764C27.9577 7.57057 28.7416 8.82982 28.4844 10.1105L28.4477 10.2443L27 14.3757V26.9996C27 28.6566 25.6566 29.9996 24 29.9996C22.4026 29.9996 21.0964 28.7508 21.0051 27.1759L21 26.9996V14.3757L19.5523 10.2443L19.5156 10.1105C19.2584 8.82982 20.0423 7.57057 21.3014 7.23861ZM23 15.2056V26.9996C23 27.5519 23.4479 27.9996 24 27.9996C24.5127 27.9996 24.9355 27.6136 24.9933 27.1162L25 26.9996V15.2056H23ZM26.1814 9.17058L26.0544 9.13658L25.9143 9.10673C25.0506 8.95436 22.5948 8.96448 21.9456 9.13658L21.8149 9.17155C21.576 9.23454 21.4275 9.4731 21.4764 9.71673L21.471 9.67399L22.709 13.205H25.29L26.528 9.67399L26.5327 9.63594C26.5376 9.44896 26.4301 9.27643 26.2586 9.19813L26.1814 9.17058Z" fill="black"/>
</svg>
