<svg width="36" height="36" viewBox="0 0 36 36" fill="none" xmlns="http://www.w3.org/2000/svg">
<path fill-rule="evenodd" clip-rule="evenodd" d="M9 7C10.5971 7 11.9036 8.24945 11.9949 9.82378L12 10V20H25C26.0545 20 26.9182 19.1843 26.9945 18.1493L27 18V12H16C15.4477 12 15 11.5523 15 11C15 10.4872 15.386 10.0645 15.8834 10.0067L16 10H28C28.5128 10 28.9355 10.386 28.9933 10.8834C28.9977 10.9216 29 10.9606 29 11V18C29 20.1423 27.3162 21.8911 25.1997 21.9951L25 22H12V25C12 25.5123 12.3865 25.9354 12.8835 25.9933L13 26H28C28.5523 26 29 26.4477 29 27C29 27.5128 28.614 27.9355 28.1166 27.9933L28 28H27V29C27 29.5523 26.5523 30 26 30C25.4872 30 25.0645 29.614 25.0067 29.1166L25 29V28H15V29C15 29.5523 14.5523 30 14 30C13.4872 30 13.0645 29.614 13.0067 29.1166L13 29V28C11.4029 28 10.0964 26.7506 10.0051 25.1762L10 25V21V10C10 9.48769 9.61347 9.06457 9.11652 9.00674L9 9H7C6.44772 9 6 8.55228 6 8C6 7.48716 6.38604 7.06449 6.88338 7.00673L7 7H9Z" fill="black"/>
</svg>
