<svg width="36" height="36" viewBox="0 0 36 36" fill="none" xmlns="http://www.w3.org/2000/svg">
<path fill-rule="evenodd" clip-rule="evenodd" d="M21.2525 8.6642C21.0898 8.48116 21 8.24482 21 7.99998V6.34386L20.5873 6.47987C14.1888 8.63888 10.9045 12.1139 10.1682 16.4335C9.59944 19.7699 10.6874 23.5584 12.4535 26H21.489C22.3937 24.4167 22.0415 22.9562 20.6232 20.537L20.1369 19.7144L19.8429 19.2013C19.5542 18.6811 19.3509 18.2518 19.2108 17.8366C19.0509 17.3632 18.9797 16.9104 19.0079 16.4833C17.8451 15.8389 17 14.6097 17 13.042C17 12.4897 17.4477 12.042 18 12.042C18.5523 12.042 19 12.4897 19 13.042L19.0052 13.1918C19.1095 14.6678 20.7451 15.4589 21.9497 14.665C22.3161 14.4235 22.7971 14.4491 23.1358 14.7281L25.3113 16.5228C25.386 16.5927 25.5015 16.5942 25.5778 16.5263L26.9156 15.3344C26.9954 15.2631 27.0046 15.1426 26.9605 15.0882L21.2525 8.6642ZM11.9673 28H11.95H9C8.44772 28 8 27.5523 8 27C8 26.4477 8.44772 26 9 26H10.0786C8.48055 23.2105 7.61746 19.4949 8.19659 16.0974C9.13431 10.5964 13.5197 6.32978 21.731 4.03682C22.3685 3.85881 23 4.33809 23 4.99998V7.61993L28.4788 13.7869C29.2312 14.6971 29.1289 16.0386 28.2472 16.8266L26.9078 18.02C26.0587 18.7756 24.7743 18.7595 23.9922 18.0248L22.3752 16.6928C21.9374 16.8728 21.4847 16.9651 21.0364 16.9788C21.1162 17.277 21.3094 17.6878 21.647 18.301L21.9687 18.8717L22.5089 19.803C23.8941 22.2343 24.4004 24.0983 23.7013 26H25C25.5523 26 26 26.4477 26 27C26 27.5523 25.5523 28 25 28H11.9673ZM25.995 32H8C7.44772 32 7 31.5523 7 31C7 30.4477 7.44772 30 8 30H25.995C26.5473 30 26.995 30.4477 26.995 31C26.995 31.5523 26.5473 32 25.995 32Z" fill="black"/>
</svg>
