<svg width="36" height="36" viewBox="0 0 36 36" fill="none" xmlns="http://www.w3.org/2000/svg">
<path fill-rule="evenodd" clip-rule="evenodd" d="M17.9999 30.9998C25.1795 30.9998 30.9999 25.1797 30.9999 17.9998C30.9999 10.8205 25.1792 4.99979 17.9999 4.99979C10.8206 4.99979 4.99991 10.8205 4.99991 17.9998C4.99991 25.1797 10.8203 30.9998 17.9999 30.9998ZM17.9999 6.99979C24.0746 6.99979 28.9999 11.9251 28.9999 17.9998C28.9999 24.0751 24.075 28.9998 17.9999 28.9998C11.9248 28.9998 6.99991 24.0751 6.99991 17.9998C6.99991 11.9251 11.9252 6.99979 17.9999 6.99979ZM16.9999 11.9998V16.9998H11.9999C11.4476 16.9998 10.9999 17.4475 10.9999 17.9998C10.9999 18.5521 11.4476 18.9998 11.9999 18.9998H16.9999V23.9998C16.9999 24.5521 17.4476 24.9998 17.9999 24.9998C18.5522 24.9998 18.9999 24.5521 18.9999 23.9998V18.9998H23.9999C24.5522 18.9998 24.9999 18.5521 24.9999 17.9998C24.9999 17.4475 24.5522 16.9998 23.9999 16.9998H18.9999V11.9998C18.9999 11.4475 18.5522 10.9998 17.9999 10.9998C17.4476 10.9998 16.9999 11.4475 16.9999 11.9998Z" fill="black"/>
</svg>
