<svg width="36" height="36" viewBox="0 0 36 36" fill="none" xmlns="http://www.w3.org/2000/svg">
<path fill-rule="evenodd" clip-rule="evenodd" d="M28 9C29.6563 9 31 10.3437 31 12V25C31 26.6563 29.6563 28 28 28H8C6.34372 28 5 26.6563 5 25V12C5 10.3437 6.34372 9 8 9H28ZM28 11H8C7.44828 11 7 11.4483 7 12V25C7 25.5517 7.44828 26 8 26H28C28.5517 26 29 25.5517 29 25V12C29 11.4483 28.5517 11 28 11ZM25.2071 14.7071C25.5976 14.3166 25.5976 13.6834 25.2071 13.2929C24.8166 12.9024 24.1834 12.9024 23.7929 13.2929L19.2929 17.7929C18.9024 18.1834 18.9024 18.8166 19.2929 19.2071L23.7929 23.7071C24.1834 24.0976 24.8166 24.0976 25.2071 23.7071C25.5976 23.3166 25.5976 22.6834 25.2071 22.2929L21.4142 18.5L25.2071 14.7071Z" fill="black"/>
</svg>
