<svg width="36" height="36" viewBox="0 0 36 36" fill="none" xmlns="http://www.w3.org/2000/svg">
<path fill-rule="evenodd" clip-rule="evenodd" d="M28.9933 9.88338C28.9355 9.38604 28.5128 9 28 9C27.4477 9 27 9.44772 27 10V19.57L26.9947 19.8184C26.9064 21.881 25.7233 23.7443 23.891 24.6805L20.558 26.3835L20.3145 26.5006C18.7598 27.2035 16.9707 27.1644 15.4419 26.3835L12.109 24.6805L11.8923 24.5638C10.1126 23.5546 9 21.6473 9 19.57V10L8.99327 9.88338C8.93551 9.38604 8.51284 9 8 9C7.44772 9 7 9.44772 7 10V19.57L7.00504 19.8508C7.10569 22.6505 8.70595 25.1877 11.199 26.4615L14.532 28.1645L14.8066 28.2979C16.9267 29.2766 19.3781 29.2321 21.4679 28.1645L24.801 26.4615L25.0473 26.3299C27.4802 24.973 29 22.386 29 19.57V10L28.9933 9.88338ZM19.5307 14.2543C19.6664 13.7189 20.2104 13.3949 20.7457 13.5307C21.2811 13.6664 21.6051 14.2104 21.4693 14.7457C21.4142 14.9631 21.3153 15.2536 21.1583 15.5586C20.984 15.897 20.7724 16.1799 20.4857 16.3914C19.8906 16.8294 19.0239 17.0054 18.0052 17C16.9761 17.0054 16.1094 16.8294 15.5133 16.3907C15.2276 16.1799 15.016 15.897 14.8417 15.5586C14.6847 15.2536 14.5858 14.9631 14.5307 14.7457C14.3949 14.2104 14.7189 13.6664 15.2543 13.5307C15.7514 13.4046 16.256 13.675 16.4342 14.1429L16.5098 14.3851C16.5373 14.4631 16.5749 14.5557 16.6199 14.643L16.6997 14.7806C16.867 14.9037 17.3578 15.0034 18.0052 15C18.6422 15.0034 19.133 14.9037 19.2993 14.7813L19.3801 14.643C19.4251 14.5557 19.4627 14.4631 19.4902 14.3851L19.5307 14.2543ZM20.5 20C21.0523 20 21.5 20.4477 21.5 21C21.5 21.5128 21.114 21.9355 20.6166 21.9933L20.5 22H15.5C14.9477 22 14.5 21.5523 14.5 21C14.5 20.4872 14.886 20.0645 15.3834 20.0067L15.5 20H20.5Z" fill="black"/>
</svg>
