<svg width="36" height="36" viewBox="0 0 36 36" fill="none" xmlns="http://www.w3.org/2000/svg">
<path fill-rule="evenodd" clip-rule="evenodd" d="M8 9H28C29.6563 9 31 10.3437 31 12V25C31 26.6563 29.6563 28 28 28H8C6.34372 28 5 26.6563 5 25V12C5 10.3437 6.34372 9 8 9ZM28 11H8C7.44828 11 7 11.4483 7 12V25C7 25.5517 7.44828 26 8 26H28C28.5517 26 29 25.5517 29 25V12C29 11.4483 28.5517 11 28 11ZM24.7929 14.2929C25.1834 13.9024 25.8166 13.9024 26.2071 14.2929C26.5676 14.6534 26.5953 15.2206 26.2903 15.6129L26.2071 15.7071L23.4142 18.5L26.2071 21.2929C26.5976 21.6834 26.5976 22.3166 26.2071 22.7071C25.8466 23.0676 25.2794 23.0953 24.8871 22.7903L24.7929 22.7071L22 19.9142L19.2071 22.7071C18.8166 23.0976 18.1834 23.0976 17.7929 22.7071C17.4324 22.3466 17.4047 21.7794 17.7097 21.3871L17.7929 21.2929L20.5858 18.5L17.7929 15.7071C17.4024 15.3166 17.4024 14.6834 17.7929 14.2929C18.1534 13.9324 18.7206 13.9047 19.1129 14.2097L19.2071 14.2929L22 17.0858L24.7929 14.2929Z" fill="black"/>
</svg>
