<svg width="36" height="36" viewBox="0 0 36 36" fill="none" xmlns="http://www.w3.org/2000/svg">
<path fill-rule="evenodd" clip-rule="evenodd" d="M18 5C25.1793 5 31 10.8207 31 18C31 25.1793 25.1793 31 18 31C10.8207 31 5 25.1793 5 18C5 10.8207 10.8207 5 18 5ZM18 7C11.9253 7 7 11.9253 7 18C7 24.0747 11.9253 29 18 29C24.0747 29 29 24.0747 29 18C29 11.9253 24.0747 7 18 7ZM18 18.382L14.5528 20.1056C14.0588 20.3526 13.8586 20.9532 14.1056 21.4472C14.3526 21.9412 14.9532 22.1414 15.4472 21.8944L19.4472 19.8944C19.786 19.725 20 19.3788 20 19V12C20 11.4477 19.5523 11 19 11C18.4477 11 18 11.4477 18 12V18.382Z" fill="black"/>
</svg>
