<svg width="36" height="36" viewBox="0 0 36 36" fill="none" xmlns="http://www.w3.org/2000/svg">
<path fill-rule="evenodd" clip-rule="evenodd" d="M11.9999 7C12.5127 7 12.9354 7.38604 12.9932 7.88338L12.9999 8V9H22.9999V8C22.9999 7.44772 23.4476 7 23.9999 7C24.5127 7 24.9354 7.38604 24.9932 7.88338L24.9999 8V9H27.9999C29.1042 9 29.9999 9.89572 29.9999 11V27C29.9999 28.1043 29.1042 29 27.9999 29H7.99991C6.89562 29 5.99991 28.1043 5.99991 27V11C5.99991 9.89572 6.89562 9 7.99991 9H10.9999V8C10.9999 7.44772 11.4476 7 11.9999 7ZM22.9999 11V12L23.0066 12.1166C23.0644 12.614 23.4871 13 23.9999 13C24.5522 13 24.9999 12.5523 24.9999 12V11H27.9999V15H7.99991V11H10.9999V12L11.0066 12.1166C11.0644 12.614 11.4871 13 11.9999 13C12.5522 13 12.9999 12.5523 12.9999 12V11H22.9999ZM7.99991 17H27.9999V27H7.99991V17ZM22.207 18.7934C21.8165 18.4029 21.1834 18.4029 20.7928 18.7934L16.999 22.585L15.207 20.7929L15.1128 20.7097C14.7205 20.4047 14.1533 20.4324 13.7928 20.7929C13.4023 21.1834 13.4023 21.8166 13.7928 22.2071L16.2929 24.7071L16.3871 24.7903C16.7794 25.0953 17.3466 25.0676 17.7071 24.7071L22.207 20.2076L22.2902 20.1134C22.5952 19.7212 22.5675 19.1539 22.207 18.7934Z" fill="black"/>
</svg>
