<svg width="36" height="36" viewBox="0 0 36 36" fill="none" xmlns="http://www.w3.org/2000/svg">
<path fill-rule="evenodd" clip-rule="evenodd" d="M28 9H8C6.34372 9 5 10.3437 5 12V25C5 26.6563 6.34372 28 8 28H28C29.6563 28 31 26.6563 31 25V12C31 10.3437 29.6563 9 28 9ZM20.0189 19.0647L24.29 14.7934C24.6812 14.4022 25.3154 14.4022 25.7066 14.7934C26.0978 15.1846 26.0978 15.8188 25.7066 16.21L21.4357 20.481L24.673 20.4966C25.2262 20.4992 25.6725 20.9498 25.6698 21.5031C25.6672 22.0563 25.2165 22.5026 24.6633 22.5L19.0239 22.4729C18.4745 22.4703 18.0297 22.0255 18.0271 21.476L18 15.8364C17.9974 15.2832 18.4437 14.8325 18.9969 14.8299C19.5501 14.8272 20.0007 15.2735 20.0033 15.8268L20.0189 19.0647ZM28 11H8C7.44828 11 7 11.4483 7 12V25C7 25.5517 7.44828 26 8 26H28C28.5517 26 29 25.5517 29 25V12C29 11.4483 28.5517 11 28 11Z" fill="black"/>
</svg>
