<svg width="36" height="36" viewBox="0 0 36 36" fill="none" xmlns="http://www.w3.org/2000/svg">
<path fill-rule="evenodd" clip-rule="evenodd" d="M29 9C29 7.34372 27.6563 6 26 6H10C8.34372 6 7 7.34372 7 9V27C7 28.6563 8.34372 30 10 30H26C27.6563 30 29 28.6563 29 27V9ZM10 8H26C26.5517 8 27 8.44828 27 9V27C27 27.5517 26.5517 28 26 28H10C9.44828 28 9 27.5517 9 27V9C9 8.44828 9.44828 8 10 8ZM11 13H25V11H11V13ZM14 18H12C11.4477 18 11 17.5523 11 17C11 16.4477 11.4477 16 12 16H14C14.5523 16 15 16.4477 15 17C15 17.5523 14.5523 18 14 18ZM22 18H24C24.5523 18 25 17.5523 25 17C25 16.4477 24.5523 16 24 16H22C21.4477 16 21 16.4477 21 17C21 17.5523 21.4477 18 22 18ZM19 18H17C16.4477 18 16 17.5523 16 17C16 16.4477 16.4477 16 17 16H19C19.5523 16 20 16.4477 20 17C20 17.5523 19.5523 18 19 18ZM12 22H14C14.5523 22 15 21.5523 15 21C15 20.4477 14.5523 20 14 20H12C11.4477 20 11 20.4477 11 21C11 21.5523 11.4477 22 12 22ZM24 22H22C21.4477 22 21 21.5523 21 21C21 20.4477 21.4477 20 22 20H24C24.5523 20 25 20.4477 25 21C25 21.5523 24.5523 22 24 22ZM17 22H19C19.5523 22 20 21.5523 20 21C20 20.4477 19.5523 20 19 20H17C16.4477 20 16 20.4477 16 21C16 21.5523 16.4477 22 17 22ZM14 26H12C11.4477 26 11 25.5523 11 25C11 24.4477 11.4477 24 12 24H14C14.5523 24 15 24.4477 15 25C15 25.5523 14.5523 26 14 26ZM22 26H24C24.5523 26 25 25.5523 25 25C25 24.4477 24.5523 24 24 24H22C21.4477 24 21 24.4477 21 25C21 25.5523 21.4477 26 22 26ZM19 26H17C16.4477 26 16 25.5523 16 25C16 24.4477 16.4477 24 17 24H19C19.5523 24 20 24.4477 20 25C20 25.5523 19.5523 26 19 26Z" fill="black"/>
</svg>
