<svg width="36" height="36" viewBox="0 0 36 36" fill="none" xmlns="http://www.w3.org/2000/svg">
<path fill-rule="evenodd" clip-rule="evenodd" d="M28 9C29.6563 9 31 10.3437 31 12V25C31 26.6563 29.6563 28 28 28H8C6.34372 28 5 26.6563 5 25V12C5 10.3437 6.34372 9 8 9H28ZM28 11H8C7.44828 11 7 11.4483 7 12V25C7 25.5517 7.44828 26 8 26H28C28.5517 26 29 25.5517 29 25V12C29 11.4483 28.5517 11 28 11ZM9 16H27V14H9V16ZM23 20H21.5C20.9477 20 20.5 20.4477 20.5 21C20.5 21.5523 20.9477 22 21.5 22H23V23.5C23 24.0523 23.4477 24.5 24 24.5C24.5523 24.5 25 24.0523 25 23.5V22H26.5C27.0523 22 27.5 21.5523 27.5 21C27.5 20.4477 27.0523 20 26.5 20H25V18.5C25 17.9477 24.5523 17.5 24 17.5C23.4477 17.5 23 17.9477 23 18.5V20Z" fill="black"/>
</svg>
