<svg width="36" height="36" viewBox="0 0 36 36" fill="none" xmlns="http://www.w3.org/2000/svg">
<path fill-rule="evenodd" clip-rule="evenodd" d="M21.0781 9.7823C22.6346 8.22442 25.16 8.22442 26.7179 9.7823C28.274 11.3398 28.274 13.8645 26.7176 15.4222C26.4713 15.6685 26.1975 15.8772 25.9028 16.0467L25.807 16.097L25.8605 16.1891C28.4762 20.7586 28.6506 23.2973 25.7302 26.3234L25.5475 26.5093L21.7675 30.2883C21.3769 30.6788 20.7438 30.6787 20.3533 30.2881C19.9929 29.9276 19.9652 29.3603 20.2703 28.9681L20.3535 28.8739L24.1334 25.095C26.6322 22.5962 26.3538 20.791 23.4656 16.0721C23.111 15.4928 23.4262 14.7493 24.0623 14.5832L24.1778 14.5601C24.6123 14.4983 25.0009 14.3105 25.3031 14.0083C26.079 13.2318 26.079 11.9725 25.3034 11.1962C24.527 10.4198 23.2684 10.4198 22.4926 11.1962C22.2328 11.456 22.0582 11.7777 21.9747 12.1384L21.9405 12.3219C21.8393 13.034 21.0419 13.4095 20.4285 13.034C15.8081 10.2061 13.9802 9.88016 11.5609 12.2137L7.62561 16.1462C7.23509 16.5367 6.60192 16.5367 6.2114 16.1462C5.85091 15.7857 5.82318 15.2185 6.12821 14.8262L6.2114 14.732L9.99129 10.9521C13.0349 7.9076 15.5423 7.96614 20.0228 10.4756L20.402 10.692L20.4536 10.597C20.5807 10.3761 20.7298 10.1669 20.9004 9.97214L21.0781 9.7823ZM12.575 14.0255C12.9655 13.635 13.5987 13.635 13.9892 14.0255C14.3497 14.386 14.3774 14.9532 14.0724 15.3455L13.9892 15.4397L10.4542 18.9747C10.0637 19.3652 9.43052 19.3652 9.04 18.9747C8.67951 18.6142 8.65178 18.047 8.95681 17.6547L9.04 17.5605L12.575 14.0255ZM16.8183 16.8536C16.4278 16.4631 15.7946 16.4631 15.4041 16.8536L11.8681 20.3896L11.7849 20.4838C11.4799 20.8761 11.5076 21.4433 11.8681 21.8038C12.2586 22.1943 12.8918 22.1943 13.2823 21.8038L16.8183 18.2678L16.9015 18.1736C17.2065 17.7813 17.1788 17.2141 16.8183 16.8536ZM18.2322 19.6817C18.6227 19.2912 19.2559 19.2912 19.6464 19.6817C20.0069 20.0422 20.0346 20.6094 19.7296 21.0017L19.6464 21.0959L16.1104 24.6319C15.7199 25.0224 15.0867 25.0224 14.6962 24.6319C14.3357 24.2714 14.308 23.7042 14.613 23.3119L14.6962 23.2177L18.2322 19.6817ZM22.4745 22.5108C22.084 22.1203 21.4508 22.1203 21.0603 22.5108L17.5253 26.0458L17.4421 26.14C17.1371 26.5323 17.1648 27.0995 17.5253 27.46C17.9158 27.8505 18.549 27.8505 18.9395 27.46L22.4745 23.925L22.5577 23.8308C22.8627 23.4385 22.835 22.8713 22.4745 22.5108Z" fill="black"/>
</svg>
