<svg width="36" height="36" viewBox="0 0 36 36" fill="none" xmlns="http://www.w3.org/2000/svg">
<path fill-rule="evenodd" clip-rule="evenodd" d="M12.1238 8C10.9031 8 9.77765 8.66141 9.18407 9.72756L6.73832 14.0874L6.52614 14.1924C4.99425 14.9885 3.99979 16.3419 3.99979 18V23.431C3.99979 25.9352 6.0304 27.965 8.53479 27.965C10.5198 27.965 12.2766 26.6824 13.1451 25H22.8597C23.7364 26.6526 25.5569 27.965 27.4658 27.965C29.9701 27.965 31.9998 25.9353 31.9998 23.431V18C31.9998 16.2119 31.102 14.809 29.52 14.0723L26.7909 9.68574C26.2219 8.66131 25.0974 8 23.8768 8H12.1238ZM28.3452 15.97H28.8438L29.0025 16.0634C29.6647 16.4848 29.9998 17.1253 29.9998 18V23.431C29.9998 24.8307 28.8655 25.965 27.4658 25.965C26.2169 25.965 24.8786 24.8669 24.4497 23.6641L24.2129 23H11.7862L11.5497 23.6647C11.1034 24.9189 9.85443 25.965 8.53479 25.965C7.13479 25.965 5.99979 24.8304 5.99979 23.431V18C5.99979 17.1692 6.52784 16.4467 7.44271 15.97H7.97541L7.97556 15.9697H28.345L28.3452 15.97ZM27.1009 13.9697L24.9896 10.5758C24.7358 10.2171 24.322 10 23.8768 10H12.1238C11.6287 10 11.172 10.2684 10.9299 10.7033L9.09752 13.9697H27.1009ZM10.4659 17.9996C9.79689 17.9996 9.27289 18.5296 9.27289 19.1816C9.27289 19.8386 9.80689 20.3636 10.4659 20.3636H12.8069C13.4759 20.3636 13.9999 19.8346 13.9999 19.1816C13.9999 18.5246 13.4659 17.9996 12.8069 17.9996H10.4659ZM23.193 17.9996C22.524 17.9996 22 18.5296 22 19.1816C22 19.8386 22.534 20.3636 23.193 20.3636H25.534C26.203 20.3636 26.727 19.8346 26.727 19.1816C26.727 18.5246 26.193 17.9996 25.534 17.9996H23.193Z" fill="black"/>
</svg>
