<svg width="36" height="36" viewBox="0 0 36 36" fill="none" xmlns="http://www.w3.org/2000/svg">
<path fill-rule="evenodd" clip-rule="evenodd" d="M28 8C29.5971 8 30.9036 9.24945 30.9949 10.8238L31 11V19H29V11C29 10.4877 28.6135 10.0646 28.1165 10.0067L28 10H8C7.48769 10 7.06457 10.3865 7.00674 10.8835L7 11V24C7 24.5123 7.38653 24.9354 7.88348 24.9933L8 25H11V23H13V25H15V27H8C6.40287 27 5.09638 25.7506 5.00509 24.1762L5 24V11C5 9.40287 6.24945 8.09638 7.82378 8.00509L8 8H28ZM19 23H17V21H15V23V25H17V27H19H21V25H23V23H21V21H19V23ZM19 23H21V25H19V23ZM23 29H25V27H23V29ZM31 29H29V27H31V29ZM31 23H33V21H31V23ZM25 21H23V19H25V21ZM27 25H25V23H27V25ZM27 15V13H9V15H27Z" fill="black"/>
</svg>
