<svg width="36" height="36" viewBox="0 0 36 36" fill="none" xmlns="http://www.w3.org/2000/svg">
<path fill-rule="evenodd" clip-rule="evenodd" d="M29.432 17.5997C29.432 11.2858 24.3136 6.16772 18 6.16772C11.6864 6.16772 6.568 11.2858 6.568 17.5997C6.568 19.7675 7.17282 21.8479 8.29685 23.6475C8.58943 24.1159 9.20634 24.2585 9.67476 23.9659C10.1432 23.6733 10.2857 23.0564 9.99315 22.588C9.06623 21.104 8.568 19.3902 8.568 17.5997C8.568 12.3904 12.7909 8.16772 18 8.16772C23.2091 8.16772 27.432 12.3904 27.432 17.5997C27.432 19.389 26.9335 21.103 26.0066 22.5883C25.7142 23.0569 25.8571 23.6737 26.3256 23.9661C26.7942 24.2585 27.411 24.1157 27.7034 23.6471C28.8269 21.8465 29.432 19.7662 29.432 17.5997ZM18.9933 13.5792C18.9355 13.0819 18.5128 12.6958 18 12.6958C17.4477 12.6958 17 13.1435 17 13.6958V19.2694L14.7095 16.9638L14.6156 16.8803C14.2243 16.574 13.657 16.5998 13.2953 16.959C12.9034 17.3483 12.9013 17.9814 13.2905 18.3732L17.2905 22.4002L17.3849 22.4841C17.7781 22.7916 18.3485 22.7637 18.7095 22.4002L22.7095 18.3732L22.7924 18.2788C23.0961 17.8854 23.0664 17.3183 22.7047 16.959L22.6102 16.8762C22.2169 16.5725 21.6498 16.6021 21.2905 16.9638L19 19.2694V13.6958L18.9933 13.5792ZM31 27C31 26.4477 30.5523 26 30 26H6L5.88338 26.0068C5.38604 26.0645 5 26.4872 5 27C5 27.5523 5.44772 28 6 28H30L30.1166 27.9933C30.614 27.9355 31 27.5129 31 27Z" fill="black"/>
</svg>
