<svg width="36" height="36" viewBox="0 0 36 36" fill="none" xmlns="http://www.w3.org/2000/svg">
<path fill-rule="evenodd" clip-rule="evenodd" d="M14.4648 8.75715L17.9998 12.293L21.5359 8.75689C23.8184 6.47443 27.4837 6.41591 29.8371 8.58132L30.0201 8.75689L30.1958 8.93999C32.3621 11.2943 32.3035 14.9597 30.0201 17.2431L25.071 22.1922L18 15.1212L10.9286 22.1926L5.97977 17.2425C3.63604 14.9 3.63604 11.1007 5.97941 8.75734C8.32194 6.4136 12.1212 6.4136 14.4648 8.75715ZM7.3938 10.1714C8.90339 8.661 11.3204 8.61066 12.8912 10.0203L13.0505 10.1713L16.5856 13.7072L10.9288 19.364L7.39389 15.8282C5.83136 14.2665 5.83136 11.7338 7.3938 10.1714ZM28.6059 15.8289L25.071 19.3638L19.4142 13.707L22.9501 10.1711C24.5116 8.60963 27.0444 8.60963 28.6059 10.1711C30.1684 11.7336 30.1684 14.2664 28.6059 15.8289ZM19 22C19 22.552 18.552 23 18 23C17.448 23 17 22.552 17 22C17 21.448 17.448 21 18 21C18.552 21 19 21.448 19 22ZM19 28C19 28.552 18.552 29 18 29C17.448 29 17 28.552 17 28C17 27.448 17.448 27 18 27C18.552 27 19 27.448 19 28ZM15.5 25C15.5 25.552 15.052 26 14.5 26C13.948 26 13.5 25.552 13.5 25C13.5 24.448 13.948 24 14.5 24C15.052 24 15.5 24.448 15.5 25ZM22.5 25C22.5 25.552 22.052 26 21.5 26C20.948 26 20.5 25.552 20.5 25C20.5 24.448 20.948 24 21.5 24C22.052 24 22.5 24.448 22.5 25Z" fill="black"/>
</svg>
