<svg width="36" height="36" viewBox="0 0 36 36" fill="none" xmlns="http://www.w3.org/2000/svg">
<path fill-rule="evenodd" clip-rule="evenodd" d="M28 12C28 10.3437 26.6563 9 25 9H7C5.34372 9 4 10.3437 4 12V22C4 23.6563 5.34372 25 7 25H8V26C8 27.6563 9.34372 29 11 29H29C30.6563 29 32 27.6563 32 26V16C32 14.3437 30.6563 13 29 13H28V12ZM28 15V22C28 23.6563 26.6563 25 25 25H10V26C10 26.5517 10.4483 27 11 27H29C29.5517 27 30 26.5517 30 26V16C30 15.4483 29.5517 15 29 15H28ZM25 11H7C6.44828 11 6 11.4483 6 12V22C6 22.5517 6.44828 23 7 23H25C25.5517 23 26 22.5517 26 22V12C26 11.4483 25.5517 11 25 11ZM8 15H24V13H8V15Z" fill="black"/>
</svg>
