<svg width="36" height="36" viewBox="0 0 36 36" fill="none" xmlns="http://www.w3.org/2000/svg">
<path fill-rule="evenodd" clip-rule="evenodd" d="M9 30H27C28.6563 30 30 28.6563 30 27V15C30 13.3437 28.6563 12 27 12H9C7.34372 12 6 13.3437 6 15V27C6 28.6563 7.34372 30 9 30ZM28 27C28 27.5517 27.5517 28 27 28H9C8.44828 28 8 27.5517 8 27V26H28V27ZM28 24H8V15C8 14.4483 8.44828 14 9 14H27C27.5517 14 28 14.4483 28 15V24ZM19 22H17C16.4477 22 16 21.5523 16 21C16 20.4477 16.4477 20 17 20H19C19.5523 20 20 20.4477 20 21C20 21.5523 19.5523 22 19 22ZM14 9V10.5H12V9C12 7.34372 13.3437 6 15 6H21C22.6563 6 24 7.34372 24 9V10.5H22V9C22 8.44828 21.5517 8 21 8H15C14.4483 8 14 8.44828 14 9Z" fill="black"/>
</svg>
