<svg width="36" height="36" viewBox="0 0 36 36" fill="none" xmlns="http://www.w3.org/2000/svg">
<path fill-rule="evenodd" clip-rule="evenodd" d="M6 28H30C30.5523 28 31 27.5523 31 27C31 26.4477 30.5523 26 30 26H6C5.44772 26 5 26.4477 5 27C5 27.5523 5.44772 28 6 28ZM18 12.0234C21.0663 12.0234 23 13.9463 23 17.0004C23 17.5527 23.4477 18.0004 24 18.0004C24.5523 18.0004 25 17.5527 25 17.0004C25 12.8392 22.1684 10.0234 18 10.0234C17.4477 10.0234 17 10.4711 17 11.0234C17 11.5757 17.4477 12.0234 18 12.0234ZM26.7852 23.6015C28.2133 21.705 29.0003 19.41 29.0003 17C29.0003 10.9247 24.0756 6 18.0003 6C11.925 6 7.0003 10.9247 7.0003 17C7.0003 19.4095 7.78702 21.7043 9.21422 23.6012C9.54626 24.0425 10.1732 24.1311 10.6145 23.7991C11.0558 23.467 11.1444 22.8401 10.8124 22.3988C9.64279 20.8443 9.0003 18.9702 9.0003 17C9.0003 12.0293 13.0296 8 18.0003 8C22.971 8 27.0003 12.0293 27.0003 17C27.0003 18.9705 26.3576 20.8444 25.1874 22.3985C24.8552 22.8397 24.9436 23.4666 25.3848 23.7989C25.826 24.1311 26.4529 24.0427 26.7852 23.6015Z" fill="black"/>
</svg>
