<svg width="36" height="36" viewBox="0 0 36 36" fill="none" xmlns="http://www.w3.org/2000/svg">
<path fill-rule="evenodd" clip-rule="evenodd" d="M23 9V8C23 7.44772 23.4477 7 24 7C24.5523 7 25 7.44772 25 8V9H28C29.1043 9 30 9.89572 30 11V27C30 28.1043 29.1043 29 28 29H8C6.89572 29 6 28.1043 6 27V16V11C6 9.89572 6.89572 9 8 9H11V8C11 7.44772 11.4477 7 12 7C12.5523 7 13 7.44772 13 8V9H23ZM8 17V27H28V17H8ZM28 15V11H25V12C25 12.5523 24.5523 13 24 13C23.4477 13 23 12.5523 23 12V11H13V12C13 12.5523 12.5523 13 12 13C11.4477 13 11 12.5523 11 12V11H8V15H28Z" fill="black"/>
</svg>
