<svg width="36" height="36" viewBox="0 0 36 36" fill="none" xmlns="http://www.w3.org/2000/svg">
<path fill-rule="evenodd" clip-rule="evenodd" d="M24 7C24.5128 7 24.9355 7.38604 24.9933 7.88338L25 8V9H28C29.1043 9 30 9.89572 30 11V27C30 28.1043 29.1043 29 28 29H8C6.89572 29 6 28.1043 6 27V11C6 9.89572 6.89572 9 8 9H11V8C11 7.44772 11.4477 7 12 7C12.5128 7 12.9355 7.38604 12.9933 7.88338L13 8V9H23V8C23 7.44772 23.4477 7 24 7ZM11 11V12L11.0067 12.1166C11.0645 12.614 11.4872 13 12 13C12.5523 13 13 12.5523 13 12V11H23V12L23.0067 12.1166C23.0645 12.614 23.4872 13 24 13C24.5523 13 25 12.5523 25 12V11H28V15.145H8V11H11ZM8 17.145H28V27H8V17.145ZM23.6565 18.9966C23.2754 18.5968 22.6424 18.5816 22.2427 18.9626L18.449 22.577L16.3679 20.7271L16.2694 20.6499C15.8953 20.3927 15.3867 20.4184 15.0394 20.7269L12.2684 23.1889L12.1798 23.2781C11.8522 23.6517 11.8464 24.2196 12.185 24.6007L12.2742 24.6893C12.6478 25.0169 13.2157 25.0227 13.5968 24.6841L15.703 22.812L17.8093 24.6839L17.9104 24.7629C18.2948 25.0254 18.8183 24.9894 19.1635 24.6604L23.6225 20.4104L23.708 20.3182C24.0223 19.9333 24.0082 19.3656 23.6565 18.9966Z" fill="black"/>
</svg>
