<svg width="36" height="36" viewBox="0 0 36 36" fill="none" xmlns="http://www.w3.org/2000/svg">
<path fill-rule="evenodd" clip-rule="evenodd" d="M8.22597 9.36652C8.33415 9.23376 8.47085 9.13559 8.62087 9.07442C14.73 6.42419 21.2699 6.42419 27.3791 9.07441C27.5291 9.13558 27.6658 9.23376 27.774 9.36652C27.8073 9.40724 27.8372 9.45039 27.8635 9.49549L30.8575 14.4855C31.0414 14.792 31.0477 15.1732 30.8742 15.4856L25.8742 24.4856C25.5639 25.0442 24.8166 25.1724 24.3378 24.7493L18.0532 19.1955L12.7178 24.6962C12.2741 25.1537 11.5215 25.0849 11.168 24.5547L5.16795 15.5547C4.95359 15.2332 4.94368 14.8169 5.14251 14.4855L8.13652 9.49548C8.16282 9.45038 8.1927 9.40724 8.22597 9.36652ZM10.9001 10.3254L18 16.4897L25.0999 10.3254C20.4343 8.67387 15.5657 8.67387 10.9001 10.3254ZM16.546 17.876L9.244 11.536L7.183 14.971L12.145 22.414L16.546 17.876ZM28.845 15.019L26.755 11.536L19.518 17.82L24.729 22.426L28.845 15.019ZM19 25V23H17V25H19ZM19 27V29H17V27H19Z" fill="black"/>
</svg>
