<svg width="36" height="36" viewBox="0 0 36 36" fill="none" xmlns="http://www.w3.org/2000/svg">
<path fill-rule="evenodd" clip-rule="evenodd" d="M7 7V12C7 12.5523 6.55228 13 6 13C5.44772 13 5 12.5523 5 12V7C5 5.89552 5.89491 5 7 5H12C12.5523 5 13 5.44772 13 6C13 6.55228 12.5523 7 12 7H7ZM24 7H29V12C29 12.5523 29.4477 13 30 13C30.5523 13 31 12.5523 31 12V7C31 5.89552 30.1051 5 29 5H24C23.4477 5 23 5.44772 23 6C23 6.55228 23.4477 7 24 7ZM24 12C25.1051 12 26 12.8955 26 14V22C26 23.1045 25.1051 24 24 24H12C10.8949 24 10 23.1045 10 22V14C10 12.8955 10.8949 12 12 12H24ZM24 14H12V16H24V14ZM24 18H12V22H24V18ZM12 29H7V24C7 23.4477 6.55228 23 6 23C5.44772 23 5 23.4477 5 24V29C5 30.1045 5.89491 31 7 31H12C12.5523 31 13 30.5523 13 30C13 29.4477 12.5523 29 12 29ZM29 29V24C29 23.4477 29.4477 23 30 23C30.5523 23 31 23.4477 31 24V29C31 30.1045 30.1051 31 29 31H24C23.4477 31 23 30.5523 23 30C23 29.4477 23.4477 29 24 29H29Z" fill="black"/>
</svg>
