<svg width="36" height="36" viewBox="0 0 36 36" fill="none" xmlns="http://www.w3.org/2000/svg">
<path fill-rule="evenodd" clip-rule="evenodd" d="M26.9998 24C26.9998 25.6563 25.656 27 23.9998 27H11.9998C10.3435 27 8.99976 25.6563 8.99976 24L8.99976 12C8.99976 10.3437 10.3435 9 11.9998 9H23.9998C25.656 9 26.9998 10.3437 26.9998 12V24ZM24.9998 24V12C24.9998 11.4483 24.5515 11 23.9998 11L11.9998 11C11.448 11 10.9998 11.4483 10.9998 12L10.9998 24C10.9998 24.5517 11.448 25 11.9998 25H23.9998C24.5515 25 24.9998 24.5517 24.9998 24ZM7.99976 23L7.99976 25H6.99976C5.89466 25 4.99976 24.1045 4.99976 23V13C4.99976 11.8955 5.89466 11 6.99976 11H7.99976L7.99976 13H6.99976L6.99976 23H7.99976ZM28.9998 13H27.9998V11H28.9998C30.1049 11 30.9998 11.8955 30.9998 13V23C30.9998 24.1045 30.1049 25 28.9998 25H27.9998V23H28.9998V13Z" fill="black"/>
</svg>
