<svg width="36" height="36" viewBox="0 0 36 36" fill="none" xmlns="http://www.w3.org/2000/svg">
<path fill-rule="evenodd" clip-rule="evenodd" d="M27 12C28.6563 12 30 13.3437 30 15V27C30 28.6563 28.6563 30 27 30H9C7.34372 30 6 28.6563 6 27V15C6 13.3437 7.34372 12 9 12H27ZM27 14H9C8.44828 14 8 14.4483 8 15V27C8 27.5517 8.44828 28 9 28H27C27.5517 28 28 27.5517 28 27V15C28 14.4483 27.5517 14 27 14ZM14 10.5V9C14 8.44828 14.4483 8 15 8H21C21.5517 8 22 8.44828 22 9V10.5H24V9C24 7.34372 22.6563 6 21 6H15C13.3437 6 12 7.34372 12 9V10.5H14ZM18.2929 23.7071C18.6855 24.0998 19.3229 24.0973 19.7125 23.7017L23.6515 19.7017C24.039 19.3081 24.0342 18.675 23.6407 18.2875C23.2471 17.9 22.614 17.9048 22.2265 18.2983L18.9945 21.5803L16.7071 19.2929C16.3166 18.9024 15.6834 18.9024 15.2929 19.2929L12.2929 22.2929C11.9024 22.6834 11.9024 23.3166 12.2929 23.7071C12.6834 24.0976 13.3166 24.0976 13.7071 23.7071L16 21.4142L18.2929 23.7071Z" fill="black"/>
</svg>
