<svg width="36" height="36" viewBox="0 0 36 36" fill="none" xmlns="http://www.w3.org/2000/svg">
<path fill-rule="evenodd" clip-rule="evenodd" d="M14.13 6H10C8.34372 6 7 7.34372 7 9V20V22V27C7 28.6563 8.34372 30 10 30H14.13C15.0057 30 15.7351 29.4302 16.0223 28.6233L16.1183 28.32C16.4005 27.5386 17.1472 27 18 27C18.8528 27 19.5995 27.5386 19.8814 28.3189L19.9774 28.6222C20.2649 29.4302 20.9943 30 21.87 30H26C27.6563 30 29 28.6563 29 27V22V20V9C29 7.34372 27.6563 6 26 6H21.87C20.9943 6 20.2649 6.56975 19.9777 7.37667L19.8817 7.67997C19.5995 8.46144 18.8528 9 18 9C17.1472 9 16.4005 8.46144 16.1186 7.6811L16.0226 7.3778C15.7351 6.56975 15.0057 6 14.13 6ZM9 22V27C9 27.5517 9.44828 28 10 28H14.13L14.2022 27.7415C14.7375 26.1234 16.2575 25 18 25C19.7425 25 21.2625 26.1234 21.7975 27.7403L21.8748 27.998L26 28C26.5517 28 27 27.5517 27 27V22H25V20H27V9C27 8.44828 26.5517 8 26 8H21.87L21.7978 8.25848C21.2625 9.87657 19.7425 11 18 11C16.2575 11 14.7375 9.87657 14.2025 8.25969L14.1252 8.00202L10 8C9.44828 8 9 8.44828 9 9V20H11V22H9ZM13 20V22H17V20H13ZM19 22V20H23V22H19Z" fill="black"/>
</svg>
