<svg width="36" height="36" viewBox="0 0 36 36" fill="none" xmlns="http://www.w3.org/2000/svg">
<path fill-rule="evenodd" clip-rule="evenodd" d="M8.568 18.4318C8.568 20.2223 9.06623 21.936 9.99315 23.42C10.2857 23.8884 10.1432 24.5053 9.67476 24.7979C9.20634 25.0905 8.58943 24.9479 8.29685 24.4795C7.17282 22.6799 6.568 20.5996 6.568 18.4318C6.568 12.1185 11.6867 6.99976 18 6.99976C24.3133 6.99976 29.432 12.1185 29.432 18.4318C29.432 20.5983 28.8269 22.6785 27.7034 24.4791C27.411 24.9477 26.7942 25.0905 26.3256 24.7981C25.8571 24.5058 25.7142 23.8889 26.0066 23.4204C26.9335 21.935 27.432 20.221 27.432 18.4318C27.432 13.223 23.2087 8.99976 18 8.99976C12.7913 8.99976 8.568 13.223 8.568 18.4318ZM20.4883 14.0001C19.5883 14.0001 18.6873 14.3451 18.0003 15.0341C17.3133 14.3451 16.4123 14.0001 15.5113 14.0001C14.3883 14.0001 13.2663 14.5351 12.5563 15.6061C11.6273 17.0101 11.9003 18.8981 13.0903 20.0911L16.6913 23.7021C17.0523 24.0641 17.5263 24.2451 18.0003 24.2451C18.4733 24.2451 18.9473 24.0641 19.3093 23.7021L22.9103 20.0911C24.0993 18.8981 24.3733 17.0101 23.4433 15.6061C22.7343 14.5351 21.6113 14.0001 20.4883 14.0001ZM20.4883 16.0001C21.0073 16.0001 21.4763 16.2591 21.7763 16.7101C22.1583 17.2881 22.0373 18.1341 21.4943 18.6791L18.0003 22.1821L14.5063 18.6791C13.9633 18.1341 13.8423 17.2881 14.2243 16.7101C14.5233 16.2591 14.9923 16.0001 15.5113 16.0001C15.9163 16.0001 16.2973 16.1581 16.5843 16.4461L18.0003 17.8661L19.4163 16.4461C19.7023 16.1581 20.0833 16.0001 20.4883 16.0001ZM5 28.0001C5 28.5523 5.44772 29.0001 6 29.0001H30C30.5523 29.0001 31 28.5523 31 28.0001C31 27.4478 30.5523 27.0001 30 27.0001H6C5.44772 27.0001 5 27.4478 5 28.0001Z" fill="black"/>
</svg>
