<svg width="36" height="36" viewBox="0 0 36 36" fill="none" xmlns="http://www.w3.org/2000/svg">
<path fill-rule="evenodd" clip-rule="evenodd" d="M28 9H8C6.34372 9 5 10.3437 5 12V25C5 26.6563 6.34372 28 8 28H28C29.6563 28 31 26.6563 31 25V12C31 10.3437 29.6563 9 28 9ZM23.9811 17.9353L19.71 22.2066C19.3188 22.5978 18.6846 22.5978 18.2934 22.2066C17.9022 21.8154 17.9022 21.1812 18.2934 20.79L22.5643 16.519L19.327 16.5034C18.7738 16.5008 18.3275 16.0502 18.3302 15.4969C18.3328 14.9437 18.7835 14.4974 19.3367 14.5L24.9761 14.5271C25.5255 14.5297 25.9703 14.9745 25.9729 15.524L26 21.1636C26.0026 21.7168 25.5563 22.1675 25.0031 22.1701C24.4499 22.1728 23.9993 21.7265 23.9967 21.1732L23.9811 17.9353ZM28 11H8C7.44828 11 7 11.4483 7 12V25C7 25.5517 7.44828 26 8 26H28C28.5517 26 29 25.5517 29 25V12C29 11.4483 28.5517 11 28 11Z" fill="black"/>
</svg>
