<svg width="36" height="36" viewBox="0 0 36 36" fill="none" xmlns="http://www.w3.org/2000/svg">
<path fill-rule="evenodd" clip-rule="evenodd" d="M26.2929 10.2929C26.9229 9.66298 28 10.1091 28 11.0001V22.0001C28 22.5523 27.5523 23.0001 27 23.0001H9C8.44772 23.0001 8 22.5523 8 22.0001V11.0001C8 10.1091 9.07714 9.66298 9.70711 10.2929L13.9171 14.5029L17.2191 10.3754C17.6195 9.87495 18.3805 9.87495 18.7809 10.3754L22.0829 14.5029L26.2929 10.2929ZM22.7071 16.7072C22.2857 17.1286 21.5915 17.0902 21.2191 16.6247L18 12.6008L14.7809 16.6247C14.4085 17.0902 13.7143 17.1286 13.2929 16.7072L10 13.4143V21.0001H26V13.4143L22.7071 16.7072ZM28 26.0001C28 26.5523 27.5523 27.0001 27 27.0001H9C8.44772 27.0001 8 26.5523 8 26.0001C8 25.4478 8.44772 25.0001 9 25.0001H27C27.5523 25.0001 28 25.4478 28 26.0001Z" fill="black"/>
</svg>
