<svg width="36" height="36" viewBox="0 0 36 36" fill="none" xmlns="http://www.w3.org/2000/svg">
<path fill-rule="evenodd" clip-rule="evenodd" d="M21.5504 7.06775C22.4405 7.92702 22.9067 9.16344 22.9067 10.4742V24.8982C22.9067 26.1685 22.4593 27.3687 21.5588 28.1455L21.5482 28.1546C20.8392 28.7473 19.8411 29.0452 18.8854 28.8518L7.88287 26.875L7.87478 26.8734C6.96583 26.693 6.26359 26.0258 5.81309 25.2724C5.35404 24.5046 5.08502 23.5395 5.09353 22.5442V11.9928C5.09353 11.0118 5.36397 10.0992 5.83179 9.38521C6.29469 8.67878 6.99313 8.11201 7.85565 7.97047L18.8651 6.11077C19.9255 5.93976 20.9022 6.43801 21.5504 7.06775ZM19.1564 7.90057L8.15014 9.75973C7.915 9.79804 7.61241 9.97629 7.3485 10.3791C7.089 10.7751 6.90685 11.3369 6.90685 11.9928V22.5568C6.90055 23.2292 7.08544 23.8668 7.36943 24.3418C7.66007 24.8279 7.98795 25.0445 8.22161 25.0935L19.2285 27.0711L19.2402 27.0735C19.6116 27.1504 20.0571 27.0347 20.3798 26.7677C20.7917 26.4091 21.0933 25.7635 21.0933 24.8982V10.4742C21.0933 9.58143 20.7771 8.84121 20.2902 8.37158L20.2876 8.36902C19.9035 7.99555 19.4746 7.85045 19.1564 7.90057ZM24.2822 7.37408C24.628 7.01187 25.2019 6.99852 25.5641 7.34427C26.4656 8.20478 26.9245 9.39983 26.9067 10.6138L26.9067 24.5704C26.9067 25.7918 26.4599 26.9598 25.5633 27.6995C25.1771 28.0181 24.6056 27.9633 24.287 27.5771C23.9683 27.1908 24.0231 26.6194 24.4093 26.3007C24.8 25.9784 25.0934 25.3765 25.0934 24.5704L25.0934 10.5993L25.0935 10.5919C25.1057 9.84549 24.8245 9.14517 24.312 8.65594C23.9498 8.3102 23.9365 7.73629 24.2822 7.37408ZM28.3298 8.37482C28.6751 8.01222 29.249 7.99822 29.6116 8.34356C30.48 9.1706 30.9246 10.3171 30.9067 11.4855V23.6992C30.9067 24.9489 30.3196 26.044 29.4819 26.7099C29.0899 27.0214 28.5196 26.9563 28.208 26.5643C27.8964 26.1723 27.9616 25.6019 28.3536 25.2903C28.771 24.9586 29.0933 24.3803 29.0933 23.6992V11.4702L29.0935 11.4624C29.1055 10.7671 28.8422 10.1149 28.361 9.65665C27.9984 9.31132 27.9844 8.73742 28.3298 8.37482Z" fill="black"/>
</svg>
