<svg width="36" height="36" viewBox="0 0 36 36" fill="none" xmlns="http://www.w3.org/2000/svg">
<path fill-rule="evenodd" clip-rule="evenodd" d="M6.97171 11V16H8.23955C8.58552 15.4023 9.23191 15 9.97171 15C11.0757 15 11.9717 15.896 11.9717 17C11.9717 18.104 11.0757 19 9.97171 19C9.23191 19 8.58552 18.5977 8.23955 18H5.97171C5.41943 18 4.97171 17.5523 4.97171 17V10C4.97171 9.44772 5.41943 9 5.97171 9H29.9717C30.524 9 30.9717 9.44772 30.9717 10V13C30.9717 13.5523 30.524 14 29.9717 14C29.4194 14 28.9717 13.5523 28.9717 13V11H6.97171ZM28.9717 23V18H27.7039C27.3579 18.5977 26.7115 19 25.9717 19C24.8677 19 23.9717 18.104 23.9717 17C23.9717 15.896 24.8677 15 25.9717 15C26.7115 15 27.3579 15.4023 27.7039 16H29.9717C30.524 16 30.9717 16.4477 30.9717 17V24C30.9717 24.5523 30.524 25 29.9717 25H5.97171C5.41943 25 4.97171 24.5523 4.97171 24V21C4.97171 20.4477 5.41943 20 5.97171 20C6.52399 20 6.97171 20.4477 6.97171 21V23H28.9717ZM17.9717 13C20.181 13 21.9717 14.7907 21.9717 17C21.9717 19.2093 20.181 21 17.9717 21C15.7624 21 13.9717 19.2093 13.9717 17C13.9717 14.7907 15.7624 13 17.9717 13ZM30 29H6.00001C5.44773 29 5.00001 28.5523 5.00001 28C5.00001 27.4477 5.44773 27 6.00001 27H30C30.5523 27 31 27.4477 31 28C31 28.5523 30.5523 29 30 29ZM17.9717 15C16.867 15 15.9717 15.8953 15.9717 17C15.9717 18.1047 16.867 19 17.9717 19C19.0764 19 19.9717 18.1047 19.9717 17C19.9717 15.8953 19.0764 15 17.9717 15Z" fill="black"/>
</svg>
