<svg width="36" height="36" viewBox="0 0 36 36" fill="none" xmlns="http://www.w3.org/2000/svg">
<path fill-rule="evenodd" clip-rule="evenodd" d="M29 18C29 24.0751 24.0751 29 18 29C11.9249 29 7 24.0751 7 18C7 11.9249 11.9249 7 18 7C24.0751 7 29 11.9249 29 18ZM31 18C31 25.1797 25.1797 31 18 31C10.8203 31 5 25.1797 5 18C5 10.8203 10.8203 5 18 5C25.1797 5 31 10.8203 31 18ZM14.5 18C14.5 18.8284 13.8284 19.5 13 19.5C12.1716 19.5 11.5 18.8284 11.5 18C11.5 17.1716 12.1716 16.5 13 16.5C13.8284 16.5 14.5 17.1716 14.5 18ZM19.5 18C19.5 18.8284 18.8284 19.5 18 19.5C17.1716 19.5 16.5 18.8284 16.5 18C16.5 17.1716 17.1716 16.5 18 16.5C18.8284 16.5 19.5 17.1716 19.5 18ZM23 19.5C23.8284 19.5 24.5 18.8284 24.5 18C24.5 17.1716 23.8284 16.5 23 16.5C22.1716 16.5 21.5 17.1716 21.5 18C21.5 18.8284 22.1716 19.5 23 19.5Z" fill="black"/>
</svg>
