<svg width="36" height="36" viewBox="0 0 36 36" fill="none" xmlns="http://www.w3.org/2000/svg">
<path fill-rule="evenodd" clip-rule="evenodd" d="M22.6148 7.18707C22.2232 6.8811 21.6559 6.90747 21.2946 7.26709L21.2112 7.3611C20.9052 7.75266 20.9316 8.31996 21.2912 8.6813L25.589 13L21.2912 17.3185L21.2082 17.4129C20.9042 17.8059 20.9332 18.3731 21.2946 18.7327C21.686 19.1223 22.3192 19.1208 22.7088 18.7293L27.7088 13.7053L27.7915 13.6112C28.0948 13.2196 28.0672 12.6546 27.7088 12.2945L22.7088 7.27048L22.6148 7.18707ZM16.3442 7.28948C16.7064 6.93074 17.2738 6.90575 17.6646 7.21266L17.7584 7.2963L22.7021 12.2879C22.886 12.4692 23 12.7213 23 13C23 13.2787 22.886 13.5308 22.7021 13.7121L17.7584 18.7037C17.3698 19.0961 16.7366 19.0991 16.3442 18.7105C15.982 18.3518 15.9515 17.7847 16.2547 17.3909L16.3374 17.2963L19.6017 14H12C10.4025 14 9.09635 15.249 9.00509 16.8237L9 17V23C9 24.5975 10.249 25.9036 11.8237 25.9949L12 26H25C25.5523 26 26 26.4477 26 27C26 27.5128 25.614 27.9355 25.1166 27.9933L25 28H12C9.31138 28 7.11819 25.8776 7.00462 23.2169L7 23V17C7 14.3114 9.12244 12.1182 11.7831 12.0046L12 12H19.6017L16.3374 8.70368C15.9787 8.34146 15.9537 7.7741 16.2606 7.38329L16.3442 7.28948Z" fill="black"/>
</svg>
