<svg width="36" height="36" viewBox="0 0 36 36" fill="none" xmlns="http://www.w3.org/2000/svg">
<path fill-rule="evenodd" clip-rule="evenodd" d="M25.9961 5C27.5935 5 28.8997 6.24877 28.991 7.82371L28.9961 8V28C28.9961 29.5971 27.7466 30.9036 26.1723 30.9949L25.9961 31H18.6951V29H25.9961C26.5084 29 26.9315 28.6135 26.9894 28.1165L26.9961 28V8C26.9961 7.48716 26.6099 7.06449 26.1127 7.00673L25.9961 7H9.9961C9.4834 7 9.06061 7.38603 9.00283 7.88338L8.9961 8V18.467H6.9961V8C6.9961 6.40216 8.2453 5.09633 9.81985 5.00509L9.9961 5H25.9961ZM9.10412 29.3288L7.7271 30.7058C7.33658 31.0963 6.70341 31.0963 6.31289 30.7058C5.95241 30.3453 5.92468 29.7781 6.2297 29.3858L6.31289 29.2916L7.67942 27.9251C6.56462 26.1835 6.76799 23.8418 8.28969 22.319C10.0472 20.5615 12.8964 20.5615 14.6539 22.319C16.4114 24.0765 16.4114 26.9257 14.6536 28.6835C13.1475 30.1885 10.8398 30.4037 9.10412 29.3288ZM9.7342 27.2988C10.7129 28.2445 12.2735 28.2344 13.2397 27.269C14.2162 26.2925 14.2162 24.7097 13.2397 23.7332C12.2632 22.7567 10.6804 22.7567 9.70416 23.7329C8.72834 24.7095 8.72834 26.2927 9.70364 27.2687C9.70445 27.2695 9.70526 27.2703 9.70607 27.2712C9.71316 27.2778 9.72017 27.2847 9.7271 27.2916C9.72948 27.294 9.73185 27.2964 9.7342 27.2988ZM23.9961 10.9997V12.9997H11.9961V10.9997H23.9961ZM23.9961 17.9997V15.9997H11.9961V17.9997H23.9961ZM24.0239 21.0275V23.0275H19.0239V21.0275H24.0239Z" fill="black"/>
</svg>
