<svg width="36" height="36" viewBox="0 0 36 36" fill="none" xmlns="http://www.w3.org/2000/svg">
<path fill-rule="evenodd" clip-rule="evenodd" d="M28.9949 7.82378C28.9036 6.24945 27.5971 5 26 5H14L13.8238 5.00509C12.2494 5.09638 11 6.40287 11 8V9H10C8.34372 9 7 10.3437 7 12V28C7 29.6563 8.34372 31 10 31H22C23.6563 31 25 29.6563 25 28V27.0003L26.168 27.0007L26.4551 27.0023C27.1668 27.0033 27.469 26.972 27.8667 26.814C28.6035 26.5213 29 25.8703 29 25V8L28.9949 7.82378ZM25 25.0001L26.6825 25.0002C26.7568 24.9987 26.8198 24.9965 26.8734 24.9935L27 24.983V8C27 7.48769 26.6135 7.06457 26.1165 7.00674L26 7H14C13.4877 7 13.0646 7.38653 13.0067 7.88348L13 8V9H22C23.6563 9 25 10.3437 25 12V25.0001ZM10 11H22C22.5517 11 23 11.4483 23 12V28C23 28.5517 22.5517 29 22 29H10C9.44828 29 9 28.5517 9 28V12C9 11.4483 9.44828 11 10 11ZM21 16V14H11V16H21ZM21 24V26H11V24H21ZM21 21V19H11V21H21Z" fill="black"/>
</svg>
