<svg width="36" height="36" viewBox="0 0 36 36" fill="none" xmlns="http://www.w3.org/2000/svg">
<path fill-rule="evenodd" clip-rule="evenodd" d="M10 5H26C27.6563 5 29 6.34372 29 8V28C29 29.6563 27.6563 31 26 31H10C8.34372 31 7 29.6563 7 28V8C7 6.34372 8.34372 5 10 5ZM26 7H10C9.44828 7 9 7.44828 9 8V28C9 28.5517 9.44828 29 10 29H26C26.5517 29 27 28.5517 27 28V8C27 7.44828 26.5517 7 26 7ZM16 21V23H12V21H16ZM24 13V11H12V13H24ZM24 16V18H12V16H24ZM18.0507 22.8788C18.4412 22.4883 19.0744 22.4883 19.4649 22.8788L20.1717 23.5856L22.2926 21.4639C22.683 21.0733 23.3162 21.0732 23.7068 21.4637C24.0974 21.8541 24.0975 22.4873 23.707 22.8779L20.879 25.7069C20.4885 26.0975 19.8553 26.0976 19.4647 25.707L18.0507 24.293C17.6602 23.9025 17.6602 23.2693 18.0507 22.8788Z" fill="black"/>
</svg>
