<svg width="36" height="36" viewBox="0 0 36 36" fill="none" xmlns="http://www.w3.org/2000/svg">
<path fill-rule="evenodd" clip-rule="evenodd" d="M10 5C8.34315 5 7 6.34315 7 8V28C7 29.6569 8.34315 31 10 31H26C27.6569 31 29 29.6569 29 28V8C29 6.34315 27.6569 5 26 5H10ZM9 8C9 7.44772 9.44771 7 10 7H26C26.5523 7 27 7.44772 27 8V28C27 28.5523 26.5523 29 26 29H10C9.44772 29 9 28.5523 9 28V8ZM24 13V11H12V13H24ZM24 15V17H12V15H24ZM19.7762 19.3687C19.2937 18.7672 18.3054 18.9214 18.0513 19.6837L16.686 23.777L15.8245 22.5201L15.749 22.4234C15.5606 22.2103 15.2884 22.086 15 22.086H13L12.8834 22.0927C12.386 22.1504 12 22.5731 12 23.086L12.0067 23.2026C12.0645 23.6999 12.4872 24.086 13 24.086H14.474L16.1755 26.5658L16.2498 26.6618C16.7454 27.2305 17.7006 27.0605 17.9487 26.3162L19.277 22.329L20.652 24.53L20.7268 24.6341C20.9152 24.864 21.1983 25 21.5 25H23L23.1166 24.9932C23.614 24.9355 24 24.5128 24 24L23.9933 23.8833C23.9355 23.386 23.5128 23 23 23H22.053L19.848 19.47L19.7762 19.3687Z" fill="black"/>
</svg>
