<svg width="36" height="36" viewBox="0 0 36 36" fill="none" xmlns="http://www.w3.org/2000/svg">
<path fill-rule="evenodd" clip-rule="evenodd" d="M19.2 8C19.2 7.30964 18.6404 6.75 17.95 6.75C17.2596 6.75 16.7 7.30964 16.7 8V8.5C16.7 8.50563 16.7 8.51125 16.7001 8.51686C11.2447 9.10409 6.90588 13.4937 5.91618 19.0664C5.81477 19.6374 6.19543 20.1824 6.76639 20.2838C7.33736 20.3852 7.88242 20.0046 7.98382 19.4336C8.89188 14.3206 13.0553 10.55 17.95 10.55C22.8447 10.55 27.0081 14.3206 27.9162 19.4336C28.0176 20.0046 28.5626 20.3852 29.1336 20.2838C29.7046 20.1824 30.0852 19.6374 29.9838 19.0664C28.9941 13.4937 24.6553 9.10409 19.1999 8.51686C19.2 8.51125 19.2 8.50563 19.2 8.5V8ZM4.95 21.55C4.42533 21.55 4 21.9753 4 22.5C4 23.0247 4.42533 23.45 4.95 23.45H30.95C31.4747 23.45 31.9 23.0247 31.9 22.5C31.9 21.9753 31.4747 21.55 30.95 21.55H4.95ZM9.42485 24.6503C8.95557 24.4157 8.38493 24.6059 8.15029 25.0751C7.91565 25.5444 8.10587 26.1151 8.57515 26.3497L9.15286 26.6386C9.56248 26.8434 10.0142 26.95 10.4721 26.95H25.5279C25.9858 26.95 26.4375 26.8434 26.8471 26.6386L27.4249 26.3497C27.8941 26.1151 28.0843 25.5444 27.8497 25.0751C27.6151 24.6059 27.0444 24.4157 26.5751 24.6503L25.9974 24.9391C25.8516 25.012 25.6909 25.05 25.5279 25.05H10.4721C10.3091 25.05 10.1484 25.012 10.0026 24.9391L9.42485 24.6503Z" fill="black"/>
</svg>
