<svg width="36" height="36" viewBox="0 0 36 36" fill="none" xmlns="http://www.w3.org/2000/svg">
<path d="M9.85663 5.00049C10.4089 5.00049 10.8566 5.4482 10.8566 6.00049C10.8566 9.94132 12.1019 12.2361 15.774 15.462L16.3431 15.9531L16.9496 16.4602L17.5942 16.9852L18.9752 18.0855L19.6358 18.6235C19.7429 18.7119 19.8486 18.7996 19.9528 18.8868L20.5607 19.4027C20.6592 19.4876 20.7562 19.572 20.8518 19.6559L21.4086 20.1536C25.0992 23.5184 26.4618 26.183 26.4618 30.6317C26.4618 31.184 26.0141 31.6317 25.4618 31.6317C24.9095 31.6317 24.4618 31.184 24.4618 30.6317C24.4618 30.055 24.4351 29.5135 24.3781 28.9991L12.6012 28.9995C12.7433 28.2944 12.9552 27.6362 13.2485 26.9998L23.9574 26.9997C23.7282 26.2963 23.4141 25.6313 23.0013 24.9746L23 25L14.4843 24.9998C14.8311 24.5534 15.2268 24.1043 15.6756 23.6432L16.0222 23.2949L16.3301 22.9995L21.4535 23.0003C20.8376 22.339 20.1121 21.6568 19.2639 20.9248L18.6761 20.4259L18.0506 19.91L17.6576 19.5935L17.5953 19.6452L16.9506 20.1702C16.8464 20.2561 16.7437 20.3414 16.6426 20.4259L16.0549 20.9248C15.6754 21.2523 15.3205 21.5697 14.989 21.8799L14.5091 22.3398C11.8105 24.9944 10.857 27.1827 10.857 30.6317C10.857 31.184 10.4093 31.6317 9.85697 31.6317C9.30469 31.6317 8.85697 31.184 8.85697 30.6317C8.85697 26.617 9.96664 24.0553 12.8955 21.1207L13.3865 20.6413C13.8092 20.2385 14.2658 19.8272 14.758 19.4027L15.366 18.8868L16.0088 18.3565L16.0596 18.3155L16.0078 18.2739L15.365 17.7437C10.5716 13.7358 8.85663 10.9908 8.85663 6.00049C8.85663 5.4482 9.30434 5.00049 9.85663 5.00049ZM25.4621 5.00049C26.0144 5.00049 26.4621 5.4482 26.4621 6.00049C26.4621 10.0144 25.3526 12.5757 22.424 15.51L21.933 15.9894C21.5642 16.3407 21.1696 16.6987 20.748 17.0662L19.9722 16.4852L19.116 15.8305L19.2643 15.7061C19.6438 15.3786 19.9987 15.0611 20.3302 14.751L20.8101 14.2911C21.0824 14.0232 21.3369 13.7601 21.5745 13.5L16.3645 13.4996C15.6654 12.8253 15.0763 12.1656 14.591 11.4999L23.098 11.5003C23.4884 10.8536 23.7845 10.1965 23.9994 9.50065L13.4549 9.50027C13.1916 8.86096 13.0103 8.19949 12.9063 7.49993L24.3924 7.50041C24.4398 7.0258 24.4621 6.52789 24.4621 6.00049C24.4621 5.4482 24.9098 5.00049 25.4621 5.00049Z" fill="black"/>
</svg>
