<svg width="36" height="36" viewBox="0 0 36 36" fill="none" xmlns="http://www.w3.org/2000/svg">
<path fill-rule="evenodd" clip-rule="evenodd" d="M17.3847 7.54538C17.7464 7.26287 18.254 7.26287 18.6157 7.54538L18.8033 7.69666L19.2087 8.03949C19.4339 8.23446 19.6757 8.45087 19.9307 8.68767C20.8999 9.58768 21.8685 10.6015 22.7746 11.7104C25.4068 14.9318 27.0002 18.2929 27.0002 21.6665C27.0002 26.6368 22.9705 30.6665 18.0002 30.6665C13.0299 30.6665 9.00021 26.6368 9.00021 21.6665C9.00021 18.2929 10.5936 14.9318 13.2259 11.7104C14.1319 10.6015 15.1005 9.58768 16.0697 8.68767C16.3248 8.45087 16.5665 8.23446 16.7918 8.03949L17.0114 7.8517L17.3847 7.54538ZM18.0002 9.63915L17.8173 9.80094L17.4307 10.1532C16.5249 10.9944 15.6185 11.943 14.7746 12.9759C12.4068 15.8735 11.0002 18.8407 11.0002 21.6665C11.0002 25.5322 14.1345 28.6665 18.0002 28.6665C21.8659 28.6665 25.0002 25.5322 25.0002 21.6665C25.0002 18.8407 23.5936 15.8735 21.2259 12.9759C20.3819 11.943 19.4755 10.9944 18.5697 10.1532L18.1831 9.80094C18.1209 9.7454 18.0599 9.69146 18.0002 9.63915ZM21.5945 22.0752C21.5945 23.8599 20.1472 25.3072 18.3625 25.3072C17.8102 25.3072 17.3625 25.7549 17.3625 26.3072C17.3625 26.8595 17.8102 27.3072 18.3625 27.3072C21.2518 27.3072 23.5945 24.9645 23.5945 22.0752C23.5945 21.5229 23.1468 21.0752 22.5945 21.0752C22.0422 21.0752 21.5945 21.5229 21.5945 22.0752Z" fill="black"/>
</svg>
