<svg width="36" height="36" viewBox="0 0 36 36" fill="none" xmlns="http://www.w3.org/2000/svg">
<path fill-rule="evenodd" clip-rule="evenodd" d="M24.9997 15.5767C24.9997 11.3949 21.6445 7.99969 17.4997 7.99969C13.3549 7.99969 9.99969 11.3949 9.99969 15.5767C9.99969 16.129 10.4474 16.5767 10.9997 16.5767C11.552 16.5767 11.9997 16.129 11.9997 15.5767C11.9997 12.4942 14.4648 9.99969 17.4997 9.99969C20.5346 9.99969 22.9997 12.4942 22.9997 15.5767C22.9997 17.5259 22.6353 18.571 21.7206 19.9599C21.6914 20.0042 21.6177 20.1149 21.5435 20.2263C21.5182 20.2642 21.4929 20.3023 21.4692 20.3378L21.1941 20.76C20.4376 21.9636 20.1117 22.9182 20.1117 24.3467L20.1065 24.5147C20.0211 25.9038 18.884 26.9997 17.4997 26.9997C16.0603 26.9997 14.8887 25.8147 14.8887 24.3467C14.8887 23.7944 14.441 23.3467 13.8887 23.3467C13.3364 23.3467 12.8887 23.7944 12.8887 24.3467C12.8887 26.9142 14.9506 28.9997 17.4997 28.9997C20.0489 28.9997 22.1117 26.9141 22.1117 24.3467L22.1161 24.1049C22.1513 23.1664 22.4047 22.5521 23.0331 21.5981L23.5619 20.7946C24.5572 19.2142 24.9997 17.8267 24.9997 15.5767ZM21 15.5C21 13.5667 19.4333 12 17.5 12C15.5667 12 14 13.5667 14 15.5C14 16.7883 14.3376 17.4947 15.1579 18.474L15.3196 18.6696C15.7398 19.191 15.849 19.4648 15.849 20.058V21.667L15.8557 21.7836C15.9135 22.281 16.3362 22.667 16.849 22.667C17.4013 22.667 17.849 22.2193 17.849 21.667V20.058L17.8446 19.8235C17.8037 18.7605 17.4724 18.1224 16.7303 17.2365L16.5626 17.0334C16.1212 16.4836 16 16.1738 16 15.5C16 14.6713 16.6713 14 17.5 14C18.3287 14 19 14.6713 19 15.5L19.0067 15.6166C19.0645 16.114 19.4872 16.5 20 16.5C20.5523 16.5 21 16.0523 21 15.5Z" fill="black"/>
</svg>
