<svg width="36" height="36" viewBox="0 0 36 36" fill="none" xmlns="http://www.w3.org/2000/svg">
<path fill-rule="evenodd" clip-rule="evenodd" d="M31.8613 15.9919C28.5452 10.3714 23.5021 7 18 7C12.4979 7 7.45478 10.3714 4.13873 15.9919C3.85809 16.4675 4.01619 17.0806 4.49186 17.3613C4.96753 17.6419 5.58063 17.4838 5.86128 17.0081C8.84101 11.9577 13.2653 9 18 9C22.7347 9 27.159 11.9577 30.1387 17.0081C30.4194 17.4838 31.0325 17.6419 31.5082 17.3613C31.9838 17.0806 32.1419 16.4675 31.8613 15.9919ZM18.5 16.5C18.5 17.328 19.172 18 20 18C20.369 18 20.702 17.861 20.964 17.641C20.9674 17.6676 20.971 17.6941 20.9747 17.7205C20.9873 17.8126 21 17.9045 21 18C21 19.657 19.657 21 18 21C16.343 21 15 19.657 15 18C15 16.343 16.343 15 18 15C18.421 15 18.82 15.088 19.184 15.244C18.772 15.512 18.5 15.974 18.5 16.5ZM11 18C11 14.1347 14.1347 11 18 11C21.8653 11 25 14.1347 25 18C25 21.8653 21.8653 25 18 25C14.1347 25 11 21.8653 11 18ZM23 18C23 15.2393 20.7607 13 18 13C15.2393 13 13 15.2393 13 18C13 20.7607 15.2393 23 18 23C20.7607 23 23 20.7607 23 18ZM10.2051 23.7909C9.81342 23.4015 9.18026 23.4033 8.79086 23.7949C8.40147 24.1866 8.40329 24.8197 8.79494 25.2091C13.879 30.264 22.121 30.264 27.2051 25.2091C27.5967 24.8197 27.5985 24.1866 27.2091 23.7949C26.8198 23.4033 26.1866 23.4015 25.7949 23.7909C21.491 28.07 14.509 28.07 10.2051 23.7909Z" fill="black"/>
</svg>
