<svg width="36" height="36" viewBox="0 0 36 36" fill="none" xmlns="http://www.w3.org/2000/svg">
<path fill-rule="evenodd" clip-rule="evenodd" d="M29 5C30.0549 5 30.9182 5.81596 30.9945 6.85075L31 7V12C31 12.5523 30.5523 13 30 13C29.4872 13 29.0645 12.614 29.0067 12.1166L29 12V7H24C23.4477 7 23 6.55228 23 6C23 5.48716 23.386 5.06449 23.8834 5.00673L24 5H29ZM18 11C14.6711 11 12 13.8493 12 17.333V18.667C12 22.1507 14.6711 25 18 25L18.2335 24.9951C21.4752 24.8515 24 22.0508 24 18.667V17.333C24 13.8493 21.3289 11 18 11ZM18 13C20.1945 13 22 14.926 22 17.333V18.667C22 21.0059 20.2906 22.9021 18.1671 22.9963L17.9779 23.0002C15.8055 23 14 21.074 14 18.667V17.333C14 14.926 15.8055 13 18 13ZM6.99327 23.8834C6.93551 23.386 6.51284 23 6 23C5.44772 23 5 23.4477 5 24V29L5.00548 29.1493C5.08179 30.184 5.94514 31 7 31H12L12.1166 30.9933C12.614 30.9355 13 30.5128 13 30C13 29.4477 12.5523 29 12 29H7V24L6.99327 23.8834ZM30 23C30.5128 23 30.9355 23.386 30.9933 23.8834L31 24V29C31 30.0543 30.1846 30.9182 29.1493 30.9945L29 31H24C23.4477 31 23 30.5523 23 30C23 29.4872 23.386 29.0645 23.8834 29.0067L24 29H29V24C29 23.4477 29.4477 23 30 23ZM13 6C13 5.44772 12.5523 5 12 5H7L6.85067 5.00549C5.8154 5.08184 5 5.94573 5 7V12L5.00673 12.1166C5.06449 12.614 5.48716 13 6 13C6.55228 13 7 12.5523 7 12V7H12L12.1166 6.99327C12.614 6.93551 13 6.51284 13 6Z" fill="black"/>
</svg>
