<svg width="36" height="36" viewBox="0 0 36 36" fill="none" xmlns="http://www.w3.org/2000/svg">
<path fill-rule="evenodd" clip-rule="evenodd" d="M10.824 9.19951C15.1611 6.26799 20.8342 6.26677 25.1725 9.19621C29.3713 12.031 31.2128 16.0006 30.3952 20.7354L30.3353 21.0594L30.231 21.591L30.4974 22.145C31.299 23.8139 31.0011 26.8321 29.9248 28.4263L29.7919 28.6106C29.4546 29.048 28.8267 29.1292 28.3893 28.7919C27.9856 28.4806 27.8854 27.9216 28.1377 27.4935L28.2081 27.3894C28.8969 26.4961 29.1712 24.2961 28.7644 23.178L28.6945 23.0108L28.2845 22.1568C28.2099 22.0013 28.177 21.8299 28.1881 21.6592L28.2047 21.5316L28.3728 20.6739C29.173 16.608 27.6996 13.3155 24.0534 10.8538C20.3915 8.38111 15.6047 8.38215 11.9439 10.8566C8.39518 13.2546 6.90603 16.4384 7.56877 20.3569L7.62722 20.6762L7.79522 21.5312C7.8285 21.7005 7.81725 21.8749 7.76362 22.0374L7.71548 22.1568L7.30539 23.011C6.82629 24.0084 7.0422 26.2136 7.68662 27.2378L7.79189 27.3894C8.12914 27.8267 8.04799 28.4547 7.61063 28.7919C7.17327 29.1292 6.54533 29.048 6.20808 28.6106C5.07 27.1347 4.69748 24.1239 5.41157 22.3517L5.5025 22.1452L5.76799 21.591L5.66481 21.0621C4.72613 16.2934 6.45208 12.2818 10.5415 9.39462L10.824 9.19951ZM9.8055 20.2805C11.574 18.5735 14.426 18.5735 16.1945 20.2805C16.5918 20.6641 16.603 21.2971 16.2195 21.6945C15.8359 22.0919 15.2029 22.1031 14.8055 21.7195C13.812 20.7605 12.188 20.7605 11.1945 21.7195C10.7971 22.1031 10.164 22.0919 9.78049 21.6945C9.39693 21.2971 9.40813 20.6641 9.8055 20.2805ZM26.1945 20.2805C24.426 18.5735 21.574 18.5735 19.8055 20.2805C19.4081 20.6641 19.3969 21.2971 19.7805 21.6945C20.164 22.0919 20.7971 22.1031 21.1945 21.7195C22.188 20.7605 23.812 20.7605 24.8055 21.7195C25.2029 22.1031 25.8359 22.0919 26.2195 21.6945C26.603 21.2971 26.5918 20.6641 26.1945 20.2805Z" fill="black"/>
</svg>
