<svg width="36" height="36" viewBox="0 0 36 36" fill="none" xmlns="http://www.w3.org/2000/svg">
<path fill-rule="evenodd" clip-rule="evenodd" d="M18 5C10.8207 5 5 10.8207 5 18C5 25.1793 10.8207 31 18 31C25.1793 31 31 25.1793 31 18C31 10.8207 25.1793 5 18 5ZM18 7C24.0747 7 29 11.9253 29 18C29 24.0747 24.0747 29 18 29C11.9253 29 7 24.0747 7 18C7 11.9253 11.9253 7 18 7ZM18.9932 12.3834C18.9354 11.886 18.5127 11.5 17.9999 11.5C17.4476 11.5 16.9999 11.9477 16.9999 12.5V20L17.0066 20.1166C17.0644 20.614 17.4871 21 17.9999 21C18.5522 21 18.9999 20.5523 18.9999 20V12.5L18.9932 12.3834ZM19.1432 23.3747C19.0807 22.7985 18.5927 22.35 17.9999 22.35C17.3648 22.35 16.8499 22.8649 16.8499 23.5V24L16.8566 24.1253C16.9191 24.7015 17.4071 25.15 17.9999 25.15C18.635 25.15 19.1499 24.6351 19.1499 24V23.5L19.1432 23.3747Z" fill="black"/>
</svg>
