<svg width="36" height="36" viewBox="0 0 36 36" fill="none" xmlns="http://www.w3.org/2000/svg">
<path d="M11 5C13.2091 5 15 6.77719 15 8.96947C15 9.51753 14.5523 9.96183 14 9.96183C13.4872 9.96183 13.0645 9.57874 13.0067 9.0852L13 8.96947C13 7.87333 12.1046 6.98473 11 6.98473C9.89543 6.98473 9 7.87333 9 8.96947C9 10.0158 9.81588 10.873 10.8507 10.9488L11 10.9542H12L12.0009 15.0934C13.1656 15.5023 14 16.6048 14 17.9008C14 19.0448 13.3497 20.0382 12.3959 20.5366C13.9166 21.9502 15 25.3254 15 27.0305C15 29.2228 13.2091 31 11 31C8.79086 31 7 29.2228 7 27.0305C7 25.3254 8.08341 21.9502 9.60438 20.5345C8.65031 20.0382 8 19.0448 8 17.9008C8 16.6045 8.83485 15.5017 10.0001 15.093L10 12.8129L9.84475 12.7709C8.2598 12.2972 7.08942 10.874 7.0049 9.16758L7 8.96947C7 6.77719 8.79086 5 11 5ZM25 5C27.2091 5 29 6.77719 29 8.96947L28.9951 9.16758C28.9106 10.874 27.7402 12.2972 26.1553 12.7709L26 12.8129L26.0009 15.0934C27.1656 15.5023 28 16.6048 28 17.9008C28 19.0448 27.3497 20.0382 26.3959 20.5366C27.9166 21.9502 29 25.3254 29 27.0305C29 29.2228 27.2091 31 25 31C22.7909 31 21 29.2228 21 27.0305C21 25.3254 22.0834 21.9502 23.6044 20.5345C22.6503 20.0382 22 19.0448 22 17.9008C22 16.6045 22.8349 15.5017 24.0001 15.093L24 10.9542H25L25.1493 10.9488C26.1841 10.873 27 10.0158 27 8.96947C27 7.87333 26.1046 6.98473 25 6.98473C23.8954 6.98473 23 7.87333 23 8.96947L22.9933 9.0852C22.9355 9.57874 22.5128 9.96183 22 9.96183C21.4477 9.96183 21 9.51753 21 8.96947C21 6.77719 22.7909 5 25 5ZM11 21.9576L10.9691 21.9853L10.8912 22.0625C10.5977 22.3683 10.2759 22.8653 9.97812 23.4875C9.39606 24.7035 9 26.2153 9 27.0305C9 28.1267 9.89543 29.0153 11 29.0153C12.1046 29.0153 13 28.1267 13 27.0305C13 26.2153 12.6039 24.7035 12.0219 23.4875C11.7241 22.8653 11.4023 22.3683 11.1088 22.0625L11.0309 21.9853L11 21.9576ZM25 21.9576L24.9691 21.9853L24.8912 22.0625C24.5977 22.3683 24.2759 22.8653 23.9781 23.4875C23.3961 24.7035 23 26.2153 23 27.0305C23 28.1267 23.8954 29.0153 25 29.0153C26.1046 29.0153 27 28.1267 27 27.0305C27 26.2153 26.6039 24.7035 26.0219 23.4875C25.7241 22.8653 25.4023 22.3683 25.1088 22.0625L25.0309 21.9853L25 21.9576ZM11 16.9084C10.4477 16.9084 10 17.3527 10 17.9008C10 18.4488 10.4477 18.8931 11 18.8931C11.5523 18.8931 12 18.4488 12 17.9008C12 17.3527 11.5523 16.9084 11 16.9084ZM25 16.9084C24.4477 16.9084 24 17.3527 24 17.9008C24 18.4488 24.4477 18.8931 25 18.8931C25.5523 18.8931 26 18.4488 26 17.9008C26 17.3527 25.5523 16.9084 25 16.9084Z" fill="black"/>
</svg>
