<svg width="36" height="36" viewBox="0 0 36 36" fill="none" xmlns="http://www.w3.org/2000/svg">
<path fill-rule="evenodd" clip-rule="evenodd" d="M19.9997 15.5768C19.9997 11.3949 16.6445 7.99976 12.4997 7.99976C8.35492 7.99976 4.99969 11.3949 4.99969 15.5768C4.99969 16.129 5.44741 16.5768 5.99969 16.5768C6.55198 16.5768 6.99969 16.129 6.99969 15.5768C6.99969 12.4942 9.46483 9.99976 12.4997 9.99976C15.5346 9.99976 17.9997 12.4942 17.9997 15.5768C17.9997 17.526 17.6353 18.571 16.7206 19.96C16.6914 20.0042 16.6177 20.115 16.5435 20.2263L16.4692 20.3378L16.1941 20.7601C15.4376 21.9637 15.1117 22.9183 15.1117 24.3468L15.1065 24.5148C15.0211 25.9042 13.8838 27.0008 12.4997 27.0008C11.0605 27.0008 9.88869 25.815 9.88869 24.3468C9.88869 23.7945 9.44098 23.3468 8.88869 23.3468C8.33641 23.3468 7.88869 23.7945 7.88869 24.3468C7.88869 26.9143 9.95067 29.0008 12.4997 29.0008C15.0488 29.0008 17.1117 26.9142 17.1117 24.3468L17.1161 24.105C17.1513 23.1664 17.4047 22.5522 18.0331 21.5981L18.5619 20.7947C19.5572 19.2143 19.9997 17.8268 19.9997 15.5768ZM16 15.5001C16 13.5668 14.4333 12.0001 12.5 12.0001C10.5667 12.0001 8.99999 13.5668 8.99999 15.5001C8.99999 16.7884 9.3376 17.4947 10.1579 18.474L10.3196 18.6696C10.7398 19.191 10.849 19.4648 10.849 20.0581V21.6671L10.8557 21.7837C10.9135 22.281 11.3362 22.6671 11.849 22.6671C12.4013 22.6671 12.849 22.2193 12.849 21.6671V20.0581L12.8446 19.8235C12.8037 18.7606 12.4724 18.1224 11.7303 17.2366L11.5626 17.0335C11.1212 16.4836 11 16.1739 11 15.5001C11 14.6713 11.6713 14.0001 12.5 14.0001C13.3287 14.0001 14 14.6713 14 15.5001L14.0067 15.6167C14.0645 16.114 14.4872 16.5001 15 16.5001C15.5523 16.5001 16 16.0523 16 15.5001ZM29.2929 10.2929C29.6834 9.90242 30.3166 9.90242 30.7071 10.2929C31.0676 10.6534 31.0953 11.2207 30.7903 11.613L30.7071 11.7072L28.4142 14.0001L30.7071 16.2929C31.0976 16.6835 31.0976 17.3166 30.7071 17.7072C30.3466 18.0676 29.7794 18.0954 29.3871 17.7904L29.2929 17.7072L27 15.4143L24.7071 17.7072C24.3166 18.0977 23.6834 18.0977 23.2929 17.7072C22.9324 17.3467 22.9047 16.7794 23.2097 16.3872L23.2929 16.2929L25.5858 14.0001L23.2929 11.7072C22.9024 11.3166 22.9024 10.6835 23.2929 10.2929C23.6534 9.93247 24.2206 9.90474 24.6129 10.2098L24.7071 10.2929L27 12.5858L29.2929 10.2929Z" fill="black"/>
</svg>
