<svg width="36" height="36" viewBox="0 0 36 36" fill="none" xmlns="http://www.w3.org/2000/svg">
<path fill-rule="evenodd" clip-rule="evenodd" d="M29 11.5858L22.4142 5H10C8.34372 5 7 6.34372 7 8V28C7 29.6563 8.34372 31 10 31H26C27.6563 31 29 29.6563 29 28V11.5858ZM22 7.415L26.585 12H22V7.415ZM20 7H10C9.44828 7 9 7.44828 9 8V28C9 28.5517 9.44828 29 10 29H26C26.5517 29 27 28.5517 27 28V14H20V7ZM17 18C17 18.5523 16.5523 19 16 19C15.4477 19 15 18.5523 15 18C15 17.4477 15.4477 17 16 17C16.5523 17 17 17.4477 17 18ZM18.1213 19.8787C18.5118 20.2692 19.145 20.2692 19.5355 19.8787C19.9261 19.4882 19.9261 18.855 19.5355 18.4645C19.145 18.0739 18.5118 18.0739 18.1213 18.4645C17.7308 18.855 17.7308 19.4882 18.1213 19.8787ZM20 23C19.4477 23 19 22.5523 19 22C19 21.4477 19.4477 21 20 21C20.5523 21 21 21.4477 21 22C21 22.5523 20.5523 23 20 23ZM18.1213 24.1213C17.7308 24.5118 17.7308 25.145 18.1213 25.5355C18.5118 25.9261 19.145 25.9261 19.5355 25.5355C19.9261 25.145 19.9261 24.5118 19.5355 24.1213C19.145 23.7308 18.5118 23.7308 18.1213 24.1213ZM15 26C15 25.4477 15.4477 25 16 25C16.5523 25 17 25.4477 17 26C17 26.5523 16.5523 27 16 27C15.4477 27 15 26.5523 15 26ZM13.8787 24.1213C13.4882 23.7308 12.855 23.7308 12.4645 24.1213C12.0739 24.5118 12.0739 25.145 12.4645 25.5355C12.855 25.9261 13.4882 25.9261 13.8787 25.5355C14.2692 25.145 14.2692 24.5118 13.8787 24.1213ZM12 21C12.5523 21 13 21.4477 13 22C13 22.5523 12.5523 23 12 23C11.4477 23 11 22.5523 11 22C11 21.4477 11.4477 21 12 21ZM13.8787 19.8787C14.2692 19.4882 14.2692 18.855 13.8787 18.4645C13.4882 18.0739 12.855 18.0739 12.4645 18.4645C12.0739 18.855 12.0739 19.4882 12.4645 19.8787C12.855 20.2692 13.4882 20.2692 13.8787 19.8787Z" fill="black"/>
</svg>
