<svg width="36" height="36" viewBox="0 0 36 36" fill="none" xmlns="http://www.w3.org/2000/svg">
<path fill-rule="evenodd" clip-rule="evenodd" d="M22.4142 5L29 11.5858V28C29 29.6563 27.6563 31 26 31H10C8.34372 31 7 29.6563 7 28V8C7 6.34372 8.34372 5 10 5H22.4142ZM26.585 12L22 7.415V12H26.585ZM10 7H20V14H27V28C27 28.5517 26.5517 29 26 29H10C9.44828 29 9 28.5517 9 28V8C9 7.44828 9.44828 7 10 7ZM22.7825 20.2862C22.4014 19.8864 21.7684 19.8712 21.3687 20.2522L17.575 23.867L15.4939 22.0167L15.3954 21.9395C15.0213 21.6823 14.5127 21.708 14.1654 22.0165L11.3944 24.4785L11.3058 24.5677C10.9782 24.9413 10.9724 25.5092 11.311 25.8903L11.4002 25.9789C11.7738 26.3065 12.3417 26.3123 12.7228 25.9737L14.829 24.101L16.9353 25.9735L17.0364 26.0525C17.4208 26.315 17.9443 26.279 18.2895 25.95L22.7485 21.7L22.834 21.6078C23.1483 21.2229 23.1342 20.6552 22.7825 20.2862Z" fill="black"/>
</svg>
