<svg width="36" height="36" viewBox="0 0 36 36" fill="none" xmlns="http://www.w3.org/2000/svg">
<path fill-rule="evenodd" clip-rule="evenodd" d="M7 12V7H12C12.5523 7 13 6.55228 13 6C13 5.44772 12.5523 5 12 5H7C5.89491 5 5 5.89552 5 7V12C5 12.5523 5.44772 13 6 13C6.55228 13 7 12.5523 7 12ZM24 7H29V12C29 12.5523 29.4477 13 30 13C30.5523 13 31 12.5523 31 12V7C31 5.89552 30.1051 5 29 5H24C23.4477 5 23 5.44772 23 6C23 6.55228 23.4477 7 24 7ZM7 29H12C12.5523 29 13 29.4477 13 30C13 30.5523 12.5523 31 12 31H7C5.89491 31 5 30.1045 5 29V24C5 23.4477 5.44772 23 6 23C6.55228 23 7 23.4477 7 24V29ZM29 24V29H24C23.4477 29 23 29.4477 23 30C23 30.5523 23.4477 31 24 31H29C30.1051 31 31 30.1045 31 29V24C31 23.4477 30.5523 23 30 23C29.4477 23 29 23.4477 29 24ZM25.0603 18.4854C25.2185 18.5768 25.3613 18.6925 25.4834 18.8284C25.7511 19.2338 25.9204 19.6961 25.978 20.1785C26.0356 20.6608 25.9797 21.15 25.815 21.607C25.7096 22.0697 25.4367 22.477 25.0489 22.7504C24.8354 22.899 24.6051 23.0218 24.3629 23.1163C24.134 24.5851 23.3876 25.9236 22.2585 26.8904C21.1294 27.8572 19.6919 28.3885 18.2054 28.3885C16.7189 28.3885 15.2814 27.8572 14.1523 26.8904C13.0231 25.9236 12.2768 24.5851 12.0479 23.1163C11.8024 23.0259 11.5683 22.9069 11.3505 22.7619C10.9651 22.4838 10.6898 22.079 10.5729 21.6184C10.4105 21.1598 10.358 20.6695 10.4196 20.187C10.4812 19.7044 10.6551 19.243 10.9274 18.8398L11.0874 18.6683C10.4706 17.6951 10.1088 16.5823 10.0355 15.4324C9.94545 14.6224 10.0272 13.8025 10.2755 13.0262C10.5237 12.2499 10.9329 11.5347 11.4762 10.9272C12.4019 10.0462 13.6287 9.55139 14.9066 9.54365C16.0172 8.5515 17.4536 8.00213 18.9429 8C19.381 7.99979 19.8179 8.04578 20.2464 8.13721C21.6222 8.40953 22.8816 9.09697 23.8547 10.1069C24.8279 11.1169 25.4681 12.4008 25.6892 13.7858C25.8592 15.3801 25.6435 16.9919 25.0603 18.4854ZM22.8287 22.0651C22.8856 21.9551 22.964 21.8576 23.0593 21.7785C23.2628 21.6375 23.5111 21.5764 23.7568 21.607H23.7911C23.889 21.5752 23.9814 21.529 24.0655 21.4698C24.1139 21.4195 24.1458 21.3557 24.157 21.2868C24.2504 20.9114 24.2504 20.5188 24.157 20.1434C24.0046 20.2556 23.8202 20.3157 23.631 20.3149H23.3794C23.1671 20.2624 22.9793 20.1381 22.8481 19.963C22.7168 19.788 22.65 19.573 22.6591 19.3544C22.7284 18.4342 22.4999 17.5162 22.0073 16.7359C21.8311 16.5001 21.6013 16.3097 21.3368 16.1804C21.0723 16.0512 20.7809 15.9868 20.4866 15.9927C17.1477 15.9698 15.524 15.055 14.7693 14.3461C14.2434 14.8149 13.2943 15.9927 13.6259 19.1257C13.6544 19.3285 13.6148 19.535 13.5134 19.7129C13.412 19.8908 13.2546 20.0302 13.0656 20.1091C12.9471 20.1764 12.8131 20.2118 12.6768 20.212C12.5122 20.2125 12.3504 20.1691 12.208 20.0862C12.1298 20.466 12.1495 20.8595 12.2652 21.2296C12.2791 21.2942 12.3108 21.3536 12.3567 21.4012C12.4421 21.4581 12.5343 21.5042 12.6311 21.5384H12.7225C12.964 21.5375 13.1969 21.6277 13.3749 21.7908C13.5529 21.954 13.6629 22.1782 13.6831 22.4188C13.8468 23.501 14.3931 24.4886 15.2229 25.2023C16.0527 25.916 17.1109 26.3085 18.2054 26.3085C19.2999 26.3085 20.3581 25.916 21.1879 25.2023C22.0177 24.4886 22.564 23.501 22.7277 22.4188C22.7373 22.2953 22.7717 22.175 22.8287 22.0651ZM15.8785 11.0073C15.6911 11.1634 15.4588 11.2556 15.2153 11.2702H14.9981C14.1534 11.2722 13.3391 11.5857 12.7112 12.1507C12.3451 12.5921 12.0739 13.1042 11.9146 13.6551C11.7552 14.2059 11.7111 14.7837 11.785 15.3523C11.806 15.6938 11.8674 16.0316 11.9679 16.3586C12.4367 13.4542 14.2319 12.6195 14.6436 12.4823C14.7522 12.4367 14.8688 12.4134 14.9866 12.4137C15.1485 12.4136 15.3079 12.4544 15.4498 12.5323C15.5917 12.6103 15.7117 12.7229 15.7984 12.8596C15.8327 12.9168 16.7475 14.2546 20.5552 14.2546C21.1275 14.2512 21.6922 14.3855 22.2017 14.6462C22.7111 14.9069 23.1504 15.2864 23.4824 15.7525C23.6339 15.9681 23.764 16.1979 23.8711 16.4386C24.0423 15.6538 24.0772 14.8454 23.9741 14.0488C23.8103 13.0098 23.3306 12.0465 22.6003 11.2896C21.87 10.5327 20.9244 10.0189 19.892 9.81807C19.5726 9.74915 19.2468 9.71466 18.9201 9.71517C17.7771 9.73574 16.6867 10.1989 15.8785 11.0073Z" fill="black"/>
</svg>
