<svg width="36" height="36" viewBox="0 0 36 36" fill="none" xmlns="http://www.w3.org/2000/svg">
<path fill-rule="evenodd" clip-rule="evenodd" d="M15 20.4599L8.34921 14.7593C8.12756 14.5693 8 14.2919 8 14V9C8 8.44772 8.44772 8 9 8H27C27.5523 8 28 8.44772 28 9V14C28 14.2515 27.9053 14.4922 27.7374 14.6755C27.7216 14.6927 27.7052 14.7094 27.6881 14.7256C27.6744 14.7386 27.6603 14.7512 27.6459 14.7635L21 20.4599V28C21 28.4589 20.6877 28.8589 20.2425 28.9701L16.2425 29.9701C15.6114 30.1279 15 29.6506 15 29V20.4599ZM24.2967 15L19.3492 19.2407C19.1276 19.4307 19 19.7081 19 20V27.2192L17 27.7192V20C17 19.7081 16.8724 19.4307 16.6508 19.2407L10 13.5401V10H26V13H19C18.4477 13 18 13.4477 18 14C18 14.5523 18.4477 15 19 15H24.2967Z" fill="black"/>
</svg>
