<svg width="36" height="36" viewBox="0 0 36 36" fill="none" xmlns="http://www.w3.org/2000/svg">
<path fill-rule="evenodd" clip-rule="evenodd" d="M23.4405 19.7374C23.4405 21.9215 21.671 23.6914 19.4875 23.6914H17.5335V24.6896H19.3545C19.8239 24.6896 20.2045 25.0702 20.2045 25.5396C20.2045 26.009 19.8239 26.3896 19.3545 26.3896H17.5335V26.9124C17.5335 27.4647 17.0858 27.9124 16.5335 27.9124C15.9812 27.9124 15.5335 27.4647 15.5335 26.9124V26.3896H14.6875C14.2181 26.3896 13.8375 26.009 13.8375 25.5396C13.8375 25.0702 14.2181 24.6896 14.6875 24.6896H15.5335V23.6914H14.6875C14.1352 23.6914 13.6875 23.2437 13.6875 22.6914C13.6875 22.1391 14.1352 21.6914 14.6875 21.6914H15.5335V16.7844C15.5335 16.2321 15.9812 15.7844 16.5335 15.7844H19.4875C21.6705 15.7844 23.4405 17.5548 23.4405 19.7374ZM17.5335 17.7844H19.4875C20.5658 17.7844 21.4405 18.6593 21.4405 19.7374C21.4405 20.817 20.5663 21.6914 19.4875 21.6914H17.5335V17.7844ZM18 10.7827C24.0743 10.7827 29 15.7084 29 21.7827C29 27.8577 24.0746 32.7827 18 32.7827C11.9254 32.7827 7 27.8577 7 21.7827C7 15.7084 11.9257 10.7827 18 10.7827ZM18 12.7827C13.0303 12.7827 9 16.813 9 21.7827C9 26.7531 13.0299 30.7827 18 30.7827C22.9701 30.7827 27 26.7531 27 21.7827C27 16.813 22.9697 12.7827 18 12.7827ZM14 8V5C14 4.44772 13.5523 4 13 4C12.4477 4 12 4.44772 12 5V8C12 8.55228 12.4477 9 13 9C13.5523 9 14 8.55228 14 8ZM24 8V5C24 4.44772 23.5523 4 23 4C22.4477 4 22 4.44772 22 5V8C22 8.55228 22.4477 9 23 9C23.5523 9 24 8.55228 24 8ZM19 7V4C19 3.44772 18.5523 3 18 3C17.4477 3 17 3.44772 17 4V7C17 7.55228 17.4477 8 18 8C18.5523 8 19 7.55228 19 7Z" fill="black"/>
</svg>
