<svg width="36" height="36" viewBox="0 0 36 36" fill="none" xmlns="http://www.w3.org/2000/svg">
<path fill-rule="evenodd" clip-rule="evenodd" d="M7.21662 13.7212C9.22414 9.63986 13.374 6.99982 18.0003 6.99982C20.4095 6.99982 22.7254 7.71955 24.693 9.04014C25.1516 9.34792 25.7728 9.22568 26.0806 8.76711C26.3884 8.30853 26.2662 7.68728 25.8076 7.3795C23.5136 5.83987 20.8105 4.99982 18.0003 4.99982C12.6041 4.99982 7.76265 8.07982 5.42198 12.8384C5.17821 13.334 5.38235 13.9334 5.87793 14.1771C6.3735 14.4209 6.97286 14.2168 7.21662 13.7212ZM6.46279 22.3099C6.15767 21.2229 6 20.1146 6 19.0001C6 18.7041 6.01061 18.4558 6.03469 18.223C6.09152 17.6737 5.69225 17.1823 5.1429 17.1254C4.59355 17.0686 4.10214 17.4679 4.04531 18.0172C4.01346 18.3251 4 18.6401 4 19.0001C4 20.3004 4.1835 21.5903 4.53721 22.8504C4.68647 23.3821 5.23852 23.6922 5.77026 23.5429C6.30199 23.3936 6.61205 22.8416 6.46279 22.3099ZM30 19C30 16.5899 29.2803 14.274 27.9598 12.3075C27.6519 11.849 27.774 11.2277 28.2325 10.9198C28.691 10.6119 29.3123 10.734 29.6202 11.1925C31.1599 13.4855 32 16.1888 32 19C32 20.3203 31.8178 21.6149 31.4599 22.8403C31.3051 23.3705 30.7498 23.6747 30.2197 23.5199C29.6895 23.3651 29.3853 22.8098 29.5401 22.2797C29.8443 21.2379 30 20.132 30 19ZM19 32V28C19 27.4477 18.5523 27 18 27C17.4477 27 17 27.4477 17 28V32C17 32.5523 17.4477 33 18 33C18.5523 33 19 32.5523 19 32ZM19 19V24C19 24.5523 18.5523 25 18 25C17.4477 25 17 24.5523 17 24V19C17 18.4477 17.4477 18 18 18C18.5523 18 19 18.4477 19 19ZM10.25 28V19C10.25 17.6985 10.5729 16.4386 11.1798 15.3154C11.4423 14.8295 11.2613 14.2228 10.7754 13.9602C10.2895 13.6977 9.68275 13.8788 9.42021 14.3646C8.65652 15.7781 8.25 17.3643 8.25 19V28C8.25 28.5523 8.69772 29 9.25 29C9.80228 29 10.25 28.5523 10.25 28ZM17.9998 11.1248C16.6983 11.1248 15.4384 11.4477 14.3152 12.0546C13.8293 12.3171 13.2226 12.1361 12.96 11.6502C12.6975 11.1643 12.8785 10.5576 13.3644 10.295C14.7778 9.53134 16.3641 9.12482 17.9998 9.12482C23.3714 9.12482 27.7498 13.5029 27.7498 18.8748V27.8748C27.7498 28.4271 27.3021 28.8748 26.7498 28.8748C26.1975 28.8748 25.7498 28.4271 25.7498 27.8748V18.8748C25.7498 14.6075 22.2669 11.1248 17.9998 11.1248ZM23.5 31.2002V25.5002C23.5 24.9479 23.0523 24.5002 22.5 24.5002C21.9477 24.5002 21.5 24.9479 21.5 25.5002V31.2002C21.5 31.7525 21.9477 32.2002 22.5 32.2002C23.0523 32.2002 23.5 31.7525 23.5 31.2002ZM23.5 19V21C23.5 21.5523 23.0523 22 22.5 22C21.9477 22 21.5 21.5523 21.5 21V19C21.5 18.0558 21.1276 17.1739 20.4686 16.5228C19.8261 15.8724 18.9442 15.5 18 15.5C16.0623 15.5 14.5 17.0623 14.5 19V31.2C14.5 31.7523 14.0523 32.2 13.5 32.2C12.9477 32.2 12.5 31.7523 12.5 31.2V19C12.5 15.9577 14.9577 13.5 18 13.5C19.4817 13.5 20.8752 14.0884 21.8828 15.1086C22.9116 16.1249 23.5 17.5183 23.5 19Z" fill="black"/>
</svg>
