<svg width="36" height="36" viewBox="0 0 36 36" fill="none" xmlns="http://www.w3.org/2000/svg">
<path fill-rule="evenodd" clip-rule="evenodd" d="M8.97646 14.3726C8.29465 10.8809 9.54282 7.9253 12.4861 5.80436L12.7505 5.61915C15.9232 3.46111 20.0741 3.46048 23.247 5.61792C26.3816 7.74821 27.7264 10.7759 27.0235 14.3702L26.967 14.656L27.1164 14.9681C27.7308 16.2552 27.5956 18.4831 26.8099 19.6999L26.6872 19.8746L25.908 20.892L25.8024 21.4337C25.5766 22.5893 25.0983 23.6611 24.42 24.5847C24.4612 24.6762 24.4891 24.7749 24.5011 24.8785L24.5078 24.9951V25.3561C24.5078 26.3053 24.8964 27.2178 25.5816 27.8981L25.7449 28.0509L27.1459 29.2369C27.5675 29.5937 27.6199 30.2247 27.2631 30.6462C26.9337 31.0353 26.3707 31.1099 25.9545 30.8384L25.8537 30.7633L24.4379 29.5645C23.4718 28.7136 22.8318 27.5894 22.6023 26.3691C22.2182 26.6404 21.8077 26.8794 21.3741 27.0818L21.1167 27.1965L20.3489 27.5224C18.8491 28.1595 17.1508 28.1595 15.6508 27.5223L14.8843 27.1965C14.3548 26.9718 13.8573 26.6935 13.3977 26.3688C13.1841 27.5032 12.6142 28.5563 11.7502 29.391L11.5481 29.5776L10.1461 30.7636C9.72442 31.1203 9.09345 31.0676 8.73676 30.6459C8.4075 30.2567 8.42705 29.6892 8.76365 29.3236L8.85438 29.2366L10.2409 28.064C10.9844 27.4084 11.4261 26.5168 11.4854 25.5744L11.4922 25.3561V24.9951C11.4922 24.8489 11.5236 24.71 11.58 24.5849C10.9016 23.6613 10.4233 22.5896 10.1976 21.4342L10.091 20.892L9.31293 19.8749C8.4623 18.7639 8.25801 16.5445 8.79754 15.1688L8.88407 14.9691L9.03203 14.658L8.97646 14.3726ZM25.0605 13.9871C25.6055 11.2003 24.6122 8.96388 22.1226 7.27194C19.6284 5.57595 16.3693 5.57645 13.8753 7.27285C11.3876 8.96656 10.3952 11.2024 10.9394 13.9892L11.0584 14.5982C11.0995 14.8085 11.0719 15.0265 10.9798 15.2199L10.6894 15.8298C10.3588 16.5221 10.4787 18.1076 10.9012 18.6594L11.8222 19.8634C11.9157 19.9856 11.9797 20.1278 12.0093 20.2788L12.1604 21.0502C12.5356 22.971 13.848 24.5841 15.6661 25.3557L16.4329 25.6816C17.4331 26.1065 18.5668 26.1065 19.5672 25.6815L20.3351 25.3555C22.1519 24.5841 23.4643 22.9708 23.8396 21.0498L23.9906 20.2788C24.0201 20.1278 24.0842 19.9856 24.1777 19.8634L25.0989 18.6591C25.5214 18.1073 25.6418 16.5217 25.3116 15.8301L25.0206 15.2211C24.9282 15.0276 24.9004 14.8094 24.9414 14.5988L25.0605 13.9871Z" fill="black"/>
</svg>
