<svg width="36" height="36" viewBox="0 0 36 36" fill="none" xmlns="http://www.w3.org/2000/svg">
<path fill-rule="evenodd" clip-rule="evenodd" d="M26 31C27.6563 31 29 29.6563 29 28V11.5858L22.4142 5H10C8.34372 5 7 6.34372 7 8V28C7 29.6563 8.34372 31 10 31H26ZM22 7.41421L26.5858 12H22V7.41421ZM20 7V14H27V28C27 28.5517 26.5517 29 26 29H10C9.44828 29 9 28.5517 9 28V8C9 7.44828 9.44828 7 10 7H20ZM15.8873 20.455C16.0551 20.4445 16.2124 20.4366 16.3592 20.4314C16.5061 20.4209 16.6529 20.4156 16.7997 20.4156C16.9465 20.4104 17.0986 20.4078 17.2559 20.4078C17.4132 20.4025 17.5888 20.3999 17.7828 20.3999C18.3072 20.3999 18.745 20.4602 19.0963 20.5808C19.4476 20.6962 19.7282 20.8666 19.9379 21.092C20.1476 21.3175 20.2944 21.5954 20.3783 21.9257C20.4675 22.2561 20.512 22.6362 20.512 23.0662C20.512 24.0677 20.284 24.807 19.8278 25.2842C19.3768 25.7613 18.6532 25.9999 17.657 25.9999C17.3162 25.9999 17.012 25.9947 16.7446 25.9842C16.4825 25.9737 16.1967 25.958 15.8873 25.937V20.455ZM17.1772 24.8516C17.2768 24.8621 17.366 24.8699 17.4446 24.8752C17.5233 24.8804 17.615 24.883 17.7199 24.883C18.2338 24.883 18.6061 24.7467 18.8368 24.4741C19.0675 24.2014 19.1828 23.7557 19.1828 23.137C19.1828 22.5654 19.078 22.1538 18.8682 21.9021C18.6585 21.6452 18.3046 21.5168 17.8064 21.5168C17.6858 21.5168 17.5783 21.5194 17.484 21.5246C17.3896 21.5299 17.2873 21.5377 17.1772 21.5482V24.8516ZM10.8 20.4628C10.973 20.4575 11.1277 20.4523 11.264 20.447C11.4056 20.4366 11.5472 20.4287 11.6888 20.4234C11.8303 20.4182 11.9771 20.4156 12.1292 20.4156C12.2865 20.4103 12.4674 20.4077 12.6719 20.4077C13.1386 20.4077 13.5318 20.4444 13.8517 20.5178C14.1768 20.5912 14.4389 20.7092 14.6382 20.8718C14.8427 21.0291 14.9895 21.2362 15.0786 21.4931C15.1678 21.7448 15.2123 22.0515 15.2123 22.4133C15.2123 23.1527 15.0079 23.698 14.5989 24.0493C14.1899 24.3954 13.5423 24.5684 12.6562 24.5684H12.373C12.2891 24.5631 12.1947 24.5553 12.0899 24.5448V25.9527H10.8V20.4628ZM12.0899 23.4751C12.2 23.4856 12.2944 23.4935 12.373 23.4987H12.6562C12.8869 23.4987 13.0809 23.4778 13.2382 23.4358C13.3955 23.3939 13.5213 23.3309 13.6157 23.247C13.7101 23.1579 13.7783 23.0504 13.8202 22.9246C13.8622 22.7987 13.8831 22.6493 13.8831 22.4763C13.8831 22.3085 13.8648 22.1616 13.8281 22.0358C13.7914 21.91 13.7258 21.8077 13.6314 21.7291C13.5371 21.6452 13.4112 21.5822 13.2539 21.5403C13.0966 21.4984 12.8974 21.4774 12.6562 21.4774C12.5513 21.4774 12.4569 21.48 12.373 21.4852C12.2891 21.4852 12.1947 21.4905 12.0899 21.501V23.4751ZM25.1247 20.447H21.2V25.9526H22.4899V23.9077H25.0146V22.783H22.4899V21.5717H25.1247V20.447Z" fill="black"/>
</svg>
