<svg width="36" height="36" viewBox="0 0 36 36" fill="none" xmlns="http://www.w3.org/2000/svg">
<path fill-rule="evenodd" clip-rule="evenodd" d="M10 5H26C27.6563 5 29 6.34372 29 8V28C29 29.6563 27.6563 31 26 31H10C8.34372 31 7 29.6563 7 28V8C7 6.34372 8.34372 5 10 5ZM12 7H10C9.44828 7 9 7.44828 9 8V28C9 28.5517 9.44828 29 10 29H26C26.5517 29 27 28.5517 27 28V8C27 7.44828 26.5517 7 26 7H14V9H12V7ZM16 11V9H14V11H12V13H14L13.999 15H12V17H13.999V15H14H15.999V13H16V11ZM16 11L15.999 13H14V11H16ZM10.8 25.9999V20.4634C11.1495 20.4529 11.4725 20.4396 11.7691 20.4237C12.0656 20.4078 12.3728 20.3999 12.6905 20.3999C13.13 20.3999 13.498 20.4396 13.7946 20.5191C14.0911 20.5932 14.3268 20.707 14.5015 20.8606C14.6816 21.0142 14.8087 21.2075 14.8828 21.4405C14.9623 21.6682 15.002 21.9356 15.002 22.2427C15.002 22.4704 14.9861 22.6743 14.9543 22.8544C14.9225 23.0344 14.8696 23.1959 14.7954 23.3389C14.7266 23.4819 14.6339 23.6063 14.5174 23.7122C14.4009 23.8182 14.258 23.9082 14.0885 23.9823L15.4389 25.9999H14.0011L12.7937 24.1253H12.1027V25.9999H10.8ZM12.6905 23.1006C13.0612 23.1006 13.3127 23.0397 13.4451 22.9179C13.5828 22.7908 13.6516 22.5896 13.6516 22.3142C13.6516 22.1818 13.6357 22.068 13.604 21.9727C13.5775 21.8773 13.5272 21.8006 13.453 21.7423C13.3789 21.6788 13.2783 21.6338 13.1512 21.6073C13.0241 21.5755 12.8626 21.5596 12.6667 21.5596C12.5502 21.5596 12.4495 21.5623 12.3648 21.5676C12.2801 21.5729 12.1848 21.5808 12.0789 21.5914V23.1006H12.6905ZM18.994 24.84H17.1909L16.8493 25.9997H15.5546L17.3497 20.4395H18.8987L20.6859 25.9997H19.3435L18.994 24.84ZM17.5086 23.7597H18.6763L18.0885 21.7898L17.5086 23.7597ZM21 20.4634V25.9999H22.3027V24.1253H22.9938L24.2011 25.9999H25.6389L24.2885 23.9823C24.458 23.9082 24.6009 23.8182 24.7174 23.7122C24.8339 23.6063 24.9266 23.4819 24.9955 23.3389C25.0696 23.1959 25.1226 23.0344 25.1543 22.8544C25.1861 22.6743 25.202 22.4704 25.202 22.2427C25.202 21.9356 25.1623 21.6682 25.0828 21.4405C25.0087 21.2075 24.8816 21.0142 24.7016 20.8606C24.5268 20.707 24.2912 20.5932 23.9946 20.5191C23.6981 20.4396 23.33 20.3999 22.8905 20.3999C22.5728 20.3999 22.2656 20.4078 21.9691 20.4237C21.6725 20.4396 21.3495 20.4529 21 20.4634ZM23.6451 22.9179C23.5127 23.0397 23.2612 23.1006 22.8905 23.1006H22.2789V21.5914C22.3848 21.5808 22.4801 21.5729 22.5648 21.5676C22.6496 21.5623 22.7502 21.5596 22.8667 21.5596C23.0626 21.5596 23.2241 21.5755 23.3512 21.6073C23.4783 21.6338 23.5789 21.6788 23.653 21.7423C23.7272 21.8006 23.7775 21.8773 23.804 21.9727C23.8357 22.068 23.8516 22.1818 23.8516 22.3142C23.8516 22.5896 23.7828 22.7908 23.6451 22.9179Z" fill="black"/>
</svg>
