<svg width="36" height="36" viewBox="0 0 36 36" fill="none" xmlns="http://www.w3.org/2000/svg">
<path fill-rule="evenodd" clip-rule="evenodd" d="M26 31C27.6563 31 29 29.6563 29 28V11.5858L22.4142 5H10C8.34372 5 7 6.34372 7 8V28C7 29.6563 8.34372 31 10 31H26ZM20 14V7H10C9.44828 7 9 7.44828 9 8V28C9 28.5517 9.44828 29 10 29H26C26.5517 29 27 28.5517 27 28V14H20ZM22 12H26.586L22 7.415V12ZM23.8039 24.4054C23.8039 24.2359 23.7345 24.1076 23.5959 24.0203C23.4572 23.933 23.2826 23.8559 23.0721 23.7892C22.8667 23.7224 22.6433 23.6557 22.4019 23.5889C22.1606 23.5221 21.9346 23.4271 21.7241 23.3039C21.5187 23.1755 21.3466 23.0086 21.208 22.8032C21.0693 22.5927 21 22.3128 21 21.9636C21 21.7222 21.0385 21.5065 21.1155 21.3165C21.1926 21.1214 21.3184 20.9571 21.493 20.8236C21.6676 20.6849 21.8935 20.5796 22.1708 20.5077C22.4481 20.4358 22.7871 20.3999 23.1876 20.3999C23.5471 20.3999 23.8757 20.423 24.1736 20.4692C24.4714 20.5154 24.7179 20.5822 24.9131 20.6695V21.9097C24.7077 21.771 24.4612 21.658 24.1736 21.5707C23.886 21.4834 23.5882 21.4398 23.2801 21.4398C23.0849 21.4398 22.9232 21.4526 22.7948 21.4783C22.6664 21.504 22.5637 21.5399 22.4867 21.5861C22.4148 21.6324 22.3634 21.6863 22.3326 21.7479C22.3018 21.8095 22.2864 21.8763 22.2864 21.9482C22.2864 22.0971 22.3583 22.2126 22.5021 22.2948C22.6458 22.3718 22.8256 22.4437 23.0413 22.5105C23.2569 22.5721 23.488 22.6389 23.7345 22.7108C23.9862 22.7827 24.2198 22.8828 24.4355 23.0112C24.6512 23.1396 24.8309 23.3116 24.9747 23.5273C25.1185 23.7378 25.1904 24.0151 25.1904 24.3592C25.1904 24.6211 25.1467 24.8547 25.0594 25.0602C24.9721 25.2604 24.836 25.4299 24.6512 25.5685C24.4663 25.7072 24.2275 25.815 23.9348 25.8921C23.6472 25.964 23.3006 25.9999 22.8949 25.9999C22.5252 25.9999 22.1708 25.9665 21.8319 25.8998C21.4981 25.833 21.2285 25.7431 21.0231 25.6302V24.3438C21.095 24.4054 21.1849 24.4722 21.2927 24.5441C21.4057 24.6159 21.5366 24.6827 21.6856 24.7443C21.8396 24.806 22.0091 24.8573 22.1939 24.8984C22.384 24.9395 22.5919 24.96 22.8179 24.96C23.1671 24.96 23.4187 24.9087 23.5728 24.806C23.7268 24.7032 23.8039 24.5697 23.8039 24.4054ZM10.9232 20.5078L12.3791 23.1345L10.8 25.8998H12.2635L13.3111 23.9125L14.4126 25.8998H15.9147L14.2817 23.1114L15.8223 20.5078H14.3818L13.365 22.3873L12.3945 20.5078H10.9232ZM17.7199 20.5078H16.4567V25.8998H20.4776V24.7367H17.7199V20.5078Z" fill="black"/>
</svg>
