<svg width="36" height="36" viewBox="0 0 36 36" fill="none" xmlns="http://www.w3.org/2000/svg">
<path fill-rule="evenodd" clip-rule="evenodd" d="M10 5H26C27.6563 5 29 6.34372 29 8V28C29 29.6563 27.6563 31 26 31H10C8.34372 31 7 29.6563 7 28V8C7 6.34372 8.34372 5 10 5ZM12 7H10C9.44828 7 9 7.44828 9 8V28C9 28.5517 9.44828 29 10 29H26C26.5517 29 27 28.5517 27 28V8C27 7.44828 26.5517 7 26 7H14V9H12V7ZM16 11V9H14V11H12V13H14L13.999 15H12V17H13.999V15H14H15.999V13H16V11ZM16 11L15.999 13H14V11H16ZM20.4687 20.0397C20.331 20.045 20.1748 20.0503 20 20.0556V25.6H21.3027V24.0193C21.4086 24.0299 21.5039 24.0378 21.5887 24.0431H21.8746C22.7166 24.0431 23.3309 23.8737 23.7174 23.5348C24.104 23.1958 24.2973 22.6663 24.2973 21.9461C24.2973 21.5913 24.2523 21.2921 24.1623 21.0485C24.0775 20.7996 23.9399 20.5984 23.7492 20.4448C23.5586 20.2913 23.3097 20.18 23.0026 20.1112C22.7007 20.0371 22.33 20 21.8905 20C21.684 20 21.5013 20.0026 21.3424 20.0079C21.1888 20.0079 21.0406 20.0106 20.8976 20.0159C20.7546 20.0212 20.6116 20.0291 20.4687 20.0397ZM21.5807 22.9708C21.5013 22.9655 21.4086 22.9575 21.3027 22.947V21.0962C21.4086 21.0856 21.5013 21.0803 21.5807 21.0803C21.6654 21.075 21.7608 21.0723 21.8667 21.0723C22.0785 21.0723 22.2532 21.0909 22.3909 21.1279C22.5339 21.165 22.6478 21.2233 22.7325 21.3027C22.8172 21.3821 22.8755 21.4801 22.9072 21.5966C22.939 21.7131 22.9549 21.8508 22.9549 22.0096C22.9549 22.3327 22.8755 22.5736 22.7166 22.7325C22.5577 22.8913 22.2771 22.9708 21.8746 22.9708H21.5807ZM11.7 24.8614L14.3372 21.1677H11.7953V20.0398H16.0767V20.7785L13.4396 24.4721H16.1244V25.6001H11.7V24.8614ZM17.3 20.0398H18.5948V25.6001H17.3V20.0398Z" fill="black"/>
</svg>
