<svg width="36" height="36" viewBox="0 0 36 36" fill="none" xmlns="http://www.w3.org/2000/svg">
<path fill-rule="evenodd" clip-rule="evenodd" d="M26 31C27.6563 31 29 29.6563 29 28V11.5858L22.4142 5H10C8.34372 5 7 6.34372 7 8V28C7 29.6563 8.34372 31 10 31H26ZM22 7.41421L26.5858 12H22V7.41421ZM20 7V14H27V28C27 28.5517 26.5517 29 26 29H10C9.44828 29 9 28.5517 9 28V8C9 7.44828 9.44828 7 10 7H20ZM10.8 20.4555C10.9747 20.4502 11.131 20.4449 11.2686 20.4396C11.4116 20.429 11.5546 20.4211 11.6976 20.4158C11.8406 20.4105 11.9888 20.4078 12.1424 20.4078C12.3013 20.4025 12.484 20.3999 12.6905 20.3999C13.1618 20.3999 13.5589 20.437 13.882 20.5111C14.2103 20.5852 14.4751 20.7044 14.6763 20.8686C14.8828 21.0274 15.0311 21.2366 15.1211 21.4961C15.2111 21.7503 15.2562 22.06 15.2562 22.4254C15.2562 23.1721 15.0496 23.7228 14.6366 24.0776C14.2235 24.4271 13.5695 24.6019 12.6746 24.6019H12.3886C12.3039 24.5966 12.2086 24.5886 12.1027 24.5781V25.9999H10.8V20.4555ZM12.1027 23.4978C12.2139 23.5084 12.3092 23.5163 12.3886 23.5216H12.6746C12.9076 23.5216 13.1035 23.5004 13.2624 23.4581C13.4213 23.4157 13.5484 23.3521 13.6437 23.2674C13.739 23.1774 13.8078 23.0688 13.8502 22.9417C13.8926 22.8147 13.9137 22.6637 13.9137 22.489C13.9137 22.3195 13.8952 22.1712 13.8581 22.0442C13.8211 21.9171 13.7549 21.8138 13.6596 21.7344C13.5642 21.6496 13.4372 21.5861 13.2783 21.5437C13.1194 21.5014 12.9182 21.4802 12.6746 21.4802C12.5687 21.4802 12.4734 21.4828 12.3886 21.4881C12.3039 21.4881 12.2086 21.4934 12.1027 21.504V23.4978ZM22.5001 21.5676H20.8241V20.4397H25.4788V21.5676H23.8028V26H22.5001V21.5676ZM16.4522 20.4396C16.3145 20.4449 16.1583 20.4502 15.9835 20.4555V25.9999H17.2862V24.5781C17.3921 24.5886 17.4874 24.5966 17.5722 24.6019H17.8581C18.7531 24.6019 19.4071 24.4271 19.8201 24.0776C20.2332 23.7228 20.4397 23.1721 20.4397 22.4254C20.4397 22.06 20.3947 21.7503 20.3047 21.4961C20.2146 21.2366 20.0664 21.0274 19.8598 20.8686C19.6586 20.7044 19.3938 20.5852 19.0655 20.5111C18.7425 20.437 18.3453 20.3999 17.874 20.3999C17.6675 20.3999 17.4848 20.4025 17.3259 20.4078C17.1724 20.4078 17.0241 20.4105 16.8811 20.4158C16.7381 20.4211 16.5952 20.429 16.4522 20.4396ZM17.5722 23.5216C17.4927 23.5163 17.3974 23.5084 17.2862 23.4978V21.504C17.3921 21.4934 17.4874 21.4881 17.5722 21.4881C17.6569 21.4828 17.7522 21.4802 17.8581 21.4802C18.1017 21.4802 18.303 21.5014 18.4618 21.5437C18.6207 21.5861 18.7478 21.6496 18.8431 21.7344C18.9384 21.8138 19.0046 21.9171 19.0417 22.0442C19.0787 22.1712 19.0973 22.3195 19.0973 22.489C19.0973 22.6637 19.0761 22.8147 19.0337 22.9417C18.9914 23.0688 18.9225 23.1774 18.8272 23.2674C18.7319 23.3521 18.6048 23.4157 18.4459 23.4581C18.2871 23.5004 18.0911 23.5216 17.8581 23.5216H17.5722Z" fill="black"/>
</svg>
