<svg width="36" height="36" viewBox="0 0 36 36" fill="none" xmlns="http://www.w3.org/2000/svg">
<path fill-rule="evenodd" clip-rule="evenodd" d="M7 7V12C7 12.5523 6.55228 13 6 13C5.44772 13 5 12.5523 5 12V7C5 5.89552 5.89491 5 7 5H12C12.5523 5 13 5.44772 13 6C13 6.55228 12.5523 7 12 7H7ZM24 7H29V12C29 12.5523 29.4477 13 30 13C30.5523 13 31 12.5523 31 12V7C31 5.89552 30.1051 5 29 5H24C23.4477 5 23 5.44772 23 6C23 6.55228 23.4477 7 24 7ZM10.75 13V15C10.75 15.6904 11.3096 16.25 12 16.25C12.6904 16.25 13.25 15.6904 13.25 15V13C13.25 12.3096 12.6904 11.75 12 11.75C11.3096 11.75 10.75 12.3096 10.75 13ZM18 19V14C18 13.4477 18.4477 13 19 13C19.5523 13 20 13.4477 20 14V19C20 20.1045 19.1051 21 18 21H17C16.4477 21 16 20.5523 16 20C16 19.4477 16.4477 19 17 19H18ZM13.2892 22.6574C13.6777 22.2648 14.3108 22.2615 14.7034 22.65C16.5227 24.4504 19.4773 24.4504 21.2966 22.65C21.6892 22.2615 22.3223 22.2648 22.7108 22.6574C23.0993 23.05 23.096 23.6831 22.7034 24.0716C20.1047 26.6432 15.8953 26.6432 13.2966 24.0716C12.904 23.6831 12.9007 23.05 13.2892 22.6574ZM24 16.25C23.3096 16.25 22.75 15.6904 22.75 15V13C22.75 12.3096 23.3096 11.75 24 11.75C24.6904 11.75 25.25 12.3096 25.25 13V15C25.25 15.6904 24.6904 16.25 24 16.25ZM12 29H7V24C7 23.4477 6.55228 23 6 23C5.44772 23 5 23.4477 5 24V29C5 30.1045 5.89491 31 7 31H12C12.5523 31 13 30.5523 13 30C13 29.4477 12.5523 29 12 29ZM29 29V24C29 23.4477 29.4477 23 30 23C30.5523 23 31 23.4477 31 24V29C31 30.1045 30.1051 31 29 31H24C23.4477 31 23 30.5523 23 30C23 29.4477 23.4477 29 24 29H29Z" fill="black"/>
</svg>
