<svg width="36" height="36" viewBox="0 0 36 36" fill="none" xmlns="http://www.w3.org/2000/svg">
<path fill-rule="evenodd" clip-rule="evenodd" d="M26 31C27.6563 31 29 29.6563 29 28V11.5858L22.4142 5H10C8.34372 5 7 6.34372 7 8V28C7 29.6563 8.34372 31 10 31H26ZM22 7.41421L26.5858 12H22V7.41421ZM20 7V14H27V28C27 28.5517 26.5517 29 26 29H10C9.44828 29 9 28.5517 9 28V8C9 7.44828 9.44828 7 10 7H20ZM15.7261 23.1999C15.7261 22.2255 15.9209 21.5153 16.3107 21.0691C16.7004 20.623 17.2979 20.3999 18.103 20.3999C18.5286 20.3999 18.8902 20.4563 19.1876 20.5691C19.485 20.6768 19.7261 20.8461 19.9107 21.0768C20.1004 21.3025 20.2363 21.5922 20.3184 21.9461C20.4056 22.2948 20.4492 22.7127 20.4492 23.1999C20.4492 23.7076 20.3979 24.1409 20.2953 24.4999C20.1979 24.8537 20.0492 25.1435 19.8492 25.3691C19.6543 25.5896 19.4107 25.7512 19.1184 25.8537C18.8261 25.9512 18.4876 25.9999 18.103 25.9999C17.3338 25.9999 16.744 25.7794 16.3338 25.3384C15.9286 24.8973 15.7261 24.1845 15.7261 23.1999ZM17.0799 23.2076C17.0799 23.5409 17.103 23.8179 17.1492 24.0384C17.2004 24.2589 17.2697 24.4332 17.3568 24.5614C17.4492 24.6896 17.5594 24.7794 17.6876 24.8307C17.8158 24.882 17.962 24.9076 18.1261 24.9076C18.285 24.9076 18.4261 24.882 18.5492 24.8307C18.6722 24.7743 18.7748 24.682 18.8568 24.5537C18.9389 24.4204 19.0004 24.2461 19.0415 24.0307C19.0825 23.8102 19.103 23.5358 19.103 23.2076C19.103 22.8794 19.0799 22.605 19.0338 22.3845C18.9927 22.164 18.9286 21.9871 18.8415 21.8537C18.7594 21.7204 18.6517 21.6281 18.5184 21.5768C18.3902 21.5204 18.2415 21.4922 18.0722 21.4922C17.903 21.4922 17.7543 21.523 17.6261 21.5845C17.503 21.6461 17.4004 21.7461 17.3184 21.8845C17.2415 22.0179 17.1825 22.1948 17.1415 22.4153C17.1004 22.6307 17.0799 22.8948 17.0799 23.2076ZM10.7 20.5153C10.8641 20.505 11.018 20.4973 11.1616 20.4922C11.3051 20.4819 11.4487 20.4768 11.5923 20.4768C11.7359 20.4717 11.8846 20.4691 12.0385 20.4691C12.1923 20.464 12.3641 20.4614 12.5539 20.4614C13.0667 20.4614 13.4949 20.5204 13.8385 20.6383C14.1821 20.7512 14.4564 20.9178 14.6616 21.1383C14.8667 21.3589 15.0103 21.6307 15.0923 21.9537C15.1795 22.2768 15.2231 22.6486 15.2231 23.0691C15.2231 24.0486 15 24.7717 14.5539 25.2383C14.1128 25.705 13.4051 25.9383 12.4308 25.9383C12.0974 25.9383 11.8 25.9332 11.5385 25.923C11.2821 25.9127 11.0026 25.8973 10.7 25.8768V20.5153ZM11.9616 24.8153C12.059 24.8255 12.1462 24.8332 12.2231 24.8383C12.3 24.8435 12.3898 24.846 12.4923 24.846C12.9949 24.846 13.359 24.7127 13.5846 24.446C13.8103 24.1794 13.9231 23.7435 13.9231 23.1383C13.9231 22.5794 13.8205 22.1768 13.6154 21.9307C13.4103 21.6794 13.0641 21.5537 12.5769 21.5537C12.459 21.5537 12.3539 21.5563 12.2616 21.5614C12.1692 21.5666 12.0692 21.5742 11.9616 21.5845V24.8153ZM24.6308 21.6691C24.8667 21.7512 25.0667 21.8384 25.2308 21.9307V20.6384C25.0974 20.5973 24.9051 20.5486 24.6538 20.4922C24.4026 20.4307 24.0872 20.3999 23.7077 20.3999C23.2308 20.3999 22.8205 20.4563 22.4769 20.5691C22.1333 20.682 21.8513 20.8563 21.6308 21.0922C21.4154 21.3281 21.2564 21.6255 21.1538 21.9845C21.0513 22.3384 21 22.7589 21 23.2461C21 23.7179 21.0513 24.1255 21.1538 24.4691C21.2564 24.8127 21.4154 25.0973 21.6308 25.323C21.8513 25.5486 22.1308 25.7178 22.4692 25.8307C22.8128 25.9384 23.2231 25.9922 23.7 25.9922C24.0795 25.9922 24.4026 25.9589 24.6692 25.8922C24.9359 25.8307 25.141 25.764 25.2846 25.6922V24.4384C25.141 24.5409 24.9462 24.6384 24.7 24.7307C24.4538 24.8179 24.1538 24.8614 23.8 24.8614C23.5436 24.8614 23.3205 24.8358 23.1308 24.7845C22.941 24.7281 22.7846 24.6358 22.6615 24.5076C22.5385 24.3743 22.4462 24.1999 22.3846 23.9845C22.3231 23.7691 22.2923 23.4999 22.2923 23.1768C22.2923 22.8691 22.3205 22.6127 22.3769 22.4076C22.4385 22.1973 22.5282 22.0281 22.6462 21.8999C22.7641 21.7717 22.9128 21.6794 23.0923 21.623C23.2769 21.5666 23.4923 21.5384 23.7385 21.5384C24.1026 21.5384 24.4 21.582 24.6308 21.6691Z" fill="black"/>
</svg>
