<svg width="36" height="36" viewBox="0 0 36 36" fill="none" xmlns="http://www.w3.org/2000/svg">
<path fill-rule="evenodd" clip-rule="evenodd" d="M17.379 6.5496C18.0352 6.03489 18.9961 6.50242 18.9961 7.33645V13.0835C18.9961 14.5112 20.1534 15.6685 21.5811 15.6685C22.3289 15.6685 23.0227 15.3401 23.5182 14.7715C24.0118 14.205 24.9306 14.3649 25.2037 15.065C25.7226 16.395 26.0001 17.7037 26.0001 19.0005C26.0001 23.4181 22.4181 27.0005 18.0001 27.0005C13.5821 27.0005 10.0001 23.4181 10.0001 19.0005C10.0001 16.0142 11.4052 13.049 13.7238 10.2108C14.5151 9.24222 15.3607 8.35608 16.2076 7.56823L16.7376 7.08794C16.8972 6.94742 17.039 6.82652 17.1612 6.72541L17.379 6.5496ZM16.5555 10.0305C16.117 10.4869 15.6861 10.97 15.2727 11.4761C13.2185 13.9906 12.0001 16.5619 12.0001 19.0005C12.0001 22.3135 14.6867 25.0005 18.0001 25.0005C21.3134 25.0005 24.0001 22.3135 24.0001 19.0005C24.0001 18.3832 23.919 17.753 23.7608 17.1082C23.1032 17.4701 22.3587 17.6685 21.5811 17.6685C19.0488 17.6685 16.9961 15.6157 16.9961 13.0835V9.58325L16.5555 10.0305ZM13 31H22C22.5523 31 23 30.5522 23 30C23 29.4477 22.5523 29 22 29H13C12.4477 29 12 29.4477 12 30C12 30.5522 12.4477 31 13 31Z" fill="black"/>
</svg>
