<svg width="36" height="36" viewBox="0 0 36 36" fill="none" xmlns="http://www.w3.org/2000/svg">
<path fill-rule="evenodd" clip-rule="evenodd" d="M19.5525 18.3199C19.3759 17.7966 19.6568 17.2292 20.1801 17.0525C21.7401 16.5259 23.3976 16.4113 25 16.7089V14.685C25 10.9852 21.8789 8 18 8C14.3668 8 11.3235 10.6696 10.9954 14.0953C10.9428 14.6451 10.4544 15.0481 9.90467 14.9954C9.3549 14.9428 8.9519 14.4544 9.00455 13.9047C9.43232 9.43741 13.351 6 18 6C22.964 6 27 9.86021 27 14.685V18C27 18.6842 26.3283 19.1663 25.6801 18.9475C24.1016 18.4145 22.3984 18.4145 20.8199 18.9475C20.2966 19.1241 19.7292 18.8432 19.5525 18.3199ZM17 18V23.1767C17.9178 23.3045 18.8541 23.2555 19.7576 23.0298C20.2935 22.896 20.8363 23.2218 20.9702 23.7576C21.104 24.2935 20.7782 24.8363 20.2424 24.9702C18.7702 25.3379 17.2298 25.3379 15.7576 24.9702C15.3124 24.859 15 24.4589 15 24V18.7522C13.6859 18.4336 12.314 18.4336 11 18.7522V22.261C11 25.9764 14.1121 29 17.966 29L18.2403 28.9961C21.9904 28.8734 25 25.8912 25 22.261V22C25 21.4477 25.4477 21 26 21C26.5523 21 27 21.4477 27 22V22.261C27 27.0888 22.9502 31 18 31L17.7019 30.9963C12.878 30.8602 8.99999 27.0078 8.99999 22.261V18C8.99999 17.5696 9.27542 17.1874 9.68377 17.0513C11.836 16.3339 14.164 16.3339 16.3162 17.0513C16.7246 17.1874 17 17.5696 17 18Z" fill="black"/>
</svg>
