<svg width="36" height="36" viewBox="0 0 36 36" fill="none" xmlns="http://www.w3.org/2000/svg">
<path fill-rule="evenodd" clip-rule="evenodd" d="M16.1887 7.92395C15.2858 7.32162 14.2237 7 13.138 7H10C9.44772 7 9 7.44772 9 8V9.5V22V29C9 29.5523 9.44772 30 10 30C10.5523 30 11 29.5523 11 29V23H13.138C13.8288 23 14.5046 23.2047 15.079 23.5879L17.3113 25.076C18.2142 25.6784 19.2763 26 20.362 26H28C28.5523 26 29 25.5523 29 25V11C29 10.4477 28.5523 10 28 10H20.362C19.6712 10 18.9954 9.79534 18.421 9.41212L16.1887 7.92395ZM27 12H20.362C19.2763 12 18.2142 11.6784 17.3113 11.0761L15.079 9.58788C14.5046 9.20466 13.8288 9 13.138 9H11V21H13.138C14.2237 21 15.2858 21.3216 16.1887 21.9239L18.421 23.4121C18.9954 23.7953 19.6712 24 20.362 24H27V12Z" fill="black"/>
</svg>
