<svg width="36" height="36" viewBox="0 0 36 36" fill="none" xmlns="http://www.w3.org/2000/svg">
<path fill-rule="evenodd" clip-rule="evenodd" d="M15.1202 6H20.8802C21.4325 6 21.8802 6.44772 21.8802 7V8.22C21.8802 8.79989 22.2191 9.34401 22.7788 9.66284L23.0042 9.7844C23.5289 10.0316 24.0967 10.0253 24.5512 9.76436L25.6212 9.14836C26.0989 8.87336 26.709 9.03673 26.9854 9.51362L29.8654 14.4836C30.1429 14.9626 29.9786 15.5758 29.4988 15.8518L28.4418 16.4598C27.9392 16.7489 27.6378 17.3163 27.6392 17.984L27.6451 18.1823C27.6894 18.7763 27.9811 19.2751 28.4418 19.5402L29.4988 20.1482C29.9786 20.4242 30.1429 21.0374 29.8654 21.5164L26.9854 26.4864C26.709 26.9633 26.0989 27.1266 25.6212 26.8516L24.5523 26.2362C24.0513 25.9486 23.4143 25.9696 22.8328 26.3062L22.6507 26.4174C22.165 26.7469 21.8802 27.2484 21.8802 27.78V29C21.8802 29.5523 21.4325 30 20.8802 30H15.1202C14.5679 30 14.1202 29.5523 14.1202 29V27.78C14.1202 27.2001 13.7812 26.656 13.2215 26.3372L12.9961 26.2156C12.4714 25.9684 11.903 25.9747 11.4491 26.2356L10.3791 26.8516C9.90142 27.1266 9.29129 26.9633 9.01494 26.4864L6.13494 21.5164C5.85741 21.0374 6.02174 20.4242 6.50156 20.1482L7.55851 19.5402C8.06112 19.2511 8.36253 18.6837 8.36117 18.016L8.35526 17.8177C8.3109 17.2237 8.01924 16.7249 7.55856 16.4598L6.50156 15.8518C6.02174 15.5758 5.85741 14.9626 6.13494 14.4836L9.01494 9.51362C9.29129 9.03673 9.90142 8.87336 10.3791 9.14836L11.4485 9.76403C11.9484 10.0514 12.5862 10.0303 13.1675 9.69384L13.2122 9.66806C13.7812 9.34401 14.1202 8.79989 14.1202 8.22V7C14.1202 6.44772 14.5679 6 15.1202 6ZM19.88 8H16.12L16.1202 8.22C16.1202 9.46968 15.4567 10.604 14.3859 11.2941L14.1928 11.4112L13.9465 11.5458C12.8265 12.1106 11.5255 12.1152 10.4512 11.4976L10.245 11.379L8.36797 14.618L8.55583 14.7262C9.64072 15.3503 10.2892 16.4922 10.3555 17.7592L10.3612 17.984L10.3555 18.2391C10.2892 19.5078 9.64072 20.6497 8.55578 21.2738L8.36797 21.381L10.245 24.62L10.4518 24.502C11.5256 23.8848 12.8265 23.8894 13.9336 24.4469L14.1388 24.5578L14.3938 24.7103C15.4567 25.396 16.1202 26.5303 16.1202 27.78L16.12 28H19.88L19.8802 27.78C19.8802 26.5303 20.5436 25.396 21.6144 24.7059L21.8075 24.5888L22.0538 24.4542C23.1737 23.8894 24.4736 23.8849 25.5491 24.5024L25.754 24.62L27.631 21.381L27.4445 21.2738C26.3596 20.6497 25.7112 19.5078 25.6448 18.2408L25.6392 18.016L25.6448 17.7609C25.7112 16.4922 26.3596 15.3503 27.4446 14.7262L27.631 14.618L25.754 11.379L25.5481 11.4982C24.4736 12.1151 23.1737 12.1106 22.0667 11.5531L21.8615 11.4422L21.6066 11.2897C20.5436 10.604 19.8802 9.46968 19.8802 8.22L19.88 8ZM18 13C15.2387 13 13 15.2387 13 18C13 20.7613 15.2387 23 18 23C20.7613 23 23 20.7613 23 18C23 15.2387 20.7613 13 18 13ZM21 18C21 16.3433 19.6567 15 18 15C16.3433 15 15 16.3433 15 18C15 19.6567 16.3433 21 18 21C19.6567 21 21 19.6567 21 18Z" fill="black"/>
</svg>
