<svg width="36" height="36" viewBox="0 0 36 36" fill="none" xmlns="http://www.w3.org/2000/svg">
<path fill-rule="evenodd" clip-rule="evenodd" d="M12.342 5.81594C13.5135 4.64442 15.4127 4.64442 16.5839 5.81561L17.9999 7.23033L19.4154 5.81549C20.5879 4.64449 22.4868 4.64449 23.6582 5.81594C24.8298 6.98754 24.8298 8.88805 23.6584 10.058L22.7793 10.9374H27C28.6563 10.9374 30 12.2812 30 13.9374V14.9374C30 16.2431 29.1649 17.3546 28 17.7666V27.9374C28 29.5937 26.6563 30.9374 25 30.9374H11C9.34372 30.9374 8 29.5937 8 27.9374V17.7666C6.83505 17.3546 6 16.2431 6 14.9374V13.9374C6 12.2812 7.34372 10.9374 9 10.9374H13.2209L12.3429 10.0591C11.1692 8.8884 11.1692 6.98719 12.342 5.81594ZM16.0148 10.9374H19.9854C20.024 10.8767 20.0698 10.8192 20.1228 10.7661L22.2444 8.64349C22.6344 8.25404 22.6344 7.62055 22.244 7.23015C21.8534 6.8396 21.2203 6.8396 20.829 7.23032L18.707 9.35132C18.3166 9.74156 17.6838 9.74163 17.2933 9.35149L15.17 7.23015C14.7795 6.83968 14.1467 6.83968 13.7558 7.23061C13.365 7.6209 13.365 8.25369 13.7564 8.64411L15.8774 10.7661C15.9304 10.8192 15.9762 10.8767 16.0148 10.9374ZM16.9991 28.9374C15.666 28.9374 13.6663 28.9374 11 28.9374C10.4483 28.9374 10 28.4892 10 27.9374V17.939H13.4226C13.9734 17.939 14.42 17.4924 14.42 16.9416C14.42 16.3907 13.9734 15.9442 13.4226 15.9442H9.11662L9 15.9374C8.44828 15.9374 8 15.4892 8 14.9374V13.9374C8 13.3857 8.44828 12.9374 9 12.9374C12.9579 12.9374 15.6257 12.9374 17.0034 12.9374L16.9991 28.9374ZM19 17.9374H26V27.9374C26 28.4892 25.5517 28.9374 25 28.9374C22.0609 28.9374 20.0604 28.9374 18.9986 28.9374L19 17.9374ZM18.9979 12.9374C20.7761 12.9374 23.4435 12.9374 27 12.9374C27.5517 12.9374 28 13.3857 28 13.9374V14.9374C28 15.4892 27.5517 15.9374 27 15.9374H19L18.9979 12.9374Z" fill="black"/>
</svg>
