<svg width="36" height="36" viewBox="0 0 36 36" fill="none" xmlns="http://www.w3.org/2000/svg">
<path fill-rule="evenodd" clip-rule="evenodd" d="M22.8379 7.5L13.1621 7.50001C12.8496 7.50001 12.5331 7.68564 12.3674 8.02924L10.7671 12H25.2329L23.6326 8.02923C23.4669 7.68563 23.1504 7.5 22.8379 7.5ZM27.3892 12L25.4684 7.23393L25.4584 7.21233C24.9869 6.18578 23.9788 5.5 22.8379 5.5L13.1621 5.50001C12.0212 5.50001 11.0131 6.18579 10.5416 7.21234L10.5316 7.23393L8.61076 12H8.5C7.94772 12 7.5 12.4477 7.5 13C7.5 13.5523 7.94772 14 8.5 14H27.5C28.0523 14 28.5 13.5523 28.5 13C28.5 12.4477 28.0523 12 27.5 12H27.3892ZM9.8607 15.5097C10.4076 15.4328 10.9133 15.8138 10.9903 16.3607L12.7195 28.6535C12.7195 28.6535 12.7195 28.6536 12.7195 28.6535C12.7935 29.1788 13.2036 29.5 13.61 29.5H22.39C22.7964 29.5 23.2065 29.1788 23.2805 28.6535L25.0098 16.3607C25.0867 15.8138 25.5924 15.4328 26.1393 15.5098C26.6862 15.5867 27.0672 16.0924 26.9902 16.6393L25.261 28.9323C25.0588 30.3684 23.8684 31.5 22.39 31.5H13.61C12.1315 31.5 10.9412 30.3685 10.739 28.9324L9.00975 16.6393C8.93282 16.0924 9.3138 15.5867 9.8607 15.5097Z" fill="black"/>
</svg>
