<svg width="36" height="36" viewBox="0 0 36 36" fill="none" xmlns="http://www.w3.org/2000/svg">
<path fill-rule="evenodd" clip-rule="evenodd" d="M17.0231 13.008H10.0954C10.0112 13.008 9.92945 13.0184 9.85134 13.038L9.73707 13.0741L9.49415 13.1099C5.78921 13.7174 3.00839 17.0503 3.00839 21.008C3.00839 25.4167 6.44304 29.008 10.7034 29.008C13.3863 29.008 15.857 27.4091 17.2607 25H18.7554C20.131 27.3582 22.5618 29.008 24.9584 29.008C29.2705 29.008 33.0084 25.3664 33.0084 21.008C33.0084 16.9643 30.1054 13.5728 26.2797 13.0741C26.1685 13.0314 26.0477 13.008 25.9214 13.008H19.0447C19.1765 12.3303 19.6351 12.0553 20.8682 11.7346L21.2764 11.6331C23.9604 10.9902 25.087 10.1805 25.087 7.74411C25.087 7.19183 24.6393 6.74411 24.087 6.74411C23.5347 6.74411 23.087 7.19183 23.087 7.74411C23.087 8.90701 22.7217 9.21428 21.0211 9.6368L20.8106 9.68812C18.3474 10.2781 17.1959 11.0086 17.0231 13.008ZM10.3468 15.008L10.2692 15.0248L9.96655 15.0612C7.16126 15.4431 5.00839 17.969 5.00839 21.008C5.00839 24.3316 7.56805 27.008 10.7034 27.008C12.7809 27.008 14.7526 25.6265 15.7643 23.5603C15.9322 23.2174 16.2806 23 16.6624 23H19.3534C19.7352 23 20.0836 23.2174 20.2515 23.5603C21.2363 25.5716 23.2027 27.008 24.9584 27.008C28.1774 27.008 31.0084 24.25 31.0084 21.008C31.0084 17.969 28.8555 15.4431 26.0502 15.0612L25.7476 15.0248L25.67 15.008H10.3468ZM8.49999 22.0083H9.49999V23C9.49999 23.5523 9.94771 24 10.5 24C11.0523 24 11.5 23.5523 11.5 23V22.0083H12.5C13.0523 22.0083 13.5 21.5606 13.5 21.0083C13.5 20.456 13.0523 20.0083 12.5 20.0083H11.5V19C11.5 18.4477 11.0523 18 10.5 18C9.94771 18 9.49999 18.4477 9.49999 19V20.0083H8.49999C7.94771 20.0083 7.49999 20.456 7.49999 21.0083C7.49999 21.5606 7.94771 22.0083 8.49999 22.0083ZM25.7071 19.1329C25.5905 19.2495 25.4524 19.3312 25.3055 19.3782C25.2235 19.4044 25.1388 19.4198 25.0536 19.4244C25.0358 19.4253 25.0179 19.4258 25 19.4258C24.984 19.4258 24.968 19.4254 24.952 19.4247C24.8649 19.4205 24.7783 19.405 24.6945 19.3782C24.5476 19.3312 24.4094 19.2495 24.2929 19.1329C24.1763 19.0164 24.0946 18.8782 24.0476 18.7313C24.0216 18.6501 24.0063 18.5663 24.0016 18.482C24.0005 18.4633 24 18.4446 24 18.4258C24 18.4098 24.0004 18.3938 24.0011 18.3778C24.0053 18.2908 24.0208 18.2041 24.0476 18.1203C24.0946 17.9734 24.1763 17.8353 24.2929 17.7187C24.4094 17.6021 24.5476 17.5204 24.6945 17.4734C24.7769 17.447 24.862 17.4316 24.9476 17.4272C24.9651 17.4263 24.9825 17.4258 25 17.4258C25.016 17.4258 25.032 17.4262 25.048 17.427C25.135 17.4311 25.2217 17.4466 25.3055 17.4734C25.4524 17.5204 25.5905 17.6021 25.7071 17.7187C25.8237 17.8353 25.9054 17.9734 25.9524 18.1203C25.9786 18.2022 25.994 18.2868 25.9985 18.3719C25.9995 18.3898 26 18.4078 26 18.4258C26 18.4418 25.9996 18.4578 25.9988 18.4738C25.9947 18.5609 25.9792 18.6475 25.9524 18.7313C25.9054 18.8782 25.8237 19.0164 25.7071 19.1329ZM25 24.5C25.552 24.5 26 24.052 26 23.5C26 22.948 25.552 22.5 25 22.5C24.448 22.5 24 22.948 24 23.5C24 24.052 24.448 24.5 25 24.5ZM29 21.0083C29 21.5603 28.552 22.0083 28 22.0083C27.448 22.0083 27 21.5603 27 21.0083C27 20.4563 27.448 20.0083 28 20.0083C28.552 20.0083 29 20.4563 29 21.0083ZM22 22.0083C22.552 22.0083 23 21.5603 23 21.0083C23 20.4563 22.552 20.0083 22 20.0083C21.448 20.0083 21 20.4563 21 21.0083C21 21.5603 21.448 22.0083 22 22.0083Z" fill="black"/>
</svg>
