<svg width="36" height="36" viewBox="0 0 36 36" fill="none" xmlns="http://www.w3.org/2000/svg">
<path fill-rule="evenodd" clip-rule="evenodd" d="M13 12H7C5.51931 12 4.22664 12.8044 3.53506 14H2L1.88338 14.0067C1.38604 14.0645 1 14.4872 1 15C1 15.5523 1.44772 16 2 16H3V20C3 22.7613 5.23872 25 8 25H12C14.7613 25 17 22.7613 17 20V16H19V20C19 22.7613 21.2387 25 24 25H28C30.7613 25 33 22.7613 33 20V16H34L34.1166 15.9933C34.614 15.9355 35 15.5128 35 15C35 14.4477 34.5523 14 34 14H32.4649C31.7734 12.8044 30.4807 12 29 12H23C21.5193 12 20.2266 12.8044 19.5351 14H16.4649C15.7734 12.8044 14.4807 12 13 12ZM7 14H13C14.1047 14 15 14.8953 15 16V20C15 21.6567 13.6567 23 12 23H8C6.34328 23 5 21.6567 5 20V16C5 14.8953 5.89528 14 7 14ZM23 14H29C30.1047 14 31 14.8953 31 16V20C31 21.6567 29.6567 23 28 23H24C22.3433 23 21 21.6567 21 20V16C21 14.8953 21.8953 14 23 14ZM10.866 14.9998C11.4183 14.9998 11.866 15.4475 11.866 15.9998C11.866 16.5126 11.48 16.9353 10.9826 16.9931L10.866 16.9998L8 16.999V19.1118C8 19.6246 7.61396 20.0473 7.11662 20.1051L7 20.1118C6.48716 20.1118 6.06449 19.7258 6.00673 19.2284L6 19.1118V15.9998C6 15.487 6.38604 15.0643 6.88338 15.0065L7 14.9998H10.866ZM27.866 15.9998C27.866 15.4475 27.4183 14.9998 26.866 14.9998H23L22.8834 15.0065C22.386 15.0643 22 15.487 22 15.9998V19.1118L22.0067 19.2284C22.0645 19.7258 22.4872 20.1118 23 20.1118L23.1166 20.1051C23.614 20.0473 24 19.6246 24 19.1118V16.999L26.866 16.9998L26.9826 16.9931C27.48 16.9353 27.866 16.5126 27.866 15.9998Z" fill="black"/>
</svg>
