<svg width="36" height="36" viewBox="0 0 36 36" fill="none" xmlns="http://www.w3.org/2000/svg">
<path fill-rule="evenodd" clip-rule="evenodd" d="M18 7.17473L29.4751 14.251C29.9452 14.5409 30.5613 14.3949 30.8512 13.9248C31.141 13.4547 30.995 12.8386 30.5249 12.5487L28 10.9917V6.99998C28 6.44769 27.5523 5.99998 27 5.99998C26.4477 5.99998 26 6.44769 26 6.99998V9.75836L18.5249 5.14871C18.2031 4.95027 17.7969 4.95027 17.4751 5.14871L5.4751 12.5487C5.00501 12.8386 4.85893 13.4547 5.14882 13.9248C5.4387 14.3949 6.05479 14.5409 6.52488 14.251L18 7.17473ZM14.0047 16.5879C13.9767 17.0469 14.0867 17.4779 14.2427 17.8999C14.5637 18.7709 15.0587 19.5499 15.6637 20.2559C16.4707 21.2189 17.4427 21.9799 18.5707 22.5299C19.0747 22.7779 19.6067 22.9699 20.1757 22.9979C20.5697 23.0159 20.9087 22.9159 21.1837 22.6129C21.315 22.4623 21.4595 22.3214 21.6049 22.1797C21.6633 22.1228 21.7218 22.0657 21.7797 22.0079C22.0737 21.7139 22.0737 21.3479 21.7797 21.0539C21.5473 20.8148 21.3105 20.5803 21.0752 20.3472L21.0752 20.3472L21.0752 20.3471C20.9581 20.2311 20.8413 20.1155 20.7257 19.9999C20.4417 19.7149 20.0747 19.7149 19.7897 19.9999L19.68 20.1099C19.4973 20.2932 19.3145 20.4766 19.1387 20.6599C19.0747 20.7239 19.0297 20.7329 18.9557 20.6959C18.9141 20.6752 18.8726 20.6553 18.8313 20.6355L18.8312 20.6355L18.8311 20.6354C18.7263 20.5852 18.6229 20.5357 18.5247 20.4769C17.8917 20.0729 17.3507 19.5599 16.8837 18.9819C16.6447 18.6889 16.4437 18.3859 16.2967 18.0369C16.2687 17.9639 16.2787 17.9179 16.3337 17.8629L16.3657 17.8322C16.575 17.6315 16.7839 17.4312 16.9847 17.2209C17.2867 16.9189 17.2867 16.5609 16.9847 16.2579C16.8826 16.1508 16.7767 16.0469 16.6696 15.9417C16.6035 15.8769 16.537 15.8116 16.4707 15.7449L16.2953 15.5693L16.2949 15.5689L16.2937 15.5677C16.1752 15.4489 16.0552 15.3287 15.9387 15.2129C15.6547 14.9289 15.2877 14.9289 15.0037 15.2129C14.8937 15.3184 14.7837 15.4283 14.6738 15.5383L14.6737 15.5384C14.5637 15.6484 14.4537 15.7584 14.3437 15.8639C14.1327 16.0659 14.0227 16.3039 14.0047 16.5879ZM26 27V16C26 15.4477 26.4477 15 27 15C27.5523 15 28 15.4477 28 16V27C28 28.6563 26.6563 30 25 30H11C9.3437 30 7.99999 28.6563 7.99999 27V16C7.99999 15.4477 8.4477 15 8.99999 15C9.55227 15 9.99999 15.4477 9.99999 16V27C9.99999 27.5517 10.4483 28 11 28H25C25.5517 28 26 27.5517 26 27Z" fill="black"/>
</svg>
