<svg width="36" height="36" viewBox="0 0 36 36" fill="none" xmlns="http://www.w3.org/2000/svg">
<path fill-rule="evenodd" clip-rule="evenodd" d="M21.4883 6C20.5883 6 19.6873 6.345 19.0003 7.034C18.3133 6.345 17.4123 6 16.5113 6C15.3883 6 14.2663 6.535 13.5563 7.606C12.6273 9.01 12.9003 10.898 14.0903 12.091L17.6913 15.702C18.0523 16.064 18.5263 16.245 19.0003 16.245C19.4733 16.245 19.9473 16.064 20.3093 15.702L23.9103 12.091C25.0993 10.898 25.3733 9.01 24.4433 7.606C23.7343 6.535 22.6113 6 21.4883 6ZM21.4883 8C22.0073 8 22.4763 8.259 22.7763 8.71C23.1583 9.288 23.0373 10.134 22.4943 10.679L19.0003 14.182L15.5063 10.679C14.9633 10.134 14.8423 9.288 15.2243 8.71C15.5233 8.259 15.9923 8 16.5113 8C16.9163 8 17.2973 8.158 17.5843 8.446L19.0003 9.866L20.4163 8.446C20.7023 8.158 21.0833 8 21.4883 8ZM6.02731 18V28H4.02731C3.47503 28 3.02731 28.4477 3.02731 29C3.02731 29.5523 3.47503 30 4.02731 30H7.02731C7.5796 30 8.02731 29.5523 8.02731 29V27.3553C8.70178 27.4356 9.38376 27.6041 10.2169 27.8768L10.9584 28.1309L11.5517 28.3418C13.8737 29.1654 15.3236 29.4998 17.3817 29.4998C18.6513 29.4998 19.7895 29.0754 21.2746 28.2205L30.5017 22.8647C31.5905 22.2398 31.7598 20.5476 31.0997 19.5174C30.2469 18.1915 28.6796 17.9997 27.1712 18.6829L23.2855 20.486C22.8825 19.5998 21.9574 18.9907 20.8984 18.9907H17.3524C16.9963 18.9907 16.6307 18.8744 16.1199 18.6058L15.8729 18.4712L15.3024 18.1428C13.957 17.3673 13.0484 17.0277 11.7924 17.0277C10.5019 17.0277 9.28687 17.4582 8.17696 18.1661C8.12603 18.1985 8.07615 18.231 8.02731 18.2635V17C8.02731 16.4477 7.5796 16 7.02731 16H4.02731C3.47503 16 3.02731 16.4477 3.02731 17C3.02731 17.5523 3.47503 18 4.02731 18H6.02731ZM11.21 26.1005C9.99441 25.6832 9.02862 25.4374 8.02731 25.3433V20.8301C8.05924 20.8094 8.09022 20.7867 8.12008 20.762L8.39279 20.5038L8.46667 20.4386C8.69565 20.2394 8.95969 20.039 9.25237 19.8523C10.0662 19.3333 10.9287 19.0277 11.7924 19.0277C12.5505 19.0277 13.1397 19.2261 14.065 19.7404L14.735 20.125C14.9071 20.2236 15.0495 20.3026 15.1891 20.376C15.9614 20.7821 16.6171 20.9907 17.3524 20.9907H20.8984C21.2118 20.9907 21.4487 21.1819 21.493 21.4053L21.5004 21.4827C21.5004 21.4945 21.4999 21.5063 21.4988 21.5179C21.4574 21.5903 21.4253 21.6676 21.403 21.7477C21.2983 21.8797 21.1169 21.9727 20.8984 21.9727H17.3524C16.8001 21.9727 16.3524 22.4204 16.3524 22.9727C16.3524 23.525 16.8001 23.9727 17.3524 23.9727H20.8984C21.8398 23.9727 22.6754 23.4913 23.1325 22.7619L28.0047 20.5009C28.6978 20.187 29.1913 20.2474 29.4167 20.5978C29.483 20.7013 29.4881 20.9088 29.4911 21.0327C29.4927 21.0958 29.4937 21.1372 29.5019 21.1325L20.2737 26.4889C19.0699 27.1819 18.2174 27.4998 17.3817 27.4998C15.7102 27.4998 14.5048 27.2459 12.609 26.5928L11.21 26.1005Z" fill="black"/>
</svg>
