<svg width="36" height="36" viewBox="0 0 36 36" fill="none" xmlns="http://www.w3.org/2000/svg">
<path fill-rule="evenodd" clip-rule="evenodd" d="M30.8512 13.9248C30.5613 14.3949 29.9452 14.5409 29.4751 14.251L18 7.17473L6.52488 14.251C6.05479 14.5409 5.4387 14.3949 5.14882 13.9248C4.85893 13.4547 5.00501 12.8386 5.4751 12.5487L17.4751 5.14871C17.7969 4.95027 18.2031 4.95027 18.5249 5.14871L26 9.75836V6.99998C26 6.44769 26.4477 5.99998 27 5.99998C27.5523 5.99998 28 6.44769 28 6.99998V10.9917L30.5249 12.5487C30.995 12.8386 31.141 13.4547 30.8512 13.9248ZM26 27V16C26 15.4477 26.4477 15 27 15C27.5523 15 28 15.4477 28 16V27C28 28.6563 26.6563 30 25 30H11C9.3437 30 7.99999 28.6563 7.99999 27V16C7.99999 15.4477 8.4477 15 8.99999 15C9.55227 15 9.99999 15.4477 9.99999 16V27C9.99999 27.5517 10.4483 28 11 28H25C25.5517 28 26 27.5517 26 27ZM15 19C15.829 19 16.5 18.329 16.5 17.5C16.5 16.671 15.829 16 15 16C14.171 16 13.5 16.671 13.5 17.5C13.5 18.329 14.171 19 15 19ZM22.423 23.461C22.423 24.268 21.769 24.922 20.962 24.922C20.154 24.922 19.5 24.268 19.5 23.461C19.5 22.654 20.154 22 20.962 22C21.769 22 22.423 22.654 22.423 23.461ZM21.7592 17.6508L15.7592 24.6508C15.3998 25.0701 14.7685 25.1187 14.3492 24.7592C13.9299 24.3998 13.8813 23.7685 14.2407 23.3492L20.2407 16.3492C20.6002 15.9299 21.2315 15.8813 21.6508 16.2407C22.0701 16.6001 22.1187 17.2314 21.7592 17.6508Z" fill="black"/>
</svg>
