<svg width="36" height="36" viewBox="0 0 36 36" fill="none" xmlns="http://www.w3.org/2000/svg">
<path fill-rule="evenodd" clip-rule="evenodd" d="M13.8998 19.2002L5.80678 25.2732C4.24624 26.524 5.11752 29 7.08498 29H28.915C30.9848 29 31.7872 26.3075 30.0556 25.1743L20.0453 18.6618C19.4825 18.2309 19.4325 17.2622 19.9902 16.7874C21.8386 15.213 22.981 13.6384 22.981 12.012C22.981 9.34067 20.8159 7 18.191 7C15.575 7 13.5 9.31705 13.5 12C13.5 12.5523 13.9477 13 14.5 13C15.0523 13 15.5 12.5523 15.5 12C15.5 10.3755 16.7318 9 18.191 9C19.675 9 20.981 10.4119 20.981 12.012C20.981 12.8652 20.1243 14.0461 18.6935 15.2647C17.1456 16.5826 17.2736 19.0645 18.8951 20.2963L28.9627 26.8492C29.029 26.8926 28.997 27 28.915 27H7.08498C7.00634 27 6.97181 26.9019 7.03263 26.8531L15.1002 20.7998C15.5419 20.4684 15.6313 19.8415 15.2998 19.3998C14.9683 18.9581 14.3415 18.8687 13.8998 19.2002Z" fill="black"/>
</svg>
