<svg width="36" height="36" viewBox="0 0 36 36" fill="none" xmlns="http://www.w3.org/2000/svg">
<path fill-rule="evenodd" clip-rule="evenodd" d="M20.5362 21.3006L20.7938 21.4285L20.9446 21.2739L22.0451 20.1671C23.0663 19.1459 24.4907 19.1033 25.5433 20.0387L25.6785 20.1662L27.5061 21.9837L28.1843 22.6711C29.2265 23.7133 29.2699 25.1381 28.3146 26.2122L28.1843 26.3503L27.2837 27.2368L27.074 27.4527C27.0418 27.4867 27.0107 27.52 26.9802 27.553L26.8015 27.7525C25.9701 28.6679 24.9019 29.053 23.6174 28.994C22.2404 28.9267 20.9082 28.515 19.4166 27.7829C16.6134 26.4148 14.1925 24.5208 12.1929 22.1349C10.6037 20.2804 9.41049 18.328 8.63812 16.2336C8.1617 14.9434 7.94305 13.851 8.01231 12.7082C8.07282 11.7786 8.4447 10.9804 9.12486 10.3287L9.28223 10.1773L10.563 8.90896L10.8119 8.67189C11.8658 7.73532 13.2911 7.77787 14.3123 8.79908L15.5753 10.0621L16.584 11.0631L16.9281 11.4225C17.8595 12.4659 17.8601 13.7964 16.9413 14.8282L16.6902 15.0917L16.1942 15.5921L15.5547 16.2141C15.8214 16.7473 16.1693 17.266 16.6254 17.8269C17.7309 19.1921 18.9436 20.3082 20.2603 21.1485L20.4352 21.2477C20.4667 21.2646 20.5001 21.282 20.5362 21.3006ZM12.8981 10.2133C12.6137 9.92891 12.3753 9.92891 12.076 10.2283L11.84 10.4572L10.848 11.4435L10.507 11.7743C10.1895 12.0784 10.0361 12.4078 10.0084 12.8337C9.95866 13.6539 10.1257 14.4885 10.5144 15.5412C11.2003 17.401 12.2699 19.1512 13.7186 20.8418C15.5453 23.0212 17.7429 24.7405 20.2958 25.9865C21.5651 26.6095 22.6484 26.9442 23.7121 26.9962C24.4294 27.0292 24.9159 26.8538 25.3069 26.4237C25.509 26.1914 25.7013 25.9888 25.9821 25.7097L26.7701 24.9361C27.0766 24.6296 27.0766 24.3918 26.7613 24.0764L26.2662 23.5732L24.2646 21.5808C23.9811 21.2969 23.7437 21.2969 23.458 21.5826L22.5157 22.5285L21.9123 23.1493C21.466 23.5957 20.8969 23.7095 20.321 23.4231L19.6868 23.1123L19.4413 22.9835L19.2085 22.8493C17.6772 21.8726 16.3064 20.611 15.0724 19.0871C14.3962 18.2556 13.8979 17.4678 13.5185 16.5671C13.3141 16.025 13.4256 15.4994 13.8427 15.0855L14.573 14.3807L15.0281 13.9303C15.0741 13.8839 15.1192 13.8381 15.1641 13.7922L15.4558 13.4886C15.6835 13.2291 15.6824 13.0335 15.4422 12.7616L15.157 12.4644L12.8981 10.2133Z" fill="black"/>
</svg>
