<svg width="36" height="36" viewBox="0 0 36 36" fill="none" xmlns="http://www.w3.org/2000/svg">
<path fill-rule="evenodd" clip-rule="evenodd" d="M30.8512 13.9248C30.5613 14.3949 29.9452 14.5409 29.4751 14.251L18 7.17473L6.52491 14.251C6.05482 14.5409 5.43873 14.3949 5.14885 13.9248C4.85896 13.4547 5.00504 12.8386 5.47513 12.5487L17.4751 5.14871C17.7969 4.95027 18.2031 4.95027 18.5249 5.14871L26 9.75836V6.99998C26 6.44769 26.4477 5.99998 27 5.99998C27.5523 5.99998 28 6.44769 28 6.99998V10.9917L30.5249 12.5487C30.995 12.8386 31.1411 13.4547 30.8512 13.9248ZM26 27V16C26 15.4477 26.4477 15 27 15C27.5523 15 28 15.4477 28 16V27C28 28.6563 26.6563 30 25 30H11C9.34373 30 8.00002 28.6563 8.00002 27V16C8.00002 15.4477 8.44773 15 9.00002 15C9.5523 15 10 15.4477 10 16V27C10 27.5517 10.4483 28 11 28H25C25.5517 28 26 27.5517 26 27ZM22 18C22 16.8954 21.1046 16 20 16H16C14.8954 16 14 16.8954 14 18V22C14 23.1045 14.8954 24 16 24H20C21.1046 24 22 23.1045 22 22V18ZM16 18V22H20V18H16Z" fill="black"/>
</svg>
