<svg width="36" height="36" viewBox="0 0 36 36" fill="none" xmlns="http://www.w3.org/2000/svg">
<path fill-rule="evenodd" clip-rule="evenodd" d="M13.8738 7.81832L17.4094 11.3529C18.1985 12.1427 18.21 13.4357 17.4367 14.209C17.4327 14.213 17.4287 14.217 17.4248 14.2211L4.71381 26.9311C3.93341 27.7135 3.93341 28.9789 4.71379 29.7593L6.12879 31.1743C6.91101 31.9545 8.17478 31.9545 8.95609 31.1752L21.679 18.4513C21.6822 18.4481 21.6853 18.4449 21.6884 18.4417C22.4707 17.6707 23.7297 17.6739 24.508 18.4515L26.6285 20.5731C27.0191 20.9638 27.6524 20.9638 28.043 20.5731L31.578 17.0371C31.9684 16.6466 31.9684 16.0135 31.5779 15.6231L23.7739 7.81805C21.2324 5.27751 18.1442 4.86961 14.2647 6.1624C13.5593 6.39745 13.348 7.29267 13.8738 7.81832ZM19.5577 17.7442L18.1439 16.3304L6.1289 28.3444L7.54209 29.7592L19.5577 17.7442ZM18.8238 9.93891L18.9772 10.1011C20.1594 11.421 20.33 13.3484 19.4671 14.8252L21.0611 16.4192C22.595 15.5137 24.6034 15.7196 25.9221 17.0372L27.3359 18.4516L29.4567 16.3302L22.3598 9.23237C20.8217 7.69482 19.0596 7.18423 16.794 7.57092L16.5082 7.62392L18.8238 9.93891Z" fill="black"/>
</svg>
