<svg width="36" height="36" viewBox="0 0 36 36" fill="none" xmlns="http://www.w3.org/2000/svg">
<path fill-rule="evenodd" clip-rule="evenodd" d="M18.2174 7.5608C21.3597 5.24191 25.8061 5.50774 28.6494 8.35829C31.7837 11.5006 31.7837 16.5953 28.6495 19.7386L18.7085 29.7066C18.3177 30.0984 17.6831 30.0985 17.2924 29.7067L7.35026 19.7386C4.21609 16.5953 4.21609 11.5006 7.35039 8.35829C10.1937 5.50772 14.6401 5.24192 17.7832 7.5608L18.0003 7.72678L18.2174 7.5608ZM27.2333 18.3264C29.5891 15.9637 29.5891 12.1324 27.2334 9.77071C24.8791 7.41043 21.0627 7.41043 18.7084 9.77071C18.3177 10.1624 17.6833 10.1624 17.2925 9.77083C14.9372 7.41041 11.1207 7.41041 8.76641 9.77071C6.41071 12.1324 6.41071 15.9637 8.76643 18.3263L18.0004 27.5844L27.2333 18.3264ZM21.708 21.7062L26.388 17.0142C26.778 16.6232 26.7772 15.99 26.3862 15.6C25.9952 15.21 25.362 15.2108 24.972 15.6018L20.292 20.2938C19.902 20.6848 19.9028 21.318 20.2938 21.708C20.6848 22.098 21.318 22.0972 21.708 21.7062Z" fill="black"/>
</svg>
