<svg width="36" height="36" viewBox="0 0 36 36" fill="none" xmlns="http://www.w3.org/2000/svg">
<path fill-rule="evenodd" clip-rule="evenodd" d="M18 6.00031C24.5257 6.00031 29.8344 11.2083 29.9962 17.6953L30 18.0003V21.4663C30 21.477 29.9998 21.4876 29.9995 21.4982V25C29.9995 27.2093 28.2088 29 25.9995 29H23.9995C23.4472 29 22.9995 28.5523 22.9995 28V20C22.9995 19.4477 23.4472 19 23.9995 19H28V18.0003C28 12.4769 23.5231 8.00031 18 8.00031C12.5705 8.00031 8.15206 12.3265 8.00384 17.7204L8 18.0003V19H12.0005C12.5528 19 13.0005 19.4477 13.0005 20V28C13.0005 28.5523 12.5528 29 12.0005 29H10.0005C7.79122 29 6.0005 27.2093 6.0005 25V21.475L6 21.4663V18.0003C6 11.3724 11.3724 6.00031 18 6.00031ZM10.0005 27H11V21H8L8.0005 25C8.0005 26.0545 8.81625 26.9182 9.85122 26.9945L10.0005 27ZM27.9995 25L27.999 21H24.999V27H25.9995C27.054 27 27.9177 26.1843 27.994 25.1493L27.9995 25Z" fill="black"/>
</svg>
