<svg width="36" height="36" viewBox="0 0 36 36" fill="none" xmlns="http://www.w3.org/2000/svg">
<path fill-rule="evenodd" clip-rule="evenodd" d="M18 4.125C11.7304 4.125 7.7612 7.89185 7.62845 13.2229L7.62501 13.5C7.62501 18.1612 7.10025 21.6686 5.90492 24.3177L5.76402 24.6196C4.98147 26.2373 5.42647 28.0692 6.88067 29.1072C7.99165 29.9015 9.41711 30.5018 11.2243 31.0128L11.6482 31.1292C12.5506 31.3699 13.158 31.5057 14.8194 31.8562C15.3634 31.9709 15.875 31.5559 15.875 31V26C15.875 25.614 15.6221 25.2736 15.2526 25.1622L15.0845 25.1056C13.8622 24.6501 12.875 23.323 12.875 22V16.113L12.9684 16.1232C13.0521 16.1306 13.1371 16.134 13.229 16.134L13.4816 16.1283C15.0058 16.0607 16.6694 15.3925 17.8449 14.4114L18 14.277L18.1551 14.4114C19.3959 15.447 21.1806 16.134 22.771 16.134L22.9685 16.128L23.125 16.113V22C23.125 23.3832 22.0461 24.7708 20.7475 25.1622C20.3779 25.2736 20.125 25.614 20.125 26V31C20.125 31.5559 20.6367 31.9709 21.1806 31.8562L22.6762 31.5356C23.339 31.3891 23.7878 31.2796 24.3518 31.1292C26.3618 30.593 27.9229 29.9626 29.1199 29.1068C30.5736 28.0692 31.0186 26.2373 30.2357 24.619C28.9409 21.9367 28.375 18.3405 28.375 13.5C28.375 8.02286 24.3778 4.125 18 4.125ZM18 5.875C23.421 5.875 26.625 8.99935 26.625 13.5C26.625 18.5805 27.2283 22.4145 28.66 25.3804C29.0756 26.2396 28.8556 27.1454 28.1027 27.6828C27.1813 28.3416 25.9209 28.871 24.285 29.3329L23.742 29.4803L23.0884 29.6452C22.7937 29.7163 22.4784 29.7879 22.0827 29.8742L21.875 29.918V26.597L22.0365 26.5198C23.6739 25.6774 24.875 23.8817 24.875 22V15C24.875 14.4331 24.3441 14.0158 23.7933 14.1498L23.1625 14.3225C22.9831 14.3684 22.8786 14.384 22.771 14.384C21.2981 14.384 19.5004 13.5343 18.6981 12.4725C18.348 12.0092 17.652 12.0092 17.3019 12.4725C16.4996 13.5343 14.702 14.384 13.229 14.384C13.0999 14.384 12.9753 14.3616 12.7202 14.2912L12.2889 14.1704C12.2611 14.1632 12.234 14.1564 12.2068 14.1498C11.6559 14.0158 11.125 14.4331 11.125 15V22L11.1303 22.2167C11.2181 24.0184 12.3891 25.7098 13.9636 26.5198L14.125 26.598V29.919L13.3953 29.7582C12.9157 29.6493 12.5436 29.5568 12.0993 29.4383C10.275 28.9516 8.88959 28.3923 7.89793 27.6832C7.14442 27.1454 6.92438 26.2396 7.33969 25.381C8.72054 22.5204 9.33086 18.8532 9.37269 14.0396L9.37501 13.5C9.37501 8.99935 12.579 5.875 18 5.875Z" fill="black"/>
</svg>
