<svg width="36" height="36" viewBox="0 0 36 36" fill="none" xmlns="http://www.w3.org/2000/svg">
<path fill-rule="evenodd" clip-rule="evenodd" d="M26 5H10C8.34372 5 7 6.34372 7 8V28C7 29.6563 8.34372 31 10 31H26C27.6563 31 29 29.6563 29 28V8C29 6.34372 27.6563 5 26 5ZM10 7H26C26.5517 7 27 7.44828 27 8V28C27 28.5517 26.5517 29 26 29H10C9.44828 29 9 28.5517 9 28V8C9 7.44828 9.44828 7 10 7ZM24 16C24.553 16 25 15.552 25 15C25 14.448 24.553 14 24 14C23.447 14 23 14.448 23 15C23 15.552 23.447 16 24 16ZM20.149 22.465L16.4838 17.3337L12.4291 22.4943C12.1561 22.8417 11.6532 22.902 11.3057 22.6291C10.9583 22.3561 10.898 21.8532 11.1709 21.5057L15.7203 15.7156C16.1324 15.1911 16.9327 15.2094 17.3204 15.7522L21.451 21.535C21.7078 21.8945 21.6245 22.3942 21.265 22.651C20.9055 22.9078 20.4058 22.8245 20.149 22.465ZM19.7636 16.349C20.1231 16.0922 20.6228 16.1755 20.8796 16.535L24.451 21.535C24.7078 21.8945 24.6245 22.3942 24.265 22.651C23.9055 22.9078 23.4058 22.8245 23.149 22.465L19.5776 17.465C19.3208 17.1055 19.4041 16.6058 19.7636 16.349Z" fill="black"/>
</svg>
