<svg width="36" height="36" viewBox="0 0 36 36" fill="none" xmlns="http://www.w3.org/2000/svg">
<path fill-rule="evenodd" clip-rule="evenodd" d="M26.0005 11C27.881 11 29.6461 11.7464 30.9496 13.0499C32.2536 14.3539 33.0005 16.1191 33.0005 18C33.0005 19.8809 32.2536 21.6461 30.9496 22.9501C29.6461 24.2536 27.881 25 26.0005 25C23.5494 25 21.3592 23.7398 19.4467 21.6805C19.0709 21.2758 19.0943 20.6431 19.499 20.2672C19.9037 19.8914 20.5364 19.9148 20.9122 20.3195C22.4823 22.0102 24.2026 23 26.0005 23C27.3452 23 28.6033 22.468 29.5354 21.5359C30.4681 20.6032 31.0005 19.3449 31.0005 18C31.0005 16.6551 30.4681 15.3968 29.5354 14.4641C28.6033 13.532 27.3452 13 26.0005 13C23.9027 13 22.3683 14.1933 19.4736 17.7384L18.7009 18.6989C14.9795 23.3766 13.0979 25 10.0005 25C8.1181 25 6.35271 24.2536 5.05038 22.9501C3.74676 21.6465 3.00049 19.8813 3.00049 18C3.00049 16.1187 3.74676 14.3535 5.05006 13.0502C6.35271 11.7464 8.1181 11 10.0005 11C12.4508 11 14.6409 12.2603 16.5532 14.3195C16.9291 14.7242 16.9057 15.3569 16.501 15.7328C16.0963 16.1086 15.4636 16.0852 15.0877 15.6805C13.5178 13.9899 11.7975 13 10.0005 13C8.65401 13 7.39598 13.5319 6.4646 14.4641C5.5324 15.3963 5.00049 16.6544 5.00049 18C5.00049 19.3456 5.5324 20.6037 6.46492 21.5362C7.39598 22.4681 8.65401 23 10.0005 23C12.1105 23 13.6602 21.754 16.6513 18.0579L17.7001 16.7493C21.147 12.4857 23.0026 11 26.0005 11Z" fill="black"/>
</svg>
