<svg width="36" height="36" viewBox="0 0 36 36" fill="none" xmlns="http://www.w3.org/2000/svg">
<path fill-rule="evenodd" clip-rule="evenodd" d="M31 18C31 25.1796 25.1796 31 18 31C10.8204 31 5 25.1796 5 18C5 10.8204 10.8204 5 18 5C25.1796 5 31 10.8204 31 18ZM29 18C29 11.925 24.075 7 18 7C11.925 7 7 11.925 7 18C7 24.075 11.925 29 18 29C24.075 29 29 24.075 29 18ZM17 22H16C15.4477 22 15 22.4477 15 23C15 23.5523 15.4477 24 16 24H20C20.5523 24 21 23.5523 21 23C21 22.4477 20.5523 22 20 22H19V17C19 16.4477 18.5523 16 18 16H16C15.4477 16 15 16.4477 15 17C15 17.5523 15.4477 18 16 18H17V22ZM17 13V14C17 14.5523 17.4477 15 18 15C18.5523 15 19 14.5523 19 14V13C19 12.4477 18.5523 12 18 12C17.4477 12 17 12.4477 17 13Z" fill="black"/>
</svg>
