<svg width="36" height="36" viewBox="0 0 36 36" fill="none" xmlns="http://www.w3.org/2000/svg">
<path fill-rule="evenodd" clip-rule="evenodd" d="M18.875 12.2757V29.125H24.125V22V13C24.125 12.5539 24.4588 12.1858 24.8902 12.1318L25 12.125C25.4461 12.125 25.8142 12.4588 25.8682 12.8902L25.875 13V21.125H28.125V14C28.125 10.6924 25.5033 7.99719 22.2245 7.87904L21.954 7.875L18.875 12.2757ZM18.1327 30.875H25L25.1098 30.8682C25.5412 30.8142 25.875 30.4461 25.875 30V22.875H29L29.1098 22.8682C29.5412 22.8142 29.875 22.4461 29.875 22V14L29.8713 13.7547C29.7417 9.51896 26.2672 6.125 22 6.125H21.5L21.379 6.1334C21.1401 6.16673 20.9235 6.29773 20.7832 6.49822L18 10.474L15.2168 6.49822L15.1405 6.4039C14.9763 6.22735 14.7447 6.125 14.5 6.125H14L13.7547 6.12875C9.51896 6.25834 6.125 9.73281 6.125 14V22L6.13182 22.1098C6.18581 22.5412 6.55392 22.875 7 22.875H10.125V30L10.1318 30.1098C10.1858 30.5412 10.5539 30.875 11 30.875H17.8673C17.9106 30.8816 17.9549 30.885 18 30.885C18.0451 30.885 18.0894 30.8816 18.1327 30.875ZM17.125 29.125V12.2758L14.045 7.875H14C10.6924 7.875 7.99719 10.4967 7.87904 13.7755L7.875 14V21.125H10.125V13C10.125 12.5168 10.5168 12.125 11 12.125C11.4461 12.125 11.8142 12.4588 11.8682 12.8902L11.875 13V22V29.125H17.125ZM15 21.125C15.4832 21.125 15.875 21.5168 15.875 22C15.875 22.4461 15.5412 22.8142 15.1098 22.8682L15 22.875H14C13.5168 22.875 13.125 22.4832 13.125 22C13.125 21.5539 13.4588 21.1858 13.8902 21.1318L14 21.125H15ZM22.875 22C22.875 21.5168 22.4832 21.125 22 21.125H21L20.8902 21.1318C20.4588 21.1858 20.125 21.5539 20.125 22C20.125 22.4832 20.5168 22.875 21 22.875H22L22.1098 22.8682C22.5412 22.8142 22.875 22.4461 22.875 22Z" fill="black"/>
</svg>
