<svg width="36" height="36" viewBox="0 0 36 36" fill="none" xmlns="http://www.w3.org/2000/svg">
<path fill-rule="evenodd" clip-rule="evenodd" d="M14.1129 21.8788C15.2844 23.0503 15.2844 24.9495 14.1129 26.121C12.9415 27.2925 11.0426 27.2925 9.86924 26.1206C8.69932 24.9491 8.69932 23.0507 9.87014 21.8783C11.0426 20.7073 12.9415 20.7073 14.1129 21.8788ZM12.6987 23.293C12.3081 22.9025 11.675 22.9025 11.2844 23.2926C10.8943 23.6831 10.8943 24.3167 11.2835 24.7063C11.675 25.0973 12.3081 25.0973 12.6987 24.7068C13.0892 24.3163 13.0892 23.6835 12.6987 23.293ZM16.5923 13.7593C12.9519 12.5011 8.84594 13.6443 6.38557 16.8115C3.84344 20.0806 3.87569 24.7991 6.45944 28.0394C9.88743 32.3352 16.2257 32.6708 20.0687 28.8281C22.5808 26.3168 23.37 22.628 22.2231 19.36L23.4977 17.8692L23.498 15.5H24.4984C25.603 15.5 26.4987 14.6052 26.4987 13.5L26.4991 12.5H28.9139L30.5001 10.9143V7.5C30.5001 6.39483 29.6044 5.5 28.4998 5.5H25.0929L16.5923 13.7593ZM28.5001 10.0857L28.0857 10.5H26.4991C25.3945 10.5 24.4987 11.3948 24.4987 12.5L24.4984 13.5H23.498C22.3934 13.5 21.4977 14.3948 21.4977 15.5V17.1308L19.9094 18.9886L20.1557 19.5606C21.3015 22.2209 20.7348 25.3343 18.6546 27.4138C15.6531 30.4151 10.7048 30.153 8.02294 26.7923C6.01504 24.2741 5.98979 20.5785 7.9647 18.0389C10.0037 15.4141 13.4739 14.5676 16.4344 15.8416L17.0477 16.1055L25.9045 7.5H28.5001V10.0857Z" fill="black"/>
</svg>
