<svg width="36" height="36" viewBox="0 0 36 36" fill="none" xmlns="http://www.w3.org/2000/svg">
<path fill-rule="evenodd" clip-rule="evenodd" d="M12.84 22.48C13.06 23.38 13.86 24 14.78 24H21.22C22.14 24 22.94 23.37 23.16 22.48L23.45 21.32C23.67 20.45 24.06 19.7 24.57 19.15C26.59 17 27.42 13.97 26.79 11.04C26.04 7.55997 23.19 4.78997 19.69 4.14997C17.02 3.65997 14.3 4.35997 12.24 6.07997C10.18 7.79997 9 10.32 9 13C9 15.22 9.82 17.35 11.3 19C11.92 19.69 12.33 20.41 12.51 21.14L12.84 22.48ZM13.52 7.61997C14.79 6.55997 16.38 5.99997 18.02 5.99997C18.46 5.99997 18.89 6.03997 19.34 6.11997C22.05 6.61997 24.26 8.75997 24.84 11.46C25.33 13.78 24.7 16.08 23.11 17.78C22.35 18.59 21.81 19.62 21.51 20.84L21.22 22H14.78L14.45 20.66C14.19 19.61 13.63 18.61 12.79 17.67C11.63 16.38 11 14.73 11 13C11 10.91 11.92 8.94997 13.52 7.61997ZM18 8C17.4477 8 17 8.44772 17 9C17 9.55228 17.4477 10 18 10C19.6577 10 21 11.3423 21 13C21 13.5523 21.4477 14 22 14C22.5523 14 23 13.5523 23 13C23 10.2377 20.7623 8 18 8ZM14.5 26C13.9477 26 13.5 26.4477 13.5 27C13.5 27.5523 13.9477 28 14.5 28H21.5C22.0523 28 22.5 27.5523 22.5 27C22.5 26.4477 22.0523 26 21.5 26H14.5ZM14.5 30C14.5 29.4477 14.9477 29 15.5 29H20.5C21.0523 29 21.5 29.4477 21.5 30C21.5 30.5523 21.0523 31 20.5 31H15.5C14.9477 31 14.5 30.5523 14.5 30Z" fill="black"/>
</svg>
