<svg width="36" height="36" viewBox="0 0 36 36" fill="none" xmlns="http://www.w3.org/2000/svg">
<path fill-rule="evenodd" clip-rule="evenodd" d="M17.9853 4C18.5381 4 18.9863 4.44772 18.9863 5V6C18.9863 6.02303 18.9855 6.04589 18.984 6.06853C19.5766 6.11646 20.1681 6.20855 20.7535 6.34548C20.8672 6.37207 20.9803 6.40028 21.0929 6.43009L21.1064 6.43368C21.1469 6.44446 21.1873 6.45543 21.2277 6.46662C21.4956 6.54091 21.7602 6.62428 22.0211 6.71645C24.4007 7.55736 26.4665 9.13067 27.9102 11.2262C27.9764 11.3223 28.0411 11.4192 28.1043 11.5169L28.1119 11.5286C28.45 12.0526 28.745 12.5994 28.9955 13.1636C29.258 13.7546 29.4716 14.3648 29.6351 14.9878C29.8079 15.6466 29.9245 16.3198 29.9831 17.0001L29.9979 17H30.9989C31.5518 17 32 17.4477 32 18C32 18.5523 31.5518 19 30.9989 19H29.9979L29.988 18.9999C29.9667 19.262 29.9368 19.524 29.898 19.7855C29.8878 19.8547 29.8769 19.9237 29.8655 19.9925L29.8632 20.0063C29.7604 20.6212 29.6104 21.224 29.4157 21.8097C29.1902 22.4884 28.9048 23.1443 28.5638 23.7698C28.2019 24.4333 27.7774 25.0627 27.2952 25.6488C26.8171 26.2299 26.2827 26.768 25.6971 27.2547C25.6188 27.3198 25.5397 27.3838 25.46 27.4467L25.449 27.4553C24.9588 27.8412 24.4418 28.1863 23.9033 28.4888C23.4317 28.7537 22.9437 28.986 22.4426 29.1845C21.3408 29.6209 20.1762 29.8937 18.9863 29.9902L18.9863 30V31C18.9863 31.5523 18.5381 32 17.9853 32C17.4324 32 16.9842 31.5523 16.9842 31V30L16.9843 29.9852C14.1994 29.7458 11.5785 28.5424 9.58014 26.5739C9.497 26.492 9.41517 26.409 9.33467 26.3249C9.10031 26.0802 8.87719 25.8265 8.66566 25.5647C8.0198 24.765 7.48206 23.8891 7.06282 22.9597C6.61732 21.9722 6.30563 20.9245 6.14021 19.8441C6.10948 19.6434 6.0838 19.4416 6.06324 19.2388C6.05519 19.1594 6.04792 19.0797 6.04144 19H5.00105C4.44819 19 4 18.5523 4 18C4 17.4477 4.44819 17 5.00105 17H7.00316C7.55602 17 8.00712 17.4477 8.00712 18C8.00712 18.0463 8.00712 18.1366 8.00712 18.1366C8.00712 18.1366 8.00602 18.2251 8.00712 18.2706C8.00956 18.3716 8.01352 18.4725 8.019 18.5731C8.03593 18.8837 8.06728 19.1921 8.11263 19.4974C8.24281 20.3738 8.48842 21.2249 8.83992 22.0294C9.19876 22.8508 9.66797 23.6236 10.2374 24.3255L13.0894 21.4765C12.3902 20.4957 11.979 19.2958 11.979 18C11.979 16.7042 12.3902 15.5043 13.0894 14.5235L10.2639 11.7009C9.57088 12.5478 9.01592 13.5096 8.62876 14.5526L8.62688 14.5576C8.59247 14.6504 8.55939 14.7439 8.52767 14.8381C8.35122 15.3615 7.78344 15.6429 7.25949 15.4666C6.73553 15.2904 6.45381 14.7232 6.63025 14.1998C7.58419 11.37 9.55997 8.99709 12.1716 7.54469C12.7837 7.20428 13.4205 6.92017 14.0741 6.69343C14.4663 6.55739 14.8646 6.442 15.2673 6.34749C15.8333 6.21467 16.408 6.12311 16.9869 6.07344C16.9851 6.04919 16.9842 6.0247 16.9842 6V5C16.9842 4.44772 17.4324 4 17.9853 4ZM11.6472 25.7456C13.2074 27.0306 15.1243 27.8157 17.1453 27.9917C17.1993 27.9964 17.2535 28.0006 17.3077 28.0045C17.4083 28.0116 17.5092 28.0172 17.6103 28.0213C19.0881 28.081 20.5476 27.8126 21.8891 27.2501C22.0596 27.1786 22.2281 27.1024 22.3946 27.0215C22.8486 26.8008 23.287 26.5453 23.7055 26.2564C23.8771 26.138 24.0453 26.0139 24.21 25.8844C24.2569 25.8474 24.3036 25.81 24.3499 25.7722L21.4655 22.8907C20.4836 23.5892 19.2825 24 17.9853 24C16.6881 24 15.4869 23.5892 14.5051 22.8907L11.6472 25.7456ZM11.6795 10.2867C12.2126 9.85147 12.7927 9.46944 13.4125 9.14888C13.8747 8.90987 14.3521 8.70861 14.84 8.54561C15.5679 8.30248 16.32 8.14424 17.0812 8.07301C17.6919 8.01587 18.3084 8.01472 18.923 8.07065C19.3832 8.11254 19.8423 8.18644 20.297 8.29281C20.3956 8.31586 20.4936 8.34037 20.5911 8.36631L20.6361 8.37838C20.6785 8.38987 20.7208 8.40164 20.763 8.41368C20.9444 8.4654 21.1239 8.52213 21.3013 8.58373C22.4005 8.96535 23.4203 9.53407 24.3174 10.2603L21.4655 13.1092C20.4836 12.4108 19.2825 12 17.9853 12C16.6881 12 15.4869 12.4108 14.5051 13.1093L11.6795 10.2867ZM25.739 11.6686L22.8812 14.5235C23.5804 15.5043 23.9916 16.7042 23.9916 18C23.9916 19.2958 23.5804 20.4957 22.8812 21.4765L25.7656 24.358C26.1489 23.8895 26.4881 23.3882 26.7795 22.8606C27.0716 22.3318 27.3158 21.7765 27.5083 21.2014C27.657 20.7574 27.7749 20.3017 27.8603 19.8371C27.8884 19.6848 27.9129 19.5315 27.9339 19.3774C27.9872 18.9856 28.0171 18.5929 28.0238 18.2011C28.0383 17.3604 27.9464 16.5245 27.7529 15.7128C27.6366 15.2247 27.4834 14.7454 27.2946 14.279C27.1381 13.8926 26.9571 13.5151 26.7521 13.149C26.6503 12.9671 26.5426 12.7881 26.4291 12.6121C26.3744 12.5273 26.3184 12.4433 26.261 12.3601C26.0965 12.1213 25.9223 11.8906 25.739 11.6686ZM17.9853 22C20.1967 22 21.9895 20.2091 21.9895 18C21.9895 15.7909 20.1967 14 17.9853 14C15.7738 14 13.9811 15.7909 13.9811 18C13.9811 20.2091 15.7738 22 17.9853 22Z" fill="black"/>
</svg>
