<svg width="36" height="36" viewBox="0 0 36 36" fill="none" xmlns="http://www.w3.org/2000/svg">
<path fill-rule="evenodd" clip-rule="evenodd" d="M22 10.625C23.4897 10.625 24.3591 11.257 27.1037 13.8746L27.3584 14.118C29.41 16.0825 30.5286 16.9078 31.634 17.0935C31.7176 17.1075 31.7996 17.1168 31.8802 17.1215L32 17.125C32.4832 17.125 32.875 17.5168 32.875 18C32.875 18.4832 32.4832 18.875 32 18.875C31.7825 18.875 31.5639 18.8562 31.3442 18.8193C29.8135 18.5622 28.5714 17.6794 26.4117 15.6331L25.2695 14.5497C23.4605 12.8606 22.7318 12.375 22 12.375C21.4973 12.375 21.1257 12.464 20.4828 12.7181L19.9999 12.915C19.2177 13.2328 18.6813 13.375 18 13.375C17.3944 13.375 16.9033 13.2626 16.2523 13.0145L15.7421 12.809C14.9552 12.4849 14.5585 12.375 14 12.375C13.2129 12.375 12.4221 12.9402 10.3007 14.9466L9.84236 15.3825C7.83907 17.2974 6.72428 18.1715 5.38024 18.6323C4.91564 18.7916 4.45614 18.875 4 18.875C3.51675 18.875 3.125 18.4832 3.125 18C3.125 17.5539 3.4588 17.1858 3.89024 17.1318L4 17.125C4.25386 17.125 4.52346 17.0761 4.81266 16.9769C5.73431 16.6609 6.6407 15.9872 8.15875 14.5665L9.59135 13.2105C11.7954 11.1528 12.6458 10.625 14 10.625C14.7596 10.625 15.3074 10.7557 16.1253 11.0768L16.6587 11.2937C17.2495 11.5337 17.5939 11.625 18 11.625C18.3553 11.625 18.6634 11.5551 19.1307 11.3768L19.5913 11.191C20.5735 10.7864 21.156 10.625 22 10.625ZM21 17.125C21.709 17.125 22.2049 17.2437 22.856 17.5225L23.2614 17.7052C23.944 18.0196 24.321 18.125 25 18.125C25.4832 18.125 25.875 18.5168 25.875 19C25.875 19.4832 25.4832 19.875 25 19.875C24.1246 19.875 23.5463 19.7378 22.7891 19.4109L22.3779 19.2249C21.804 18.9614 21.5003 18.875 21 18.875C20.8534 18.875 20.6835 18.9261 20.3367 19.0859L19.9251 19.2841C19.2045 19.641 18.8286 19.7904 18.3268 19.854C18.2174 19.8678 18.1085 19.875 18 19.875C17.8915 19.875 17.7826 19.8678 17.6732 19.854C17.2717 19.8032 16.9509 19.6974 16.4697 19.4743L15.6633 19.0859C15.3165 18.9261 15.1466 18.875 15 18.875C14.581 18.875 14.2879 18.9426 13.8284 19.1345L13.4544 19.2987C12.5405 19.7075 11.9403 19.875 11 19.875C10.5168 19.875 10.125 19.4832 10.125 19C10.125 18.5168 10.5168 18.125 11 18.125C11.5768 18.125 11.9426 18.0408 12.5148 17.7993L12.9083 17.6259C13.6989 17.2737 14.2287 17.125 15 17.125C15.5327 17.125 15.8812 17.2429 16.6502 17.617L16.8516 17.7159C17.3959 17.9855 17.6521 18.0873 17.893 18.1178C17.931 18.1227 17.9666 18.125 18 18.125C18.0334 18.125 18.069 18.1227 18.107 18.1178C18.3211 18.0907 18.5474 18.0072 18.9773 17.7997L19.1484 17.7159C20.062 17.2634 20.4229 17.125 21 17.125ZM30.0585 20.8265C29.6865 20.518 29.1349 20.5695 28.8265 20.9415C28.3849 21.4739 27.9351 21.9237 27.4765 22.2973C25.4821 23.9215 23.7412 24.08 20.5636 23.4774L20.0771 23.3856C18.9682 23.1783 18.6222 23.1306 18.1058 23.1255L17.8737 23.1258C17.4198 23.1319 17.0537 23.1732 16.3883 23.2934L15.525 23.458C12.058 24.1385 10.1484 23.7664 7.10345 20.8664C6.75352 20.5331 6.19966 20.5466 5.86638 20.8965C5.53311 21.2465 5.54661 21.8003 5.89655 22.1336C9.40236 25.4725 11.8837 25.9561 15.8621 25.1752L16.4702 25.058C17.0605 24.9473 17.3909 24.8989 17.7064 24.8822L17.8959 24.8758L18.1583 24.877C18.4162 24.8839 18.6598 24.9115 19.1213 24.9909L20.5851 25.2606C24.017 25.8714 26.1687 25.6193 28.5816 23.6542C29.1306 23.2071 29.6609 22.6767 30.1735 22.0585C30.482 21.6865 30.4305 21.1349 30.0585 20.8265Z" fill="black"/>
</svg>
