<svg width="36" height="36" viewBox="0 0 36 36" fill="none" xmlns="http://www.w3.org/2000/svg">
<path fill-rule="evenodd" clip-rule="evenodd" d="M8.95361 11.0571H9.01561C9.5679 11.0571 10.0156 11.5048 10.0156 12.0571C10.0156 12.6094 9.5679 13.0571 9.01561 13.0571H8.95361C8.40133 13.0571 7.95361 12.6094 7.95361 12.0571C7.95361 11.5048 8.40133 11.0571 8.95361 11.0571ZM27 13.0571H14C13.4477 13.0571 13 12.6094 13 12.0571C13 11.5048 13.4477 11.0571 14 11.0571H27C27.5523 11.0571 28 11.5048 28 12.0571C28 12.6094 27.5523 13.0571 27 13.0571ZM27 25.0571H14C13.4477 25.0571 13 24.6094 13 24.0571C13 23.5048 13.4477 23.0571 14 23.0571H27C27.5523 23.0571 28 23.5048 28 24.0571C28 24.6094 27.5523 25.0571 27 25.0571ZM14 19.0571H27C27.5523 19.0571 28 18.6094 28 18.0571C28 17.5048 27.5523 17.0571 27 17.0571H14C13.4477 17.0571 13 17.5048 13 18.0571C13 18.6094 13.4477 19.0571 14 19.0571ZM9.01561 22.9429H8.95361C8.40133 22.9429 7.95361 23.3906 7.95361 23.9429C7.95361 24.4952 8.40133 24.9429 8.95361 24.9429H9.01561C9.5679 24.9429 10.0156 24.4952 10.0156 23.9429C10.0156 23.3906 9.5679 22.9429 9.01561 22.9429ZM8.95361 17H9.01561C9.5679 17 10.0156 17.4477 10.0156 18C10.0156 18.5523 9.5679 19 9.01561 19H8.95361C8.40133 19 7.95361 18.5523 7.95361 18C7.95361 17.4477 8.40133 17 8.95361 17Z" fill="black"/>
</svg>
