<svg width="36" height="36" viewBox="0 0 36 36" fill="none" xmlns="http://www.w3.org/2000/svg">
<path fill-rule="evenodd" clip-rule="evenodd" d="M28.2325 7.75373C25.8784 5.41515 22.0648 5.41515 19.7108 7.75355L18.2917 9.16365L18.2083 9.25759C17.902 9.64891 17.9279 10.2162 18.2872 10.5779C18.6765 10.9696 19.3097 10.9716 19.7015 10.5824L21.1205 9.17235L21.281 9.02121C22.8636 7.61059 25.3013 7.66097 26.8228 9.17245C28.3922 10.7323 28.3922 13.2587 26.8227 14.8187L22.0808 19.5296L21.9202 19.6807C20.3376 21.0914 17.8999 21.041 16.3784 19.5295C15.9865 19.1403 15.3534 19.1424 14.9641 19.5342C14.5749 19.9261 14.577 20.5592 14.9688 20.9484C17.3228 23.2868 21.1364 23.2868 23.4904 20.9484L28.2324 16.2374L28.409 16.0544C30.5874 13.7014 30.5285 10.0357 28.2325 7.75373ZM21.0312 15.0515C18.6772 12.7131 14.8636 12.7131 12.5096 15.0515L7.76761 19.7626L7.59099 19.9456C5.41259 22.2986 5.47147 25.9643 7.76746 28.2463C10.1216 30.5848 13.9352 30.5848 16.2892 28.2464L17.7083 26.8364L17.7917 26.7424C18.098 26.3511 18.0721 25.7838 17.7128 25.4221C17.3235 25.0304 16.6903 25.0284 16.2985 25.4176L14.8795 26.8276L14.719 26.9788C13.1364 28.3894 10.6987 28.339 9.17715 26.8275C7.60775 25.2677 7.60775 22.7413 9.17733 21.1813L13.9192 16.4704L14.0798 16.3193C15.6624 14.9086 18.1001 14.959 19.6216 16.4704C20.0135 16.8597 20.6466 16.8576 21.0358 16.4658C21.4251 16.0739 21.423 15.4408 21.0312 15.0515Z" fill="black"/>
</svg>
