<svg width="36" height="36" viewBox="0 0 36 36" fill="none" xmlns="http://www.w3.org/2000/svg">
<path fill-rule="evenodd" clip-rule="evenodd" d="M11 15C9.34372 15 8 16.3437 8 18V28C8 29.6563 9.34372 31 11 31H25C26.6563 31 28 29.6563 28 28V18C28 16.3437 26.6563 15 25 15V12.9995C25 9.13423 21.8653 5.99951 18 5.99951C14.1347 5.99951 11 9.13423 11 12.9995V15ZM13 15H23V12.9995C23 10.2388 20.7607 7.99951 18 7.99951C15.2393 7.99951 13 10.2388 13 12.9995V15ZM25 29C25.5517 29 26 28.5517 26 28V18C26 17.4483 25.5517 17 25 17H11C10.4483 17 10 17.4483 10 18V28C10 28.5517 10.4483 29 11 29H25ZM17 22V24C17 24.5523 17.4477 25 18 25C18.5523 25 19 24.5523 19 24V22C19 21.4477 18.5523 21 18 21C17.4477 21 17 21.4477 17 22Z" fill="black"/>
</svg>
