<svg width="36" height="36" viewBox="0 0 36 36" fill="none" xmlns="http://www.w3.org/2000/svg">
<path fill-rule="evenodd" clip-rule="evenodd" d="M23.7523 9.68392L24.2783 11.6129C24.4236 12.1457 24.1094 12.6955 23.5766 12.8408C23.0437 12.9861 22.494 12.6719 22.3487 12.1391L21.8228 10.2104C21.0952 7.54597 18.3468 5.97604 15.6816 6.70275C13.0178 7.42934 11.4475 10.1784 12.1741 12.8423L12.7639 15H25C26.6563 15 28 16.3437 28 18V28C28 29.6563 26.6563 31 25 31H11C9.34372 31 8 29.6563 8 28V18C8 16.4468 9.18169 15.1684 10.6947 15.0154L10.2447 13.3691C9.22737 9.63914 11.4257 5.79052 15.1554 4.77321C18.886 3.756 22.7337 5.95381 23.7523 9.68392ZM25 17H11C10.4483 17 10 17.4483 10 18V28C10 28.5517 10.4483 29 11 29H25C25.5517 29 26 28.5517 26 28V18C26 17.4483 25.5517 17 25 17ZM17 22V24C17 24.5523 17.4477 25 18 25C18.5523 25 19 24.5523 19 24V22C19 21.4477 18.5523 21 18 21C17.4477 21 17 21.4477 17 22Z" fill="black"/>
</svg>
