<svg width="36" height="36" viewBox="0 0 36 36" fill="none" xmlns="http://www.w3.org/2000/svg">
<path fill-rule="evenodd" clip-rule="evenodd" d="M31.5066 11.1379C32.2464 11.5733 32.1305 12.6773 31.3162 12.9487C29.3832 13.593 28.1067 14.956 26.7693 16.9382C26.3465 17.5647 25.9092 18.2699 25.4406 19.0258L25.4406 19.0258L25.4405 19.0258C24.4759 20.5816 23.3783 22.3518 22.0004 24.092C20.2936 26.2477 17.5414 26.9536 14.9719 26.6793C12.9666 26.4653 10.9416 25.6454 9.41394 24.3029C8.54401 25.9644 8.10201 27.6919 8.06814 29.3592C8.05693 29.9114 7.60021 30.3499 7.04804 30.3387C6.49587 30.3275 6.05734 29.8708 6.06855 29.3186C6.18006 23.8287 9.93831 18.2067 17.1002 15.0834C17.6065 14.8627 18.1958 15.0941 18.4166 15.6003C18.6374 16.1066 18.406 16.6959 17.8997 16.9167C14.5663 18.3704 12.1149 20.3683 10.4933 22.5774C11.6853 23.7362 13.4094 24.5012 15.1842 24.6906C17.3025 24.9167 19.2782 24.3083 20.4324 22.8505C21.7462 21.1912 22.7199 19.6172 23.6462 18.1202L23.6462 18.1202C24.1336 17.3324 24.6078 16.5659 25.1114 15.8195C26.1326 14.3061 27.2437 12.9409 28.7464 11.9764C28.0023 11.6346 27.0581 11.2395 25.9822 10.8746C23.2773 9.9572 19.8602 9.27151 16.7187 9.97579C13.5297 10.6907 11.0263 12.4367 9.73288 14.5926C9.04744 15.735 8.68619 17.0143 8.75235 18.3661C8.16317 19.0927 7.43623 20.0616 7.13776 20.6256C6.36972 18.121 6.76052 15.6593 8.01788 13.5636C9.64306 10.8549 12.6611 8.83578 16.2812 8.02422C19.9487 7.20203 23.7817 8.01635 26.6246 8.98057C28.059 9.46708 29.2719 10.0023 30.1276 10.4165C30.5559 10.6239 30.8962 10.8016 31.1315 10.9287C31.2492 10.9923 31.3407 11.0432 31.404 11.079L31.4979 11.1328L31.504 11.1363L31.5066 11.1379Z" fill="black"/>
</svg>
