<svg width="36" height="36" viewBox="0 0 36 36" fill="none" xmlns="http://www.w3.org/2000/svg">
<path fill-rule="evenodd" clip-rule="evenodd" d="M9 14C9 9.02972 13.0297 5 18 5C22.9703 5 27 9.02972 27 14C27 16.1675 26.2337 18.1561 24.9572 19.7096C24.9742 19.7656 24.9863 19.8237 24.9933 19.8834L25 20V29C25 29.7043 24.2979 30.1753 23.6586 29.9402L23.5528 29.8944L18 27.118L12.4472 29.8944C11.8173 30.2094 11.082 29.792 11.0064 29.1151L11 29V20C11 19.899 11.015 19.8015 11.0428 19.7096C9.76633 18.1561 9 16.1675 9 14ZM13 21.4843V27.381L17.5528 25.1056C17.7941 24.9849 18.072 24.9677 18.3238 25.0539L18.4472 25.1056L23 27.382V21.4843C21.5699 22.4417 19.8501 23 18 23C16.1499 23 14.4301 22.4417 13 21.4843ZM25 14C25 10.1343 21.8657 7 18 7C14.1343 7 11 10.1343 11 14C11 17.8657 14.1343 21 18 21C21.8657 21 25 17.8657 25 14ZM18 8.5C18.5523 8.5 19 8.94772 19 9.5C19 10.0523 18.5523 10.5 18 10.5C16.0673 10.5 14.5 12.0673 14.5 14C14.5 14.5523 14.0523 15 13.5 15C12.9477 15 12.5 14.5523 12.5 14C12.5 10.9627 14.9627 8.5 18 8.5Z" fill="black"/>
</svg>
