<svg width="36" height="36" viewBox="0 0 36 36" fill="none" xmlns="http://www.w3.org/2000/svg">
<path fill-rule="evenodd" clip-rule="evenodd" d="M30.4766 5.6884C30.0861 5.29788 29.4529 5.29788 29.0624 5.6884L21.2844 13.4664L21.2012 13.5606C20.8962 13.9529 20.9239 14.5201 21.2844 14.8806C21.6749 15.2711 22.3081 15.2711 22.6986 14.8806L30.4766 7.10261L30.5598 7.00841C30.8648 6.61612 30.8371 6.04889 30.4766 5.6884ZM13 15C8.58172 15 5 18.5817 5 23C5 27.4183 8.58172 31 13 31C17.4183 31 21 27.4183 21 23C21 18.5817 17.4183 15 13 15ZM13 17C16.3137 17 19 19.6863 19 23C19 26.3137 16.3137 29 13 29C9.68629 29 7 26.3137 7 23C7 19.6863 9.68629 17 13 17ZM21.9911 7.1025C22.3816 6.71198 23.0148 6.71198 23.4053 7.1025C23.7658 7.46299 23.7935 8.03022 23.4885 8.42251L23.4053 8.51671L18.4553 13.4667C18.0648 13.8572 17.4316 13.8572 17.0411 13.4667C16.6806 13.1062 16.6529 12.539 16.9579 12.1467L17.0411 12.0525L21.9911 7.1025ZM29.0626 12.7592C28.6721 12.3687 28.0389 12.3687 27.6484 12.7592L22.6984 17.7092L22.6152 17.8034C22.3102 18.1957 22.3379 18.7629 22.6984 19.1234C23.0889 19.5139 23.7221 19.5139 24.1126 19.1234L29.0626 14.1734L29.1458 14.0792C29.4508 13.6869 29.4231 13.1197 29.0626 12.7592Z" fill="black"/>
</svg>
