<svg width="36" height="36" viewBox="0 0 36 36" fill="none" xmlns="http://www.w3.org/2000/svg">
<path fill-rule="evenodd" clip-rule="evenodd" d="M27.5 7.98867C27.9111 7.57758 27.9111 6.91108 27.5 6.49999C27.0889 6.08891 26.4224 6.08891 26.0113 6.49999L22.8305 9.68083C21.8395 7.82 19.8858 6.57421 17.6 6.57421C14.2886 6.57421 11.6741 9.18875 11.6741 12.5001V18.0001C11.6741 18.8427 11.8434 19.6401 12.1503 20.3609L10.604 21.9071C10.1417 21.0759 9.82539 20.1512 9.6909 19.1649C9.61628 18.6177 9.11218 18.2346 8.56496 18.3092C8.01774 18.3838 7.63462 18.8879 7.70924 19.4352C7.90523 20.8724 8.40728 22.2031 9.14493 23.3662L6.25558 26.2555C5.84449 26.6666 5.84449 27.3331 6.25558 27.7442C6.66667 28.1553 7.33317 28.1553 7.74425 27.7442L10.4647 25.0238C10.4684 25.0276 10.4722 25.0314 10.476 25.0352L11.8903 23.6208C11.8866 23.6171 11.8828 23.6132 11.8791 23.6094L13.3399 22.1487C13.3436 22.1525 13.3473 22.1563 13.3511 22.1601L14.6606 20.8506C14.6569 20.8467 14.6532 20.8429 14.6495 20.8391L21.6741 13.8145V13.8371L23.5062 12.0049C23.5057 11.998 23.5051 11.991 23.5045 11.9841L27.5 7.98867ZM21.4302 11.0811C20.8671 9.51448 19.3869 8.42601 17.6 8.42601C15.3114 8.42601 13.5259 10.2115 13.5259 12.5001V18.0001C13.5259 18.3075 13.5581 18.6057 13.6194 18.8918L21.4302 11.0811Z" fill="black"/>
<path d="M15.1001 23.3884L16.546 21.9425C16.881 22.0286 17.2341 22.0742 17.6 22.0742C19.8007 22.0742 21.6741 20.2768 21.6741 18.0001V16.8144L23.5259 14.9626V18.0001C23.5259 21.3235 20.7993 23.926 17.6 23.926C16.7028 23.926 15.8568 23.7341 15.1001 23.3884Z" fill="black"/>
<path d="M13.5691 24.9194L12.1161 26.3724C13.4294 27.2295 14.9548 27.7855 16.5874 27.9494V31.0001C16.5874 31.5593 17.0408 32.0127 17.6001 32.0127C18.1593 32.0127 18.6127 31.5593 18.6127 31.0001V27.9494C23.155 27.4934 26.8681 24.0022 27.4909 19.4352C27.5655 18.8879 27.1824 18.3838 26.6352 18.3092C26.088 18.2346 25.5839 18.6177 25.5092 19.1649C24.9844 23.0136 21.6914 25.9258 17.7513 25.9986C17.702 25.9912 17.6515 25.9874 17.6001 25.9874C17.5486 25.9874 17.4981 25.9912 17.4488 25.9986C16.0406 25.9726 14.7151 25.5839 13.5691 24.9194Z" fill="black"/>
</svg>
