<svg width="36" height="36" viewBox="0 0 36 36" fill="none" xmlns="http://www.w3.org/2000/svg">
<path fill-rule="evenodd" clip-rule="evenodd" d="M9.62855 8.49048L12.6371 13.8359L8.50316 18.0497C7.21888 19.3585 6.5 21.1179 6.5 22.952V24C6.5 27.8656 9.63403 31 13.5 31H22.5C26.3653 31 29.5 27.8653 29.5 24V22.952C29.5 21.1179 28.7811 19.3585 27.4968 18.0496L23.3638 13.8359L26.3715 8.49037C26.7466 7.82377 26.2649 7 25.5 7H10.5C9.73506 7 9.25336 7.82388 9.62855 8.49048ZM12.2103 9H23.7899L21.5392 13H17.8768C17.3245 13 16.8768 13.4477 16.8768 14C16.8768 14.5523 17.3245 15 17.8768 15H21.7041L26.0691 19.4502C26.9866 20.3853 27.5 21.6417 27.5 22.952V24C27.5 26.7607 25.2607 29 22.5 29H13.5C10.7387 29 8.5 26.7611 8.5 24V22.952C8.5 21.6417 9.01336 20.3853 9.93075 19.4504L14.5908 14.7003C14.9025 14.3827 14.9667 13.8973 14.7485 13.5095L12.2103 9ZM13.9998 27.5C11.7905 27.5 9.9998 25.7093 9.9998 23.5C9.9998 22.9477 10.4475 22.5 10.9998 22.5C11.5521 22.5 11.9998 22.9477 11.9998 23.5C11.9998 24.6047 12.8951 25.5 13.9998 25.5L14.1164 25.5067C14.6138 25.5645 14.9998 25.9872 14.9998 26.5C14.9998 27.0523 14.5521 27.5 13.9998 27.5Z" fill="black"/>
</svg>
