<svg width="36" height="36" viewBox="0 0 36 36" fill="none" xmlns="http://www.w3.org/2000/svg">
<path fill-rule="evenodd" clip-rule="evenodd" d="M22 4.125C22.4461 4.125 22.8142 4.4588 22.8682 4.89024L22.875 5V6.125H24C24.4832 6.125 24.875 6.51675 24.875 7C24.875 7.44608 24.5412 7.81419 24.1097 7.86818L24 7.875H22.875V9C22.875 9.48325 22.4832 9.875 22 9.875C21.5539 9.875 21.1858 9.5412 21.1318 9.10976L21.125 9V7.875H20C19.5167 7.875 19.125 7.48325 19.125 7C19.125 6.55392 19.4588 6.18581 19.8902 6.13182L20 6.125H21.125V5C21.125 4.51675 21.5167 4.125 22 4.125ZM13.1423 8.04857C11.3753 8.62033 9.77204 9.58887 8.4458 10.9162C3.85053 15.5104 3.85053 22.9596 8.44616 27.5542C13.0405 32.1497 20.4898 32.1497 25.0844 27.554C26.4113 26.2281 27.3799 24.6249 27.9516 22.8579C28.2027 22.0818 27.4692 21.3478 26.693 21.5983C23.2239 22.7181 19.3983 21.8379 16.7803 19.2199C14.1623 16.6019 13.2821 12.7763 14.4018 9.30717C14.6524 8.53098 13.9183 7.79748 13.1423 8.04857ZM12.04 10.694L12.0037 10.9725C11.5989 14.477 12.7777 18.0457 15.3661 20.6341L15.6116 20.8726C18.1774 23.2946 21.6327 24.3886 25.0277 23.9965L25.306 23.96L25.1842 24.1781C24.769 24.8892 24.2628 25.5476 23.6704 26.1396C19.8565 29.9543 13.6738 29.9543 9.86038 26.14C6.04584 22.3264 6.04584 16.1436 9.86021 12.3302C10.4524 11.7375 11.1109 11.2313 11.8221 10.816L12.04 10.694ZM28 12.125C28.4461 12.125 28.8142 12.4588 28.8682 12.8902L28.875 13V14.125H30C30.4832 14.125 30.875 14.5168 30.875 15C30.875 15.4461 30.5412 15.8142 30.1097 15.8682L30 15.875H28.875V17C28.875 17.4832 28.4832 17.875 28 17.875C27.5539 17.875 27.1858 17.5412 27.1318 17.1098L27.125 17V15.875H26C25.5167 15.875 25.125 15.4832 25.125 15C25.125 14.5539 25.4588 14.1858 25.8902 14.1318L26 14.125H27.125V13C27.125 12.5168 27.5167 12.125 28 12.125Z" fill="black"/>
</svg>
