<svg width="36" height="36" viewBox="0 0 36 36" fill="none" xmlns="http://www.w3.org/2000/svg">
<path fill-rule="evenodd" clip-rule="evenodd" d="M22 6.125C22.4461 6.125 22.8142 6.4588 22.8682 6.89024L22.875 7V9C22.875 9.48325 22.4832 9.875 22 9.875C21.5539 9.875 21.1858 9.5412 21.1318 9.10976L21.125 9V7C21.125 6.51675 21.5167 6.125 22 6.125ZM29 13.125C29.4832 13.125 29.875 13.5168 29.875 14C29.875 14.4461 29.5412 14.8142 29.1098 14.8682L29 14.875H27C26.5167 14.875 26.125 14.4832 26.125 14C26.125 13.5539 26.4588 13.1858 26.8902 13.1318L27 13.125H29ZM28.6187 7.38128C28.277 7.03957 27.723 7.03957 27.3813 7.38128L25.3813 9.38128L25.303 9.47089C25.0419 9.81385 25.068 10.3055 25.3813 10.6187C25.723 10.9604 26.277 10.9604 26.6187 10.6187L28.6187 8.61872L28.697 8.52911C28.958 8.18615 28.9319 7.69451 28.6187 7.38128ZM25.3813 17.3813C25.6945 17.068 26.1861 17.0419 26.5291 17.303L26.6187 17.3813L28.6187 19.3813C28.9604 19.723 28.9604 20.277 28.6187 20.6187C28.3055 20.932 27.8138 20.9581 27.4709 20.697L27.3813 20.6187L25.3813 18.6187C25.0396 18.277 25.0396 17.723 25.3813 17.3813ZM16.5291 7.30297C16.1861 7.04195 15.6945 7.06805 15.3813 7.38128C15.0396 7.72299 15.0396 8.27701 15.3813 8.61872L17.3813 10.6187L17.4709 10.697C17.8138 10.9581 18.3055 10.932 18.6187 10.6187C18.9604 10.277 18.9604 9.72299 18.6187 9.38128L16.6187 7.38128L16.5291 7.30297ZM15.0963 17.0144L18.8866 13.2242C19.9611 12.1497 21.7023 12.1497 22.7768 13.2242L22.9053 13.3618C23.8473 14.442 23.8045 16.0832 22.7768 17.1124L9.6948 30.1944C8.68987 31.1993 7.08988 31.2713 5.96482 30.3407L5.80559 30.1944C4.73106 29.1199 4.73106 27.3797 5.80559 26.3052L15.0793 17.0314C15.0821 17.0286 15.085 17.0257 15.0878 17.0229C15.0906 17.0201 15.0935 17.0172 15.0963 17.0144ZM15.7949 19.1443L7.2198 27.7194C6.92633 28.0129 6.92633 28.4867 7.18549 28.7475L7.27437 28.8298C7.57016 29.0741 8.00629 29.0545 8.28059 28.7802L16.8557 20.205L15.7949 19.1443ZM18.2699 18.7908L17.2092 17.73L20.3008 14.6384C20.5943 14.3449 21.0691 14.3449 21.3626 14.6384C21.6542 14.9305 21.6542 15.4061 21.3621 15.6987L18.2699 18.7908Z" fill="black"/>
</svg>
