<svg width="36" height="36" viewBox="0 0 36 36" fill="none" xmlns="http://www.w3.org/2000/svg">
<path fill-rule="evenodd" clip-rule="evenodd" d="M21.9752 9.92269L28.6061 7.08086C29.2659 6.79806 30 7.28209 30 8.00001V26C30 26.4 29.7616 26.7616 29.3939 26.9192L22.3939 29.9192C22.1236 30.035 21.8159 30.026 21.5528 29.8944L14.0315 26.1338L7.49614 29.8683C6.82948 30.2492 6 29.7678 6 29V11C6 10.6 6.2384 10.2384 6.60608 10.0809L13.6061 7.08086C13.8429 6.97935 14.1098 6.9732 14.3511 7.06368L21.9752 9.92269ZM22.3939 11.9192C22.1571 12.0207 21.8902 12.0268 21.6489 11.9363L14.0248 9.07733L8 11.6594V27.2768L13.5039 24.1318C13.7942 23.9659 14.1482 23.9561 14.4472 24.1056L22.0324 27.8982L28 25.3406V9.51655L22.3939 11.9192ZM13 13V21C13 21.5523 13.4477 22 14 22C14.5523 22 15 21.5523 15 21V13C15 12.4477 14.5523 12 14 12C13.4477 12 13 12.4477 13 13ZM21 16V24C21 24.5523 21.4477 25 22 25C22.5523 25 23 24.5523 23 24V16C23 15.4477 22.5523 15 22 15C21.4477 15 21 15.4477 21 16Z" fill="black"/>
</svg>
