<svg width="36" height="36" viewBox="0 0 36 36" fill="none" xmlns="http://www.w3.org/2000/svg">
<path fill-rule="evenodd" clip-rule="evenodd" d="M31.9891 16.379C31.9319 15.4823 31.6501 14.605 31.1632 13.8221C30.2384 12.3371 29.0062 11.1267 27.571 10.2871C26.1454 9.44519 24.5271 9.0002 22.871 9.0002C22.1014 9.0002 21.3426 9.09805 20.5857 9.29127C19.8439 9.49193 19.1372 9.77716 18.4442 10.149C18.1556 10.3085 17.8296 10.3902 17.495 10.3902C17.1687 10.3902 16.8393 10.3077 16.5485 10.1505C15.8817 9.78674 15.1641 9.49715 14.432 9.29595C13.6597 9.09864 12.8907 9.0002 12.119 9.0002C10.4677 9.0002 8.85928 9.44316 7.41845 10.2874C5.9838 11.1274 4.75104 12.3381 3.82716 13.8215C3.28161 14.6987 3 15.6991 3 16.7202C3 17.7393 3.2807 18.7302 3.82683 19.6083C4.75104 21.0923 5.98379 22.303 7.41875 23.1432C8.86643 23.9914 10.4752 24.4402 12.119 24.4402C12.904 24.4402 13.6777 24.3383 14.4279 24.1356C15.1473 23.9489 15.8698 23.6601 16.5519 23.2881C16.8506 23.1266 17.1818 23.0402 17.495 23.0402C17.8167 23.0402 18.1445 23.1258 18.4331 23.2853C19.1492 23.6696 19.8591 23.9534 20.5853 24.139C21.3244 24.3389 22.0882 24.4402 22.871 24.4402C24.47 24.4402 26.0432 24.0138 27.4596 23.2099C27.9399 22.9373 28.1083 22.3269 27.8357 21.8466C27.5631 21.3663 26.9527 21.1979 26.4724 21.4705C25.3531 22.1057 24.1192 22.4402 22.871 22.4402C22.2643 22.4402 21.676 22.3622 21.0939 22.2048C20.6325 22.0868 20.1819 21.92 19.7295 21.7021L19.3898 21.529C18.8177 21.2126 18.1571 21.0402 17.495 21.0402C16.8444 21.0402 16.1873 21.2117 15.5975 21.5305C15.0538 21.827 14.4839 22.0548 13.9158 22.2023C13.3267 22.3614 12.7285 22.4402 12.119 22.4402C10.8356 22.4402 9.57495 22.0885 8.42955 21.4174C7.27699 20.7426 6.27892 19.7624 5.52484 18.5515C5.177 17.9922 5 17.3674 5 16.7202C5 16.0699 5.17852 15.4357 5.52517 14.8783C6.27892 13.668 7.27699 12.6878 8.42925 12.0132C9.56591 11.3472 10.8257 11.0002 12.119 11.0002C12.7223 11.0002 13.3252 11.0774 13.9197 11.2291C14.4855 11.3848 15.0595 11.6165 15.5941 11.9081C16.1818 12.2257 16.8383 12.3902 17.495 12.3902C18.0799 12.3902 18.6578 12.2637 19.1805 12.0179L19.4009 11.9053C19.9516 11.6099 20.517 11.3817 21.0943 11.2255C21.6777 11.0766 22.2705 11.0002 22.871 11.0002C24.1682 11.0002 25.4355 11.3487 26.5575 12.0113C27.7131 12.6873 28.7105 13.6671 29.4652 14.8788C29.7729 15.3737 29.9516 15.9227 29.9914 16.4807L29.9971 16.639V29.0819C29.9971 29.6342 30.4448 30.0819 30.9971 30.0819C31.5494 30.0819 31.9971 29.6342 31.9971 29.0819V16.7969C31.999 16.7716 32 16.746 32 16.7202C32 16.6614 31.999 16.6027 31.9971 16.544V16.5059C31.9971 16.4629 31.9944 16.4205 31.9891 16.379ZM12.1211 13.4399C12.2066 13.4399 12.2894 13.4443 12.3721 13.4546C12.4712 13.467 12.5627 13.4918 12.6463 13.5269C14.2161 13.7061 15.617 14.6841 16.5548 16.1893C16.7565 16.513 16.7565 16.9232 16.5548 17.2469C15.6167 18.7526 14.2151 19.7308 12.6447 19.9095C12.5615 19.9442 12.4705 19.9688 12.3721 19.9811C12.29 19.9913 12.2057 19.9968 12.1211 19.9968C12.0372 19.9968 11.953 19.9913 11.8711 19.9811C11.7726 19.9688 11.6816 19.9442 11.5984 19.9094C10.0277 19.7305 8.62643 18.7525 7.68836 17.2469C7.48668 16.9232 7.48668 16.513 7.68836 16.1893C8.62608 14.6843 10.0266 13.7065 11.5966 13.527C11.6803 13.4919 11.7719 13.467 11.8711 13.4546C11.9535 13.4443 12.0364 13.4399 12.1211 13.4399ZM11.9219 15.5049C11.1296 15.5666 10.373 15.9928 9.7672 16.7181C10.3735 17.4439 11.1308 17.8703 11.9237 17.9315C12.0541 17.9052 12.1886 17.9052 12.319 17.9316C13.0458 17.8758 13.743 17.5128 14.3214 16.8932L14.476 16.7181L14.3214 16.543C13.7435 15.9239 13.0469 15.561 12.3208 15.5048C12.1892 15.5316 12.0535 15.5316 11.9219 15.5049ZM23.3979 13.5268C24.9683 13.706 26.3703 14.6845 27.307 16.1897C27.5083 16.5132 27.5083 16.923 27.307 17.2465C26.37 18.7522 24.9674 19.7309 23.3964 19.9095C23.3142 19.9438 23.2243 19.9682 23.1273 19.9807C23.0451 19.9912 22.9598 19.9968 22.8751 19.9968C22.7912 19.9968 22.7081 19.9915 22.626 19.9814C22.5264 19.9693 22.4343 19.9445 22.3502 19.9094C20.7797 19.7303 19.3778 18.7518 18.441 17.2465C18.2397 16.923 18.2397 16.5132 18.441 16.1897C19.3774 14.685 20.7787 13.7067 22.3484 13.527C22.4321 13.4919 22.5238 13.467 22.623 13.4546C22.7057 13.4443 22.7885 13.4399 22.874 13.4399C22.9597 13.4399 23.0441 13.4444 23.1272 13.455C23.2249 13.4675 23.3153 13.4922 23.3979 13.5268ZM23.0734 15.5048C23.8043 15.5616 24.5054 15.9291 25.085 16.5551L25.2282 16.7181L25.085 16.8811C24.5059 17.5066 23.8055 17.874 23.0753 17.9312C22.9426 17.904 22.8056 17.904 22.6729 17.9312C21.8813 17.8692 21.1248 17.4428 20.5198 16.7181C21.1252 15.9929 21.8823 15.5664 22.6746 15.5048C22.8061 15.5316 22.9419 15.5316 23.0734 15.5048Z" fill="black"/>
</svg>
