<svg width="36" height="36" viewBox="0 0 36 36" fill="none" xmlns="http://www.w3.org/2000/svg">
<path fill-rule="evenodd" clip-rule="evenodd" d="M12.074 11.9999C12.074 8.68851 14.6885 6.07397 17.9999 6.07397C21.3112 6.07397 23.9258 8.68851 23.9258 11.9999V17.4999C23.9258 20.8112 21.3112 23.4258 17.9999 23.4258C14.6885 23.4258 12.074 20.8112 12.074 17.4999V11.9999ZM17.9999 7.92577C15.7112 7.92577 13.9258 9.71124 13.9258 11.9999V17.4999C13.9258 19.7885 15.7112 21.574 17.9999 21.574C20.2885 21.574 22.074 19.7885 22.074 17.4999V11.9999C22.074 9.71124 20.2885 7.92577 17.9999 7.92577Z" fill="black"/>
<path d="M8.96486 17.8091C9.51208 17.7345 10.0162 18.1176 10.0908 18.6648C10.6215 22.5569 13.9835 25.4914 17.9825 25.4999C17.9883 25.4998 17.9942 25.4998 18 25.4998C18.0058 25.4998 18.0116 25.4998 18.0175 25.4999C22.0165 25.4914 25.3784 22.5569 25.9091 18.6648C25.9838 18.1176 26.4879 17.7345 27.0351 17.8091C27.5823 17.8837 27.9654 18.3878 27.8908 18.935C27.2675 23.5063 23.548 26.9997 19 27.4506V30.4998C19 31.052 18.5523 31.4998 18 31.4998C17.4477 31.4998 17 31.052 17 30.4998V27.4506C12.4519 26.9997 8.7325 23.5063 8.10914 18.935C8.03452 18.3878 8.41764 17.8837 8.96486 17.8091Z" fill="black"/>
</svg>
