<svg width="36" height="36" viewBox="0 0 36 36" fill="none" xmlns="http://www.w3.org/2000/svg">
<path fill-rule="evenodd" clip-rule="evenodd" d="M13.75 5.5C11.958 5.5 10.5 6.958 10.5 8.75C10.5 10.542 11.958 12 13.75 12C15.542 12 17 10.542 17 8.75C17 6.958 15.542 5.5 13.75 5.5ZM13.75 7.5C14.44 7.5 15 8.06 15 8.75C15 9.44 14.44 10 13.75 10C13.06 10 12.5 9.44 12.5 8.75C12.5 8.06 13.06 7.5 13.75 7.5ZM21.0322 25.7591L20.9606 26.0051C20.2197 28.3691 18.0218 30.0087 15.507 30.0087C12.3513 30.0087 9.79199 27.4494 9.79199 24.2937C9.79199 21.6076 11.66 19.309 14.2261 18.7219L15.0751 20.7872C15.5939 22.0572 16.6988 23 18 23H22.947C23.4429 23 23.9191 23.345 24.1069 23.8491L27.0695 31.3743C27.2718 31.8882 27.8524 32.1408 28.3663 31.9385C28.8802 31.7362 29.1328 31.1555 28.9305 30.6417L25.9745 23.1337C25.507 21.8785 24.2945 21 22.947 21H18C17.6163 21 17.1653 20.6152 16.9257 20.0288L14.9249 15.1618C14.8874 15.0701 14.9324 15 15 15H23C23.5523 15 24 14.5523 24 14C24 13.4477 23.5523 13 23 13H15C13.4885 13 12.5063 14.5314 13.0744 15.9205L13.4579 16.8533C10.1577 17.7595 7.79199 20.7803 7.79199 24.2937C7.79199 28.554 11.2467 32.0087 15.507 32.0087C18.902 32.0087 21.8685 29.7957 22.8682 26.6058C22.9059 26.4866 22.9387 26.3742 22.9678 26.2623C23.1068 25.7278 22.7861 25.1819 22.2516 25.0429C21.7171 24.9039 21.1711 25.2246 21.0322 25.7591Z" fill="black"/>
</svg>
