<svg width="36" height="36" viewBox="0 0 36 36" fill="none" xmlns="http://www.w3.org/2000/svg">
<path fill-rule="evenodd" clip-rule="evenodd" d="M30 10C30 7.79072 28.2093 6 26 6C24.136 6 22.57 7.27469 22.126 9H17C16.4477 9 16 9.44772 16 10V17H11.874C11.43 15.2747 9.86398 14 8 14C5.79072 14 4 15.7907 4 18C4 20.2093 5.79072 22 8 22C9.86398 22 11.43 20.7253 11.874 19H16V26C16 26.5523 16.4477 27 17 27H22.126C22.57 28.7253 24.136 30 26 30C28.2093 30 30 28.2093 30 26C30 23.7907 28.2093 22 26 22C24.136 22 22.57 23.2747 22.126 25H18V11H22.126C22.57 12.7253 24.136 14 26 14C28.2093 14 30 12.2093 30 10ZM26 8C24.8953 8 24 8.89528 24 10C24 11.1047 24.8953 12 26 12C27.1047 12 28 11.1047 28 10C28 8.89528 27.1047 8 26 8ZM26 24C24.8953 24 24 24.8953 24 26C24 27.1047 24.8953 28 26 28C27.1047 28 28 27.1047 28 26C28 24.8953 27.1047 24 26 24ZM8 16C6.89528 16 6 16.8953 6 18C6 19.1047 6.89528 20 8 20C9.10472 20 10 19.1047 10 18C10 16.8953 9.10472 16 8 16Z" fill="black"/>
</svg>
