<svg width="36" height="36" viewBox="0 0 36 36" fill="none" xmlns="http://www.w3.org/2000/svg">
<path fill-rule="evenodd" clip-rule="evenodd" d="M24 24V28C24 28.1363 23.9732 28.2673 23.9219 28.3887C23.8715 28.5072 23.7985 28.6153 23.7069 28.7069C23.6144 28.7994 23.5069 28.8721 23.3901 28.9213C23.2673 28.9732 23.1363 29 23 29H13C12.8637 29 12.7327 28.9732 12.6113 28.9219C12.4931 28.8721 12.3856 28.7994 12.2931 28.7069C12.2015 28.6153 12.1285 28.5072 12.0773 28.3869C12.0268 28.2673 12 28.1363 12 28V9C12 8.86372 12.0268 8.7327 12.0781 8.61126C12.1285 8.4928 12.2015 8.38469 12.2931 8.29311C12.3856 8.20059 12.4931 8.12787 12.6099 8.07871C12.7327 8.02681 12.8637 8 13 8H14.5578C14.5711 8.81694 15.2375 9.4751 16.0576 9.4751H20.0576C20.8777 9.4751 21.5441 8.81694 21.5574 8H23C23.1363 8 23.2673 8.02681 23.3887 8.07813C23.5069 8.12787 23.6144 8.20059 23.7069 8.29311C23.7985 8.38469 23.8715 8.4928 23.9227 8.61314C23.9732 8.7327 24 8.86372 24 9V12H26V9C26 8.59497 25.9191 8.19934 25.7641 7.83274C25.6117 7.47411 25.3938 7.15156 25.1211 6.87889C24.847 6.60484 24.5233 6.3857 24.1659 6.23529C23.8007 6.08095 23.405 6 23 6H13C12.595 6 12.1993 6.08095 11.8327 6.23587C11.4767 6.3857 11.153 6.60484 10.8789 6.87889C10.6062 7.15156 10.3883 7.47411 10.2367 7.83086C10.081 8.19934 10 8.59497 10 9V28C10 28.405 10.081 28.8007 10.2359 29.1673C10.3883 29.5259 10.6062 29.8484 10.8789 30.1211C11.153 30.3952 11.4767 30.6143 11.8341 30.7647C12.1993 30.9191 12.595 31 13 31H23C23.405 31 23.8007 30.919 24.1673 30.7641C24.5233 30.6143 24.847 30.3952 25.1211 30.1211C25.3938 29.8484 25.6117 29.5259 25.7633 29.1691C25.919 28.8007 26 28.405 26 28V24H24ZM26 14H24V17.0249H21V19.0249H24V22H26V19.0249H29V17.0249H26V14ZM19.0578 26.9751H17.1748C16.6225 26.9751 16.1748 26.5274 16.1748 25.9751C16.1748 25.4228 16.6225 24.9751 17.1748 24.9751H19.0578C19.6101 24.9751 20.0578 25.4228 20.0578 25.9751C20.0578 26.5274 19.6101 26.9751 19.0578 26.9751Z" fill="black"/>
</svg>
