<svg width="36" height="36" viewBox="0 0 36 36" fill="none" xmlns="http://www.w3.org/2000/svg">
<path fill-rule="evenodd" clip-rule="evenodd" d="M15.5 22C19.0899 22 22 19.0899 22 15.5C22 11.9101 19.0899 9 15.5 9C11.9101 9 9 11.9101 9 15.5C9 19.0899 11.9101 22 15.5 22ZM15.5 24C17.4869 24 19.3145 23.3183 20.7618 22.176L26.4602 27.8744C26.8507 28.2649 27.4839 28.2649 27.8744 27.8744C28.2649 27.4839 28.2649 26.8507 27.8744 26.4602L22.176 20.7618C23.3183 19.3145 24 17.4869 24 15.5C24 10.8056 20.1944 7 15.5 7C10.8056 7 7 10.8056 7 15.5C7 20.1944 10.8056 24 15.5 24ZM15.5 10.25C14.9477 10.25 14.5 10.6977 14.5 11.25C14.5 11.8023 14.9477 12.25 15.5 12.25C17.2949 12.25 18.75 13.7051 18.75 15.5C18.75 16.0523 19.1977 16.5 19.75 16.5C20.3023 16.5 20.75 16.0523 20.75 15.5C20.75 12.6005 18.3995 10.25 15.5 10.25Z" fill="black"/>
</svg>
