<svg width="36" height="36" viewBox="0 0 36 36" fill="none" xmlns="http://www.w3.org/2000/svg">
<path fill-rule="evenodd" clip-rule="evenodd" d="M14 11H26V13H14V11ZM14 15V25.689H13.9881C13.996 25.7916 14 25.8953 14 26C14 28.2093 12.2093 30 10 30C7.79072 30 6 28.2093 6 26C6 23.7907 7.79072 22 10 22C10.7286 22 11.4117 22.1948 12 22.5351V10C12 9.44772 12.4477 9 13 9H27C27.5523 9 28 9.44772 28 10V25.689H27.9881C27.996 25.7916 28 25.8953 28 26C28 28.2093 26.2093 30 24 30C21.7907 30 20 28.2093 20 26C20 23.7907 21.7907 22 24 22C24.7286 22 25.4117 22.1948 26 22.5351V15H14ZM8 26C8 24.8953 8.89528 24 10 24C11.1047 24 12 24.8953 12 26C12 27.1047 11.1047 28 10 28C8.89528 28 8 27.1047 8 26ZM22 26C22 24.8953 22.8953 24 24 24C25.1047 24 26 24.8953 26 26C26 27.1047 25.1047 28 24 28C22.8953 28 22 27.1047 22 26Z" fill="black"/>
</svg>
