<svg width="36" height="36" viewBox="0 0 36 36" fill="none" xmlns="http://www.w3.org/2000/svg">
<path fill-rule="evenodd" clip-rule="evenodd" d="M7.03767 7.91795C7.01262 7.61173 7 7.30598 7 6.9995C7 6.44721 6.55228 5.9995 6 5.9995C5.44772 5.9995 5 6.44721 5 6.9995C5 7.3607 5.01486 7.72085 5.04433 8.08104C5.08937 8.63149 5.5721 9.0412 6.12255 8.99617C6.67299 8.95113 7.08271 8.4684 7.03767 7.91795ZM28.9623 7.91845C28.9874 7.61262 29 7.30587 29 7C29 6.44771 29.4477 6 30 6C30.5523 6 31 6.44771 31 7C31 7.36056 30.9851 7.72172 30.9557 8.08154C30.9106 8.63199 30.4279 9.0417 29.8775 8.99667C29.327 8.95163 28.9173 8.4689 28.9623 7.91845ZM8.14985 11.9023C7.89374 11.3888 7.67821 10.8556 7.50555 10.307C7.33975 9.78019 6.77828 9.48753 6.25147 9.65334C5.72466 9.81914 5.432 10.3806 5.59781 10.9074C5.80212 11.5566 6.05714 12.1875 6.36009 12.7949C6.60659 13.2891 7.20706 13.49 7.70128 13.2435C8.19551 12.997 8.39634 12.3965 8.14985 11.9023ZM27.7849 12.0305C28.0477 11.5204 28.2702 10.9901 28.4501 10.444C28.6229 9.9194 29.1882 9.63422 29.7127 9.80699C30.2373 9.97976 30.5225 10.5451 30.3497 11.0696C30.1369 11.7158 29.8736 12.3431 29.5628 12.9465C29.3099 13.4374 28.7069 13.6304 28.2159 13.3775C27.7249 13.1245 27.532 12.5215 27.7849 12.0305ZM25.1027 15.3999C25.5415 15.0285 25.9508 14.6232 26.3267 14.1882C26.6878 13.7703 27.3193 13.7242 27.7372 14.0852C28.1551 14.4463 28.2012 15.0778 27.8401 15.4957C27.3963 16.0094 26.913 16.4878 26.3949 16.9264C25.9734 17.2832 25.3424 17.2308 24.9856 16.8093C24.6287 16.3878 24.6812 15.7568 25.1027 15.3999ZM22.9312 16.8358C22.4184 17.0933 21.8859 17.3104 21.3378 17.4847C20.8115 17.652 20.5205 18.2144 20.6879 18.7407C20.8552 19.267 21.4176 19.558 21.9439 19.3906C22.5924 19.1844 23.2225 18.9276 23.829 18.6229C24.3225 18.375 24.5216 17.7739 24.2737 17.2804C24.0257 16.7869 23.4247 16.5878 22.9312 16.8358ZM18.0093 17.9998C18.2804 17.9996 18.5502 17.9896 18.8185 17.9699C19.3693 17.9294 19.8486 18.3431 19.889 18.8939C19.9294 19.4447 19.5157 19.924 18.9649 19.9645C18.6485 19.9877 18.3304 19.9995 18.0102 19.9998C17.6406 19.9998 17.2814 19.9852 16.9233 19.9558C16.3728 19.9106 15.9632 19.4278 16.0084 18.8773C16.0536 18.3269 16.5364 17.9173 17.0869 17.9625C17.3904 17.9874 17.695 17.9998 18.0093 17.9998ZM14.5479 17.4475C14.0018 17.2671 13.4715 17.0441 12.9615 16.7808C12.4707 16.5275 11.8675 16.7199 11.6142 17.2106C11.3608 17.7014 11.5532 18.3046 12.044 18.5579C12.6473 18.8694 13.2746 19.1332 13.9208 19.3466C14.4452 19.5198 15.0107 19.2351 15.1839 18.7106C15.3571 18.1862 15.0723 17.6207 14.5479 17.4475ZM9.59547 14.0971C9.96664 14.5361 10.3716 14.9457 10.8064 15.3219C11.2241 15.6833 11.2697 16.3148 10.9084 16.7324C10.547 17.1501 9.91552 17.1958 9.49786 16.8344C8.98452 16.3903 8.50639 15.9067 8.06815 15.3883C7.71158 14.9665 7.76443 14.3356 8.18619 13.979C8.60795 13.6224 9.2389 13.6753 9.59547 14.0971ZM20 22C20.3344 22 20.6466 22.1671 20.8321 22.4453L22.8321 25.4453C23.0965 25.8419 23.0442 26.37 22.7071 26.7071L18.7071 30.7071C18.3166 31.0976 17.6834 31.0976 17.2929 30.7071L13.2929 26.7071C12.9558 26.37 12.9035 25.8419 13.1679 25.4453L15.1679 22.4453C15.3534 22.1671 15.6656 22 16 22H20ZM19.4648 24H16.5352L15.2868 25.8726L18 28.5858L20.7132 25.8726L19.4648 24Z" fill="black"/>
</svg>
