<svg width="36" height="36" viewBox="0 0 36 36" fill="none" xmlns="http://www.w3.org/2000/svg">
<path fill-rule="evenodd" clip-rule="evenodd" d="M25.8834 11.9933L26 12C26.5123 12 26.9354 12.3865 26.9933 12.8835L27 13C27 13.5523 27.4477 14 28 14C28.5523 14 29 13.5523 29 13C29 11.3437 27.6563 10 26 10C25.4477 10 25 10.4477 25 11C25 11.5128 25.386 11.9355 25.8834 11.9933ZM27 17V23.032C27 23.5843 26.5521 24.032 26 24.032H10C9.44786 24.032 9 23.5843 9 23.032V13C9 12.4483 9.44828 12 10 12H22.348C22.9003 12 23.348 11.5523 23.348 11C23.348 10.4477 22.9003 10 22.348 10H10C8.34372 10 7 11.3437 7 13V23.032C7 24.689 8.34345 26.032 10 26.032H26C27.6566 26.032 29 24.689 29 23.032V17C29 16.4477 28.5523 16 28 16C27.4477 16 27 16.4477 27 17ZM6 30H30C30.5523 30 31 29.5523 31 29C31 28.4477 30.5523 28 30 28H6C5.44772 28 5 28.4477 5 29C5 29.5523 5.44772 30 6 30ZM26 8C28.7257 8 30.935 10.2093 30.935 12.935C30.935 13.4873 31.3827 13.935 31.935 13.935C32.4873 13.935 32.935 13.4873 32.935 12.935C32.935 9.10472 29.8303 6 26 6C25.4477 6 25 6.44772 25 7C25 7.55228 25.4477 8 26 8Z" fill="black"/>
</svg>
