<svg width="36" height="36" viewBox="0 0 36 36" fill="none" xmlns="http://www.w3.org/2000/svg">
<path fill-rule="evenodd" clip-rule="evenodd" d="M20.8682 4.89024C20.8142 4.4588 20.4461 4.125 20 4.125C19.5168 4.125 19.125 4.51675 19.125 5V7.5L19.1204 7.66029C19.0472 8.95734 18.094 10.6124 16.2121 12.9115L16.0654 13.0899C15.8679 13.3291 15.6608 13.5754 15.425 13.8521L13.6855 15.879C10.8105 19.2618 10.125 20.3937 10.125 22.022C10.125 24.069 11.2267 24.8196 13.7767 25.4928L14.1556 25.5935C15.7291 26.0219 16.125 26.3035 16.125 27V30L16.1318 30.1098C16.1858 30.5412 16.5539 30.875 17 30.875C17.4832 30.875 17.875 30.4832 17.875 30V27L17.8714 26.8113C17.8043 25.0897 16.7898 24.4764 14.3792 23.8418L14 23.7406C12.3404 23.2847 11.875 22.9298 11.875 22.022C11.875 20.9899 12.5747 19.8952 15.0779 16.9449L16.9351 14.7775C17.0488 14.6431 17.1567 14.5148 17.261 14.3895L17.8164 13.7117C19.859 11.1698 20.875 9.292 20.875 7.5V5L20.8682 4.89024ZM25.5 21.5C25.5 20.9477 25.0523 20.5 24.5 20.5C23.9477 20.5 23.5 20.9477 23.5 21.5L23.4931 21.6445C23.4205 22.4054 22.78 23 22 23C21.2884 23 21.0052 22.8514 20.3779 22.2678L20.1496 22.0591C19.3077 21.3113 18.6494 21 17.5 21H16L15.8834 21.0067C15.386 21.0645 15 21.4872 15 22C15 22.5523 15.4477 23 16 23H17.5L17.6484 23.0029C18.1669 23.0251 18.4216 23.1795 18.9707 23.6904L19.1933 23.8939C20.069 24.6724 20.7702 25 22 25C23.9333 25 25.5 23.4333 25.5 21.5Z" fill="black"/>
</svg>
