<svg width="36" height="36" viewBox="0 0 36 36" fill="none" xmlns="http://www.w3.org/2000/svg">
<path fill-rule="evenodd" clip-rule="evenodd" d="M19 6C18.4477 6 18 6.44772 18 7V17C18 17.5523 18.4477 18 19 18H29C29.5523 18 30 17.5523 30 17C30 10.9247 25.0753 6 19 6ZM14.7276 6.45166C15.259 6.30133 15.8117 6.61028 15.962 7.14171C16.1124 7.67314 15.8034 8.22582 15.272 8.37614C11.003 9.58369 7.99979 13.4966 7.99979 17.9999C7.99979 23.5226 12.4771 27.9999 17.9998 27.9999C22.5093 27.9999 26.4261 24.9887 27.6281 20.7123C27.7775 20.1806 28.3297 19.8708 28.8614 20.0202C29.3931 20.1697 29.7029 20.7218 29.5535 21.2535C28.1105 26.3871 23.4112 29.9999 17.9998 29.9999C11.3725 29.9999 5.99979 24.6272 5.99979 17.9999C5.99979 12.5959 9.60301 7.90124 14.7276 6.45166ZM20 8.055V16H27.944L27.9042 15.6821C27.3166 11.6773 24.0916 8.52999 20.0496 8.06055L20 8.055Z" fill="black"/>
</svg>
