<svg width="36" height="36" viewBox="0 0 36 36" fill="none" xmlns="http://www.w3.org/2000/svg">
<path fill-rule="evenodd" clip-rule="evenodd" d="M27.2148 21.8928C27.7307 20.6719 28 19.3554 28 18C28 17.4477 28.4477 17 29 17C29.5523 17 30 17.4477 30 18C30 19.6241 29.6766 21.2051 29.0569 22.6718C28.4537 24.0968 27.5785 25.3917 26.4851 26.4851C25.3914 27.5789 24.0964 28.454 22.6704 29.0571C21.2059 29.6763 19.6252 29.9998 18.0015 30C18.001 30 18.0005 30 18 30C16.3757 30 14.7946 29.6765 13.3296 29.0571C12.8209 28.842 12.5829 28.2553 12.7979 27.7466C13.013 27.2379 13.5998 26.9999 14.1084 27.2149C15.3277 27.7305 16.6437 27.9998 17.9987 28C17.9991 28 17.9996 28 18 28C19.3554 28 20.6719 27.7306 21.8915 27.215C23.0791 26.7127 24.1586 25.9832 25.0709 25.0709C25.983 24.1588 26.7127 23.0792 27.2148 21.8928ZM8.78586 21.8921C9.28695 23.0781 10.0163 24.1578 10.9292 25.0715C11.3195 25.4623 11.3192 26.0954 10.9285 26.4858C10.5377 26.8761 9.90457 26.8758 9.51424 26.4851C8.42023 25.3899 7.54535 24.0949 6.94354 22.6705C6.7286 22.1617 6.96677 21.5751 7.47552 21.3601C7.98426 21.1452 8.57092 21.3834 8.78586 21.8921ZM25.0708 10.9285C25.9837 11.8422 26.7131 12.9219 27.2141 14.1079C27.4291 14.6166 28.0157 14.8548 28.5245 14.6399C29.0332 14.4249 29.2714 13.8383 29.0565 13.3295C28.4547 11.9051 27.5798 10.6101 26.4858 9.51495C26.0954 9.12423 25.4623 9.12391 25.0715 9.51424C24.6808 9.90457 24.6805 10.5377 25.0708 10.9285ZM18 8C19.3554 8 20.6719 8.26936 21.8916 8.78505C22.4002 9.00013 22.987 8.76212 23.2021 8.25343C23.4171 7.74475 23.1791 7.15802 22.6704 6.94295C21.2054 6.32352 19.6243 6 18 6C17.4477 6 17 6.44772 17 7C17 7.55228 17.4477 8 18 8ZM8 18C8 16.6446 8.26932 15.3281 8.78516 14.1072C9.28732 12.9208 10.017 11.8412 10.9291 10.9291C11.8414 10.0168 12.9209 9.28728 14.1085 8.78502C14.6172 8.56989 14.8551 7.98314 14.64 7.47447C14.4249 6.96581 13.8381 6.72786 13.3295 6.94298C11.9036 7.54602 10.6086 8.42114 9.51489 9.51489C8.42146 10.6083 7.54625 11.9032 6.94309 13.3282C6.32344 14.7949 6 16.3759 6 18C6 18.5523 6.44772 19 7 19C7.55228 19 8 18.5523 8 18ZM18 11C21.8653 11 25 14.1347 25 18C25 21.8653 21.8653 25 18 25C14.1347 25 11 21.8653 11 18C11 14.1347 14.1347 11 18 11ZM18 13C15.2393 13 13 15.2393 13 18C13 20.7607 15.2393 23 18 23C20.7607 23 23 20.7607 23 18C23 15.2393 20.7607 13 18 13Z" fill="black"/>
</svg>
