<svg width="36" height="36" viewBox="0 0 36 36" fill="none" xmlns="http://www.w3.org/2000/svg">
<path fill-rule="evenodd" clip-rule="evenodd" d="M28 7C29.6563 7 31 8.34372 31 10V19V21V26C31 27.6563 29.6563 29 28 29H8C6.34372 29 5 27.6563 5 26V21V19V10C5 8.34372 6.34372 7 8 7H28ZM7 21V26C7 26.5517 7.44828 27 8 27H28C28.5517 27 29 26.5517 29 26V21H23.3553C22.2156 22.8393 20.2128 24 17.993 24C15.7738 24 13.7704 22.8389 12.6315 21H7ZM29 19H22.767C22.3854 19 22.037 19.2172 21.8691 19.5599C21.1414 21.0445 19.6559 22 17.993 22C16.3307 22 14.8446 21.0442 14.1181 19.5603C13.9503 19.2174 13.6018 19 13.22 19H7V10C7 9.44828 7.44828 9 8 9H28C28.5517 9 29 9.44828 29 10V19ZM27 13H9V11H27V13ZM9 17H27V15H9V17Z" fill="black"/>
</svg>
