<svg width="36" height="36" viewBox="0 0 36 36" fill="none" xmlns="http://www.w3.org/2000/svg">
<path fill-rule="evenodd" clip-rule="evenodd" d="M30 8C30.5523 8 31 8.44772 31 9V27C31 27.5523 30.5523 28 30 28H6C5.44772 28 5 27.5523 5 27V9C5 8.44772 5.44772 8 6 8H30ZM29 10H7V26H29V10ZM26 15C26.553 15 27 14.552 27 14C27 13.448 26.553 13 26 13C25.447 13 25 13.448 25 14C25 14.552 25.447 15 26 15ZM16 16.6667L21.2 23.6C21.5314 24.0418 22.1582 24.1314 22.6 23.8C23.0418 23.4686 23.1314 22.8418 22.8 22.4L16.8 14.4C16.4 13.8667 15.6 13.8667 15.2 14.4L9.2 22.4C8.86863 22.8418 8.95817 23.4686 9.4 23.8C9.84183 24.1314 10.4686 24.0418 10.8 23.6L16 16.6667ZM22.3 16.4L26.8 22.4C27.1314 22.8418 27.0418 23.4686 26.6 23.8C26.1582 24.1314 25.5314 24.0418 25.2 23.6L20.7 17.6C20.3686 17.1582 20.4582 16.5314 20.9 16.2C21.3418 15.8686 21.9686 15.9582 22.3 16.4Z" fill="black"/>
</svg>
