<svg width="36" height="36" viewBox="0 0 36 36" fill="none" xmlns="http://www.w3.org/2000/svg">
<path fill-rule="evenodd" clip-rule="evenodd" d="M27 6C28.6563 6 30 7.34372 30 9V27C30 28.6563 28.6563 30 27 30H9C7.34372 30 6 28.6563 6 27V9C6 7.34372 7.34372 6 9 6H27ZM27 8H9C8.44828 8 8 8.44828 8 9V27C8 27.5517 8.44828 28 9 28H27C27.5517 28 28 27.5517 28 27V9C28 8.44828 27.5517 8 27 8ZM15 18V14H19C20.1047 14 21 14.8953 21 16C21 17.1047 20.1047 18 19 18H15ZM15 20H19C21.2093 20 23 18.2093 23 16C23 13.7907 21.2093 12 19 12H14C13.4477 12 13 12.4477 13 13V23C13 23.5523 13.4477 24 14 24C14.5523 24 15 23.5523 15 23V20Z" fill="black"/>
</svg>
