<svg width="36" height="36" viewBox="0 0 36 36" fill="none" xmlns="http://www.w3.org/2000/svg">
<path fill-rule="evenodd" clip-rule="evenodd" d="M14.1289 16.8143C15.7021 14.3505 19.2996 14.3505 20.8716 16.8144L25.3616 23.8474C27.0615 26.51 25.1495 29.9995 21.9907 29.9995H13.0107C9.85111 29.9995 7.93875 26.5102 9.63883 23.8474L14.1289 16.8143ZM11.3246 24.9236L11.2479 25.0537C10.5368 26.3658 11.4815 27.9995 13.0107 27.9995H21.9907C23.57 27.9995 24.5258 26.255 23.6758 24.9236L19.1857 17.8903C18.3998 16.6585 16.6013 16.6585 15.8146 17.8906L11.3246 24.9236ZM8.25 13.125C9.97625 13.125 11.375 14.5238 11.375 16.25C11.375 17.9762 9.97625 19.375 8.25 19.375C6.52375 19.375 5.125 17.9762 5.125 16.25C5.125 14.5238 6.52375 13.125 8.25 13.125ZM8.25 14.875C7.49025 14.875 6.875 15.4902 6.875 16.25C6.875 17.0098 7.49025 17.625 8.25 17.625C9.00975 17.625 9.625 17.0098 9.625 16.25C9.625 15.4902 9.00975 14.875 8.25 14.875ZM26.75 13.125C28.4762 13.125 29.875 14.5238 29.875 16.25C29.875 17.9762 28.4762 19.375 26.75 19.375C25.0238 19.375 23.625 17.9762 23.625 16.25C23.625 14.5238 25.0238 13.125 26.75 13.125ZM26.75 14.875C25.9902 14.875 25.375 15.4902 25.375 16.25C25.375 17.0098 25.9902 17.625 26.75 17.625C27.5098 17.625 28.125 17.0098 28.125 16.25C28.125 15.4902 27.5098 14.875 26.75 14.875ZM13.75 7.125C15.4762 7.125 16.875 8.52375 16.875 10.25C16.875 11.9762 15.4762 13.375 13.75 13.375C12.0238 13.375 10.625 11.9762 10.625 10.25C10.625 8.52375 12.0238 7.125 13.75 7.125ZM13.75 8.875C12.9902 8.875 12.375 9.49025 12.375 10.25C12.375 11.0098 12.9902 11.625 13.75 11.625C14.5098 11.625 15.125 11.0098 15.125 10.25C15.125 9.49025 14.5098 8.875 13.75 8.875ZM21.25 7.125C22.9762 7.125 24.375 8.52375 24.375 10.25C24.375 11.9762 22.9762 13.375 21.25 13.375C19.5238 13.375 18.125 11.9762 18.125 10.25C18.125 8.52375 19.5238 7.125 21.25 7.125ZM21.25 8.875C20.4902 8.875 19.875 9.49025 19.875 10.25C19.875 11.0098 20.4902 11.625 21.25 11.625C22.0098 11.625 22.625 11.0098 22.625 10.25C22.625 9.49025 22.0098 8.875 21.25 8.875Z" fill="black"/>
</svg>
