<svg width="36" height="36" viewBox="0 0 36 36" fill="none" xmlns="http://www.w3.org/2000/svg">
<path fill-rule="evenodd" clip-rule="evenodd" d="M19 7.20105V10.0001H13C12.4477 10.0001 12 10.4478 12 11.0001C12 11.5523 12.4477 12.0001 13 12.0001H26V29H10V10.5241C10 9.55168 10.6999 8.72001 11.6584 8.55325L19 7.20105ZM21 10.0001V6.00005C21 5.37521 20.4334 4.90341 19.8189 5.01659L11.3059 6.58459C9.39941 6.91622 8 8.57913 8 10.5241V29.0001C8 30.1045 8.89491 31.0001 10 31.0001H26C27.1051 31.0001 28 30.1045 28 29.0001V12.0001C28 10.8956 27.1051 10.0001 26 10.0001H21ZM20.4883 14.8775C19.5883 14.8775 18.6873 15.2225 18.0003 15.9115C17.3123 15.2225 16.4123 14.8775 15.5113 14.8775C14.3883 14.8775 13.2653 15.4125 12.5563 16.4835C11.6273 17.8875 11.9003 19.7755 13.0903 20.9685L16.6913 24.5795C17.0523 24.9415 17.5263 25.1225 18.0003 25.1225C18.4733 25.1225 18.9473 24.9415 19.3083 24.5795L22.9103 20.9685C24.0993 19.7755 24.3733 17.8875 23.4433 16.4835C22.7343 15.4125 21.6113 14.8775 20.4883 14.8775ZM20.4883 16.8775C21.0083 16.8775 21.4763 17.1365 21.7753 17.5875C22.1583 18.1655 22.0373 19.0115 21.4943 19.5555L18.0003 23.0595L14.5063 19.5555C13.9633 19.0115 13.8423 18.1655 14.2243 17.5875C14.5233 17.1365 14.9923 16.8775 15.5113 16.8775C15.9163 16.8775 16.2973 17.0355 16.5843 17.3235L18.0003 18.7435L19.4163 17.3235C19.7033 17.0355 20.0843 16.8775 20.4883 16.8775Z" fill="black"/>
</svg>
