<svg width="36" height="36" viewBox="0 0 36 36" fill="none" xmlns="http://www.w3.org/2000/svg">
<path fill-rule="evenodd" clip-rule="evenodd" d="M20.4466 10.7103L24.2485 6.90932C25.6044 5.55062 28.1505 5.85921 29.551 7.26123C30.9539 8.66264 31.2633 11.2084 29.9054 12.5648L26.1037 16.3665L28.4027 26.9124C28.5467 27.5781 28.3424 28.2718 27.8616 28.7506L26.1274 30.4858C25.3457 31.2675 24.0779 31.2675 23.2982 30.4858C23.2084 30.396 23.1274 30.2971 23.0482 30.1814L18.7447 23.7261L15.7664 26.703L16.002 28.9589C16.0639 29.5584 15.8523 30.1529 15.4266 30.5786L13.3786 32.6276C12.9168 33.0897 12.1431 32.9921 11.8106 32.4298L9.05026 27.7627L4.38323 25.0024C3.82085 24.6698 3.7233 23.896 4.18554 23.4342L6.23254 21.3893C6.65853 20.9613 7.25478 20.75 7.85585 20.8121L10.11 21.0468L13.0877 18.069L6.63964 13.7694C6.52693 13.6956 6.42264 13.6103 6.32719 13.5148C5.54682 12.7344 5.54682 11.469 6.32719 10.6866L8.06366 8.95013C8.54502 8.47077 9.23746 8.26747 9.9023 8.41165L20.4466 10.7103ZM24.713 29.0718L26.4487 27.3351L24.4233 18.0473L20.1866 22.2833L24.713 29.0718ZM17.8255 21.8171L14.0154 25.6254C13.8021 25.8386 13.6964 26.1366 13.7277 26.4366L14.0122 29.1646L12.8756 30.3018L10.641 26.5236C10.5553 26.3787 10.4343 26.2577 10.2894 26.172L6.51153 23.9376L7.64951 22.8014L10.3768 23.0853C10.6765 23.1165 10.9743 23.0109 11.1874 22.7978L15.3644 18.6208C15.8106 18.1746 15.7371 17.4318 15.2121 17.0817L7.74231 12.0999L9.47736 10.366L20.5543 12.7808C20.8869 12.8533 21.2336 12.7516 21.4743 12.5109L25.6633 8.32289C26.153 7.83226 27.4518 7.98968 28.1368 8.67545C28.8237 9.36162 28.9816 10.6607 28.4916 11.1502L24.3032 15.3386C24.2964 15.3454 24.2896 15.3523 24.283 15.3594L17.8546 21.7867C17.8447 21.7967 17.835 21.8068 17.8255 21.8171Z" fill="black"/>
</svg>
