<svg width="36" height="36" viewBox="0 0 36 36" fill="none" xmlns="http://www.w3.org/2000/svg">
<path fill-rule="evenodd" clip-rule="evenodd" d="M26 6C26.5523 6 27 6.44772 27 7V29C27 29.5523 26.5523 30 26 30H10C9.44772 30 9 29.5523 9 29V7C9 6.44772 9.44772 6 10 6H26ZM25 8H11V28H25V8ZM18 9.939C20.2093 9.939 22 11.7297 22 13.939C22 16.1483 20.2093 17.939 18 17.939C15.7907 17.939 14 16.1483 14 13.939C14 11.7297 15.7907 9.939 18 9.939ZM18 11.939C16.8953 11.939 16 12.8343 16 13.939C16 15.0437 16.8953 15.939 18 15.939C19.1047 15.939 20 15.0437 20 13.939C20 12.8343 19.1047 11.939 18 11.939ZM13 23H22.892V21H13V23ZM15 26H21V24H15V26Z" fill="black"/>
</svg>
