<svg width="36" height="36" viewBox="0 0 36 36" fill="none" xmlns="http://www.w3.org/2000/svg">
<path fill-rule="evenodd" clip-rule="evenodd" d="M18.0002 6.9996C24.3505 6.9996 29.5002 12.1323 29.5002 18.4646C29.5002 19.0827 29.4512 19.6938 29.3542 20.2943C30.6081 21.1085 31.4023 22.5148 31.4023 24.0684C31.4023 26.5547 29.3886 28.5684 26.9023 28.5684C24.4167 28.5684 22.4023 26.5544 22.4023 24.0684C22.4023 21.5831 24.417 19.5684 26.9023 19.5684C27.0806 19.5684 27.2577 19.5789 27.4327 19.5995C27.4776 19.2257 27.5002 18.847 27.5002 18.4646C27.5002 13.2384 23.2474 8.9996 18.0002 8.9996C12.753 8.9996 8.5002 13.2384 8.5002 18.4646C8.5002 19.3175 8.613 20.1538 8.83349 20.96L10.5693 19.9579C11.236 19.573 12.0693 20.0541 12.0693 20.8239V27.4619C12.0693 28.2317 11.236 28.7128 10.5693 28.3279L4.82032 25.0089C4.15362 24.624 4.15363 23.6618 4.82032 23.2769L7.05347 21.9876C6.68823 20.8591 6.5002 19.6743 6.5002 18.4646C6.5002 12.1323 11.6499 6.9996 18.0002 6.9996ZM8.74038 23.322L7.32 24.142L10.069 25.729V22.555L8.82305 23.2743C8.79649 23.2914 8.76892 23.3073 8.74038 23.322ZM27.8493 21.7544C27.5516 21.6321 27.2321 21.5684 26.9023 21.5684C25.5216 21.5684 24.4023 22.6877 24.4023 24.0684C24.4023 25.4497 25.5212 26.5684 26.9023 26.5684C28.284 26.5684 29.4023 25.4501 29.4023 24.0684C29.4023 23.0441 28.7817 22.1358 27.8493 21.7544Z" fill="black"/>
</svg>
