<svg width="36" height="36" viewBox="0 0 36 36" fill="none" xmlns="http://www.w3.org/2000/svg">
<path fill-rule="evenodd" clip-rule="evenodd" d="M18 5C25.1793 5 31 10.8207 31 18C31 25.1793 25.1793 31 18 31C10.8207 31 5 25.1793 5 18C5 10.8207 10.8207 5 18 5ZM18 7C11.9253 7 7 11.9253 7 18C7 24.0747 11.9253 29 18 29C24.0747 29 29 24.0747 29 18C29 11.9253 24.0747 7 18 7ZM14 13C14 12.2146 14.864 11.7357 15.53 12.152L23.53 17.152C24.1567 17.5437 24.1567 18.4563 23.53 18.848L15.53 23.848C14.864 24.2643 14 23.7854 14 23V13ZM16 21.1958L21.1132 18L16 14.8042V21.1958Z" fill="black"/>
</svg>
