<svg width="36" height="36" viewBox="0 0 36 36" fill="none" xmlns="http://www.w3.org/2000/svg">
<path fill-rule="evenodd" clip-rule="evenodd" d="M21 24C25.4183 24 29 20.4183 29 16V15C29 10.0297 24.9703 6 20 6C19.4477 6 19 6.44772 19 7V15H10H7C6.44772 15 6 15.4477 6 16C6 16.5523 6.44772 17 7 17H9.06189C9.55399 20.9463 12.9204 24 17 24H21ZM21 8.0709V15H27C27 11.4738 24.3921 8.5562 21 8.0709ZM17 22C14.1096 22 11.6965 19.9562 11.1272 17.2349L11.083 17H26.917C26.441 19.8377 23.973 22 21 22H17ZM16 28C16 26.3437 14.6563 25 13 25C11.3437 25 10 26.3437 10 28C10 29.6563 11.3437 31 13 31C14.6563 31 16 29.6563 16 28ZM13 27C12.4483 27 12 27.4483 12 28C12 28.5517 12.4483 29 13 29C13.5517 29 14 28.5517 14 28C14 27.4483 13.5517 27 13 27ZM25 25C26.6563 25 28 26.3437 28 28C28 29.6563 26.6563 31 25 31C23.3437 31 22 29.6563 22 28C22 26.3437 23.3437 25 25 25ZM25 27C24.4483 27 24 27.4483 24 28C24 28.5517 24.4483 29 25 29C25.5517 29 26 28.5517 26 28C26 27.4483 25.5517 27 25 27Z" fill="black"/>
</svg>
