<svg width="36" height="36" viewBox="0 0 36 36" fill="none" xmlns="http://www.w3.org/2000/svg">
<path fill-rule="evenodd" clip-rule="evenodd" d="M6 23C6.51284 23 6.93551 23.386 6.99327 23.8834L7 24V29H12C12.5523 29 13 29.4477 13 30C13 30.5128 12.614 30.9355 12.1166 30.9933L12 31H7C5.94514 31 5.08179 30.184 5.00548 29.1493L5 29V24C5 23.4477 5.44772 23 6 23ZM30 23C30.5128 23 30.9355 23.386 30.9933 23.8834L31 24V29C31 30.0543 30.1846 30.9182 29.1493 30.9945L29 31H24C23.4477 31 23 30.5523 23 30C23 29.4872 23.386 29.0645 23.8834 29.0067L24 29H29V24C29 23.4477 29.4477 23 30 23ZM25 21V25H21V21H25ZM15 21V25H11V21H15ZM19 23V25H17V23H19ZM21 15V21H15V19H19V17H15V19H13V17H15V15H21ZM25 17V19H23V17H25ZM15 11V15H11V11H15ZM25 11V15H21V11H25ZM19 11V13H17V11H19ZM24 5H29C30.0549 5 30.9182 5.81596 30.9945 6.85075L31 7V12C31 12.5523 30.5523 13 30 13C29.4872 13 29.0645 12.614 29.0067 12.1166L29 12V7H24C23.4477 7 23 6.55228 23 6C23 5.48716 23.386 5.06449 23.8834 5.00673L24 5H29H24ZM7 5H12C12.5523 5 13 5.44772 13 6C13 6.51284 12.614 6.93551 12.1166 6.99327L12 7H7V12C7 12.5523 6.55228 13 6 13C5.48716 13 5.06449 12.614 5.00673 12.1166L5 12V7C5 5.94573 5.8154 5.08184 6.85067 5.00549L7 5H12H7Z" fill="black"/>
</svg>
