<svg width="36" height="36" viewBox="0 0 36 36" fill="none" xmlns="http://www.w3.org/2000/svg">
<path fill-rule="evenodd" clip-rule="evenodd" d="M10.0002 5H26.0002C27.6525 5 29.0002 6.34772 29.0002 8V26C29.0002 27.6523 27.6525 29 26.0002 29H23L23.0002 31C23.0002 31.7384 22.2349 32.2087 21.5869 31.911L21.4857 31.8575L16.723 29H10.0002C8.4062 29 7.09679 27.7471 7.00529 26.1758L7.00018 26V8C7.00018 6.34745 8.34717 5 10.0002 5ZM26.0002 7H10.0002C9.45189 7 9.00018 7.45186 9.00018 8V26C9.00018 26.5481 9.45189 27 10.0002 27H17.0002C17.1814 27 17.3593 27.0493 17.5147 27.1425L21 29.234L21.0002 28C21.0002 27.4872 21.3862 27.0645 21.8836 27.0067L22.0002 27H26.0002C26.5479 27 27.0002 26.5477 27.0002 26V8C27.0002 7.45228 26.5479 7 26.0002 7ZM23.0237 10.9634C23.576 10.9634 24.0237 11.4111 24.0237 11.9634C24.0237 12.4762 23.6376 12.8989 23.1403 12.9567L23.0237 12.9634H16.0237C15.4714 12.9634 15.0237 12.5157 15.0237 11.9634C15.0237 11.4506 15.4097 11.0279 15.9071 10.9701L16.0237 10.9634H23.0237ZM24.0237 21.9634C24.0237 21.4111 23.576 20.9634 23.0237 20.9634H16.0237L15.9071 20.9701C15.4097 21.0279 15.0237 21.4506 15.0237 21.9634C15.0237 22.5157 15.4714 22.9634 16.0237 22.9634H23.0237L23.1403 22.9567C23.6376 22.8989 24.0237 22.4762 24.0237 21.9634ZM23.0237 15.9634C23.576 15.9634 24.0237 16.4111 24.0237 16.9634C24.0237 17.4762 23.6376 17.8989 23.1403 17.9567L23.0237 17.9634H16.0237C15.4714 17.9634 15.0237 17.5157 15.0237 16.9634C15.0237 16.4506 15.4097 16.0279 15.9071 15.9701L16.0237 15.9634H23.0237ZM14.0393 11.9634C14.0393 11.4111 13.5916 10.9634 13.0393 10.9634H12.9773L12.8607 10.9701C12.3633 11.0279 11.9773 11.4506 11.9773 11.9634C11.9773 12.5157 12.425 12.9634 12.9773 12.9634H13.0393L13.1559 12.9567C13.6532 12.8989 14.0393 12.4762 14.0393 11.9634ZM13.0393 20.8491C13.5916 20.8491 14.0393 21.2968 14.0393 21.8491C14.0393 22.3619 13.6532 22.7846 13.1559 22.8424L13.0393 22.8491H12.9773C12.425 22.8491 11.9773 22.4014 11.9773 21.8491C11.9773 21.3363 12.3633 20.9136 12.8607 20.8558L12.9773 20.8491H13.0393ZM14.0393 16.9062C14.0393 16.3539 13.5916 15.9062 13.0393 15.9062H12.9773L12.8607 15.9129C12.3633 15.9707 11.9773 16.3934 11.9773 16.9062C11.9773 17.4585 12.425 17.9062 12.9773 17.9062H13.0393L13.1559 17.8995C13.6532 17.8417 14.0393 17.419 14.0393 16.9062Z" fill="black"/>
</svg>
