<svg width="36" height="36" viewBox="0 0 36 36" fill="none" xmlns="http://www.w3.org/2000/svg">
<path fill-rule="evenodd" clip-rule="evenodd" d="M22 10C23.6563 10 25 11.3437 25 13V23C25 24.6563 23.6563 26 22 26H14C12.3437 26 11 24.6563 11 23V13C11 11.3437 12.3437 10 14 10H22ZM22 12H14C13.4483 12 13 12.4483 13 13V23C13 23.5517 13.4483 24 14 24H22C22.5517 24 23 23.5517 23 23V13C23 12.4483 22.5517 12 22 12ZM14 9H22C22.5523 9 23 8.55228 23 8C23 7.44772 22.5523 7 22 7H14C13.4477 7 13 7.44772 13 8C13 8.55228 13.4477 9 14 9ZM14 29H22C22.5523 29 23 28.5523 23 28C23 27.4477 22.5523 27 22 27H14C13.4477 27 13 27.4477 13 28C13 28.5523 13.4477 29 14 29Z" fill="black"/>
</svg>
