<svg width="36" height="36" viewBox="0 0 36 36" fill="none" xmlns="http://www.w3.org/2000/svg">
<path fill-rule="evenodd" clip-rule="evenodd" d="M24 9C25.6563 9 27 10.3437 27 12V21C27 22.6563 25.6563 24 24 24H10C8.34372 24 7 22.6563 7 21V12C7 10.3437 8.34372 9 10 9H24ZM24 11H10C9.44828 11 9 11.4483 9 12V21C9 21.5517 9.44828 22 10 22H24C24.5517 22 25 21.5517 25 21V12C25 11.4483 24.5517 11 24 11ZM29 16V17C29 17.5523 29.4477 18 30 18C30.5523 18 31 17.5523 31 17V16C31 15.4477 30.5523 15 30 15C29.4477 15 29 15.4477 29 16ZM29 20.5908V22.3868C29 22.9391 29.4477 23.3868 30 23.3868C30.5523 23.3868 31 22.9391 31 22.3868V20.5908C31 20.0385 30.5523 19.5908 30 19.5908C29.4477 19.5908 29 20.0385 29 20.5908ZM28.8812 25.4733C28.7502 25.716 28.525 25.8942 28.2615 25.9654L28.1464 25.9893C27.5999 26.0688 27.2213 26.5763 27.3009 27.1229C27.3804 27.6694 27.8879 28.048 28.4345 27.9684C29.3769 27.8313 30.1933 27.2533 30.6413 26.4232C30.9036 25.9372 30.7222 25.3305 30.2362 25.0682C29.7849 24.8247 29.2296 24.9636 28.9425 25.3739L28.8812 25.4733ZM24.6964 25.9998H22.9004C22.3482 25.9998 21.9004 26.4475 21.9004 26.9998C21.9004 27.5521 22.3482 27.9998 22.9004 27.9998H24.6964C25.2487 27.9998 25.6964 27.5521 25.6964 26.9998C25.6964 26.4475 25.2487 25.9998 24.6964 25.9998ZM19.3094 25.9998H17.5134C16.9612 25.9998 16.5134 26.4475 16.5134 26.9998C16.5134 27.5521 16.9612 27.9998 17.5134 27.9998H19.3094C19.8617 27.9998 20.3094 27.5521 20.3094 26.9998C20.3094 26.4475 19.8617 25.9998 19.3094 25.9998ZM14 26H13C12.4477 26 12 26.4477 12 27C12 27.5523 12.4477 28 13 28H14C14.5523 28 15 27.5523 15 27C15 26.4477 14.5523 26 14 26Z" fill="black"/>
</svg>
