<svg width="36" height="36" viewBox="0 0 36 36" fill="none" xmlns="http://www.w3.org/2000/svg">
<path fill-rule="evenodd" clip-rule="evenodd" d="M26 5H10C8.34372 5 7 6.34372 7 8V28C7 29.6563 8.34372 31 10 31H26C27.6563 31 29 29.6563 29 28V8C29 6.34372 27.6563 5 26 5ZM10 7H26C26.5517 7 27 7.44828 27 8V28C27 28.5517 26.5517 29 26 29H10C9.44828 29 9 28.5517 9 28V8C9 7.44828 9.44828 7 10 7ZM24 13V11H12V13H24ZM24 16V18H12V16H24ZM13.5078 23.167C14.1528 23.167 14.6738 22.645 14.6738 22C14.6738 21.355 14.1528 20.833 13.5078 20.833C12.8628 20.833 12.3408 21.355 12.3408 22C12.3408 22.645 12.8628 23.167 13.5078 23.167ZM19.167 22C19.167 22.645 18.645 23.167 18 23.167C17.355 23.167 16.833 22.645 16.833 22C16.833 21.355 17.355 20.833 18 20.833C18.645 20.833 19.167 21.355 19.167 22ZM22.4922 23.167C23.1372 23.167 23.6592 22.645 23.6592 22C23.6592 21.355 23.1372 20.833 22.4922 20.833C21.8472 20.833 21.3262 21.355 21.3262 22C21.3262 22.645 21.8472 23.167 22.4922 23.167Z" fill="black"/>
</svg>
