<svg width="36" height="36" viewBox="0 0 36 36" fill="none" xmlns="http://www.w3.org/2000/svg">
<path fill-rule="evenodd" clip-rule="evenodd" d="M17 12C17 14.1833 15.1833 16 13 16H10.9891L10.9922 17.15H13C13.4694 17.15 13.85 17.5306 13.85 18C13.85 18.4694 13.4694 18.85 13 18.85H10.9969L11 19.9973C11.0015 20.5496 10.555 20.9985 10.0027 21C9.45044 21.0015 9.00151 20.555 9 20.0027L8.99686 18.85H8C7.53056 18.85 7.15 18.4694 7.15 18C7.15 17.5306 7.53056 17.15 8 17.15H8.99222L8.98909 16H8C7.44772 16 7 15.5523 7 15C7 14.4477 7.44772 14 8 14H8.98363L8.97 9.00273C8.96849 8.44938 9.41665 8 9.97 8H12.923C15.1131 8 17 9.8227 17 12ZM10.9727 10L10.9836 14H13C14.0787 14 15 13.0787 15 12C15 10.9431 14.0237 10 12.923 10H10.9727ZM25.817 11.5767L13.817 28.5767C13.4985 29.0279 12.8745 29.1355 12.4233 28.817C11.9721 28.4985 11.8645 27.8745 12.183 27.4233L24.183 10.4233C24.5015 9.97212 25.1255 9.86454 25.5767 10.183C26.0279 10.5015 26.1355 11.1255 25.817 11.5767ZM25 23V21C25 20.4477 25.4477 20 26 20C26.5523 20 27 20.4477 27 21V23H29C29.5523 23 30 23.4477 30 24C30 24.5523 29.5523 25 29 25H27V27C27 27.5523 26.5523 28 26 28C25.4477 28 25 27.5523 25 27V25H23C22.4477 25 22 24.5523 22 24C22 23.4477 22.4477 23 23 23H25Z" fill="black"/>
</svg>
