<svg width="36" height="36" viewBox="0 0 36 36" fill="none" xmlns="http://www.w3.org/2000/svg">
<path fill-rule="evenodd" clip-rule="evenodd" d="M10 5H8V31H10V5ZM28 5H26V31H28V5ZM19 27H17V31H19V27ZM19 5H17V9H19V5ZM16 12H19.5C21.4 12 23 13.6 23 15.5C23 17.4 21.4 19 19.5 19H17V20H19C19.6 20 20 20.4 20 21C20 21.6 19.6 22 19 22H17V23C17 23.6 16.6 24 16 24C15.4 24 15 23.6 15 23V22H14C13.4 22 13 21.6 13 21C13 20.4 13.4 20 14 20H15V13C15 12.4 15.4 12 16 12ZM17 17H19.5C20.3 17 21 16.3 21 15.5C21 14.7 20.3 14 19.5 14H17V17Z" fill="black"/>
</svg>
