<svg width="36" height="36" viewBox="0 0 36 36" fill="none" xmlns="http://www.w3.org/2000/svg">
<path fill-rule="evenodd" clip-rule="evenodd" d="M10 4C7.79072 4 6 5.79072 6 8C6 10.2093 7.79072 12 10 12C12.2093 12 14 10.2093 14 8C14 5.79072 12.2093 4 10 4ZM10 10C8.89528 10 8 9.10472 8 8C8 6.89528 8.89528 6 10 6C11.1047 6 12 6.89528 12 8C12 9.10472 11.1047 10 10 10ZM16 8C16 7.44772 16.4477 7 17 7H24C27.3123 7 30 9.68772 30 13C30 16.3123 27.3123 19 24 19H12C9.7921 19 8 20.791 8 23C8 25.209 9.7921 27 12 27H19C19.5523 27 20 27.4477 20 28C20 28.5523 19.5523 29 19 29H12C8.6879 29 6 26.3139 6 23C6 19.6861 8.6879 17 12 17H24C26.2077 17 28 15.2077 28 13C28 10.7923 26.2077 9 24 9H17C16.4477 9 16 8.55228 16 8ZM30.7071 25.2071C31.0976 24.8166 31.0976 24.1834 30.7071 23.7929C30.3166 23.4024 29.6834 23.4024 29.2929 23.7929L25 28.0858L23.2071 26.2929C22.8166 25.9024 22.1834 25.9024 21.7929 26.2929C21.4024 26.6834 21.4024 27.3166 21.7929 27.7071L24.2929 30.2071C24.6834 30.5976 25.3166 30.5976 25.7071 30.2071L30.7071 25.2071Z" fill="black"/>
</svg>
