<svg width="36" height="36" viewBox="0 0 36 36" fill="none" xmlns="http://www.w3.org/2000/svg">
<path fill-rule="evenodd" clip-rule="evenodd" d="M14.1756 14.7535L10.7213 18.2078L10.7041 18.2246L10.6873 18.2418L7.23301 21.6961C7.22722 21.7016 7.22148 21.7072 7.21579 21.7129C7.21011 21.7186 7.2045 21.7243 7.19898 21.7301L4.29289 24.6362C3.90237 25.0267 3.90237 25.6599 4.29289 26.0504L9.94989 31.7074C10.3404 32.0979 10.9736 32.0979 11.3641 31.7074L31.1631 11.9084C31.5536 11.5179 31.5536 10.8847 31.1631 10.4942L25.5061 4.8372C25.1156 4.44668 24.4824 4.44668 24.0919 4.8372L21.1839 7.74521L21.169 7.7598L21.1544 7.7747L17.6956 11.2335L17.6807 11.2481L17.6661 11.263L14.2096 14.7195L14.1924 14.7363L14.1756 14.7535ZM7.92288 23.8342L6.414 25.343L10.657 29.586L29.041 11.201L24.799 6.95901L23.2907 8.46726L25.0382 10.2148C25.4287 10.6053 25.4287 11.2385 25.0382 11.629C24.6777 11.9895 24.1105 12.0172 23.7182 11.7122L23.624 11.629L21.8764 9.88144L19.8023 11.9555L21.5499 13.7031C21.9404 14.0936 21.9404 14.7268 21.5499 15.1173C21.1894 15.4778 20.6222 15.5055 20.2299 15.2005L20.1357 15.1173L18.388 13.3696L16.3139 15.4436L18.0616 17.1913C18.4521 17.5818 18.4521 18.215 18.0616 18.6055C17.7011 18.966 17.1339 18.9937 16.7416 18.6887L16.6474 18.6055L14.8997 16.8578L12.8255 18.9318L14.5733 20.6796C14.9638 21.0701 14.9638 21.7033 14.5733 22.0938C14.2128 22.4543 13.6456 22.482 13.2533 22.177L13.1591 22.0938L11.4113 20.346L9.33714 22.42L11.085 24.1679C11.4755 24.5584 11.4755 25.1916 11.085 25.5821C10.7245 25.9426 10.1573 25.9703 9.765 25.6653L9.67079 25.5821L7.92288 23.8342Z" fill="black"/>
</svg>
