<svg width="36" height="36" viewBox="0 0 36 36" fill="none" xmlns="http://www.w3.org/2000/svg">
<path fill-rule="evenodd" clip-rule="evenodd" d="M11 15C13.1833 15 15 13.1833 15 11C15 8.8227 13.1131 7 10.923 7H7.97C7.41665 7 6.96849 7.44938 6.97 8.00273L6.98363 13H6C5.44772 13 5 13.4477 5 14C5 14.5523 5.44772 15 6 15H6.98909L6.99222 16.15H6C5.53056 16.15 5.15 16.5306 5.15 17C5.15 17.4694 5.53056 17.85 6 17.85H6.99686L7 19.0027C7.00151 19.555 7.45044 20.0015 8.00273 20C8.55501 19.9985 9.0015 19.5496 9 18.9973L8.99687 17.85H11C11.4694 17.85 11.85 17.4694 11.85 17C11.85 16.5306 11.4694 16.15 11 16.15H8.99223L8.98909 15H11ZM8.97273 9L8.98364 13H11C12.0787 13 13 12.0787 13 11C13 9.94307 12.0237 9 10.923 9H8.97273ZM27.043 28H27V28.5C27 29.0523 26.5523 29.5 26 29.5C25.4477 29.5 25 29.0523 25 28.5V28H24.043C23.4907 28 23.043 27.5523 23.043 27C23.043 26.4477 23.4907 26 24.043 26H26H27.043C27.5569 26 28 25.5435 28 25C28 24.4565 27.5569 24 27.043 24H24.957C23.3249 24 22 22.6349 22 21C22 19.3818 23.3832 18.0235 25 18.0003V17.5C25 16.9477 25.4477 16.5 26 16.5C26.5523 16.5 27 16.9477 27 17.5V18H28C28.5523 18 29 18.4477 29 19C29 19.5523 28.5523 20 28 20H26H25.042C24.4993 20 24 20.4853 24 21C24 21.5435 24.4431 22 24.957 22H27.043C28.6751 22 30 23.3651 30 25C30 26.6349 28.6751 28 27.043 28ZM23.817 10.5767L11.817 27.5767C11.4985 28.0279 10.8745 28.1355 10.4233 27.817C9.97212 27.4985 9.86454 26.8745 10.183 26.4233L22.183 9.42332C22.5015 8.97212 23.1255 8.86454 23.5767 9.18303C24.0279 9.50153 24.1355 10.1255 23.817 10.5767Z" fill="black"/>
</svg>
