<svg width="36" height="36" viewBox="0 0 36 36" fill="none" xmlns="http://www.w3.org/2000/svg">
<path fill-rule="evenodd" clip-rule="evenodd" d="M23.5 10.1187V7.44671C23.5 6.06832 22.5616 4.86382 21.2256 4.52534C18.4543 3.82454 15.5457 3.82454 12.7748 4.52523C11.4384 4.86382 10.5 6.06832 10.5 7.44671V10.1187C10.5 10.2064 10.5113 10.2914 10.5325 10.3724C8.37134 12.2067 7 14.943 7 18C7 21.057 8.37134 23.7934 10.5325 25.6276C10.5113 25.7086 10.5 25.7936 10.5 25.8813V28.5533C10.5 29.9317 11.4384 31.1362 12.7744 31.4747C15.5457 32.1755 18.4543 32.1755 21.2252 31.4748C22.5616 31.1362 23.5 29.9317 23.5 28.5533V25.8813C23.5 25.7936 23.4887 25.7086 23.4675 25.6276C25.6287 23.7934 27 21.057 27 18C27 14.943 25.6287 12.2067 23.4675 10.3724C23.4887 10.2914 23.5 10.2064 23.5 10.1187ZM21.5 9.06713C20.1474 8.38449 18.6187 8.00001 17 8.00001C15.3813 8.00001 13.8526 8.38449 12.5 9.06713V7.44671C12.5 6.98415 12.8165 6.57786 13.2656 6.46408C15.7143 5.84488 18.2857 5.84488 20.7348 6.46419C21.1835 6.57786 21.5 6.98415 21.5 7.44671V9.06713ZM21.5 26.9329C20.1474 27.6155 18.6187 28 17 28C15.3813 28 13.8526 27.6155 12.5 26.9329V28.5533C12.5 29.0159 12.8165 29.4222 13.2652 29.5358C15.7143 30.1551 18.2857 30.1551 20.7344 29.5359C21.1835 29.4222 21.5 29.0159 21.5 28.5533V26.9329ZM17 10C12.5813 10 9 13.5813 9 18C9 22.4187 12.5813 26 17 26C21.4187 26 25 22.4187 25 18C25 13.5813 21.4187 10 17 10ZM15.0571 18.3223C14.5048 18.3223 14.0571 18.77 14.0571 19.3223C14.0571 19.8746 14.5048 20.3223 15.0571 20.3223H17.9431C18.4954 20.3223 18.9431 19.8746 18.9431 19.3223V14.5513C18.9431 13.999 18.4954 13.5513 17.9431 13.5513C17.3908 13.5513 16.9431 13.999 16.9431 14.5513V18.3223H15.0571ZM29 20C28.4477 20 28 19.5523 28 19V17C28 16.4477 28.4477 16 29 16C29.5523 16 30 16.4477 30 17V19C30 19.5523 29.5523 20 29 20Z" fill="black"/>
</svg>
