<svg width="36" height="36" viewBox="0 0 36 36" fill="none" xmlns="http://www.w3.org/2000/svg">
<path fill-rule="evenodd" clip-rule="evenodd" d="M9.2218 25.364L7.80762 23.9498L2.86069 28.8967L4.2749 30.3109L9.2218 25.364ZM10.636 26.7782L12.0503 28.1924L8.86759 31.3751L7.45338 29.9609L10.636 26.7782ZM23.5467 5.19143C25.0608 5.08458 26.6292 5.1066 27.8095 5.15392C28.6982 5.18954 29.3771 5.23993 29.666 5.26331C29.8977 5.28207 30.1291 5.30358 30.3606 5.32508C30.4565 5.334 30.5525 5.34291 30.6484 5.35163L30.7238 6.18157C30.7756 6.85069 30.8192 7.51987 30.8461 8.19056C30.8934 9.37083 30.9154 10.9392 30.8086 12.4534C30.6613 14.5407 29.5778 16.3419 28.1501 17.687C27.1527 18.6267 26.1095 19.5762 25.0842 20.4898L25.6586 26.0424C25.7432 26.8595 25.3194 27.6452 24.5903 28.0235L19.3167 30.7594C19.0526 30.8964 18.7412 30.9087 18.4672 30.793L14.4897 29.1137C14.1695 28.9785 13.9425 28.6868 13.8901 28.3432C13.8377 27.9996 13.9674 27.6535 14.2327 27.429L15.7012 26.1865L9.8135 20.2988L8.57101 21.7673C8.34652 22.0326 8.00039 22.1623 7.65683 22.1099C7.31327 22.0575 7.02155 21.8305 6.88637 21.5103L5.20699 17.5328C5.09128 17.2588 5.10359 16.9474 5.24059 16.6833L7.97652 11.4097C8.35481 10.6806 9.1405 10.2568 9.9576 10.3414L15.5248 10.9173C16.4455 9.88161 17.3937 8.8362 18.3151 7.8538C19.6582 6.42192 21.4592 5.33873 23.5467 5.19143ZM17.0663 24.7232L11.2794 18.9362C11.3539 18.8464 11.4351 18.7489 11.5224 18.6442C12.0422 18.0205 12.7799 17.1415 13.6502 16.1209C15.3926 14.0778 17.6597 11.476 19.7739 9.22205C20.8659 8.05781 22.2243 7.28972 23.6874 7.18647C25.0984 7.0869 26.5855 7.10645 27.7294 7.15231C28.1365 7.16863 28.4977 7.18818 28.7935 7.20654C28.8118 7.5023 28.8314 7.86351 28.8477 8.27067C28.8936 9.41457 28.9131 10.9016 28.8135 12.3126C28.7103 13.7758 27.9417 15.1355 26.7787 16.2313C24.4424 18.4324 21.8407 20.698 19.819 22.4165C18.8091 23.275 17.9458 23.9954 17.3353 24.5008C17.2392 24.5804 17.1494 24.6546 17.0663 24.7232ZM13.5991 12.7287L9.7518 12.3308L7.23216 17.1875L8.0957 19.2327L13.5991 12.7287ZM23.6692 26.2482L23.2712 22.4009L16.7673 27.9043L18.8125 28.7679L23.6692 26.2482ZM24.7782 11.2218C23.6066 10.0503 21.7071 10.0503 20.5355 11.2218C19.364 12.3934 19.364 14.2929 20.5355 15.4645C21.7071 16.6361 23.6066 16.6361 24.7782 15.4645C25.9498 14.2929 25.9498 12.3934 24.7782 11.2218ZM23.364 12.6361C22.9734 12.2455 22.3403 12.2455 21.9498 12.6361C21.5592 13.0266 21.5592 13.6597 21.9498 14.0503C22.3403 14.4408 22.9734 14.4408 23.364 14.0503C23.7545 13.6597 23.7545 13.0266 23.364 12.6361Z" fill="black"/>
</svg>
