<svg width="36" height="36" viewBox="0 0 36 36" fill="none" xmlns="http://www.w3.org/2000/svg">
<path fill-rule="evenodd" clip-rule="evenodd" d="M10 12.0366H9C7.34772 12.0366 6 13.3843 6 15.0366V23.0366C6 24.6889 7.34772 26.0366 9 26.0366H11V30.0366C11 30.8844 11.9889 31.3476 12.6402 30.8048L18.3621 26.0366H24C25.6523 26.0366 27 24.6889 27 23.0366V22H28C29.6523 22 31 20.6523 31 19V11C31 9.34772 29.6523 8 28 8H13C11.3477 8 10 9.34772 10 11V12.0366ZM12 12.0366H24C25.6523 12.0366 27 13.3843 27 15.0366V20H28C28.5477 20 29 19.5477 29 19V11C29 10.4523 28.5477 10 28 10H13C12.4523 10 12 10.4523 12 11V12.0366ZM13 27.9016L17.3598 24.2684C17.5395 24.1186 17.7661 24.0366 18 24.0366H24C24.5477 24.0366 25 23.5843 25 23.0366V15.0366C25 14.4889 24.5477 14.0366 24 14.0366H9C8.45228 14.0366 8 14.4889 8 15.0366V23.0366C8 23.5843 8.45228 24.0366 9 24.0366H12C12.5523 24.0366 13 24.4843 13 25.0366V27.9016Z" fill="black"/>
</svg>
