<svg width="36" height="36" viewBox="0 0 36 36" fill="none" xmlns="http://www.w3.org/2000/svg">
<path fill-rule="evenodd" clip-rule="evenodd" d="M27.7039 29.9556C28.4485 30.1861 29.1589 29.5139 28.9698 28.7578L27.5629 23.1302C29.9133 18.5378 29.1735 13.2029 25.4859 9.5143C20.7992 4.8287 13.2012 4.8287 8.51466 9.51411C3.90718 14.1227 3.83039 21.5464 8.28413 26.2486L8.51468 26.4855C12.2207 30.1905 18.2129 31.023 22.8301 28.6856L23.1168 28.5354L27.7039 29.9556ZM9.9289 10.9284C13.8342 7.02395 20.1662 7.02395 24.0717 10.9285C27.2139 14.0716 27.7749 18.6153 25.6239 22.5176C25.502 22.7388 25.4683 22.9979 25.5296 23.2429L26.5988 27.5198L23.2955 26.4971C23.0253 26.4134 22.7324 26.4481 22.4892 26.5925C18.6599 28.8659 13.4055 28.333 10.1478 25.2831L9.92881 25.0712C6.02431 21.1657 6.02434 14.8338 9.9289 10.9284ZM17.9946 20.1036C18.0507 19.5652 18.1194 19.4187 18.3489 19.2034L18.5393 19.0358L18.804 18.8126C20.0764 17.7278 20.688 16.7461 20.688 15.419C20.688 13.2823 19.0982 11.5 17 11.5C14.821 11.5 13 12.9107 13 15C13 15.5522 13.4477 16 14 16C14.5128 16 14.9355 15.6139 14.9932 15.1166L15 15C15 14.143 15.83 13.5 17 13.5C17.9394 13.5 18.688 14.3391 18.688 15.419C18.688 16.0492 18.3769 16.5486 17.5072 17.29L17.2459 17.5102C17.1391 17.6008 17.0582 17.6718 16.9805 17.7447C16.3882 18.3005 16.1098 18.8945 16.0054 19.8963C15.9481 20.4456 16.347 20.9373 16.8963 20.9946C17.4456 21.0518 17.9373 20.6529 17.9946 20.1036ZM18.15 24.0001V23.5001C18.15 22.8649 17.6351 22.3501 17 22.3501C16.3649 22.3501 15.85 22.8649 15.85 23.5001V24.0001C15.85 24.6352 16.3649 25.1501 17 25.1501C17.6351 25.1501 18.15 24.6352 18.15 24.0001Z" fill="black"/>
</svg>
