<svg width="36" height="36" viewBox="0 0 36 36" fill="none" xmlns="http://www.w3.org/2000/svg">
<path fill-rule="evenodd" clip-rule="evenodd" d="M9.51502 9.5142C4.82849 14.2007 4.82849 21.7989 9.51502 26.4854L9.74671 26.7106C13.4993 30.2546 19.4122 30.9881 23.9507 28.6239L24.115 28.534L28.7044 29.9556L28.8104 29.9824C29.5146 30.1219 30.1503 29.4779 29.9703 28.7578L28.563 23.128L28.6748 22.9072C30.8888 18.3663 30.1136 13.1436 26.4853 9.5143C21.8767 4.90678 14.453 4.82999 9.75169 9.28383L9.51502 9.5142ZM25.0711 10.9285C28.2135 14.0718 28.7751 18.6156 26.6243 22.5176L26.5708 22.6311C26.4938 22.8247 26.4789 23.0387 26.53 23.2428L27.598 27.52L24.2959 26.497C24.0257 26.4134 23.7328 26.4481 23.4896 26.5924C19.5732 28.9176 14.1653 28.3072 10.9292 25.0712C7.02375 21.1657 7.02375 14.8339 10.9292 10.9284C14.8337 7.02392 21.1656 7.02392 25.0711 10.9285ZM14.818 18.5962L17 16.4142V22C17 22.5523 17.4477 23 18 23C18.5523 23 19 22.5523 19 22V16.4142L21.182 18.5961C21.5725 18.9867 22.2057 18.9867 22.5962 18.5961C22.9867 18.2056 22.9867 17.5725 22.5962 17.1819L18.7071 13.2928C18.5952 13.1809 18.4634 13.1011 18.3231 13.0533C18.2552 13.0302 18.1839 13.0141 18.1103 13.006C18.0388 12.9981 17.9666 12.9979 17.895 13.0055C17.8175 13.0135 17.7426 13.0305 17.6714 13.0553C17.5331 13.1033 17.4033 13.1824 17.2929 13.2928C17.2911 13.2947 17.2893 13.2965 17.2874 13.2984L13.4038 17.182C13.0133 17.5725 13.0133 18.2057 13.4038 18.5962C13.7944 18.9867 14.4275 18.9867 14.818 18.5962Z" fill="black"/>
</svg>
