<svg width="36" height="36" viewBox="0 0 36 36" fill="none" xmlns="http://www.w3.org/2000/svg">
<path fill-rule="evenodd" clip-rule="evenodd" d="M8.51498 26.4854C3.82846 21.7989 3.82846 14.2007 8.51498 9.5142L8.75166 9.28383C13.453 4.82999 20.8767 4.90678 25.4853 9.5143C29.1135 13.1436 29.8888 18.3663 27.6748 22.9072L27.563 23.128L28.9702 28.7578C29.1503 29.4779 28.5145 30.1219 27.8104 29.9824L27.7043 29.9556L23.115 28.534L22.9507 28.6239C18.4122 30.9881 12.4993 30.2546 8.74668 26.7106L8.51498 26.4854ZM25.6243 22.5176C27.7751 18.6156 27.2135 14.0718 24.0711 10.9285C20.1656 7.02392 13.8337 7.02392 9.9292 10.9284C6.02372 14.8339 6.02372 21.1657 9.9292 25.0712C13.1652 28.3072 18.5732 28.9176 22.4896 26.5924C22.7328 26.4481 23.0257 26.4134 23.2958 26.497L26.598 27.52L25.5299 23.2428C25.4789 23.0387 25.4938 22.8247 25.5707 22.6311L25.6243 22.5176ZM16.9999 11.5C17.5127 11.5 17.9354 11.886 17.9932 12.3834L17.9999 12.5V20C17.9999 20.5523 17.5522 21 16.9999 21C16.4871 21 16.0644 20.614 16.0066 20.1166L15.9999 20V12.5C15.9999 11.9477 16.4476 11.5 16.9999 11.5ZM18.1431 23.3747C18.0807 22.7985 17.5927 22.35 16.9999 22.35C16.3648 22.35 15.8499 22.8649 15.8499 23.5V24L15.8566 24.1253C15.9191 24.7015 16.4071 25.15 16.9999 25.15C17.635 25.15 18.1499 24.6351 18.1499 24V23.5L18.1431 23.3747Z" fill="black"/>
</svg>
