<svg width="36" height="36" viewBox="0 0 36 36" fill="none" xmlns="http://www.w3.org/2000/svg">
<path fill-rule="evenodd" clip-rule="evenodd" d="M9.51498 9.5142C4.82846 14.2007 4.82846 21.7989 9.51498 26.4854L9.74668 26.7106C13.4993 30.2546 19.4122 30.9881 23.9507 28.6239L24.115 28.534L28.7043 29.9556L28.8104 29.9824C29.5145 30.1219 30.1503 29.4779 29.9702 28.7578L28.563 23.128L28.6748 22.9072C30.8888 18.3663 30.1135 13.1436 26.4853 9.5143C21.8767 4.90678 14.453 4.82999 9.75166 9.28383L9.51498 9.5142ZM25.0711 10.9285C28.2135 14.0718 28.7751 18.6156 26.6243 22.5176L26.5707 22.6311C26.4938 22.8247 26.4789 23.0387 26.5299 23.2428L27.598 27.52L24.2958 26.497C24.0257 26.4134 23.7328 26.4481 23.4896 26.5924C19.5732 28.9176 14.1652 28.3072 10.9292 25.0712C7.02372 21.1657 7.02372 14.8339 10.9292 10.9284C14.8337 7.02392 21.1656 7.02392 25.0711 10.9285ZM23.7071 14.2929C23.3166 13.9024 22.6834 13.9024 22.2929 14.2929L16.5 20.085L13.7071 17.2929L13.6129 17.2097C13.2206 16.9047 12.6534 16.9324 12.2929 17.2929C11.9024 17.6834 11.9024 18.3166 12.2929 18.7071L15.7929 22.2071L15.8871 22.2903C16.2794 22.5953 16.8466 22.5676 17.2071 22.2071L23.7071 15.7071L23.7903 15.6129C24.0953 15.2206 24.0676 14.6534 23.7071 14.2929Z" fill="black"/>
</svg>
