<svg width="36" height="36" viewBox="0 0 36 36" fill="none" xmlns="http://www.w3.org/2000/svg">
<path fill-rule="evenodd" clip-rule="evenodd" d="M8.51498 26.4854C3.82846 21.7989 3.82846 14.2007 8.51498 9.5142L8.75166 9.28383C13.453 4.82999 20.8767 4.90678 25.4853 9.5143C29.1135 13.1436 29.8888 18.3663 27.6748 22.9072L27.563 23.128L28.9702 28.7578C29.1503 29.4779 28.5145 30.1219 27.8104 29.9824L27.7043 29.9556L23.115 28.534L22.9507 28.6239C18.4122 30.9881 12.4993 30.2546 8.74668 26.7106L8.51498 26.4854ZM25.6243 22.5176C27.7751 18.6156 27.2135 14.0718 24.0711 10.9285C20.1656 7.02392 13.8337 7.02392 9.9292 10.9284C6.02372 14.8339 6.02372 21.1657 9.9292 25.0712C13.1652 28.3072 18.5732 28.9176 22.4896 26.5924C22.7328 26.4481 23.0257 26.4134 23.2958 26.497L26.598 27.52L25.5299 23.2428C25.4789 23.0387 25.4938 22.8247 25.5707 22.6311L25.6243 22.5176ZM20.2929 13.2929C20.6834 12.9024 21.3166 12.9024 21.7071 13.2929C22.0676 13.6534 22.0953 14.2206 21.7903 14.6129L21.7071 14.7071L18.4142 18L21.7071 21.2929C22.0976 21.6834 22.0976 22.3166 21.7071 22.7071C21.3466 23.0676 20.7794 23.0953 20.3871 22.7903L20.2929 22.7071L17 19.4142L13.7071 22.7071C13.3166 23.0976 12.6834 23.0976 12.2929 22.7071C11.9324 22.3466 11.9047 21.7794 12.2097 21.3871L12.2929 21.2929L15.5858 18L12.2929 14.7071C11.9024 14.3166 11.9024 13.6834 12.2929 13.2929C12.6534 12.9324 13.2206 12.9047 13.6129 13.2097L13.7071 13.2929L17 16.5858L20.2929 13.2929Z" fill="black"/>
</svg>
