<svg width="36" height="36" viewBox="0 0 36 36" fill="none" xmlns="http://www.w3.org/2000/svg">
<path fill-rule="evenodd" clip-rule="evenodd" d="M20 7C21.6563 7 23 8.34372 23 10V13H26C27.6563 13 29 14.3437 29 16V26C29 27.6563 27.6563 29 26 29H16C14.3437 29 13 27.6563 13 26V23H10C8.34372 23 7 21.6563 7 20V10C7 8.34372 8.34372 7 10 7H20ZM15 23V26C15 26.5517 15.4483 27 16 27H26C26.5517 27 27 26.5517 27 26V16C27 15.4483 26.5517 15 26 15H23V20C23 21.6563 21.6563 23 20 23H15ZM21 15V20C21 20.5517 20.5517 21 20 21H15V16C15 15.4483 15.4483 15 16 15H21ZM21 13H16C14.3437 13 13 14.3437 13 16V21H10C9.44828 21 9 20.5517 9 20V10C9 9.44828 9.44828 9 10 9H20C20.5517 9 21 9.44828 21 10V13Z" fill="black"/>
</svg>
