<svg width="36" height="36" viewBox="0 0 36 36" fill="none" xmlns="http://www.w3.org/2000/svg">
<path fill-rule="evenodd" clip-rule="evenodd" d="M26.9858 7.0001H9.00031C8.44802 7.0001 8.00031 7.44782 8.00031 8.0001V20.2931C8.00031 23.5612 9.77208 26.5728 12.6285 28.1602L17.5147 30.8743C17.8167 31.0421 18.184 31.042 18.486 30.8743L23.371 28.1603C26.2283 26.573 28.0003 23.5614 28.0003 20.2931V8.0001C28.0003 7.50291 27.6375 7.09047 27.1621 7.01313C27.1038 7.00359 27.0447 6.99926 26.9858 7.0001ZM24.6855 9.0001H10.0003V20.2931C10.0003 21.498 10.31 22.6581 10.8723 23.6766L24.6855 9.0001ZM12.0991 25.2913L26.0003 10.5213V20.2931C26.0003 22.8351 24.6221 25.1774 22.3997 26.4119L18.0003 28.8562L13.5999 26.4119C13.044 26.103 12.541 25.7247 12.0991 25.2913Z" fill="black"/>
</svg>
