<svg width="36" height="36" viewBox="0 0 36 36" fill="none" xmlns="http://www.w3.org/2000/svg">
<path fill-rule="evenodd" clip-rule="evenodd" d="M18 5C10.8203 5 5 10.8203 5 18C5 25.1797 10.8203 31 18 31C25.1797 31 31 25.1797 31 18C31 10.8203 25.1797 5 18 5ZM18 7C24.0751 7 29 11.9249 29 18C29 24.0751 24.0751 29 18 29C11.9249 29 7 24.0751 7 18C7 11.9249 11.9249 7 18 7ZM13.2389 20C12.6016 20 12.1474 20.5859 12.4046 21.1689C13.0563 22.6466 14.6241 25 18 25C21.3759 25 22.9438 22.6466 23.5954 21.1689C23.8526 20.5859 23.3984 20 22.7611 20H13.2389ZM13.5 17C14.3284 17 15 16.3284 15 15.5C15 14.6716 14.3284 14 13.5 14C12.6716 14 12 14.6716 12 15.5C12 16.3284 12.6716 17 13.5 17ZM22.5 17C23.3284 17 24 16.3284 24 15.5C24 14.6716 23.3284 14 22.5 14C21.6716 14 21 14.6716 21 15.5C21 16.3284 21.6716 17 22.5 17Z" fill="black"/>
</svg>
