<svg width="36" height="36" viewBox="0 0 36 36" fill="none" xmlns="http://www.w3.org/2000/svg">
<path fill-rule="evenodd" clip-rule="evenodd" d="M22.0623 12.4619C22.0799 12.5051 22.1207 12.5347 22.1691 12.5382L27.7013 12.9441C29.6021 13.0819 30.3737 15.4569 28.9192 16.6885L24.68 20.2687C24.6437 20.2993 24.6277 20.3486 24.639 20.3947L25.964 25.7827C26.419 27.6329 24.3985 29.1016 22.7788 28.0973L18.0624 25.1714C18.0228 25.1468 17.9722 25.1468 17.9311 25.1723L13.2164 28.0971C11.5977 29.102 9.57589 27.6329 10.0309 25.7827L11.3559 20.3948C11.3672 20.3486 11.3512 20.2993 11.3147 20.2685L7.07476 16.6877C5.6212 15.4569 6.39282 13.0819 8.29278 12.9442L13.8266 12.5381C13.8743 12.5347 13.915 12.5051 13.933 12.4608L16.029 7.32279C16.7485 5.55907 19.2464 5.55907 19.9659 7.32279L22.0623 12.4619ZM18.114 8.07822L18.085 8.03476C18.0251 7.97683 17.9163 7.99131 17.8809 8.07822L15.7853 13.2151C15.4809 13.9639 14.7778 14.4743 13.9721 14.5328L8.43827 14.9389C8.32585 14.947 8.28016 15.0877 8.36619 15.1605L12.605 18.7403C13.2223 19.2614 13.4908 20.088 13.298 20.8723L11.973 26.2603C11.9461 26.3699 12.0661 26.4571 12.1618 26.3977L16.8765 23.4729C17.5637 23.0462 18.4331 23.0462 19.1181 23.4727L23.8329 26.3976C23.9292 26.4573 24.0489 26.3703 24.0219 26.2603L22.6969 20.8722C22.5041 20.088 22.7726 19.2614 23.3897 18.7405L27.6278 15.1613C27.7148 15.0877 27.6691 14.947 27.5558 14.9388L22.0236 14.5329C21.2172 14.4743 20.514 13.9639 20.21 13.2162L18.114 8.07822ZM27.978 8.38857L27.546 8.90057C27.1898 9.32268 26.5589 9.37614 26.1368 9.01999C25.7147 8.66384 25.6612 8.03294 26.0174 7.61083L26.4494 7.09883C26.8055 6.67672 27.4364 6.62326 27.8585 6.97941C28.2806 7.33556 28.3341 7.96647 27.978 8.38857ZM31.003 21.8039L30.386 21.5439C29.877 21.3294 29.2906 21.5681 29.0761 22.0771C28.8617 22.586 29.1004 23.1725 29.6093 23.3869L30.2263 23.6469C30.7353 23.8614 31.3217 23.6227 31.5362 23.1137C31.7507 22.6048 31.5119 22.0183 31.003 21.8039ZM9.54556 7.09883L9.97756 7.61083C10.3337 8.03294 10.2802 8.66384 9.85814 9.01999C9.43603 9.37614 8.80512 9.32268 8.44897 8.90057L8.01697 8.38857C7.66082 7.96647 7.71429 7.33556 8.13639 6.97941C8.5585 6.62326 9.1894 6.67672 9.54556 7.09883ZM18.9975 31.6692V31.0002C18.9975 30.4479 18.5497 30.0002 17.9975 30.0002C17.4452 30.0002 16.9975 30.4479 16.9975 31.0002V31.6692C16.9975 32.2215 17.4452 32.6692 17.9975 32.6692C18.5497 32.6692 18.9975 32.2215 18.9975 31.6692ZM6.38559 23.3869L5.76859 23.6469C5.25965 23.8614 4.67321 23.6227 4.45874 23.1137C4.24428 22.6048 4.483 22.0183 4.99194 21.8039L5.60894 21.5439C6.11788 21.3294 6.70432 21.5681 6.91879 22.0771C7.13325 22.586 6.89453 23.1725 6.38559 23.3869Z" fill="black"/>
</svg>
