<svg width="36" height="36" viewBox="0 0 36 36" fill="none" xmlns="http://www.w3.org/2000/svg">
<path fill-rule="evenodd" clip-rule="evenodd" d="M16.922 7.84279C17.6427 7.6555 18.4031 7.70959 19.0915 7.99715L25.2016 10.5492C25.8151 10.8054 26.2671 11.3528 26.4118 12.0146L28.2006 20.1963C28.4265 21.2296 27.8546 22.2709 26.8747 22.6105L26.8135 22.6316L26.0975 23.562C25.5434 24.2821 24.6547 24.5577 23.8494 24.3439L23.6266 24.6918C23.1 25.5142 22.1569 25.8663 21.2894 25.6598L21.0526 26.0297C20.5209 26.8601 19.5646 27.2109 18.6904 26.9915L18.5827 27.1479C17.7423 28.3687 16.1003 28.632 14.945 27.7313L8.339 22.5809C7.72513 22.1023 7.42958 21.3079 7.58515 20.5343C7.95667 18.6869 8.35951 16.8466 8.77178 15.0085C8.98806 14.0442 9.20756 13.0808 9.42952 12.1179C9.60686 11.3487 10.198 10.7512 10.9513 10.5772L14.533 9.74979L14.5414 9.75765L15.0275 9.11458C15.5025 8.48607 16.1695 8.03836 16.922 7.84279ZM12.877 11.9597L12.3707 12.0767C11.6161 12.251 11.0243 12.8501 10.8485 13.6212C10.7288 14.1459 10.5903 14.7566 10.443 15.4135C10.1341 16.7909 9.78732 18.3658 9.49269 19.7759C9.33032 20.553 9.62513 21.3539 10.2428 21.8354L15.9747 26.3042C16.3957 26.6325 16.9362 26.4744 17.2254 26.0543L15.28 24.4532C14.9111 24.1496 14.8486 23.5993 15.1396 23.2173C15.4369 22.827 15.9888 22.7613 16.3656 23.0714L18.9201 25.1738C19.3383 25.4877 19.6244 25.0408 19.8282 24.7224L19.8322 24.7163L16.9639 22.226C16.6032 21.9128 16.5548 21.3613 16.8553 20.9873C17.1623 20.6052 17.7156 20.5544 18.0842 20.8744L21.5011 23.8411C21.9176 24.1427 22.1965 23.7064 22.3996 23.3887L22.4132 23.3674L18.6597 19.9974C18.3042 19.6782 18.2648 19.1261 18.5711 18.7574C18.8842 18.3806 19.4381 18.3391 19.8014 18.6653L24.0987 22.5236C24.4871 22.847 24.802 22.4131 25.0331 22.0944C25.0651 22.0505 25.0954 22.0087 25.1241 21.9714L16.9444 14.3794L15.8101 15.8483C15.2284 16.6017 14.2689 16.919 13.3754 16.6536C11.798 16.1852 11.1807 14.204 12.1942 12.8631L12.877 11.9597ZM16.212 12.696C16.5558 12.2938 17.1647 12.2575 17.5538 12.616L26.5023 20.8591L26.5799 20.8323L24.8701 13.0119C24.7678 12.544 24.4482 12.157 24.0144 11.9758L18.45 9.65165C18.098 9.50463 17.7092 9.47697 17.3407 9.57273C16.9559 9.67272 16.615 9.90163 16.3721 10.223L13.5435 13.9652C13.2833 14.3095 13.4418 14.8181 13.8468 14.9384C14.0762 15.0066 14.3226 14.9251 14.4719 14.7317L16.212 12.696ZM31.335 22.167C30.8709 22.2771 30.4078 21.9793 30.3034 21.5035L27.9249 10.6698C27.8214 10.1985 28.109 9.73008 28.5688 9.621C29.033 9.51087 29.496 9.80864 29.6005 10.2845L31.9789 21.1182C32.0824 21.5895 31.7948 22.0579 31.335 22.167ZM4.02107 21.1182C3.9176 21.5895 4.20518 22.0579 4.66495 22.167C5.12914 22.2771 5.59216 21.9793 5.69662 21.5035L8.07508 10.6698C8.17854 10.1985 7.89097 9.73008 7.43119 9.621C6.96701 9.51087 6.50399 9.80864 6.39952 10.2845L4.02107 21.1182Z" fill="black"/>
</svg>
