<svg width="36" height="36" viewBox="0 0 36 36" fill="none" xmlns="http://www.w3.org/2000/svg">
<path fill-rule="evenodd" clip-rule="evenodd" d="M15.9836 6.29585L13.2361 12.1192C13.1963 12.2034 13.1272 12.2559 13.0556 12.2668L6.9129 13.2C5.07683 13.4798 4.36353 15.7766 5.66188 17.1008L10.1072 21.6332C10.1752 21.7025 10.2089 21.8108 10.1912 21.9188L9.14176 28.3192C8.83585 30.1816 10.7497 31.6363 12.4089 30.7247L17.9046 27.7025C17.9655 27.6691 18.0341 27.6691 18.0961 27.7031L23.5904 30.7245C25.2492 31.6366 27.1638 30.1816 26.8579 28.3189L25.8085 21.919C25.7908 21.8108 25.8244 21.7025 25.8923 21.6333L30.3377 17.1009C31.6367 15.7772 30.9233 13.4799 29.088 13.2001L22.9429 12.2667C22.8727 12.256 22.804 12.2038 22.7645 12.1198L20.0161 6.29585C19.2004 4.56805 16.7992 4.56805 15.9836 6.29585ZM18.2075 7.14967L20.9554 12.9727C21.2757 13.6526 21.9056 14.1316 22.6418 14.244L28.7871 15.1773C28.9855 15.2076 29.0836 15.5234 28.91 15.7002L24.4646 20.2328C23.9476 20.7597 23.7145 21.5096 23.8349 22.2428L24.8843 28.6428C24.9263 28.8987 24.714 29.06 24.5541 28.972L19.0589 25.95C18.3968 25.5869 17.6029 25.5869 16.9418 25.9495L11.4455 28.9721C11.2853 29.0601 11.0733 28.8989 11.1154 28.6431L12.1648 22.2426C12.2851 21.5096 12.052 20.7597 11.535 20.2327L7.08986 15.7004C6.91635 15.5235 7.01445 15.2076 7.21374 15.1772L13.3565 14.2441C14.0933 14.1318 14.7231 13.6534 15.0446 12.9733L17.7922 7.14945C17.8863 6.95011 18.1133 6.95011 18.2075 7.14967Z" fill="black"/>
</svg>
