<svg width="36" height="36" viewBox="0 0 36 36" fill="none" xmlns="http://www.w3.org/2000/svg">
<path fill-rule="evenodd" clip-rule="evenodd" d="M18.6972 5.24742C18.3201 4.91753 17.7572 4.91753 17.3802 5.24742L11.9195 10.0255C11.5039 10.3891 11.4618 11.0209 11.8255 11.4365C12.1892 11.8522 12.8209 11.8943 13.2366 11.5306L17.0387 8.20377V21C17.0387 21.5523 17.4864 22 18.0387 22C18.591 22 19.0387 21.5523 19.0387 21V8.20377L22.8408 11.5306C23.2564 11.8943 23.8882 11.8522 24.2519 11.4365C24.6155 11.0209 24.5734 10.3891 24.1578 10.0255L18.6972 5.24742ZM8 15.5C7.44772 15.5 7 15.9477 7 16.5V28.469C7 29.5735 7.89543 30.469 9 30.469H27C28.1046 30.469 29 29.5735 29 28.469V16.5C29 15.9477 28.5523 15.5 28 15.5H24.7991C24.2468 15.5 23.7991 15.9477 23.7991 16.5C23.7991 17.0523 24.2468 17.5 24.7991 17.5H27V28.469L9 28.469V17.5H11.1254C11.6777 17.5 12.1254 17.0523 12.1254 16.5C12.1254 15.9477 11.6777 15.5 11.1254 15.5H8Z" fill="black"/>
</svg>
