<svg width="36" height="36" viewBox="0 0 36 36" fill="none" xmlns="http://www.w3.org/2000/svg">
<path fill-rule="evenodd" clip-rule="evenodd" d="M28 8C28 7.44772 27.5523 7 27 7H9C8.44772 7 8 7.44772 8 8V26C8 26.5523 8.44772 27 9 27H10V28C10 28.5523 10.4477 29 11 29C11.5523 29 12 28.5523 12 28V27H24V28C24 28.5523 24.4477 29 25 29C25.5523 29 26 28.5523 26 28V27H27C27.5523 27 28 26.5523 28 26V8ZM10 9H26V25H10V9ZM20.2929 13.2929L18 15.5858L15.7071 13.2929C15.3166 12.9024 14.6834 12.9024 14.2929 13.2929C13.9024 13.6834 13.9024 14.3166 14.2929 14.7071L16.5858 17L14.2929 19.2929C13.9024 19.6834 13.9024 20.3166 14.2929 20.7071C14.6834 21.0976 15.3166 21.0976 15.7071 20.7071L18 18.4142L20.2929 20.7071C20.6834 21.0976 21.3166 21.0976 21.7071 20.7071C22.0976 20.3166 22.0976 19.6834 21.7071 19.2929L19.4142 17L21.7071 14.7071C22.0976 14.3166 22.0976 13.6834 21.7071 13.2929C21.3166 12.9024 20.6834 12.9024 20.2929 13.2929Z" fill="black"/>
</svg>
