<svg width="36" height="36" viewBox="0 0 36 36" fill="none" xmlns="http://www.w3.org/2000/svg">
<path fill-rule="evenodd" clip-rule="evenodd" d="M27 7C27.5523 7 28 7.44772 28 8V26C28 26.5523 27.5523 27 27 27H26V28C26 28.5523 25.5523 29 25 29C24.4477 29 24 28.5523 24 28V27H12V28C12 28.5523 11.5523 29 11 29C10.4477 29 10 28.5523 10 28V27H9C8.44772 27 8 26.5523 8 26V8C8 7.44772 8.44772 7 9 7H27ZM26 9V25H10V9H26ZM20.2795 13.2929L16.0155 17.5569L16 14.3246C15.9973 13.7723 15.5475 13.3267 14.9952 13.3294C14.4429 13.332 13.9974 13.7819 14 14.3342L14.027 19.9642C14.0296 20.5127 14.4737 20.9567 15.0222 20.9593L20.6522 20.9863C21.2045 20.989 21.6543 20.5434 21.657 19.9912C21.6596 19.4389 21.2141 18.989 20.6618 18.9864L17.4299 18.9709L21.6937 14.7071C22.0842 14.3166 22.0842 13.6834 21.6937 13.2929C21.3032 12.9024 20.67 12.9024 20.2795 13.2929Z" fill="black"/>
</svg>
