<svg width="36" height="36" viewBox="0 0 36 36" fill="none" xmlns="http://www.w3.org/2000/svg">
<path fill-rule="evenodd" clip-rule="evenodd" d="M18.486 30.8743C18.184 31.0421 17.8167 31.0421 17.5147 30.8743L12.6285 28.1602C9.77208 26.5728 8.00031 23.5612 8.00031 20.2931V8.00012C8.00031 7.44784 8.44802 7.00012 9.00031 7.00012H27.0003C27.5526 7.00012 28.0003 7.44784 28.0003 8.00012V20.2931C28.0003 23.5615 26.2283 26.573 23.3709 28.1603L18.486 30.8743ZM22.3996 26.412L22.6345 26.2755C24.7188 25.0098 26.0003 22.7443 26.0003 20.2931V9.00012H10.0003V20.2931C10.0003 22.8349 11.3784 25.1774 13.5999 26.4119L18.0003 28.8562L22.3996 26.412Z" fill="black"/>
<path fill-rule="evenodd" clip-rule="evenodd" d="M16.5 14.5C16.5 15.329 15.829 16 15 16C14.171 16 13.5 15.329 13.5 14.5C13.5 13.671 14.171 13 15 13C15.829 13 16.5 13.671 16.5 14.5Z" fill="black"/>
<path fill-rule="evenodd" clip-rule="evenodd" d="M22.501 20.5C22.501 21.3286 21.8296 22 21.001 22C20.1715 22 19.5 21.3286 19.5 20.5C19.5 19.6715 20.1715 19 21.001 19C21.8296 19 22.501 19.6715 22.501 20.5Z" fill="black"/>
<path fill-rule="evenodd" clip-rule="evenodd" d="M15.759 21.6508L21.759 14.6508C22.1185 14.2315 22.0699 13.6002 21.6506 13.2408C21.2312 12.8814 20.5999 12.9299 20.2405 13.3492L14.2405 20.3492C13.8811 20.7686 13.9297 21.3999 14.349 21.7593C14.7683 22.1187 15.3996 22.0702 15.759 21.6508Z" fill="black"/>
</svg>
