<svg width="36" height="36" viewBox="0 0 36 36" fill="none" xmlns="http://www.w3.org/2000/svg">
<g clip-path="url(#clip0_981_285)">
<path fill-rule="evenodd" clip-rule="evenodd" d="M5 18C5 10.8203 10.8203 5 18 5C25.1797 5 31 10.8203 31 18C31 25.1797 25.1797 31 18 31C10.8203 31 5 25.1797 5 18ZM29 18C29 11.9249 24.0751 7 18 7C11.9249 7 7 11.9249 7 18C7 24.0751 11.9249 29 18 29C24.0751 29 29 24.0751 29 18ZM13.5 17C14.3284 17 15 16.3284 15 15.5C15 14.6716 14.3284 14 13.5 14C12.6716 14 12 14.6716 12 15.5C12 16.3284 12.6716 17 13.5 17ZM24 15.5C24 16.3284 23.3284 17 22.5 17C21.6716 17 21 16.3284 21 15.5C21 14.6716 21.6716 14 22.5 14C23.3284 14 24 14.6716 24 15.5ZM23.4607 20.1125C22.9706 19.858 22.3669 20.0491 22.1125 20.5393C21.2472 22.206 19.9239 23 18 23C16.0761 23 14.7528 22.206 13.8875 20.5393C13.6331 20.0491 13.0294 19.858 12.5393 20.1125C12.0491 20.3669 11.858 20.9706 12.1125 21.4607C13.3237 23.794 15.3337 25 18 25C20.6663 25 22.6763 23.794 23.8875 21.4607C24.142 20.9706 23.9509 20.3669 23.4607 20.1125Z" fill="black"/>
</g>
<defs>
<clipPath id="clip0_981_285">
<rect width="36" height="36" fill="white"/>
</clipPath>
</defs>
</svg>
