<svg width="36" height="36" viewBox="0 0 36 36" fill="none" xmlns="http://www.w3.org/2000/svg">
<path fill-rule="evenodd" clip-rule="evenodd" d="M14 6H10C9.44772 6 9 6.44772 9 7V17C9 18.0545 8.18426 18.9182 7.14928 18.9945L7 19C6.44772 19 6 19.4477 6 20V29C6 29.5523 6.44772 30 7 30H29C29.5523 30 30 29.5523 30 29V20C30 19.4872 29.614 19.0645 29.1166 19.0067L29 19C27.8953 19 27 18.1047 27 17V7C27 6.44772 26.5523 6 26 6H22C21.4477 6 21 6.44772 21 7V12.631C21 13.8774 20.3954 15.0187 19.4164 15.597C17.4692 16.7475 15 15.1726 15 13V7C15 6.44772 14.5523 6 14 6ZM25 8V17L25.0049 17.1997C25.0894 18.9193 26.2597 20.3534 27.8447 20.8307L28 20.873V28H8V20.873L8.15531 20.8307C9.80126 20.335 11 18.8076 11 17V8H13V13C13 16.6684 17.1041 19.2861 20.4337 17.319L20.6399 17.1902C22.1247 16.2109 23 14.4784 23 12.631V8H25Z" fill="black"/>
</svg>
