<svg width="36" height="36" viewBox="0 0 36 36" fill="none" xmlns="http://www.w3.org/2000/svg">
<path fill-rule="evenodd" clip-rule="evenodd" d="M7 11H29V26H7L7 11ZM5 11C5 9.89543 5.89543 9 7 9H29C30.1046 9 31 9.89543 31 11V26C31 27.1046 30.1046 28 29 28H7C5.89543 28 5 27.1046 5 26V11ZM19 19H27V17H19V19ZM25 23H19V21H25V23ZM13.5 16.5V17C13.5 17.5523 13.0523 18 12.5 18C11.9477 18 11.5 17.5523 11.5 17V16.5C11.5 15.9477 11.9477 15.5 12.5 15.5C13.0523 15.5 13.5 15.9477 13.5 16.5ZM9.5 16.5C9.5 14.8431 10.8431 13.5 12.5 13.5C14.1569 13.5 15.5 14.8431 15.5 16.5V17C15.5 18.6569 14.1569 20 12.5 20C10.8431 20 9.5 18.6569 9.5 17V16.5ZM11 21C9.89543 21 9 21.8954 9 23H16C16 21.8954 15.1046 21 14 21H11Z" fill="black"/>
</svg>
