<svg width="36" height="36" viewBox="0 0 36 36" fill="none" xmlns="http://www.w3.org/2000/svg">
<path fill-rule="evenodd" clip-rule="evenodd" d="M23.1221 6.71744L28.0721 6.01044C28.732 5.91618 29.2977 6.48186 29.2034 7.14181L28.4964 12.0908C28.4658 12.305 28.3666 12.5035 28.2136 12.6565L16.8994 23.9706L18.3133 25.3845C18.7038 25.775 18.7038 26.4082 18.3133 26.7987C17.9528 27.1592 17.3856 27.1869 16.9933 26.8819L16.8991 26.7987L14.7779 24.6776L9.82829 29.6272C9.04676 30.4087 7.7816 30.4087 7.00007 29.6272L5.58607 28.2132C4.8044 27.4315 4.8044 26.1647 5.58607 25.385L10.5357 20.4353L8.41407 18.3137C8.02355 17.9232 8.02355 17.29 8.41407 16.8995C8.77456 16.539 9.34179 16.5113 9.73408 16.8163L9.82829 16.8995L11.2423 18.3135L22.5564 7.00025C22.7094 6.84727 22.9079 6.74803 23.1221 6.71744ZM11.9497 21.8493L7.00098 26.799L8.41429 28.213L13.3637 23.2633L11.9497 21.8493ZM26.563 11.478L15.4851 22.5558L12.6561 19.7268L23.734 8.64999L27.034 8.17799L26.563 11.478Z" fill="black"/>
</svg>
