<svg width="36" height="36" viewBox="0 0 36 36" fill="none" xmlns="http://www.w3.org/2000/svg">
<path fill-rule="evenodd" clip-rule="evenodd" d="M4.55279 14.6056L17.5528 8.10557C17.8343 7.96481 18.1657 7.96481 18.4472 8.10557L31.4472 14.6056C32.1843 14.9741 32.1843 16.0259 31.4472 16.3944L27 18.618V24C27 26.8639 22.8159 29 18 29C13.1841 29 9 26.8639 9 24V18.618L4.55279 16.3944C3.81574 16.0259 3.81574 14.9741 4.55279 14.6056ZM11 19.618V24C11 25.3944 14.145 27 18 27C21.855 27 25 25.3944 25 24V19.618L18.4472 22.8944C18.1657 23.0352 17.8343 23.0352 17.5528 22.8944L11 19.618ZM29 20V25C29 25.5523 29.4477 26 30 26C30.5523 26 31 25.5523 31 25V20C31 19.4477 30.5523 19 30 19C29.4477 19 29 19.4477 29 20ZM18 10.118L28.7639 15.5L18 20.882L7.23607 15.5L18 10.118Z" fill="black"/>
</svg>
