<svg width="36" height="36" viewBox="0 0 36 36" fill="none" xmlns="http://www.w3.org/2000/svg">
<path fill-rule="evenodd" clip-rule="evenodd" d="M23.7 5.20001C21.2147 5.20001 19.2 7.21473 19.2 9.70001C19.2 10.1213 19.2579 10.5291 19.3661 10.9158L12.4189 15.4553C12.0165 15.0684 11.5394 14.7538 11.0056 14.5355C10.4694 14.3152 9.89184 14.2 9.29999 14.2C6.8147 14.2 4.79999 16.2147 4.79999 18.7C4.79999 21.186 6.8144 23.2 9.29999 23.2C10.5444 23.2 11.6704 22.6956 12.4848 21.8799L19.2587 25.5715C19.2201 25.8086 19.2 26.052 19.2 26.3C19.2 28.786 21.2144 30.8 23.7 30.8C26.1863 30.8 28.2 28.7863 28.2 26.3C28.2 24.4571 27.0824 22.8214 25.4056 22.1355C24.8694 21.9152 24.2918 21.8 23.7 21.8C22.1794 21.8 20.835 22.5542 20.0204 23.7089L13.5502 20.1828C13.712 19.7186 13.8 19.2196 13.8 18.7C13.8 18.1507 13.7007 17.6198 13.5169 17.127L20.3258 12.6779C21.1503 13.6114 22.3563 14.2 23.7 14.2C26.1863 14.2 28.2 12.1863 28.2 9.70001C28.2 7.85707 27.0824 6.22141 25.4056 5.53547C24.8694 5.31519 24.2918 5.20001 23.7 5.20001ZM23.7 7.20001C24.0298 7.20001 24.3493 7.26373 24.647 7.38602C25.5794 7.76742 26.2 8.67573 26.2 9.70001C26.2 11.0817 25.0817 12.2 23.7 12.2C22.3189 12.2 21.2 11.0813 21.2 9.70001C21.2 8.3193 22.3193 7.20001 23.7 7.20001ZM23.7 23.8C24.0298 23.8 24.3493 23.8637 24.647 23.986C25.5794 24.3674 26.2 25.2757 26.2 26.3C26.2 27.6817 25.0817 28.8 23.7 28.8C22.3189 28.8 21.2 27.6813 21.2 26.3C21.2 24.9193 22.3193 23.8 23.7 23.8ZM10.247 16.386C9.94933 16.2637 9.62982 16.2 9.29999 16.2C7.91927 16.2 6.79999 17.3193 6.79999 18.7C6.79999 20.0813 7.91888 21.2 9.29999 21.2C10.6817 21.2 11.8 20.0817 11.8 18.7C11.8 17.6757 11.1794 16.7674 10.247 16.386Z" fill="black"/>
</svg>
