<svg width="36" height="36" viewBox="0 0 36 36" fill="none" xmlns="http://www.w3.org/2000/svg">
<path fill-rule="evenodd" clip-rule="evenodd" d="M17.5144 30.8742C17.8164 31.042 18.1837 31.0419 18.4857 30.8741L23.3706 28.1602C26.228 26.5729 28 23.5613 28 20.293V8C28 7.44772 27.5523 7 27 7H9C8.44772 7 8 7.44772 8 8V20.293C8 23.5611 9.77178 26.5727 12.6282 28.1601L17.5144 30.8742ZM22.6342 26.2754L22.3993 26.4119L18 28.8561L13.5996 26.4118C11.3781 25.1773 10 22.8348 10 20.293V9H26V20.293C26 22.7442 24.7184 25.0097 22.6342 26.2754ZM22.9997 15.9999C22.9997 18.1832 21.183 19.9999 18.9997 19.9999H16.9888L16.9919 21.0073H18.8497C19.3191 21.0073 19.6997 21.3879 19.6997 21.8573C19.6997 22.3268 19.3191 22.7073 18.8497 22.7073H16.9972L16.9997 23.5005C17.0012 24.0527 16.5547 24.5017 16.0024 24.5032C15.4501 24.5047 15.0012 24.0582 14.9997 23.5059L14.9972 22.7073H13.8497C13.3803 22.7073 12.9997 22.3268 12.9997 21.8573C12.9997 21.3879 13.3803 21.0073 13.8497 21.0073H14.9919L14.9888 19.9999H13.9997C13.4474 19.9999 12.9997 19.5522 12.9997 18.9999C12.9997 18.4476 13.4474 17.9999 13.9997 17.9999H14.9833L14.9697 13.0026C14.9682 12.4493 15.4163 11.9999 15.9697 11.9999H18.9227C21.1128 11.9999 22.9997 13.8226 22.9997 15.9999ZM16.9724 13.9999L16.9833 17.9999H18.9997C20.0784 17.9999 20.9997 17.0786 20.9997 15.9999C20.9997 14.943 20.0234 13.9999 18.9227 13.9999H16.9724Z" fill="black"/>
</svg>
