<svg width="36" height="36" viewBox="0 0 36 36" fill="none" xmlns="http://www.w3.org/2000/svg">
<path fill-rule="evenodd" clip-rule="evenodd" d="M18.486 30.8743C18.184 31.0421 17.8167 31.0421 17.5147 30.8743L12.6285 28.1602C9.77208 26.5728 8.00031 23.5612 8.00031 20.2931V8.00012C8.00031 7.44784 8.44802 7.00012 9.00031 7.00012H27.0003C27.5526 7.00012 28.0003 7.44784 28.0003 8.00012V20.2931C28.0003 23.5615 26.2283 26.573 23.3709 28.1603L18.486 30.8743ZM22.3996 26.412L22.6345 26.2755C24.7188 25.0098 26.0003 22.7443 26.0003 20.2931V9.00012H10.0003V20.2931C10.0003 22.8349 11.3784 25.1774 13.5999 26.4119L18.0003 28.8562L22.3996 26.412ZM17.5 18.5858L15.7071 16.7929C15.3166 16.4024 14.6834 16.4024 14.2929 16.7929C13.9024 17.1834 13.9024 17.8166 14.2929 18.2071L16.7929 20.7071C17.1834 21.0977 17.8166 21.0977 18.2071 20.7071L23.2071 15.7071C23.5976 15.3166 23.5976 14.6834 23.2071 14.2929C22.8166 13.9024 22.1834 13.9024 21.7929 14.2929L17.5 18.5858Z" fill="black"/>
</svg>
