<svg width="36" height="36" viewBox="0 0 36 36" fill="none" xmlns="http://www.w3.org/2000/svg">
<path fill-rule="evenodd" clip-rule="evenodd" d="M5 18C5 10.8203 10.8203 5 18 5C25.1797 5 31 10.8203 31 18C31 25.1797 25.1797 31 18 31C10.8203 31 5 25.1797 5 18ZM29 18C29 11.9249 24.0751 7 18 7C11.9249 7 7 11.9249 7 18C7 24.0751 11.9249 29 18 29C24.0751 29 29 24.0751 29 18ZM13.5 17C14.3284 17 15 16.3284 15 15.5C15 14.6716 14.3284 14 13.5 14C12.6716 14 12 14.6716 12 15.5C12 16.3284 12.6716 17 13.5 17ZM24 15.5C24 16.3284 23.3284 17 22.5 17C21.6716 17 21 16.3284 21 15.5C21 14.6716 21.6716 14 22.5 14C23.3284 14 24 14.6716 24 15.5ZM14 21C13.4477 21 13 21.4477 13 22C13 22.5523 13.4477 23 14 23H22C22.5523 23 23 22.5523 23 22C23 21.4477 22.5523 21 22 21H14Z" fill="black"/>
</svg>
