<svg width="36" height="36" viewBox="0 0 36 36" fill="none" xmlns="http://www.w3.org/2000/svg">
<path fill-rule="evenodd" clip-rule="evenodd" d="M22.9996 7H10.4C7.36995 7 5 9.5703 5 12.6316V25.3684C5 28.4297 7.36995 31 10.4 31H23.6C26.6301 31 29 28.4297 29 25.3684V14.584C30.7659 13.8124 32 12.0503 32 10C32 7.23858 29.7614 5 27 5C25.3642 5 23.9118 5.78555 22.9996 7ZM30 10C30 11.6569 28.6569 13 27 13C25.3431 13 24 11.6569 24 10C24 8.34315 25.3431 7 27 7C28.6569 7 30 8.34315 30 10ZM27 15C24.2386 15 22 12.7614 22 10C22 9.65753 22.0344 9.32311 22.1 9H10.4C8.56995 9 7 10.577 7 12.6316V25.3684C7 27.423 8.56995 29 10.4 29H23.6C25.4301 29 27 27.423 27 25.3684V15Z" fill="black"/>
</svg>
