<svg width="36" height="36" viewBox="0 0 36 36" fill="none" xmlns="http://www.w3.org/2000/svg">
<path fill-rule="evenodd" clip-rule="evenodd" d="M16.2929 7.29288C16.9229 6.66292 18 7.10909 18 7.99999V28C18 28.8909 16.9229 29.3371 16.2929 28.7071L10.5858 23H7C5.34372 23 4 21.6563 4 20V16C4 14.3437 5.34372 13 7 13H10.5858L16.2929 7.29288ZM11.7071 14.7071C11.5196 14.8946 11.2652 15 11 15H7C6.44828 15 6 15.4483 6 16V20C6 20.5517 6.44828 21 7 21H11C11.2652 21 11.5196 21.1053 11.7071 21.2929L16 25.5858V10.4142L11.7071 14.7071ZM26.1279 11.3883C29.7794 15.0398 29.7794 20.9606 26.1279 24.6121C25.7374 25.0026 25.7374 25.6358 26.1279 26.0263C26.5184 26.4168 27.1516 26.4168 27.5421 26.0263C31.9746 21.5938 31.9746 14.4066 27.5421 9.97408C27.1516 9.58356 26.5184 9.58356 26.1279 9.97408C25.7374 10.3646 25.7374 10.9978 26.1279 11.3883ZM21.6599 15.9581L21.7431 16.0523C22.8186 17.1278 22.8186 18.8718 21.7429 19.9483C21.3525 20.339 21.3527 20.9721 21.7433 21.3625C22.134 21.7529 22.7672 21.7527 23.1575 21.3621C25.0138 19.5045 25.0138 16.4946 23.1573 14.6381C22.7668 14.2476 22.1336 14.2476 21.7431 14.6381C21.3826 14.9986 21.3549 15.5658 21.6599 15.9581Z" fill="black"/>
</svg>
