<svg width="36" height="36" viewBox="0 0 36 36" fill="none" xmlns="http://www.w3.org/2000/svg">
<path fill-rule="evenodd" clip-rule="evenodd" d="M27 7H9C8.44772 7 8 7.44772 8 8V20.293C8 23.5613 9.77205 26.5729 12.6294 28.1602L17.5143 30.8741C17.8164 31.042 18.1836 31.042 18.4857 30.8741L23.3707 28.1601C26.228 26.5729 28 23.5613 28 20.293V8C28 7.44772 27.5523 7 27 7ZM25.9992 8.9999L26 20.293L25.9948 20.5646C25.9005 23.0009 24.5424 25.2214 22.3994 26.4118L17.9992 28.8549L13.6007 26.4119L13.3658 26.2754C11.2816 25.0097 10 22.7442 10 20.293L9.9992 8.9999H25.9992ZM20.0002 20.9999V18.9999H12.0002V20.9999H20.0002ZM24.0002 14.9999V16.9999H12.0002V14.9999H24.0002ZM24.0002 12.9999V10.9999H12.0002V12.9999H24.0002Z" fill="black"/>
</svg>
