<svg width="36" height="36" viewBox="0 0 36 36" fill="none" xmlns="http://www.w3.org/2000/svg">
<path fill-rule="evenodd" clip-rule="evenodd" d="M27.0003 7.00012C27.5526 7.00012 28.0003 7.44784 28.0003 8.00012V20.2931C28.0003 23.5615 26.2283 26.573 23.371 28.1603L18.486 30.8743C18.184 31.0421 17.8167 31.0421 17.5147 30.8743L12.6285 28.1602C9.77208 26.5728 8.00031 23.5612 8.00031 20.2931V8.00012C8.00031 7.44784 8.44802 7.00012 9.00031 7.00012H27.0003ZM10.0003 9.00012V20.2931C10.0003 22.8349 11.3784 25.1774 13.5999 26.4119L18.0003 28.8562L22.3997 26.4119C24.6221 25.1774 26.0003 22.8351 26.0003 20.2931V9.00012H10.0003ZM12 12V18C12 18.5523 12.4477 19 13 19C13.5523 19 14 18.5523 14 18V12.9993H19.0004C19.5525 12.9993 20 12.5518 20 11.9997C20 11.4476 19.5532 11 19.0011 11C17.1679 11 13.4155 11 13 11C12.4477 11 12 11.4477 12 12Z" fill="black"/>
</svg>
