<svg width="36" height="36" viewBox="0 0 36 36" fill="none" xmlns="http://www.w3.org/2000/svg">
<path fill-rule="evenodd" clip-rule="evenodd" d="M28 8C28 7.44772 27.5523 7 27 7H9C8.44772 7 8 7.44772 8 8V26C8 26.5523 8.44772 27 9 27H10V28C10 28.5523 10.4477 29 11 29C11.5523 29 12 28.5523 12 28V27H24V28C24 28.5523 24.4477 29 25 29C25.5523 29 26 28.5523 26 28V27H27C27.5523 27 28 26.5523 28 26V8ZM26 9V25H10V9H26ZM19.9934 19.6618C19.9961 20.2141 20.446 20.6596 20.9982 20.657C21.5505 20.6543 21.9961 20.2045 21.9934 19.6522L21.9664 14.0222C21.9638 13.4737 21.5198 13.0296 20.9712 13.027L15.3412 13C14.789 12.9974 14.3391 13.4429 14.3364 13.9952C14.3338 14.5475 14.7794 14.9973 15.3316 15L18.5635 15.0155L14.2997 19.2792C13.9092 19.6698 13.9092 20.3029 14.2997 20.6934C14.6903 21.084 15.3234 21.084 15.7139 20.6934L19.9779 16.4294L19.9934 19.6618Z" fill="black"/>
</svg>
