<svg width="36" height="36" viewBox="0 0 36 36" fill="none" xmlns="http://www.w3.org/2000/svg">
<path fill-rule="evenodd" clip-rule="evenodd" d="M5 18C5 10.8203 10.8203 5 18 5C25.1797 5 31 10.8203 31 18C31 25.1797 25.1797 31 18 31C10.8203 31 5 25.1797 5 18ZM29 18C29 11.9249 24.0751 7 18 7C11.9249 7 7 11.9249 7 18C7 24.0751 11.9249 29 18 29C24.0751 29 29 24.0751 29 18ZM13.5 17C14.3284 17 15 16.3284 15 15.5C15 14.6716 14.3284 14 13.5 14C12.6716 14 12 14.6716 12 15.5C12 16.3284 12.6716 17 13.5 17ZM24 15.5C24 16.3284 23.3284 17 22.5 17C21.6716 17 21 16.3284 21 15.5C21 14.6716 21.6716 14 22.5 14C23.3284 14 24 14.6716 24 15.5ZM22.8762 23.4817C22.6101 23.9656 22.002 24.1422 21.5181 23.876C20.4554 23.2915 19.292 22.9998 18.0122 22.9998C16.7309 22.9998 15.5576 23.2922 14.477 23.8787C13.9916 24.1422 13.3845 23.9622 13.1211 23.4768C12.8577 22.9914 13.0376 22.3843 13.523 22.1209C14.8991 21.374 16.4006 20.9998 18.0122 20.9998C19.6252 20.9998 21.1204 21.3748 22.4819 22.1236C22.9658 22.3897 23.1424 22.9978 22.8762 23.4817Z" fill="black"/>
</svg>
