<svg width="36" height="36" viewBox="0 0 36 36" fill="none" xmlns="http://www.w3.org/2000/svg">
<path fill-rule="evenodd" clip-rule="evenodd" d="M27 7C27.5523 7 28 7.44772 28 8V26C28 26.5523 27.5523 27 27 27H26V28C26 28.5523 25.5523 29 25 29C24.4477 29 24 28.5523 24 28V27H12V28C12 28.5523 11.5523 29 11 29C10.4477 29 10 28.5523 10 28V27H9C8.44772 27 8 26.5523 8 26V8C8 7.44772 8.44772 7 9 7H27ZM26 9H10V25H26V9ZM18 13C20.2093 13 22 14.7907 22 17C22 19.2093 20.2093 21 18 21C15.7907 21 14 19.2093 14 17C14 14.7907 15.7907 13 18 13ZM18 15C16.8953 15 16 15.8953 16 17C16 18.1047 16.8953 19 18 19C19.1047 19 20 18.1047 20 17C20 15.8953 19.1047 15 18 15Z" fill="black"/>
</svg>
