<svg width="36" height="36" viewBox="0 0 36 36" fill="none" xmlns="http://www.w3.org/2000/svg">
<path fill-rule="evenodd" clip-rule="evenodd" d="M27 8C27 7.44772 26.5523 7 26 7H18H10L9.88339 7.00673C9.38605 7.06449 9.00001 7.48716 9.00001 8C9.00001 8.55228 9.44772 9 10 9H17V27H8.00001L7.88339 27.0067C7.38605 27.0645 7.00001 27.4872 7.00001 28C7.00001 28.5523 7.44772 29 8.00001 29H18H28L28.1166 28.9933C28.614 28.9355 29 28.5128 29 28C29 27.4477 28.5523 27 28 27H19V9H26L26.1166 8.99327C26.614 8.93551 27 8.51284 27 8ZM8.58385 12.0992L5.08385 20.0992C4.7948 20.7599 5.27885 21.5 6.00001 21.5H13C13.7212 21.5 14.2052 20.7599 13.9162 20.0992L10.4162 12.0992C10.0666 11.3003 8.93337 11.3003 8.58385 12.0992ZM9.50001 14.995L11.47 19.5H7.52901L9.50001 14.995ZM22.0838 20.0992L25.5838 12.0992C25.9334 11.3003 27.0666 11.3003 27.4162 12.0992L30.9162 20.0992C31.2052 20.7599 30.7212 21.5 30 21.5H23C22.2789 21.5 21.7948 20.7599 22.0838 20.0992ZM26.5 14.995L28.47 19.5H24.529L26.5 14.995Z" fill="black"/>
</svg>
