<svg width="36" height="36" viewBox="0 0 36 36" fill="none" xmlns="http://www.w3.org/2000/svg">
<path fill-rule="evenodd" clip-rule="evenodd" d="M19.0001 10H25.6671C26.0598 10 26.4162 10.2299 26.5781 10.5876L29.9331 18H30C31.1053 18 32 18.8947 32 20V24C32 25.1053 31.1053 26 30 26H28.7087C28.4661 27.6964 27.0076 29 25.2441 29C23.4806 29 22.0221 27.6964 21.7795 26H13.7087C13.4661 27.6964 12.0076 29 10.2441 29C8.48058 29 7.02208 27.6964 6.77953 26H5C4.44772 26 4 25.5523 4 25V19C4 18.4477 4.44772 18 5 18H12.9996L12.999 16.349L9.52 12H5.589C5.07616 12 4.65349 11.614 4.59573 11.1166L4.589 11C4.589 10.4872 4.97504 10.0645 5.47238 10.0067L5.589 10H10C10.2604 10 10.5087 10.1015 10.6938 10.2798L10.7809 10.3753L14.7809 15.3753C14.8943 15.5172 14.9665 15.6865 14.9908 15.8649L15 16V18H18.0001V11C18.0001 10.4477 18.4478 10 19.0001 10ZM30 24H28.4074C27.8458 22.8174 26.6406 22 25.2441 22C23.8476 22 22.6424 22.8174 22.0808 24H13.4074C12.8458 22.8174 11.6406 22 10.2441 22C8.84764 22 7.64245 22.8174 7.08081 24H6V20H14H19.0001H29.2881H30V24ZM25.022 12L27.738 18H20V12H25.022ZM11.7441 25.5C11.7441 24.6713 11.0728 24 10.2441 24C9.41538 24 8.7441 24.6713 8.7441 25.5C8.7441 26.3287 9.41538 27 10.2441 27C11.0728 27 11.7441 26.3287 11.7441 25.5ZM26.7441 25.5C26.7441 24.6713 26.0728 24 25.2441 24C24.4154 24 23.7441 24.6713 23.7441 25.5C23.7441 26.3287 24.4154 27 25.2441 27C26.0728 27 26.7441 26.3287 26.7441 25.5Z" fill="black"/>
</svg>
