<svg width="36" height="36" viewBox="0 0 36 36" fill="none" xmlns="http://www.w3.org/2000/svg">
<path fill-rule="evenodd" clip-rule="evenodd" d="M18.3919 8H24.017C26.217 8 28.0001 9.78315 28.0001 11.9831V17.6082C28.0001 18.6649 27.5806 19.6769 26.8332 20.4244L16.5504 30.7071C16.1599 31.0976 15.5267 31.0976 15.1362 30.7071L5.29296 20.8629C4.90245 20.4723 4.90248 19.8391 5.29303 19.4486L15.5751 9.16757C16.3215 8.41987 17.3348 8 18.3919 8ZM24.017 10H18.3919C17.8656 10 17.3616 10.2088 16.9899 10.5812L7.414 20.155L15.843 28.585L25.4189 19.0102C25.75 18.6791 25.9517 18.2445 25.9924 17.7826L26.0001 17.6082V11.9831C26.0001 10.8877 25.1124 10 24.017 10ZM13.0103 18.1586L17.9605 23.1088L16.5463 24.523L11.5961 19.5728L13.0103 18.1586ZM23.6777 14.5624C24.2637 13.9764 24.2637 13.0264 23.6777 12.4414C23.0917 11.8554 22.1417 11.8554 21.5557 12.4414C20.9707 13.0264 20.9707 13.9764 21.5557 14.5624C22.1417 15.1484 23.0917 15.1484 23.6777 14.5624Z" fill="black"/>
</svg>
