<svg width="36" height="36" viewBox="0 0 36 36" fill="none" xmlns="http://www.w3.org/2000/svg">
<path fill-rule="evenodd" clip-rule="evenodd" d="M22.2327 26.7496C22.2327 26.8879 22.3449 27 22.4832 27C26.9038 27 30.5 23.4053 30.5 18.9858C30.5 15.278 27.9817 12.1186 24.4835 11.225C24.5095 10.9905 24.5225 10.7552 24.5225 10.5204C24.5225 6.92482 21.5967 4 18 4C14.4033 4 11.4775 6.92482 11.4775 10.5204C11.4775 10.7552 11.4905 10.9905 11.5165 11.225C8.01829 12.1186 5.5 15.278 5.5 18.9858C5.5 23.4053 9.09621 27 13.5168 27C13.6551 27 13.7673 26.8879 13.7673 26.7496V25.1651C13.7673 25.0269 13.6551 24.9147 13.5168 24.9147C10.2468 24.9147 7.58592 22.2547 7.58592 18.9858C7.58592 15.9593 9.8526 13.4276 12.8583 13.0956L13.7972 12.9919C13.8708 12.9838 13.9371 12.9436 13.9781 12.882C14.0192 12.8204 14.0309 12.7438 14.0101 12.6727L13.7448 11.7663C13.6242 11.3551 13.5634 10.9358 13.5634 10.5204C13.5634 8.07508 15.5539 6.08525 18 6.08525C20.4461 6.08525 22.4366 8.07507 22.4366 10.5207C22.4366 10.9357 22.3755 11.3554 22.2552 11.7668L21.9899 12.673C21.9691 12.7441 21.9808 12.8207 22.0219 12.8823C22.0629 12.9439 22.1292 12.9841 22.2028 12.9923L23.1417 13.0959C26.1474 13.4276 28.4141 15.9593 28.4141 18.9858C28.4141 22.2547 25.7532 24.9147 22.4832 24.9147C22.3449 24.9147 22.2327 25.0269 22.2327 25.1651V26.7496ZM19 16C19 15.4477 18.5523 15 18 15C17.4477 15 17 15.4477 17 16V20.5858L15.7071 19.2929C15.3166 18.9024 14.6834 18.9024 14.2929 19.2929C13.9024 19.6834 13.9024 20.3166 14.2929 20.7071L17 23.4142V30.5C17 31.0523 17.4477 31.5 18 31.5C18.5523 31.5 19 31.0523 19 30.5V23.0007V22.9993V21.5L22.6 18.8C23.0418 18.4686 23.1314 17.8418 22.8 17.4C22.4686 16.9582 21.8418 16.8686 21.4 17.2L19 19V16Z" fill="black"/>
</svg>
