<svg width="36" height="36" viewBox="0 0 36 36" fill="none" xmlns="http://www.w3.org/2000/svg">
<path fill-rule="evenodd" clip-rule="evenodd" d="M27.641 8.00031C29.4887 8.00031 31 9.46115 31 11.2803V22.7193C31 24.5392 29.4889 26.0003 27.641 26.0003H8.359C6.51107 26.0003 5 24.5392 5 22.7193V11.2803C5 9.46115 6.5113 8.00031 8.359 8.00031H27.641ZM27.641 10.0003H8.359C7.60096 10.0003 7 10.5812 7 11.2803V22.7193C7 23.4193 7.60087 24.0003 8.359 24.0003H27.641C28.3991 24.0003 29 23.4193 29 22.7193V11.2803C29 10.5812 28.399 10.0003 27.641 10.0003ZM22.5697 29H13.4307C12.8784 29 12.4307 28.5523 12.4307 28C12.4307 27.4477 12.8784 27 13.4307 27H22.5697C23.122 27 23.5697 27.4477 23.5697 28C23.5697 28.5523 23.122 29 22.5697 29Z" fill="black"/>
</svg>
