<svg width="36" height="36" viewBox="0 0 36 36" fill="none" xmlns="http://www.w3.org/2000/svg">
<path fill-rule="evenodd" clip-rule="evenodd" d="M22.9615 6.72528C22.8389 6.29598 22.4465 6 22 6H14C13.5535 6 13.1611 6.29598 13.0385 6.72528L9.03847 20.7253C8.85596 21.3641 9.33562 22 10 22H26C26.6644 22 27.144 21.3641 26.9615 20.7253L22.9615 6.72528ZM14.7543 8H21.2457L24.6743 20H11.3257L14.7543 8ZM19 29H23.0645C23.6168 29 24.0645 29.4477 24.0645 30C24.0645 30.5523 23.6168 31 23.0645 31H12.9355C12.3832 31 11.9355 30.5523 11.9355 30C11.9355 29.4477 12.3832 29 12.9355 29H17V24H19V29Z" fill="black"/>
</svg>
