<svg width="36" height="36" viewBox="0 0 36 36" fill="none" xmlns="http://www.w3.org/2000/svg">
<path fill-rule="evenodd" clip-rule="evenodd" d="M22.3 7.7C22.3 6.8 22 6.1 21.8 6C21.5825 6.21752 21.3124 6.69792 21.0659 7.13622C20.9725 7.30241 20.8825 7.46254 20.8 7.6C20.5814 7.90602 20.3628 8.25026 20.1359 8.60766C19.8437 9.0678 19.5377 9.54974 19.2 10C17.7 12 14.9 13.5 13 14.3V25H23.9C24.4 25 24.8 24.7 24.9 24.2L26.6 16.2C26.7 15.8 26.5 15.5 26.4 15.4C26.3 15.2 26 15 25.6 15H23C22.3 15 21.7 14.7 21.3 14.1C20.9 13.5 20.9 12.8 21.1 12.2C21.6 10.9 22.3 8.7 22.3 7.7ZM18.9582 6.67363C19.8333 5.18486 20.5297 4 21.7 4C23.3 4 24.3 5.6 24.4 7.7C24.4 9.5 23 12.9 23 12.9H25.5C27.4 12.9 28.8 14.6 28.4 16.5L26.7 24.5C26.4 25.9 25.2 26.9 23.8 26.9H11V12.9C12.4 12.4 16 10.9 17.6 8.8C18.1297 8.08341 18.5622 7.3474 18.9582 6.67363ZM7 11.8999H9V27.8999H7V11.8999Z" fill="black"/>
</svg>
