<svg width="36" height="36" viewBox="0 0 36 36" fill="none" xmlns="http://www.w3.org/2000/svg">
<path fill-rule="evenodd" clip-rule="evenodd" d="M30 23C30.5128 23 30.9355 23.386 30.9933 23.8834L31 24V29C31 30.0544 30.1841 30.9182 29.1493 30.9945L29 31H7C5.94564 31 5.08183 30.1841 5.00549 29.1493L5 29V24C5 23.4477 5.44772 23 6 23C6.51284 23 6.93551 23.386 6.99327 23.8834L7 24V29H29V24C29 23.4477 29.4477 23 30 23ZM18.0362 4.85693C18.549 4.85693 18.9717 5.24297 19.0295 5.74031L19.0362 5.85693L19.036 20.8319L22.9859 16.8834C23.3486 16.5208 23.9204 16.4949 24.3129 16.8057L24.4002 16.8834C24.7628 17.246 24.7887 17.8179 24.4779 18.2104L24.4002 18.2976L18.7433 23.9545C18.3807 24.3171 17.8088 24.343 17.4163 24.0322L17.3291 23.9545L11.6722 18.2976C11.2817 17.9071 11.2817 17.2739 11.6722 16.8834C12.0349 16.5208 12.6067 16.4949 12.9992 16.8057L13.0864 16.8834L17.036 20.8319L17.0362 5.85693C17.0362 5.30465 17.4839 4.85693 18.0362 4.85693Z" fill="black"/>
</svg>
