<svg width="36" height="36" viewBox="0 0 36 36" fill="none" xmlns="http://www.w3.org/2000/svg">
<path fill-rule="evenodd" clip-rule="evenodd" d="M14 19.2619V10C14 7.79072 15.7907 6 18 6C19.8632 6 21.4287 7.27362 21.8734 8.99782C22.0172 8.99782 22.5182 8.99782 22.9974 8.99782C23.5491 8.99782 23.9962 9.44503 23.9962 9.9967C23.9962 10.5484 23.549 10.9956 22.9973 10.9956H22V11.9996H22.9962C23.5485 11.9996 23.9962 12.4476 23.9962 12.9999C23.9962 13.5521 23.5485 14.0002 22.9962 14.0002H22V15H22.9962C23.5485 15 23.9962 15.4477 23.9962 16C23.9962 16.5523 23.5485 17 22.9962 17H22V19.2619C24.1669 20.7702 25.3384 23.3841 24.9132 26.1145C24.4396 29.1639 21.9123 31.5905 18.8423 31.9512C14.6408 32.4432 11 29.1826 11 25C11 22.7702 12.0547 20.7244 13.7808 19.4209L14 19.2619ZM18 8C16.8953 8 16 8.89528 16 10V19.81C16 20.1669 15.8098 20.4968 15.5009 20.6755C13.9645 21.5646 13 23.1975 13 25C13 27.9889 15.5999 30.3172 18.6093 29.9648C20.7881 29.7088 22.6014 27.9678 22.9369 25.8071C23.2651 23.7002 22.2773 21.7054 20.4988 20.6753C20.1901 20.4965 20 20.1668 20 19.81V10C20 8.89528 19.1047 8 18 8ZM18.1166 26.8241L18 26.8174C16.8953 26.8174 16 25.9221 16 24.8174C16 24.2651 15.5523 23.8174 15 23.8174C14.4477 23.8174 14 24.2651 14 24.8174C14 27.0267 15.7907 28.8174 18 28.8174C18.5523 28.8174 19 28.3697 19 27.8174C19 27.3046 18.614 26.8819 18.1166 26.8241Z" fill="black"/>
</svg>
