<svg width="36" height="36" viewBox="0 0 36 36" fill="none" xmlns="http://www.w3.org/2000/svg">
<path fill-rule="evenodd" clip-rule="evenodd" d="M11.5461 9.29686C14.2354 8.44369 17.0101 8.14017 19.8296 8.38822C22.1802 8.56878 24.3294 9.08756 26.2858 9.99076C27.4915 10.5452 28.3903 11.1444 29.1276 11.9757C29.7254 12.6569 30.0193 13.4653 29.9988 14.3788L29.9938 14.6921L29.9901 16.0498L29.979 16.6539C29.9 18.0335 28.8841 18.9933 27.4703 18.9933L27.4624 18.9933L27.6831 19.2918L27.7388 19.3757C28.5456 20.7342 29 22.5125 29 24.1733V27.0003C29 28.6566 27.6563 30.0003 26 30.0003H10C8.34372 30.0003 7 28.6566 7 27.0003V24.1733C7 22.4652 7.48616 20.7923 8.40149 19.3507L8.62786 18.9938L8.562 18.9933C7.11956 18.9933 6.10206 18.0339 6.02296 16.6274L6.018 16.4493L6.02715 15.1699C6.02639 15.0762 6.02483 14.9912 6.02231 14.9099L6.00411 14.5523C5.94752 13.3511 6.41825 12.35 7.34128 11.5085C8.24767 10.6866 9.32637 10.0883 10.6698 9.59523L11.0429 9.46327L11.5461 9.29686ZM24.7694 18.9982L25.0456 18.9967C25.078 19.1 25.1279 19.1998 25.1959 19.2918L26.0436 20.4385C26.6454 21.473 27 22.8779 27 24.1733V27.0003C27 27.552 26.5517 28.0003 26 28.0003H10C9.44829 28.0003 9 27.552 9 27.0003V24.1733C9 22.8449 9.3781 21.5438 10.0902 20.4223L10.8445 19.2328C10.8927 19.1569 10.9293 19.0769 10.9549 18.9949L11.467 18.9933L11.6416 18.9883C13.0212 18.9093 13.981 17.8934 13.981 16.4793L13.9738 14.7929L14.297 14.6861C14.3697 14.6638 14.4358 14.6454 14.4995 14.6294C15.9415 14.311 18.0199 14.2361 19.7374 14.4168L20.3402 14.4853C21.0126 14.5695 21.575 14.6692 22.0057 14.7901L21.9948 15.5097L21.9945 16.0868L22.0051 16.6356C22.0797 17.9885 23.0061 18.9136 24.3776 18.9884L24.7694 18.9982ZM11.3478 11.4769L11.6925 11.3548C14.2731 10.4664 16.9372 10.1415 19.6654 10.3814C21.8005 10.5455 23.719 11.0086 25.4489 11.8072C26.4254 12.2563 27.105 12.7093 27.6279 13.2988C27.8917 13.5995 28.0085 13.921 27.9993 14.3348L27.9929 14.7862L27.9892 16.1461L27.9842 16.4578C27.984 16.8475 27.8382 16.9933 27.47 16.9933L24.8786 16.9994L24.4792 16.9907C24.1439 16.9713 24.0222 16.8514 24.0028 16.5359L23.994 16.0101C23.9934 15.9161 23.9932 15.8207 23.9936 15.7208L24.0148 14.3638C24.015 13.7689 23.7236 13.3246 23.2033 13.0898C22.385 12.755 21.3364 12.5714 19.9448 12.4276C18.0266 12.2258 15.735 12.3083 14.0411 12.6829C13.8961 12.7189 13.7652 12.7563 13.6257 12.8005L12.887 13.0529L12.7535 13.1035C12.2396 13.3255 11.966 13.7798 11.966 14.3573L11.9791 15.4118L11.981 16.4793C11.981 16.8475 11.8352 16.9933 11.467 16.9933L9.29308 16.9995L8.57512 16.9934C8.20121 16.9933 8.04671 16.8728 8.02171 16.5517L8.02281 15.9037L8.02724 15.4738C8.02905 15.1772 8.02674 14.9587 8.01822 14.7498L8.00053 14.435C7.9751 13.8896 8.18292 13.4476 8.68672 12.9883C9.3749 12.3643 10.2336 11.8871 11.3478 11.4769ZM22 22C22 19.7907 20.2093 18 18 18C15.7907 18 14 19.7907 14 22C14 24.2093 15.7907 26 18 26C20.2093 26 22 24.2093 22 22ZM16 22C16 20.8953 16.8953 20 18 20C19.1047 20 20 20.8953 20 22C20 23.1047 19.1047 24 18 24C16.8953 24 16 23.1047 16 22Z" fill="black"/>
</svg>
