<svg width="36" height="36" viewBox="0 0 36 36" fill="none" xmlns="http://www.w3.org/2000/svg">
<path fill-rule="evenodd" clip-rule="evenodd" d="M16.5105 29.3264C15.6355 30.8151 14.9391 32 13.7687 32C12.1687 32 11.1687 30.4 11.0687 28.3C11.0687 26.5 12.4687 23.1 12.4687 23.1L9.96875 23.1C8.06875 23.1 6.66875 21.4 7.06875 19.5L8.76875 11.5C9.06875 10.1 10.2688 9.1 11.6688 9.1L24.4688 9.1V23.1C23.0688 23.6 19.4687 25.1 17.8687 27.2C17.3391 27.9166 16.9065 28.6526 16.5105 29.3264ZM13.1687 28.3C13.1687 29.2 13.4687 29.9 13.6687 30C13.8863 29.7825 14.1564 29.3021 14.4028 28.8638C14.4962 28.6976 14.5863 28.5375 14.6687 28.4C14.8873 28.094 15.1059 27.7497 15.3329 27.3923C15.625 26.9322 15.9311 26.4503 16.2687 26C17.7687 24 20.5687 22.5 22.4687 21.7L22.4688 11L11.5688 11C11.0688 11 10.6688 11.3 10.5688 11.8L8.86875 19.8C8.76875 20.2 8.96875 20.5 9.06875 20.6C9.16875 20.8 9.46875 21 9.86875 21L12.4687 21C13.1687 21 13.7687 21.3 14.1687 21.9C14.5687 22.5 14.5687 23.2 14.3687 23.8C13.8687 25.1 13.1687 27.3 13.1687 28.3Z" fill="black"/>
<path d="M28.4687 24.1001H26.4687L26.4688 8.1001L28.4688 8.1001L28.4687 24.1001Z" fill="black"/>
</svg>
