<svg width="36" height="36" viewBox="0 0 36 36" fill="none" xmlns="http://www.w3.org/2000/svg">
<path fill-rule="evenodd" clip-rule="evenodd" d="M15 9V7.708C15 7.15629 15.4483 6.708 16 6.708H20C20.5517 6.708 21 7.15629 21 7.708V9H23V7.708C23 6.05172 21.6563 4.708 20 4.708H16C14.3437 4.708 13 6.05172 13 7.708V9H15ZM26 13H27C27.5523 13 28 12.5523 28 12C28 11.4477 27.5523 11 27 11H25H11H9C8.44772 11 8 11.4477 8 12C8 12.5523 8.44772 13 9 13H10V28C10 29.6563 11.3437 31 13 31H23C24.6563 31 26 29.6563 26 28V13ZM24 13H12V28C12 28.5517 12.4483 29 13 29H23C23.5517 29 24 28.5517 24 28V13Z" fill="black"/>
</svg>
