<svg width="36" height="36" viewBox="0 0 36 36" fill="none" xmlns="http://www.w3.org/2000/svg">
<path fill-rule="evenodd" clip-rule="evenodd" d="M11 9H18V13H11C7.6864 13 5 15.686 5 19V23C5 23.5523 5.44772 24 6 24H11C11.5523 24 12 23.5523 12 23V20H18V27H17L16.8834 27.0067C16.386 27.0645 16 27.4872 16 28C16 28.5523 16.4477 29 17 29H19H28H30L30.1166 28.9933C30.614 28.9355 31 28.5128 31 28C31 27.4477 30.5523 27 30 27H29V12C29 9.23872 26.7613 7 24 7H20H19H11L10.8834 7.00673C10.386 7.06449 10 7.48716 10 8C10 8.55228 10.4477 9 11 9ZM27 27V12C27 10.4025 25.7509 9.09635 24.1763 9.00509L24 9H20V14C20 14.5523 19.5523 15 19 15H11C8.79091 15 7 16.7907 7 19V22H10V20C10 18.9451 10.816 18.0818 11.8507 18.0055L12 18H19C19.5523 18 20 18.4477 20 19V27H27Z" fill="black"/>
</svg>
