<svg width="36" height="36" viewBox="0 0 36 36" fill="none" xmlns="http://www.w3.org/2000/svg">
<path fill-rule="evenodd" clip-rule="evenodd" d="M10 12C10 9.23872 12.2387 7 15 7C17.7613 7 20 9.23872 20 12V13C20 15.6685 17.9043 17.8634 15.2241 17.9948L15 18C12.2387 18 10 15.7613 10 13V12ZM18 12C18 10.3433 16.6567 9 15 9C13.3433 9 12 10.3433 12 12V13C12 14.6567 13.3433 16 14.9755 16.0003L15.1505 15.9963C16.7423 15.9181 18 14.6008 18 13V12ZM11 20C7.68672 20 5 22.6867 5 26V27C5 28.6563 6.34372 30 8 30H22C23.6563 30 25 28.6563 25 27V26C25 22.6867 22.3133 20 19 20H11ZM23 26C23 23.7913 21.2087 22 19 22H11C8.79128 22 7 23.7913 7 26V27C7 27.5517 7.44828 28 8 28H22C22.5517 28 23 27.5517 23 27V26ZM27 8C27.5128 8 27.9355 8.38604 27.9933 8.88338L28 9V11H30C30.5523 11 31 11.4477 31 12C31 12.5128 30.614 12.9355 30.1166 12.9933L30 13H28V15C28 15.5523 27.5523 16 27 16C26.4872 16 26.0645 15.614 26.0067 15.1166L26 15V13H24C23.4477 13 23 12.5523 23 12C23 11.4872 23.386 11.0645 23.8834 11.0067L24 11H26V9C26 8.44772 26.4477 8 27 8Z" fill="black"/>
</svg>
