<svg width="36" height="36" viewBox="0 0 36 36" fill="none" xmlns="http://www.w3.org/2000/svg">
<path fill-rule="evenodd" clip-rule="evenodd" d="M28.8063 11.4218L26.685 13.5432L22.4423 9.30052L24.5637 7.1792L28.8063 11.4218ZM28.8701 15.7283L28.0992 14.9574L30.2205 12.8361C31.0016 12.055 31.0016 10.7887 30.2205 10.0076L25.9779 5.76499C25.1968 4.98394 23.9305 4.98394 23.1494 5.76499L21.0281 7.88631L20.3848 7.24298C19.6037 6.46193 18.3374 6.46193 17.5564 7.24298L7.65687 17.1425C4.53267 20.2667 4.53267 25.332 7.65687 28.4562C10.7811 31.5804 15.8464 31.5804 18.9706 28.4562L28.8701 18.5567C29.6511 17.7756 29.6511 16.5093 28.8701 15.7283ZM18.9706 8.65719L27.4559 17.1425L17.5564 27.042C15.2132 29.3851 11.4142 29.3851 9.07108 27.042C6.72793 24.6988 6.72793 20.8998 9.07108 18.5567L18.9706 8.65719ZM14.6642 24.1498C13.8832 24.9309 12.6168 24.9309 11.8358 24.1498C11.0547 23.3688 11.0547 22.1025 11.8358 21.3214C12.6168 20.5404 13.8832 20.5404 14.6642 21.3214C15.4453 22.1025 15.4453 23.3688 14.6642 24.1498ZM16.0784 25.564C14.5163 27.1261 11.9837 27.1261 10.4216 25.564C8.85947 24.0019 8.85947 21.4693 10.4216 19.9072C11.9837 18.3451 14.5163 18.3451 16.0784 19.9072C17.6405 21.4693 17.6405 24.0019 16.0784 25.564ZM22.506 17.8493C22.8965 18.2399 23.5297 18.2399 23.9202 17.8493C24.3108 17.4588 24.3108 16.8257 23.9202 16.4351L19.6776 12.1925C19.2871 11.802 18.6539 11.802 18.2634 12.1925C17.8729 12.583 17.8729 13.2162 18.2634 13.6067L22.506 17.8493Z" fill="black"/>
</svg>
