<svg width="36" height="36" viewBox="0 0 36 36" fill="none" xmlns="http://www.w3.org/2000/svg">
<path fill-rule="evenodd" clip-rule="evenodd" d="M6 19C6 12.7095 10.8406 7.54925 17 7.04108V6C17 5.44772 17.4477 5 18 5C18.5523 5 19 5.44772 19 6V7.04108C25.1594 7.54925 30 12.7095 30 19C30 19.5523 29.5523 20 29 20H19.0135L19 29C19 30.6563 17.6563 32 16 32C14.3437 32 13 30.6563 13 29C13 28.4477 13.4477 28 14 28C14.5523 28 15 28.4477 15 29L15.0067 29.1165C15.0646 29.6135 15.4877 30 16 30C16.5517 30 17 29.5517 17 29L17.0135 20H7C6.44772 20 6 19.5523 6 19ZM27.9195 17.8085C27.2935 12.8876 23.0909 9.083 18 9.083C12.8148 9.083 8.55113 13.0298 8.04938 18.083H27.9506L27.9195 17.8085ZM18.8657 12.8525C21.0566 12.8525 22.7557 14.2178 22.7557 15.7815C22.7557 16.3338 23.2034 16.7815 23.7557 16.7815C24.308 16.7815 24.7557 16.3338 24.7557 15.7815C24.7557 13.0051 22.0767 10.8525 18.8657 10.8525C18.3134 10.8525 17.8657 11.3002 17.8657 11.8525C17.8657 12.4048 18.3134 12.8525 18.8657 12.8525Z" fill="black"/>
</svg>
