<svg width="36" height="36" viewBox="0 0 36 36" fill="none" xmlns="http://www.w3.org/2000/svg">
<path fill-rule="evenodd" clip-rule="evenodd" d="M22.71 8C22.71 6.34372 21.3663 5 19.71 5H17.71C16.0537 5 14.71 6.34372 14.71 8V12C14.71 12.5523 15.1577 13 15.71 13H21.71C22.2623 13 22.71 12.5523 22.71 12V8ZM15.1281 14H21.8721C25.5728 14 28.4379 17.1914 27.9449 20.7964L26.6689 30.1354C26.6012 30.6307 26.1781 31 25.6781 31H11.3221C10.8221 31 10.399 30.6307 10.3313 30.1354L9.05533 20.7965C8.5623 17.1914 11.4274 14 15.1281 14ZM25.9633 20.5255C26.2903 18.1349 24.3737 16 21.8721 16H15.1281C12.6266 16 10.7099 18.1349 11.0369 20.5256L12.1948 29H24.8054L25.9633 20.5255ZM20.71 11V8C20.71 7.44828 20.2617 7 19.71 7H17.71C17.1583 7 16.71 7.44828 16.71 8V11H20.71ZM16.0003 18H20.6943C21.2466 18 21.6943 18.4477 21.6943 19C21.6943 19.5523 21.2466 20 20.6943 20H16.0003C15.3918 20 14.9243 20.5391 15.0103 21.1416L15.6843 25.8585C15.7624 26.4053 15.3825 26.9118 14.8358 26.9899C14.289 27.0681 13.7825 26.6882 13.7044 26.1415L13.0303 21.4243C12.7724 19.617 14.1748 18 16.0003 18Z" fill="black"/>
</svg>
