<svg width="36" height="36" viewBox="0 0 36 36" fill="none" xmlns="http://www.w3.org/2000/svg">
<path fill-rule="evenodd" clip-rule="evenodd" d="M26 5H10C8.34372 5 7 6.34372 7 8V28C7 29.6563 8.34372 31 10 31H26C27.6563 31 29 29.6563 29 28V8C29 6.34372 27.6563 5 26 5ZM10 7H26C26.5517 7 27 7.44828 27 8V28C27 28.5517 26.5517 29 26 29H10C9.44828 29 9 28.5517 9 28V8C9 7.44828 9.44828 7 10 7ZM15.8 14.9525C15.8 14.8962 15.8299 14.8446 15.8865 14.8147C15.9128 14.8008 15.9323 14.7996 15.9392 14.8001C15.9415 14.8001 15.9472 14.8003 15.961 14.8115L16.0066 14.8485L21.2381 17.9546L21.2898 17.9763C21.3017 17.9812 21.3066 17.9852 21.3076 17.986L21.3086 17.987C21.3086 17.9871 21.3111 17.9914 21.3111 18C21.3111 18.0085 21.3086 18.0129 21.3085 18.013L21.3076 18.0139C21.3066 18.0147 21.3017 18.0187 21.2898 18.0237L21.2381 18.0453L16.0066 21.1514L15.961 21.1884C15.9472 21.1996 15.9411 21.1998 15.9387 21.1999C15.9318 21.2003 15.9128 21.1991 15.8865 21.1852C15.8299 21.1554 15.8 21.1037 15.8 21.0474V14.9525ZM15.1394 13.3998C15.6589 13.1255 16.3503 13.103 16.9167 13.5282L21.9654 16.5257C23.2264 17.1062 23.2264 18.8937 21.9654 19.4742L16.9167 22.4718C16.3503 22.8969 15.6589 22.8744 15.1394 22.6001C14.6097 22.3204 14.2 21.753 14.2 21.0474V14.9525C14.2 14.2469 14.6097 13.6795 15.1394 13.3998Z" fill="black"/>
</svg>
