<svg width="36" height="36" viewBox="0 0 36 36" fill="none" xmlns="http://www.w3.org/2000/svg">
<path fill-rule="evenodd" clip-rule="evenodd" d="M21 7.99561C22.6563 7.99561 24 9.33932 24 10.9956V24.9956C24 26.6519 22.6563 27.9956 21 27.9956H15C13.3437 27.9956 12 26.6519 12 24.9956V10.9956C12 9.33932 13.3437 7.99561 15 7.99561H21ZM21 9.99561H20.0029C20.0029 10.5479 19.5552 10.9956 19.0029 10.9956H17C16.4477 10.9956 16 10.5479 16 9.99561H15C14.4483 9.99561 14 10.4439 14 10.9956V24.9956C14 25.5473 14.4483 25.9956 15 25.9956H21C21.5517 25.9956 22 25.5473 22 24.9956V10.9956C22 10.4439 21.5517 9.99561 21 9.99561ZM17.5 24.5H18.5C19.0523 24.5 19.5 24.0523 19.5 23.5C19.5 22.9477 19.0523 22.5 18.5 22.5H17.5C16.9477 22.5 16.5 22.9477 16.5 23.5C16.5 24.0523 16.9477 24.5 17.5 24.5ZM30.5611 22.0566C31.1463 21.4684 31.1463 20.5206 30.5611 19.9354L28.6217 17.996L30.5611 16.0566C31.1463 15.4684 31.1463 14.5206 30.5611 13.9354L28.6216 11.9959L29.5004 11.1163C29.8908 10.7256 29.8905 10.0925 29.4998 9.70211C29.1091 9.31175 28.476 9.312 28.0856 9.70269L26.8536 10.9357C26.2671 11.5192 26.2671 12.4698 26.8539 13.0566L28.7933 14.996L26.8539 16.9354C26.2671 17.5192 26.2671 18.4698 26.8539 19.0566L28.7933 20.996L26.8539 22.9354C26.2671 23.5192 26.2671 24.4698 26.8539 25.0566L28.0859 26.2886C28.4764 26.6791 29.1096 26.6791 29.5001 26.2886C29.8906 25.8981 29.8906 25.2649 29.5001 24.8744L28.6217 23.996L30.5611 22.0566ZM5.43889 13.9346C4.85366 14.5228 4.85366 15.4706 5.43889 16.0558L7.37828 17.9952L5.43889 19.9346C4.85366 20.5228 4.85366 21.4706 5.43889 22.0558L7.37843 23.9954L6.4996 24.8749C6.10923 25.2656 6.10949 25.8987 6.50017 26.2891C6.89086 26.6795 7.52402 26.6792 7.91439 26.2885L9.14639 25.0555C9.73293 24.472 9.73293 23.5214 9.1461 22.9346L7.20671 20.9952L9.1461 19.0558C9.73293 18.472 9.73293 17.5214 9.1461 16.9346L7.20671 14.9952L9.1461 13.0558C9.73293 12.472 9.73293 11.5214 9.1461 10.9346L7.9141 9.7026C7.52358 9.31207 6.89041 9.31207 6.49989 9.7026C6.10936 10.0931 6.10936 10.7263 6.49989 11.1168L7.37828 11.9952L5.43889 13.9346Z" fill="black"/>
</svg>
