<svg width="36" height="36" viewBox="0 0 36 36" fill="none" xmlns="http://www.w3.org/2000/svg">
<path fill-rule="evenodd" clip-rule="evenodd" d="M17 13V14.5H14.996L14.99 12.996C14.9878 12.4453 14.5407 12 13.99 12C9.88382 12 6.67366 14.9967 6.09371 19H4.56351C4.01122 19 3.56351 19.4477 3.56351 20C3.56351 20.5523 4.01122 21 4.56351 21H6.02569C6.3487 25.3083 9.68335 28.621 14 28.621C18.6362 28.621 22.621 24.8574 22.621 20.311L22.6199 20.1861L32.2244 17.9745C32.6784 17.87 33 17.4658 33 17V13C33 12.4477 32.5523 12 32 12H18C17.4477 12 17 12.4477 17 13ZM31 14H19V15.5C19 16.0523 18.5523 16.5 18 16.5H14C13.4493 16.5 13.0022 16.0547 13 15.504L12.9943 14.0804C10.0901 14.5571 8.00001 17.1028 8.00001 20.311C8.00001 23.8716 10.5884 26.621 14 26.621C17.5564 26.621 20.621 23.7265 20.621 20.311C20.621 20.0724 20.6031 19.821 20.5672 19.5239C20.5059 19.0163 20.8374 18.5442 21.3356 18.4295L31 16.2041V14ZM14.6166 23.0067L14.5 23C12.8632 23 11.5 21.6356 11.5 20C11.5 19.4477 11.0523 19 10.5 19C9.94772 19 9.50001 19.4477 9.50001 20C9.50001 22.7398 11.7582 25 14.5 25C15.0523 25 15.5 24.5523 15.5 24C15.5 23.4872 15.114 23.0645 14.6166 23.0067Z" fill="black"/>
</svg>
