<svg width="36" height="36" viewBox="0 0 36 36" fill="none" xmlns="http://www.w3.org/2000/svg">
<path fill-rule="evenodd" clip-rule="evenodd" d="M18.6358 7.14819C20.652 5.80068 23.2904 5.63123 25.5074 6.6792C26.1329 6.97488 26.2763 7.80116 25.7871 8.29039L23.1251 10.9524C22.7346 11.3429 22.7346 11.9757 23.1251 12.3662C23.5157 12.7567 24.1489 12.7567 24.5399 12.3662L27.2099 9.69617C27.6981 9.20803 28.5223 9.3496 28.8195 9.97265C30.0869 12.6288 29.5684 15.8231 27.4561 17.9354C25.8133 19.5782 23.5037 20.2697 21.2767 19.8718L13.3131 27.8354C11.5411 29.6074 8.58977 29.342 7.15623 27.2283C6.08091 25.6418 6.35867 23.4767 7.73491 22.0992L15.6193 14.2148C15.1696 11.7055 16.1052 9.12377 18.1794 7.48124L18.406 7.30889L18.6358 7.14819ZM23.198 8.0511L22.9442 8.02124C21.7579 7.91155 20.5525 8.21699 19.5863 8.9235L19.3986 9.06706C17.8123 10.3379 17.1706 12.3643 17.6803 14.2767C17.7722 14.6215 17.6734 14.9891 17.4211 15.2414L9.14947 23.513C8.43249 24.2307 8.29054 25.3371 8.81163 26.106C9.53749 27.1762 11.0113 27.3088 11.8989 26.4212L20.2499 18.0702C20.5022 17.8179 20.8697 17.7192 21.2144 17.811C22.9312 18.2683 24.767 17.7961 26.0419 16.5212C27.1801 15.383 27.6701 13.8041 27.4525 12.282L25.9537 13.7808C24.7812 14.9518 22.8824 14.9518 21.7109 13.7804C20.5394 12.6089 20.5394 10.7097 21.7109 9.53817L23.198 8.0511Z" fill="black"/>
</svg>
