<svg width="36" height="36" viewBox="0 0 36 36" fill="none" xmlns="http://www.w3.org/2000/svg">
<path fill-rule="evenodd" clip-rule="evenodd" d="M11.0581 9V15.6371L7.12023 12.2316C6.72399 11.8889 6.13044 11.9101 5.75966 12.2802L3.63566 14.4002C3.25573 14.7794 3.24298 15.391 3.60677 15.7857L11.0581 23.8705V26C11.0581 27.6563 12.4018 29 14.0581 29H24.0581C25.7144 29 27.0581 27.6563 27.0581 26V23.1121C30.4955 22.6559 32.7157 19.4644 32.7976 15.6052C32.8875 11.3686 30.3656 8 26.2002 8C26.1763 8 26.1526 8.00084 26.1292 8.00249C26.1057 8.00084 26.082 8 26.0581 8H12.0581C11.5058 8 11.0581 8.44772 11.0581 9ZM27.0581 10.0725V21.0818C29.2723 20.6248 30.7379 18.3991 30.7981 15.5628C30.8593 12.6768 29.4504 10.4905 27.0581 10.0725ZM25.0581 10H13.0581V17.824C13.0581 18.6804 12.0518 19.1406 11.404 18.5804L6.51485 14.3522L5.72869 15.1369L12.7934 22.8023C12.9636 22.9869 13.0581 23.2289 13.0581 23.48V26C13.0581 26.5517 13.5064 27 14.0581 27H24.0581C24.6098 27 25.0581 26.5517 25.0581 26V10ZM18.0518 13C18.6041 13 19.0518 12.5523 19.0518 12C19.0518 11.4477 18.6041 11 18.0518 11H14.9998C14.4475 11 13.9998 11.4477 13.9998 12V15.518C13.9998 16.0703 14.4475 16.518 14.9998 16.518C15.5521 16.518 15.9998 16.0703 15.9998 15.518V13H18.0518Z" fill="black"/>
</svg>
