<svg width="36" height="36" viewBox="0 0 36 36" fill="none" xmlns="http://www.w3.org/2000/svg">
<path fill-rule="evenodd" clip-rule="evenodd" d="M13.434 6.70711C19.5225 12.7956 19.5225 23.2044 13.434 29.2929C13.0435 29.6834 13.0435 30.3166 13.434 30.7071C13.8245 31.0976 14.4577 31.0976 14.8482 30.7071C21.7177 23.8376 21.7177 12.1624 14.8482 5.29289C14.4577 4.90237 13.8245 4.90237 13.434 5.29289C13.0435 5.68342 13.0435 6.31658 13.434 6.70711ZM9.42176 10.6947C13.0475 14.4492 13.0475 20.5508 9.42176 24.3053C9.0381 24.7026 9.04914 25.3357 9.44642 25.7193C9.84369 26.103 10.4768 26.0919 10.8604 25.6947C15.2346 21.1652 15.2346 13.8348 10.8604 9.30533C10.4768 8.90806 9.84369 8.89702 9.44642 9.28067C9.04914 9.66433 9.0381 10.2974 9.42176 10.6947ZM5.36192 20.3732C6.40048 19.0822 6.40048 16.9178 5.36192 15.6268C5.01574 15.1965 5.08395 14.567 5.51427 14.2208C5.9446 13.8747 6.57408 13.9429 6.92026 14.3732C8.5477 16.3962 8.5477 19.6038 6.92026 21.6268C6.57408 22.0571 5.9446 22.1253 5.51427 21.7792C5.08395 21.433 5.01574 20.8035 5.36192 20.3732ZM28.2423 17.8286L30.5352 15.5357C30.9257 15.1452 30.9257 14.512 30.5352 14.1215C30.1447 13.731 29.5115 13.731 29.121 14.1215L26.8281 16.4144L24.5352 14.1215C24.1447 13.731 23.5115 13.731 23.121 14.1215C22.7305 14.512 22.7305 15.1452 23.121 15.5357L25.4139 17.8286L23.121 20.1215C22.7305 20.512 22.7305 21.1452 23.121 21.5357C23.5115 21.9262 24.1447 21.9262 24.5352 21.5357L26.8281 19.2428L29.121 21.5357C29.5115 21.9262 30.1447 21.9262 30.5352 21.5357C30.9257 21.1452 30.9257 20.512 30.5352 20.1215L28.2423 17.8286Z" fill="black"/>
</svg>
