<svg width="36" height="36" viewBox="0 0 36 36" fill="none" xmlns="http://www.w3.org/2000/svg">
<path fill-rule="evenodd" clip-rule="evenodd" d="M28 10C28 9.44772 27.5523 9 27 9H8L7.82378 9.00509C6.24945 9.09638 5 10.4029 5 12V26L5.00509 26.1762C5.09638 27.7506 6.40287 29 8 29H29L29.1166 28.9933C29.614 28.9355 30 28.5128 30 28V14L29.9933 13.8834C29.9355 13.386 29.5128 13 29 13H7V12L7.00674 11.8835C7.06457 11.3865 7.48769 11 8 11H27L27.1166 10.9933C27.614 10.9355 28 10.5128 28 10ZM28 15V27H8L7.88348 26.9933C7.38653 26.9354 7 26.5123 7 26V15H28ZM23 22V24H13V22H23ZM25 20V18H11V20H25Z" fill="black"/>
</svg>
