<svg width="36" height="36" viewBox="0 0 36 36" fill="none" xmlns="http://www.w3.org/2000/svg">
<path fill-rule="evenodd" clip-rule="evenodd" d="M18.3034 6.71713C24.566 12.8034 24.566 23.1966 18.3034 29.2829C17.9074 29.6678 17.8983 30.3009 18.2832 30.6969C18.6681 31.093 19.3012 31.102 19.6973 30.7171C26.768 23.8454 26.768 12.1546 19.6973 5.28287C19.3012 4.89796 18.6681 4.907 18.2832 5.30306C17.8983 5.69912 17.9074 6.33222 18.3034 6.71713ZM14.2807 10.6947C17.9064 14.4492 17.9064 20.5508 14.2807 24.3053C13.897 24.7026 13.9081 25.3357 14.3053 25.7193C14.7026 26.103 15.3357 26.0919 15.7193 25.6947C20.0936 21.1652 20.0936 13.8348 15.7193 9.30533C15.3357 8.90806 14.7026 8.89702 14.3053 9.28067C13.9081 9.66433 13.897 10.2974 14.2807 10.6947ZM10.221 15.6268C11.2595 16.9178 11.2595 19.0822 10.221 20.3732C9.87478 20.8035 9.94299 21.433 10.3733 21.7792C10.8036 22.1253 11.4331 22.0571 11.7793 21.6268C13.4067 19.6038 13.4067 16.3962 11.7793 14.3732C11.4331 13.9429 10.8036 13.8747 10.3733 14.2208C9.94299 14.567 9.87478 15.1965 10.221 15.6268Z" fill="black"/>
</svg>
