<svg width="36" height="36" viewBox="0 0 36 36" fill="none" xmlns="http://www.w3.org/2000/svg">
<path fill-rule="evenodd" clip-rule="evenodd" d="M9 12V11C9 10.4483 9.44828 10 10 10H27C27.5523 10 28 9.55228 28 9C28 8.44772 27.5523 8 27 8H10C8.34372 8 7 9.34372 7 11V25C7 26.6563 8.34372 28 10 28H27C28.6563 28 30 26.6563 30 25V15C30 13.3437 28.6563 12 27 12H9ZM9 14H27C27.5517 14 28 14.4483 28 15V25C28 25.5517 27.5517 26 27 26H10C9.44828 26 9 25.5517 9 25V14ZM25.9575 20.0215C25.9575 20.5625 25.5195 21.0005 24.9785 21.0005C24.4375 21.0005 23.9995 20.5625 23.9995 20.0215C23.9995 19.4805 24.4375 19.0425 24.9785 19.0425C25.5195 19.0425 25.9575 19.4805 25.9575 20.0215Z" fill="black"/>
</svg>
