<svg width="36" height="36" viewBox="0 0 36 36" fill="none" xmlns="http://www.w3.org/2000/svg">
<path fill-rule="evenodd" clip-rule="evenodd" d="M21 7C21 5.34372 19.6563 4 18 4C16.3437 4 15 5.34372 15 7C15 8.65628 16.3437 10 18 10C19.6563 10 21 8.65628 21 7ZM8.15775 21L17.0006 29.4289L17.0002 29.4464L17 29.4644V31.0004C17 31.5527 17.4477 32.0004 18 32.0004C18.5523 32.0004 19 31.5527 19 31.0004V29.4644C19 29.448 18.9996 29.4316 18.9988 29.4154L27.4142 21H29C29.5523 21 30 20.5523 30 20C30 19.4477 29.5523 19 29 19H28.0777C27.0107 14.3541 22.86 10.9784 18.0002 10.9784C13.1404 10.9784 8.98972 14.3541 7.92269 19H7C6.44772 19 6 19.4477 6 20C6 20.5523 6.44772 21 7 21H8.15775ZM17.9833 27.6025L24.5858 21H18C17.4477 21 17 20.5523 17 20C17 19.4477 17.4477 19 18 19H26.0124C24.997 15.4865 21.7614 12.9784 18.0002 12.9784C14.239 12.9784 11.0034 15.4865 9.98798 19H12.0541C12.6064 19 13.0541 19.4477 13.0541 20C13.0541 20.5523 12.6064 21 12.0541 21H11.0565L17.9833 27.6025ZM18 6C17.4483 6 17 6.44828 17 7C17 7.55172 17.4483 8 18 8C18.5517 8 19 7.55172 19 7C19 6.44828 18.5517 6 18 6Z" fill="black"/>
</svg>
